<?xml version="1.0" encoding="utf-8" standalone="no"?>
<!DOCTYPE svg PUBLIC "-//W3C//DTD SVG 1.1//EN"
  "http://www.w3.org/Graphics/SVG/1.1/DTD/svg11.dtd">
<svg xmlns:xlink="http://www.w3.org/1999/xlink" width="723.764375pt" height="396.317344pt" viewBox="0 0 723.764375 396.317344" xmlns="http://www.w3.org/2000/svg" version="1.1">
 <metadata>
  <rdf:RDF xmlns:dc="http://purl.org/dc/elements/1.1/" xmlns:cc="http://creativecommons.org/ns#" xmlns:rdf="http://www.w3.org/1999/02/22-rdf-syntax-ns#">
   <cc:Work>
    <dc:type rdf:resource="http://purl.org/dc/dcmitype/StillImage"/>
    <dc:date>2024-12-12T23:44:36.919275</dc:date>
    <dc:format>image/svg+xml</dc:format>
    <dc:creator>
     <cc:Agent>
      <dc:title>Matplotlib v3.9.2, https://matplotlib.org/</dc:title>
     </cc:Agent>
    </dc:creator>
   </cc:Work>
  </rdf:RDF>
 </metadata>
 <defs>
  <style type="text/css">*{stroke-linejoin: round; stroke-linecap: butt}</style>
 </defs>
 <g id="figure_1">
  <g id="patch_1">
   <path d="M 0 396.317344 
L 723.764375 396.317344 
L 723.764375 0 
L 0 0 
z
" style="fill: #ffffff"/>
  </g>
  <g id="axes_1">
   <g id="patch_2">
    <path d="M 46.964375 354.583125 
L 716.564375 354.583125 
L 716.564375 21.943125 
L 46.964375 21.943125 
z
" style="fill: #ffffff"/>
   </g>
   <g id="matplotlib.axis_1">
    <g id="xtick_1">
     <g id="line2d_1">
      <path d="M 77.400739 354.583125 
L 77.400739 21.943125 
" clip-path="url(#pc3a5c0f315)" style="fill: none; stroke: #cccccc; stroke-linecap: round"/>
     </g>
     <g id="text_1">
      <!-- 0 -->
      <g style="fill: #262626" transform="translate(74.342223 371.956719) scale(0.11 -0.11)">
       <defs>
        <path id="ArialMT-30" d="M 266 2259 
Q 266 3072 433 3567 
Q 600 4063 929 4331 
Q 1259 4600 1759 4600 
Q 2128 4600 2406 4451 
Q 2684 4303 2865 4023 
Q 3047 3744 3150 3342 
Q 3253 2941 3253 2259 
Q 3253 1453 3087 958 
Q 2922 463 2592 192 
Q 2263 -78 1759 -78 
Q 1097 -78 719 397 
Q 266 969 266 2259 
z
M 844 2259 
Q 844 1131 1108 757 
Q 1372 384 1759 384 
Q 2147 384 2411 759 
Q 2675 1134 2675 2259 
Q 2675 3391 2411 3762 
Q 2147 4134 1753 4134 
Q 1366 4134 1134 3806 
Q 844 3388 844 2259 
z
" transform="scale(0.015625)"/>
       </defs>
       <use xlink:href="#ArialMT-30"/>
      </g>
     </g>
    </g>
    <g id="xtick_2">
     <g id="line2d_2">
      <path d="M 199.146193 354.583125 
L 199.146193 21.943125 
" clip-path="url(#pc3a5c0f315)" style="fill: none; stroke: #cccccc; stroke-linecap: round"/>
     </g>
     <g id="text_2">
      <!-- 5000 -->
      <g style="fill: #262626" transform="translate(186.912131 371.956719) scale(0.11 -0.11)">
       <defs>
        <path id="ArialMT-35" d="M 266 1200 
L 856 1250 
Q 922 819 1161 601 
Q 1400 384 1738 384 
Q 2144 384 2425 690 
Q 2706 997 2706 1503 
Q 2706 1984 2436 2262 
Q 2166 2541 1728 2541 
Q 1456 2541 1237 2417 
Q 1019 2294 894 2097 
L 366 2166 
L 809 4519 
L 3088 4519 
L 3088 3981 
L 1259 3981 
L 1013 2750 
Q 1425 3038 1878 3038 
Q 2478 3038 2890 2622 
Q 3303 2206 3303 1553 
Q 3303 931 2941 478 
Q 2500 -78 1738 -78 
Q 1113 -78 717 272 
Q 322 622 266 1200 
z
" transform="scale(0.015625)"/>
       </defs>
       <use xlink:href="#ArialMT-35"/>
       <use xlink:href="#ArialMT-30" x="55.615234"/>
       <use xlink:href="#ArialMT-30" x="111.230469"/>
       <use xlink:href="#ArialMT-30" x="166.845703"/>
      </g>
     </g>
    </g>
    <g id="xtick_3">
     <g id="line2d_3">
      <path d="M 320.891648 354.583125 
L 320.891648 21.943125 
" clip-path="url(#pc3a5c0f315)" style="fill: none; stroke: #cccccc; stroke-linecap: round"/>
     </g>
     <g id="text_3">
      <!-- 10000 -->
      <g style="fill: #262626" transform="translate(305.59907 371.956719) scale(0.11 -0.11)">
       <defs>
        <path id="ArialMT-31" d="M 2384 0 
L 1822 0 
L 1822 3584 
Q 1619 3391 1289 3197 
Q 959 3003 697 2906 
L 697 3450 
Q 1169 3672 1522 3987 
Q 1875 4303 2022 4600 
L 2384 4600 
L 2384 0 
z
" transform="scale(0.015625)"/>
       </defs>
       <use xlink:href="#ArialMT-31"/>
       <use xlink:href="#ArialMT-30" x="55.615234"/>
       <use xlink:href="#ArialMT-30" x="111.230469"/>
       <use xlink:href="#ArialMT-30" x="166.845703"/>
       <use xlink:href="#ArialMT-30" x="222.460938"/>
      </g>
     </g>
    </g>
    <g id="xtick_4">
     <g id="line2d_4">
      <path d="M 442.637102 354.583125 
L 442.637102 21.943125 
" clip-path="url(#pc3a5c0f315)" style="fill: none; stroke: #cccccc; stroke-linecap: round"/>
     </g>
     <g id="text_4">
      <!-- 15000 -->
      <g style="fill: #262626" transform="translate(427.344524 371.956719) scale(0.11 -0.11)">
       <use xlink:href="#ArialMT-31"/>
       <use xlink:href="#ArialMT-35" x="55.615234"/>
       <use xlink:href="#ArialMT-30" x="111.230469"/>
       <use xlink:href="#ArialMT-30" x="166.845703"/>
       <use xlink:href="#ArialMT-30" x="222.460938"/>
      </g>
     </g>
    </g>
    <g id="xtick_5">
     <g id="line2d_5">
      <path d="M 564.382557 354.583125 
L 564.382557 21.943125 
" clip-path="url(#pc3a5c0f315)" style="fill: none; stroke: #cccccc; stroke-linecap: round"/>
     </g>
     <g id="text_5">
      <!-- 20000 -->
      <g style="fill: #262626" transform="translate(549.089979 371.956719) scale(0.11 -0.11)">
       <defs>
        <path id="ArialMT-32" d="M 3222 541 
L 3222 0 
L 194 0 
Q 188 203 259 391 
Q 375 700 629 1000 
Q 884 1300 1366 1694 
Q 2113 2306 2375 2664 
Q 2638 3022 2638 3341 
Q 2638 3675 2398 3904 
Q 2159 4134 1775 4134 
Q 1369 4134 1125 3890 
Q 881 3647 878 3216 
L 300 3275 
Q 359 3922 746 4261 
Q 1134 4600 1788 4600 
Q 2447 4600 2831 4234 
Q 3216 3869 3216 3328 
Q 3216 3053 3103 2787 
Q 2991 2522 2730 2228 
Q 2469 1934 1863 1422 
Q 1356 997 1212 845 
Q 1069 694 975 541 
L 3222 541 
z
" transform="scale(0.015625)"/>
       </defs>
       <use xlink:href="#ArialMT-32"/>
       <use xlink:href="#ArialMT-30" x="55.615234"/>
       <use xlink:href="#ArialMT-30" x="111.230469"/>
       <use xlink:href="#ArialMT-30" x="166.845703"/>
       <use xlink:href="#ArialMT-30" x="222.460938"/>
      </g>
     </g>
    </g>
    <g id="xtick_6">
     <g id="line2d_6">
      <path d="M 686.128011 354.583125 
L 686.128011 21.943125 
" clip-path="url(#pc3a5c0f315)" style="fill: none; stroke: #cccccc; stroke-linecap: round"/>
     </g>
     <g id="text_6">
      <!-- 25000 -->
      <g style="fill: #262626" transform="translate(670.835433 371.956719) scale(0.11 -0.11)">
       <use xlink:href="#ArialMT-32"/>
       <use xlink:href="#ArialMT-35" x="55.615234"/>
       <use xlink:href="#ArialMT-30" x="111.230469"/>
       <use xlink:href="#ArialMT-30" x="166.845703"/>
       <use xlink:href="#ArialMT-30" x="222.460938"/>
      </g>
     </g>
    </g>
    <g id="text_7">
     <!-- Iteration -->
     <g style="fill: #262626" transform="translate(360.086563 386.732344) scale(0.12 -0.12)">
      <defs>
       <path id="ArialMT-49" d="M 597 0 
L 597 4581 
L 1203 4581 
L 1203 0 
L 597 0 
z
" transform="scale(0.015625)"/>
       <path id="ArialMT-74" d="M 1650 503 
L 1731 6 
Q 1494 -44 1306 -44 
Q 1000 -44 831 53 
Q 663 150 594 308 
Q 525 466 525 972 
L 525 2881 
L 113 2881 
L 113 3319 
L 525 3319 
L 525 4141 
L 1084 4478 
L 1084 3319 
L 1650 3319 
L 1650 2881 
L 1084 2881 
L 1084 941 
Q 1084 700 1114 631 
Q 1144 563 1211 522 
Q 1278 481 1403 481 
Q 1497 481 1650 503 
z
" transform="scale(0.015625)"/>
       <path id="ArialMT-65" d="M 2694 1069 
L 3275 997 
Q 3138 488 2766 206 
Q 2394 -75 1816 -75 
Q 1088 -75 661 373 
Q 234 822 234 1631 
Q 234 2469 665 2931 
Q 1097 3394 1784 3394 
Q 2450 3394 2872 2941 
Q 3294 2488 3294 1666 
Q 3294 1616 3291 1516 
L 816 1516 
Q 847 969 1125 678 
Q 1403 388 1819 388 
Q 2128 388 2347 550 
Q 2566 713 2694 1069 
z
M 847 1978 
L 2700 1978 
Q 2663 2397 2488 2606 
Q 2219 2931 1791 2931 
Q 1403 2931 1139 2672 
Q 875 2413 847 1978 
z
" transform="scale(0.015625)"/>
       <path id="ArialMT-72" d="M 416 0 
L 416 3319 
L 922 3319 
L 922 2816 
Q 1116 3169 1280 3281 
Q 1444 3394 1641 3394 
Q 1925 3394 2219 3213 
L 2025 2691 
Q 1819 2813 1613 2813 
Q 1428 2813 1281 2702 
Q 1134 2591 1072 2394 
Q 978 2094 978 1738 
L 978 0 
L 416 0 
z
" transform="scale(0.015625)"/>
       <path id="ArialMT-61" d="M 2588 409 
Q 2275 144 1986 34 
Q 1697 -75 1366 -75 
Q 819 -75 525 192 
Q 231 459 231 875 
Q 231 1119 342 1320 
Q 453 1522 633 1644 
Q 813 1766 1038 1828 
Q 1203 1872 1538 1913 
Q 2219 1994 2541 2106 
Q 2544 2222 2544 2253 
Q 2544 2597 2384 2738 
Q 2169 2928 1744 2928 
Q 1347 2928 1158 2789 
Q 969 2650 878 2297 
L 328 2372 
Q 403 2725 575 2942 
Q 747 3159 1072 3276 
Q 1397 3394 1825 3394 
Q 2250 3394 2515 3294 
Q 2781 3194 2906 3042 
Q 3031 2891 3081 2659 
Q 3109 2516 3109 2141 
L 3109 1391 
Q 3109 606 3145 398 
Q 3181 191 3288 0 
L 2700 0 
Q 2613 175 2588 409 
z
M 2541 1666 
Q 2234 1541 1622 1453 
Q 1275 1403 1131 1340 
Q 988 1278 909 1158 
Q 831 1038 831 891 
Q 831 666 1001 516 
Q 1172 366 1500 366 
Q 1825 366 2078 508 
Q 2331 650 2450 897 
Q 2541 1088 2541 1459 
L 2541 1666 
z
" transform="scale(0.015625)"/>
       <path id="ArialMT-69" d="M 425 3934 
L 425 4581 
L 988 4581 
L 988 3934 
L 425 3934 
z
M 425 0 
L 425 3319 
L 988 3319 
L 988 0 
L 425 0 
z
" transform="scale(0.015625)"/>
       <path id="ArialMT-6f" d="M 213 1659 
Q 213 2581 725 3025 
Q 1153 3394 1769 3394 
Q 2453 3394 2887 2945 
Q 3322 2497 3322 1706 
Q 3322 1066 3130 698 
Q 2938 331 2570 128 
Q 2203 -75 1769 -75 
Q 1072 -75 642 372 
Q 213 819 213 1659 
z
M 791 1659 
Q 791 1022 1069 705 
Q 1347 388 1769 388 
Q 2188 388 2466 706 
Q 2744 1025 2744 1678 
Q 2744 2294 2464 2611 
Q 2184 2928 1769 2928 
Q 1347 2928 1069 2612 
Q 791 2297 791 1659 
z
" transform="scale(0.015625)"/>
       <path id="ArialMT-6e" d="M 422 0 
L 422 3319 
L 928 3319 
L 928 2847 
Q 1294 3394 1984 3394 
Q 2284 3394 2536 3286 
Q 2788 3178 2913 3003 
Q 3038 2828 3088 2588 
Q 3119 2431 3119 2041 
L 3119 0 
L 2556 0 
L 2556 2019 
Q 2556 2363 2490 2533 
Q 2425 2703 2258 2804 
Q 2091 2906 1866 2906 
Q 1506 2906 1245 2678 
Q 984 2450 984 1813 
L 984 0 
L 422 0 
z
" transform="scale(0.015625)"/>
      </defs>
      <use xlink:href="#ArialMT-49"/>
      <use xlink:href="#ArialMT-74" x="27.783203"/>
      <use xlink:href="#ArialMT-65" x="55.566406"/>
      <use xlink:href="#ArialMT-72" x="111.181641"/>
      <use xlink:href="#ArialMT-61" x="144.482422"/>
      <use xlink:href="#ArialMT-74" x="200.097656"/>
      <use xlink:href="#ArialMT-69" x="227.880859"/>
      <use xlink:href="#ArialMT-6f" x="250.097656"/>
      <use xlink:href="#ArialMT-6e" x="305.712891"/>
     </g>
    </g>
   </g>
   <g id="matplotlib.axis_2">
    <g id="ytick_1">
     <g id="line2d_7">
      <path d="M 46.964375 354.583125 
L 716.564375 354.583125 
" clip-path="url(#pc3a5c0f315)" style="fill: none; stroke: #cccccc; stroke-linecap: round"/>
     </g>
     <g id="text_8">
      <!-- 0.0 -->
      <g style="fill: #262626" transform="translate(22.174375 358.519922) scale(0.11 -0.11)">
       <defs>
        <path id="ArialMT-2e" d="M 581 0 
L 581 641 
L 1222 641 
L 1222 0 
L 581 0 
z
" transform="scale(0.015625)"/>
       </defs>
       <use xlink:href="#ArialMT-30"/>
       <use xlink:href="#ArialMT-2e" x="55.615234"/>
       <use xlink:href="#ArialMT-30" x="83.398438"/>
      </g>
     </g>
    </g>
    <g id="ytick_2">
     <g id="line2d_8">
      <path d="M 46.964375 291.223125 
L 716.564375 291.223125 
" clip-path="url(#pc3a5c0f315)" style="fill: none; stroke: #cccccc; stroke-linecap: round"/>
     </g>
     <g id="text_9">
      <!-- 0.2 -->
      <g style="fill: #262626" transform="translate(22.174375 295.159922) scale(0.11 -0.11)">
       <use xlink:href="#ArialMT-30"/>
       <use xlink:href="#ArialMT-2e" x="55.615234"/>
       <use xlink:href="#ArialMT-32" x="83.398438"/>
      </g>
     </g>
    </g>
    <g id="ytick_3">
     <g id="line2d_9">
      <path d="M 46.964375 227.863125 
L 716.564375 227.863125 
" clip-path="url(#pc3a5c0f315)" style="fill: none; stroke: #cccccc; stroke-linecap: round"/>
     </g>
     <g id="text_10">
      <!-- 0.4 -->
      <g style="fill: #262626" transform="translate(22.174375 231.799922) scale(0.11 -0.11)">
       <defs>
        <path id="ArialMT-34" d="M 2069 0 
L 2069 1097 
L 81 1097 
L 81 1613 
L 2172 4581 
L 2631 4581 
L 2631 1613 
L 3250 1613 
L 3250 1097 
L 2631 1097 
L 2631 0 
L 2069 0 
z
M 2069 1613 
L 2069 3678 
L 634 1613 
L 2069 1613 
z
" transform="scale(0.015625)"/>
       </defs>
       <use xlink:href="#ArialMT-30"/>
       <use xlink:href="#ArialMT-2e" x="55.615234"/>
       <use xlink:href="#ArialMT-34" x="83.398438"/>
      </g>
     </g>
    </g>
    <g id="ytick_4">
     <g id="line2d_10">
      <path d="M 46.964375 164.503125 
L 716.564375 164.503125 
" clip-path="url(#pc3a5c0f315)" style="fill: none; stroke: #cccccc; stroke-linecap: round"/>
     </g>
     <g id="text_11">
      <!-- 0.6 -->
      <g style="fill: #262626" transform="translate(22.174375 168.439922) scale(0.11 -0.11)">
       <defs>
        <path id="ArialMT-36" d="M 3184 3459 
L 2625 3416 
Q 2550 3747 2413 3897 
Q 2184 4138 1850 4138 
Q 1581 4138 1378 3988 
Q 1113 3794 959 3422 
Q 806 3050 800 2363 
Q 1003 2672 1297 2822 
Q 1591 2972 1913 2972 
Q 2475 2972 2870 2558 
Q 3266 2144 3266 1488 
Q 3266 1056 3080 686 
Q 2894 316 2569 119 
Q 2244 -78 1831 -78 
Q 1128 -78 684 439 
Q 241 956 241 2144 
Q 241 3472 731 4075 
Q 1159 4600 1884 4600 
Q 2425 4600 2770 4297 
Q 3116 3994 3184 3459 
z
M 888 1484 
Q 888 1194 1011 928 
Q 1134 663 1356 523 
Q 1578 384 1822 384 
Q 2178 384 2434 671 
Q 2691 959 2691 1453 
Q 2691 1928 2437 2201 
Q 2184 2475 1800 2475 
Q 1419 2475 1153 2201 
Q 888 1928 888 1484 
z
" transform="scale(0.015625)"/>
       </defs>
       <use xlink:href="#ArialMT-30"/>
       <use xlink:href="#ArialMT-2e" x="55.615234"/>
       <use xlink:href="#ArialMT-36" x="83.398438"/>
      </g>
     </g>
    </g>
    <g id="ytick_5">
     <g id="line2d_11">
      <path d="M 46.964375 101.143125 
L 716.564375 101.143125 
" clip-path="url(#pc3a5c0f315)" style="fill: none; stroke: #cccccc; stroke-linecap: round"/>
     </g>
     <g id="text_12">
      <!-- 0.8 -->
      <g style="fill: #262626" transform="translate(22.174375 105.079922) scale(0.11 -0.11)">
       <defs>
        <path id="ArialMT-38" d="M 1131 2484 
Q 781 2613 612 2850 
Q 444 3088 444 3419 
Q 444 3919 803 4259 
Q 1163 4600 1759 4600 
Q 2359 4600 2725 4251 
Q 3091 3903 3091 3403 
Q 3091 3084 2923 2848 
Q 2756 2613 2416 2484 
Q 2838 2347 3058 2040 
Q 3278 1734 3278 1309 
Q 3278 722 2862 322 
Q 2447 -78 1769 -78 
Q 1091 -78 675 323 
Q 259 725 259 1325 
Q 259 1772 486 2073 
Q 713 2375 1131 2484 
z
M 1019 3438 
Q 1019 3113 1228 2906 
Q 1438 2700 1772 2700 
Q 2097 2700 2305 2904 
Q 2513 3109 2513 3406 
Q 2513 3716 2298 3927 
Q 2084 4138 1766 4138 
Q 1444 4138 1231 3931 
Q 1019 3725 1019 3438 
z
M 838 1322 
Q 838 1081 952 856 
Q 1066 631 1291 507 
Q 1516 384 1775 384 
Q 2178 384 2440 643 
Q 2703 903 2703 1303 
Q 2703 1709 2433 1975 
Q 2163 2241 1756 2241 
Q 1359 2241 1098 1978 
Q 838 1716 838 1322 
z
" transform="scale(0.015625)"/>
       </defs>
       <use xlink:href="#ArialMT-30"/>
       <use xlink:href="#ArialMT-2e" x="55.615234"/>
       <use xlink:href="#ArialMT-38" x="83.398438"/>
      </g>
     </g>
    </g>
    <g id="ytick_6">
     <g id="line2d_12">
      <path d="M 46.964375 37.783125 
L 716.564375 37.783125 
" clip-path="url(#pc3a5c0f315)" style="fill: none; stroke: #cccccc; stroke-linecap: round"/>
     </g>
     <g id="text_13">
      <!-- 1.0 -->
      <g style="fill: #262626" transform="translate(22.174375 41.719922) scale(0.11 -0.11)">
       <use xlink:href="#ArialMT-31"/>
       <use xlink:href="#ArialMT-2e" x="55.615234"/>
       <use xlink:href="#ArialMT-30" x="83.398438"/>
      </g>
     </g>
    </g>
    <g id="text_14">
     <!-- Beliefs -->
     <g style="fill: #262626" transform="translate(15.789375 206.271563) rotate(-90) scale(0.12 -0.12)">
      <defs>
       <path id="ArialMT-42" d="M 469 0 
L 469 4581 
L 2188 4581 
Q 2713 4581 3030 4442 
Q 3347 4303 3526 4014 
Q 3706 3725 3706 3409 
Q 3706 3116 3547 2856 
Q 3388 2597 3066 2438 
Q 3481 2316 3704 2022 
Q 3928 1728 3928 1328 
Q 3928 1006 3792 729 
Q 3656 453 3456 303 
Q 3256 153 2954 76 
Q 2653 0 2216 0 
L 469 0 
z
M 1075 2656 
L 2066 2656 
Q 2469 2656 2644 2709 
Q 2875 2778 2992 2937 
Q 3109 3097 3109 3338 
Q 3109 3566 3000 3739 
Q 2891 3913 2687 3977 
Q 2484 4041 1991 4041 
L 1075 4041 
L 1075 2656 
z
M 1075 541 
L 2216 541 
Q 2509 541 2628 563 
Q 2838 600 2978 687 
Q 3119 775 3209 942 
Q 3300 1109 3300 1328 
Q 3300 1584 3169 1773 
Q 3038 1963 2805 2039 
Q 2572 2116 2134 2116 
L 1075 2116 
L 1075 541 
z
" transform="scale(0.015625)"/>
       <path id="ArialMT-6c" d="M 409 0 
L 409 4581 
L 972 4581 
L 972 0 
L 409 0 
z
" transform="scale(0.015625)"/>
       <path id="ArialMT-66" d="M 556 0 
L 556 2881 
L 59 2881 
L 59 3319 
L 556 3319 
L 556 3672 
Q 556 4006 616 4169 
Q 697 4388 901 4523 
Q 1106 4659 1475 4659 
Q 1713 4659 2000 4603 
L 1916 4113 
Q 1741 4144 1584 4144 
Q 1328 4144 1222 4034 
Q 1116 3925 1116 3625 
L 1116 3319 
L 1763 3319 
L 1763 2881 
L 1116 2881 
L 1116 0 
L 556 0 
z
" transform="scale(0.015625)"/>
       <path id="ArialMT-73" d="M 197 991 
L 753 1078 
Q 800 744 1014 566 
Q 1228 388 1613 388 
Q 2000 388 2187 545 
Q 2375 703 2375 916 
Q 2375 1106 2209 1216 
Q 2094 1291 1634 1406 
Q 1016 1563 777 1677 
Q 538 1791 414 1992 
Q 291 2194 291 2438 
Q 291 2659 392 2848 
Q 494 3038 669 3163 
Q 800 3259 1026 3326 
Q 1253 3394 1513 3394 
Q 1903 3394 2198 3281 
Q 2494 3169 2634 2976 
Q 2775 2784 2828 2463 
L 2278 2388 
Q 2241 2644 2061 2787 
Q 1881 2931 1553 2931 
Q 1166 2931 1000 2803 
Q 834 2675 834 2503 
Q 834 2394 903 2306 
Q 972 2216 1119 2156 
Q 1203 2125 1616 2013 
Q 2213 1853 2448 1751 
Q 2684 1650 2818 1456 
Q 2953 1263 2953 975 
Q 2953 694 2789 445 
Q 2625 197 2315 61 
Q 2006 -75 1616 -75 
Q 969 -75 630 194 
Q 291 463 197 991 
z
" transform="scale(0.015625)"/>
      </defs>
      <use xlink:href="#ArialMT-42"/>
      <use xlink:href="#ArialMT-65" x="66.699219"/>
      <use xlink:href="#ArialMT-6c" x="122.314453"/>
      <use xlink:href="#ArialMT-69" x="144.53125"/>
      <use xlink:href="#ArialMT-65" x="166.748047"/>
      <use xlink:href="#ArialMT-66" x="222.363281"/>
      <use xlink:href="#ArialMT-73" x="250.146484"/>
     </g>
    </g>
   </g>
   <g id="line2d_13">
    <path d="M 77.400739 196.120321 
L 77.425088 196.01454 
L 79.835648 189.236689 
L 82.270557 184.861971 
L 87.140375 178.864923 
L 89.575284 177.23857 
L 92.010193 175.408945 
L 94.445102 171.441377 
L 96.880011 170.124267 
L 99.31492 167.552455 
L 101.74983 166.512053 
L 104.184739 163.461356 
L 106.619648 163.622615 
L 109.054557 161.744385 
L 111.489466 160.249287 
L 113.924375 157.562554 
L 116.359284 157.373066 
L 118.794193 156.087585 
L 121.229102 155.470685 
L 123.664011 155.138274 
L 126.09892 154.658387 
L 128.53383 153.898432 
L 130.968739 152.689086 
L 133.403648 152.117977 
L 135.838557 152.085896 
L 138.273466 151.430834 
L 140.708375 149.472655 
L 143.143284 148.114532 
L 145.578193 147.273022 
L 148.013102 148.035187 
L 150.448011 147.615121 
L 155.31783 146.243874 
L 157.752739 144.70831 
L 162.622557 144.086992 
L 165.057466 144.064163 
L 167.492375 142.836557 
L 169.927284 142.268017 
L 172.362193 140.915275 
L 174.797102 140.790725 
L 177.232011 140.139742 
L 179.66692 138.361761 
L 182.10183 137.107266 
L 184.536739 137.10838 
L 186.971648 136.944063 
L 189.406557 136.308601 
L 191.841466 136.068337 
L 194.276375 136.665693 
L 196.711284 137.006886 
L 199.146193 135.410273 
L 201.581102 134.993437 
L 204.016011 134.07987 
L 206.45092 134.262391 
L 208.88583 133.210074 
L 211.320739 133.145193 
L 213.755648 132.410163 
L 216.190557 132.709625 
L 218.625466 131.539121 
L 221.060375 130.670136 
L 225.930193 129.316319 
L 228.365102 129.308879 
L 230.800011 128.106557 
L 233.23492 127.495757 
L 235.66983 127.377362 
L 240.539648 126.659931 
L 242.974557 126.732384 
L 247.844375 125.91191 
L 250.279284 125.340555 
L 252.714193 125.523095 
L 255.149102 125.549512 
L 257.584011 124.814312 
L 260.01892 124.284858 
L 262.45383 124.415961 
L 264.888739 123.812053 
L 267.323648 123.80382 
L 272.193466 122.499947 
L 274.628375 121.700754 
L 277.063284 121.583907 
L 281.933102 122.049481 
L 286.80292 120.978904 
L 289.23783 120.82314 
L 291.672739 121.45541 
L 294.107648 121.447121 
L 296.542557 120.71058 
L 298.977466 120.554212 
L 301.412375 120.590203 
L 303.847284 119.263633 
L 306.282193 118.23879 
L 308.717102 118.353239 
L 311.152011 117.903112 
L 313.58692 119.06814 
L 318.456739 116.845564 
L 320.891648 116.735251 
L 323.326557 117.502892 
L 325.761466 117.276884 
L 328.196375 117.532349 
L 330.631284 116.654527 
L 333.066193 116.582112 
L 335.501102 117.291386 
L 337.936011 116.929895 
L 342.80583 116.776529 
L 345.240739 117.044494 
L 347.675648 116.389753 
L 350.110557 116.482392 
L 352.545466 115.47411 
L 354.980375 115.475337 
L 357.415284 114.877453 
L 359.850193 114.927889 
L 362.285102 115.676061 
L 364.720011 115.909508 
L 369.58983 115.498676 
L 372.024739 115.38419 
L 374.459648 115.052987 
L 376.894557 115.722475 
L 379.329466 115.44622 
L 381.764375 115.689694 
L 384.199284 116.078415 
L 386.634193 115.818475 
L 389.069102 115.091866 
L 391.504011 114.878378 
L 396.37383 114.975171 
L 398.808739 114.29205 
L 401.243648 115.121512 
L 403.678557 114.61621 
L 406.113466 114.90319 
L 408.548375 113.961753 
L 410.983284 113.402219 
L 413.418193 113.759027 
L 415.853102 113.379616 
L 420.72292 113.035988 
L 423.15783 113.170867 
L 428.027648 111.734381 
L 430.462557 111.716065 
L 432.897466 111.205872 
L 435.332375 111.350683 
L 440.202193 111.295055 
L 445.072011 109.935081 
L 447.50692 110.053948 
L 449.94183 109.353398 
L 452.376739 109.655881 
L 454.811648 109.369618 
L 457.246557 108.947665 
L 459.681466 109.110981 
L 462.116375 109.061735 
L 464.551284 109.601102 
L 471.856011 109.648781 
L 474.29092 109.309439 
L 476.72583 109.776296 
L 479.160739 108.836521 
L 481.595648 108.883029 
L 484.030557 108.535114 
L 486.465466 109.23895 
L 491.335284 108.802966 
L 493.770193 108.443646 
L 496.205102 108.377349 
L 498.640011 108.465342 
L 501.07492 108.20376 
L 505.944739 108.188786 
L 510.814557 107.954866 
L 513.249466 107.458306 
L 515.684375 107.6663 
L 518.119284 107.456645 
L 525.424011 107.186338 
L 530.29383 106.991544 
L 532.728739 107.399241 
L 535.163648 107.293687 
L 537.598557 106.675465 
L 540.033466 106.402704 
L 542.468375 106.50958 
L 544.903284 106.152356 
L 547.338193 105.676681 
L 549.773102 106.189725 
L 552.208011 105.877027 
L 554.64292 106.018119 
L 557.07783 105.590311 
L 559.512739 105.373254 
L 561.947648 105.708442 
L 564.382557 105.239319 
L 566.817466 105.64509 
L 571.687284 104.783867 
L 574.122193 105.029664 
L 576.557102 104.839231 
L 578.992011 104.46777 
L 581.42692 104.520868 
L 583.86183 104.45746 
L 586.296739 104.844159 
L 588.731648 103.992472 
L 591.166557 103.930027 
L 593.601466 104.472075 
L 596.036375 103.643556 
L 598.471284 103.652903 
L 600.906193 103.337165 
L 603.341102 103.141577 
L 608.21092 103.21471 
L 610.64583 103.748922 
L 613.080739 103.791843 
L 615.515648 103.493967 
L 617.950557 103.49629 
L 620.385466 103.094295 
L 622.820375 103.34468 
L 627.690193 103.406634 
L 630.125102 103.721731 
L 632.560011 103.888277 
L 634.99492 103.929233 
L 637.42983 103.64569 
L 639.864739 103.876909 
L 642.299648 103.961221 
L 644.734557 103.173451 
L 647.169466 103.624485 
L 649.604375 103.908802 
L 652.039284 103.330027 
L 654.474193 102.936473 
L 656.909102 102.79912 
L 659.344011 103.145713 
L 661.77892 102.942817 
L 664.21383 103.702867 
L 669.083648 102.778009 
L 671.518557 102.658217 
L 673.953466 102.230371 
L 676.388375 102.528398 
L 678.823284 102.609291 
L 683.693102 101.549214 
L 686.128011 101.686718 
L 686.128011 101.686718 
" clip-path="url(#pc3a5c0f315)" style="fill: none; stroke: #4c72b0; stroke-width: 2.5; stroke-linecap: round"/>
   </g>
   <g id="line2d_14">
    <path d="M 77.400739 196.535562 
L 77.425088 196.502687 
L 82.270557 182.12926 
L 84.705466 177.359779 
L 87.140375 170.99631 
L 89.575284 168.156363 
L 92.010193 164.784319 
L 94.445102 157.158331 
L 96.880011 154.469428 
L 99.31492 147.930123 
L 101.74983 145.87517 
L 104.184739 139.860976 
L 106.619648 139.079419 
L 109.054557 134.792335 
L 111.489466 132.262141 
L 113.924375 126.146622 
L 116.359284 124.698542 
L 118.794193 121.763463 
L 121.229102 120.101158 
L 126.09892 117.585013 
L 128.53383 115.280014 
L 130.968739 112.173159 
L 133.403648 110.210052 
L 135.838557 109.858852 
L 138.273466 108.148244 
L 143.143284 100.467364 
L 145.578193 98.333576 
L 148.013102 99.79376 
L 150.448011 97.882089 
L 152.88292 96.349754 
L 155.31783 94.971634 
L 157.752739 91.434857 
L 162.622557 89.216228 
L 165.057466 88.568436 
L 167.492375 85.950834 
L 169.927284 84.653098 
L 172.362193 81.908301 
L 174.797102 81.520751 
L 177.232011 79.91466 
L 179.66692 76.763148 
L 182.10183 74.396572 
L 186.971648 73.270348 
L 189.406557 72.030394 
L 191.841466 71.212619 
L 194.276375 71.190659 
L 196.711284 71.354807 
L 199.146193 68.76702 
L 201.581102 68.006989 
L 204.016011 66.532303 
L 206.45092 66.25331 
L 208.88583 64.669312 
L 211.320739 64.160913 
L 213.755648 63.233581 
L 216.190557 62.901905 
L 218.625466 61.29132 
L 221.060375 59.939843 
L 223.495284 58.729044 
L 228.365102 57.261514 
L 230.800011 56.131155 
L 233.23492 55.138451 
L 235.66983 54.865444 
L 240.539648 53.652756 
L 242.974557 53.542669 
L 245.409466 53.011498 
L 250.279284 51.52535 
L 255.149102 51.15842 
L 257.584011 50.299141 
L 260.01892 49.665663 
L 262.45383 49.652029 
L 264.888739 48.984184 
L 269.758557 48.390813 
L 274.628375 47.139906 
L 277.063284 46.73117 
L 281.933102 46.521288 
L 284.368011 46.006998 
L 286.80292 45.753308 
L 289.23783 45.369233 
L 294.107648 45.186976 
L 298.977466 44.378077 
L 301.412375 44.168327 
L 306.282193 43.207384 
L 308.717102 43.009115 
L 311.152011 42.938834 
L 313.58692 42.987022 
L 316.02183 42.70363 
L 318.456739 42.243231 
L 320.891648 42.097343 
L 323.326557 42.103989 
L 335.501102 41.441205 
L 359.850193 40.210163 
L 364.720011 40.127872 
L 374.459648 39.752143 
L 376.894557 39.791513 
L 381.764375 39.625609 
L 386.634193 39.584728 
L 391.504011 39.366255 
L 398.808739 39.182677 
L 403.678557 39.174312 
L 432.897466 38.489132 
L 454.811648 38.210272 
L 466.986193 38.137063 
L 498.640011 37.987757 
L 544.903284 37.858694 
L 598.471284 37.807899 
L 686.128011 37.788129 
L 686.128011 37.788129 
" clip-path="url(#pc3a5c0f315)" style="fill: none; stroke: #dd8452; stroke-width: 2.5; stroke-linecap: round"/>
   </g>
   <g id="line2d_15">
    <path d="M 77.400739 275.246301 
L 77.425088 275.529632 
L 79.835648 277.54317 
L 82.270557 277.205358 
L 84.705466 276.105853 
L 89.575284 274.492671 
L 92.010193 273.409462 
L 94.445102 269.951341 
L 96.880011 269.398662 
L 99.31492 267.397742 
L 101.74983 267.290894 
L 104.184739 263.753163 
L 106.619648 265.569202 
L 109.054557 263.813068 
L 111.489466 261.677278 
L 113.924375 258.227201 
L 116.359284 258.366386 
L 118.794193 257.972275 
L 121.229102 257.706547 
L 123.664011 257.241946 
L 126.09892 257.893146 
L 128.53383 257.250547 
L 130.968739 256.275083 
L 133.403648 256.14906 
L 135.838557 256.429488 
L 138.273466 255.881784 
L 140.708375 253.446957 
L 143.143284 251.878782 
L 145.578193 250.842421 
L 148.013102 252.765384 
L 150.448011 252.474137 
L 152.88292 251.748945 
L 155.31783 250.857103 
L 157.752739 248.41426 
L 160.187648 248.077458 
L 162.622557 247.965955 
L 165.057466 248.854908 
L 167.492375 246.832254 
L 169.927284 245.874181 
L 172.362193 243.938293 
L 174.797102 244.430075 
L 177.232011 243.878246 
L 179.66692 239.761428 
L 182.10183 237.77855 
L 184.536739 237.943038 
L 186.971648 238.33798 
L 189.406557 236.694454 
L 191.841466 236.547083 
L 194.276375 238.80226 
L 196.711284 240.716027 
L 199.146193 236.195581 
L 201.581102 236.025447 
L 204.016011 234.355976 
L 206.45092 235.32417 
L 208.88583 233.180969 
L 211.320739 233.583454 
L 213.755648 231.778792 
L 216.190557 232.708579 
L 218.625466 229.796264 
L 221.060375 228.77735 
L 225.930193 225.074622 
L 228.365102 226.489346 
L 230.800011 223.188443 
L 233.23492 221.551535 
L 235.66983 221.300829 
L 238.104739 220.213428 
L 242.974557 220.483527 
L 245.409466 219.158807 
L 247.844375 218.0759 
L 250.279284 216.572852 
L 252.714193 218.481917 
L 255.149102 218.699465 
L 257.584011 217.16731 
L 260.01892 215.293744 
L 262.45383 215.948777 
L 264.888739 214.46634 
L 267.323648 214.726232 
L 269.758557 212.546521 
L 274.628375 209.073228 
L 277.063284 208.75291 
L 279.498193 209.988154 
L 281.933102 210.106482 
L 284.368011 209.065099 
L 286.80292 207.636326 
L 289.23783 207.351338 
L 291.672739 209.724399 
L 294.107648 209.395679 
L 296.542557 207.592905 
L 298.977466 208.078201 
L 301.412375 208.154176 
L 303.847284 204.058016 
L 306.282193 201.233062 
L 308.717102 201.259375 
L 311.152011 200.401352 
L 313.58692 204.178441 
L 316.02183 200.249629 
L 318.456739 197.103933 
L 320.891648 197.033472 
L 323.326557 198.856772 
L 325.761466 198.599513 
L 328.196375 199.313932 
L 330.631284 196.897988 
L 333.066193 196.579021 
L 335.501102 199.057646 
L 337.936011 197.710891 
L 340.37092 197.678828 
L 342.80583 198.294254 
L 345.240739 199.373394 
L 347.675648 196.592588 
L 350.110557 197.120909 
L 352.545466 193.179786 
L 354.980375 192.482559 
L 357.415284 189.679377 
L 359.850193 189.970756 
L 362.285102 193.922709 
L 364.720011 195.227356 
L 367.15492 194.518346 
L 369.58983 192.985104 
L 372.024739 192.868673 
L 374.459648 191.524108 
L 376.894557 194.609682 
L 379.329466 193.451433 
L 381.764375 195.555311 
L 384.199284 195.530726 
L 386.634193 194.770922 
L 389.069102 191.382318 
L 391.504011 190.437141 
L 393.93892 190.730466 
L 396.37383 190.82116 
L 398.808739 188.712636 
L 401.243648 191.230463 
L 403.678557 189.555921 
L 406.113466 189.673712 
L 410.983284 183.04664 
L 413.418193 185.707768 
L 415.853102 183.034008 
L 418.288011 182.328303 
L 420.72292 181.986053 
L 423.15783 182.227148 
L 425.592739 178.166431 
L 428.027648 175.271554 
L 430.462557 175.308243 
L 432.897466 171.931516 
L 435.332375 172.478701 
L 440.202193 172.945709 
L 442.637102 168.941621 
L 445.072011 166.359481 
L 447.50692 165.375878 
L 449.94183 161.731299 
L 452.376739 163.863596 
L 454.811648 162.646433 
L 457.246557 161.005258 
L 459.681466 159.695663 
L 462.116375 159.924107 
L 464.551284 163.415698 
L 466.986193 163.197583 
L 469.421102 163.688988 
L 471.856011 163.947738 
L 474.29092 161.775051 
L 476.72583 165.649565 
L 479.160739 160.340547 
L 481.595648 159.121175 
L 484.030557 158.294828 
L 486.465466 161.49264 
L 488.900375 160.088292 
L 491.335284 159.475169 
L 493.770193 156.108016 
L 496.205102 155.145298 
L 498.640011 155.538305 
L 501.07492 155.189408 
L 503.50983 156.029577 
L 505.944739 155.899192 
L 508.379648 154.51265 
L 510.814557 153.977211 
L 513.249466 150.694917 
L 515.684375 152.455639 
L 518.119284 150.362505 
L 520.554193 150.679773 
L 522.989102 150.499669 
L 525.424011 149.044621 
L 527.85892 149.791188 
L 530.29383 148.260533 
L 532.728739 150.837972 
L 535.163648 149.956337 
L 537.598557 146.113149 
L 540.033466 144.661084 
L 542.468375 145.460618 
L 544.903284 144.068921 
L 547.338193 140.211005 
L 549.773102 143.469488 
L 552.208011 141.534762 
L 554.64292 141.698588 
L 559.512739 137.800868 
L 561.947648 141.049796 
L 564.382557 138.609729 
L 566.817466 140.366712 
L 569.252375 137.737233 
L 571.687284 135.452174 
L 574.122193 135.279322 
L 576.557102 135.810153 
L 581.42692 133.682596 
L 583.86183 133.180485 
L 586.296739 134.944984 
L 588.731648 131.107763 
L 591.166557 129.632189 
L 593.601466 133.178294 
L 596.036375 127.968883 
L 598.471284 128.293515 
L 600.906193 126.354238 
L 603.341102 126.294852 
L 605.776011 126.104023 
L 608.21092 126.300177 
L 610.64583 127.988181 
L 613.080739 128.474884 
L 615.515648 126.734839 
L 617.950557 127.119273 
L 620.385466 124.001806 
L 622.820375 126.290244 
L 625.255284 125.390783 
L 627.690193 125.631161 
L 630.125102 127.436012 
L 632.560011 128.301144 
L 634.99492 127.355024 
L 637.42983 125.783394 
L 639.864739 126.432564 
L 642.299648 127.758548 
L 644.734557 123.994253 
L 647.169466 125.374658 
L 649.604375 127.391411 
L 652.039284 124.688194 
L 656.909102 120.493598 
L 659.344011 122.425757 
L 661.77892 121.537116 
L 664.21383 125.44796 
L 666.648739 122.847163 
L 669.083648 120.49341 
L 671.518557 120.354659 
L 673.953466 117.655238 
L 676.388375 118.948291 
L 678.823284 118.86583 
L 681.258193 116.58062 
L 683.693102 113.681986 
L 686.128011 115.163017 
L 686.128011 115.163017 
" clip-path="url(#pc3a5c0f315)" style="fill: none; stroke-dasharray: 7.4,3.2; stroke-dashoffset: 0; stroke: #55a868; stroke-width: 2"/>
   </g>
   <g id="line2d_16">
    <path d="M 77.400739 116.922304 
L 77.425088 116.522159 
L 79.835648 97.657233 
L 82.270557 87.778646 
L 84.705466 81.696833 
L 87.140375 76.316514 
L 89.575284 72.405707 
L 92.010193 69.470629 
L 94.445102 64.470382 
L 96.880011 62.0353 
L 99.31492 58.898252 
L 101.74983 57.262949 
L 104.184739 54.872412 
L 106.619648 53.889564 
L 109.054557 52.187322 
L 111.489466 50.903862 
L 113.924375 49.136681 
L 116.359284 48.681343 
L 118.794193 47.546376 
L 123.664011 46.274094 
L 130.968739 44.330832 
L 135.838557 43.538134 
L 138.273466 43.169354 
L 143.143284 42.012729 
L 145.578193 41.67722 
L 148.013102 41.639663 
L 157.752739 40.415116 
L 174.797102 39.295558 
L 184.536739 38.739121 
L 194.276375 38.480767 
L 206.45092 38.227077 
L 223.495284 38.009303 
L 252.714193 37.851632 
L 464.551284 37.783314 
L 686.128011 37.783125 
L 686.128011 37.783125 
" clip-path="url(#pc3a5c0f315)" style="fill: none; stroke-dasharray: 7.4,3.2; stroke-dashoffset: 0; stroke: #c44e52; stroke-width: 2"/>
   </g>
   <g id="patch_3">
    <path d="M 46.964375 354.583125 
L 46.964375 21.943125 
" style="fill: none; stroke: #cccccc; stroke-width: 1.25; stroke-linejoin: miter; stroke-linecap: square"/>
   </g>
   <g id="patch_4">
    <path d="M 46.964375 354.583125 
L 716.564375 354.583125 
" style="fill: none; stroke: #cccccc; stroke-width: 1.25; stroke-linejoin: miter; stroke-linecap: square"/>
   </g>
   <g id="text_15">
    <!-- Aggregated Profile for the Op: UnreliableNetworkModifiedAlignedNegativeEpsOp -->
    <g style="fill: #262626" transform="translate(166.65875 15.943125) scale(0.12 -0.12)">
     <defs>
      <path id="ArialMT-41" d="M -9 0 
L 1750 4581 
L 2403 4581 
L 4278 0 
L 3588 0 
L 3053 1388 
L 1138 1388 
L 634 0 
L -9 0 
z
M 1313 1881 
L 2866 1881 
L 2388 3150 
Q 2169 3728 2063 4100 
Q 1975 3659 1816 3225 
L 1313 1881 
z
" transform="scale(0.015625)"/>
      <path id="ArialMT-67" d="M 319 -275 
L 866 -356 
Q 900 -609 1056 -725 
Q 1266 -881 1628 -881 
Q 2019 -881 2231 -725 
Q 2444 -569 2519 -288 
Q 2563 -116 2559 434 
Q 2191 0 1641 0 
Q 956 0 581 494 
Q 206 988 206 1678 
Q 206 2153 378 2554 
Q 550 2956 876 3175 
Q 1203 3394 1644 3394 
Q 2231 3394 2613 2919 
L 2613 3319 
L 3131 3319 
L 3131 450 
Q 3131 -325 2973 -648 
Q 2816 -972 2473 -1159 
Q 2131 -1347 1631 -1347 
Q 1038 -1347 672 -1080 
Q 306 -813 319 -275 
z
M 784 1719 
Q 784 1066 1043 766 
Q 1303 466 1694 466 
Q 2081 466 2343 764 
Q 2606 1063 2606 1700 
Q 2606 2309 2336 2618 
Q 2066 2928 1684 2928 
Q 1309 2928 1046 2623 
Q 784 2319 784 1719 
z
" transform="scale(0.015625)"/>
      <path id="ArialMT-64" d="M 2575 0 
L 2575 419 
Q 2259 -75 1647 -75 
Q 1250 -75 917 144 
Q 584 363 401 755 
Q 219 1147 219 1656 
Q 219 2153 384 2558 
Q 550 2963 881 3178 
Q 1213 3394 1622 3394 
Q 1922 3394 2156 3267 
Q 2391 3141 2538 2938 
L 2538 4581 
L 3097 4581 
L 3097 0 
L 2575 0 
z
M 797 1656 
Q 797 1019 1065 703 
Q 1334 388 1700 388 
Q 2069 388 2326 689 
Q 2584 991 2584 1609 
Q 2584 2291 2321 2609 
Q 2059 2928 1675 2928 
Q 1300 2928 1048 2622 
Q 797 2316 797 1656 
z
" transform="scale(0.015625)"/>
      <path id="ArialMT-20" transform="scale(0.015625)"/>
      <path id="ArialMT-50" d="M 494 0 
L 494 4581 
L 2222 4581 
Q 2678 4581 2919 4538 
Q 3256 4481 3484 4323 
Q 3713 4166 3852 3881 
Q 3991 3597 3991 3256 
Q 3991 2672 3619 2267 
Q 3247 1863 2275 1863 
L 1100 1863 
L 1100 0 
L 494 0 
z
M 1100 2403 
L 2284 2403 
Q 2872 2403 3119 2622 
Q 3366 2841 3366 3238 
Q 3366 3525 3220 3729 
Q 3075 3934 2838 4000 
Q 2684 4041 2272 4041 
L 1100 4041 
L 1100 2403 
z
" transform="scale(0.015625)"/>
      <path id="ArialMT-68" d="M 422 0 
L 422 4581 
L 984 4581 
L 984 2938 
Q 1378 3394 1978 3394 
Q 2347 3394 2619 3248 
Q 2891 3103 3008 2847 
Q 3125 2591 3125 2103 
L 3125 0 
L 2563 0 
L 2563 2103 
Q 2563 2525 2380 2717 
Q 2197 2909 1863 2909 
Q 1613 2909 1392 2779 
Q 1172 2650 1078 2428 
Q 984 2206 984 1816 
L 984 0 
L 422 0 
z
" transform="scale(0.015625)"/>
      <path id="ArialMT-4f" d="M 309 2231 
Q 309 3372 921 4017 
Q 1534 4663 2503 4663 
Q 3138 4663 3647 4359 
Q 4156 4056 4423 3514 
Q 4691 2972 4691 2284 
Q 4691 1588 4409 1038 
Q 4128 488 3612 205 
Q 3097 -78 2500 -78 
Q 1853 -78 1343 234 
Q 834 547 571 1087 
Q 309 1628 309 2231 
z
M 934 2222 
Q 934 1394 1379 917 
Q 1825 441 2497 441 
Q 3181 441 3623 922 
Q 4066 1403 4066 2288 
Q 4066 2847 3877 3264 
Q 3688 3681 3323 3911 
Q 2959 4141 2506 4141 
Q 1863 4141 1398 3698 
Q 934 3256 934 2222 
z
" transform="scale(0.015625)"/>
      <path id="ArialMT-70" d="M 422 -1272 
L 422 3319 
L 934 3319 
L 934 2888 
Q 1116 3141 1344 3267 
Q 1572 3394 1897 3394 
Q 2322 3394 2647 3175 
Q 2972 2956 3137 2557 
Q 3303 2159 3303 1684 
Q 3303 1175 3120 767 
Q 2938 359 2589 142 
Q 2241 -75 1856 -75 
Q 1575 -75 1351 44 
Q 1128 163 984 344 
L 984 -1272 
L 422 -1272 
z
M 931 1641 
Q 931 1000 1190 694 
Q 1450 388 1819 388 
Q 2194 388 2461 705 
Q 2728 1022 2728 1688 
Q 2728 2322 2467 2637 
Q 2206 2953 1844 2953 
Q 1484 2953 1207 2617 
Q 931 2281 931 1641 
z
" transform="scale(0.015625)"/>
      <path id="ArialMT-3a" d="M 578 2678 
L 578 3319 
L 1219 3319 
L 1219 2678 
L 578 2678 
z
M 578 0 
L 578 641 
L 1219 641 
L 1219 0 
L 578 0 
z
" transform="scale(0.015625)"/>
      <path id="ArialMT-55" d="M 3500 4581 
L 4106 4581 
L 4106 1934 
Q 4106 1244 3950 837 
Q 3794 431 3386 176 
Q 2978 -78 2316 -78 
Q 1672 -78 1262 144 
Q 853 366 678 786 
Q 503 1206 503 1934 
L 503 4581 
L 1109 4581 
L 1109 1938 
Q 1109 1341 1220 1058 
Q 1331 775 1601 622 
Q 1872 469 2263 469 
Q 2931 469 3215 772 
Q 3500 1075 3500 1938 
L 3500 4581 
z
" transform="scale(0.015625)"/>
      <path id="ArialMT-62" d="M 941 0 
L 419 0 
L 419 4581 
L 981 4581 
L 981 2947 
Q 1338 3394 1891 3394 
Q 2197 3394 2470 3270 
Q 2744 3147 2920 2923 
Q 3097 2700 3197 2384 
Q 3297 2069 3297 1709 
Q 3297 856 2875 390 
Q 2453 -75 1863 -75 
Q 1275 -75 941 416 
L 941 0 
z
M 934 1684 
Q 934 1088 1097 822 
Q 1363 388 1816 388 
Q 2184 388 2453 708 
Q 2722 1028 2722 1663 
Q 2722 2313 2464 2622 
Q 2206 2931 1841 2931 
Q 1472 2931 1203 2611 
Q 934 2291 934 1684 
z
" transform="scale(0.015625)"/>
      <path id="ArialMT-4e" d="M 488 0 
L 488 4581 
L 1109 4581 
L 3516 984 
L 3516 4581 
L 4097 4581 
L 4097 0 
L 3475 0 
L 1069 3600 
L 1069 0 
L 488 0 
z
" transform="scale(0.015625)"/>
      <path id="ArialMT-77" d="M 1034 0 
L 19 3319 
L 600 3319 
L 1128 1403 
L 1325 691 
Q 1338 744 1497 1375 
L 2025 3319 
L 2603 3319 
L 3100 1394 
L 3266 759 
L 3456 1400 
L 4025 3319 
L 4572 3319 
L 3534 0 
L 2950 0 
L 2422 1988 
L 2294 2553 
L 1622 0 
L 1034 0 
z
" transform="scale(0.015625)"/>
      <path id="ArialMT-6b" d="M 425 0 
L 425 4581 
L 988 4581 
L 988 1969 
L 2319 3319 
L 3047 3319 
L 1778 2088 
L 3175 0 
L 2481 0 
L 1384 1697 
L 988 1316 
L 988 0 
L 425 0 
z
" transform="scale(0.015625)"/>
      <path id="ArialMT-4d" d="M 475 0 
L 475 4581 
L 1388 4581 
L 2472 1338 
Q 2622 884 2691 659 
Q 2769 909 2934 1394 
L 4031 4581 
L 4847 4581 
L 4847 0 
L 4263 0 
L 4263 3834 
L 2931 0 
L 2384 0 
L 1059 3900 
L 1059 0 
L 475 0 
z
" transform="scale(0.015625)"/>
      <path id="ArialMT-76" d="M 1344 0 
L 81 3319 
L 675 3319 
L 1388 1331 
Q 1503 1009 1600 663 
Q 1675 925 1809 1294 
L 2547 3319 
L 3125 3319 
L 1869 0 
L 1344 0 
z
" transform="scale(0.015625)"/>
      <path id="ArialMT-45" d="M 506 0 
L 506 4581 
L 3819 4581 
L 3819 4041 
L 1113 4041 
L 1113 2638 
L 3647 2638 
L 3647 2100 
L 1113 2100 
L 1113 541 
L 3925 541 
L 3925 0 
L 506 0 
z
" transform="scale(0.015625)"/>
     </defs>
     <use xlink:href="#ArialMT-41"/>
     <use xlink:href="#ArialMT-67" x="66.699219"/>
     <use xlink:href="#ArialMT-67" x="122.314453"/>
     <use xlink:href="#ArialMT-72" x="177.929688"/>
     <use xlink:href="#ArialMT-65" x="211.230469"/>
     <use xlink:href="#ArialMT-67" x="266.845703"/>
     <use xlink:href="#ArialMT-61" x="322.460938"/>
     <use xlink:href="#ArialMT-74" x="378.076172"/>
     <use xlink:href="#ArialMT-65" x="405.859375"/>
     <use xlink:href="#ArialMT-64" x="461.474609"/>
     <use xlink:href="#ArialMT-20" x="517.089844"/>
     <use xlink:href="#ArialMT-50" x="544.873047"/>
     <use xlink:href="#ArialMT-72" x="611.572266"/>
     <use xlink:href="#ArialMT-6f" x="644.873047"/>
     <use xlink:href="#ArialMT-66" x="700.488281"/>
     <use xlink:href="#ArialMT-69" x="728.271484"/>
     <use xlink:href="#ArialMT-6c" x="750.488281"/>
     <use xlink:href="#ArialMT-65" x="772.705078"/>
     <use xlink:href="#ArialMT-20" x="828.320312"/>
     <use xlink:href="#ArialMT-66" x="856.103516"/>
     <use xlink:href="#ArialMT-6f" x="883.886719"/>
     <use xlink:href="#ArialMT-72" x="939.501953"/>
     <use xlink:href="#ArialMT-20" x="972.802734"/>
     <use xlink:href="#ArialMT-74" x="1000.585938"/>
     <use xlink:href="#ArialMT-68" x="1028.369141"/>
     <use xlink:href="#ArialMT-65" x="1083.984375"/>
     <use xlink:href="#ArialMT-20" x="1139.599609"/>
     <use xlink:href="#ArialMT-4f" x="1167.382812"/>
     <use xlink:href="#ArialMT-70" x="1245.166016"/>
     <use xlink:href="#ArialMT-3a" x="1300.78125"/>
     <use xlink:href="#ArialMT-20" x="1328.564453"/>
     <use xlink:href="#ArialMT-55" x="1356.347656"/>
     <use xlink:href="#ArialMT-6e" x="1428.564453"/>
     <use xlink:href="#ArialMT-72" x="1484.179688"/>
     <use xlink:href="#ArialMT-65" x="1517.480469"/>
     <use xlink:href="#ArialMT-6c" x="1573.095703"/>
     <use xlink:href="#ArialMT-69" x="1595.3125"/>
     <use xlink:href="#ArialMT-61" x="1617.529297"/>
     <use xlink:href="#ArialMT-62" x="1673.144531"/>
     <use xlink:href="#ArialMT-6c" x="1728.759766"/>
     <use xlink:href="#ArialMT-65" x="1750.976562"/>
     <use xlink:href="#ArialMT-4e" x="1806.591797"/>
     <use xlink:href="#ArialMT-65" x="1878.808594"/>
     <use xlink:href="#ArialMT-74" x="1934.423828"/>
     <use xlink:href="#ArialMT-77" x="1962.207031"/>
     <use xlink:href="#ArialMT-6f" x="2034.423828"/>
     <use xlink:href="#ArialMT-72" x="2090.039062"/>
     <use xlink:href="#ArialMT-6b" x="2123.339844"/>
     <use xlink:href="#ArialMT-4d" x="2173.339844"/>
     <use xlink:href="#ArialMT-6f" x="2256.640625"/>
     <use xlink:href="#ArialMT-64" x="2312.255859"/>
     <use xlink:href="#ArialMT-69" x="2367.871094"/>
     <use xlink:href="#ArialMT-66" x="2390.087891"/>
     <use xlink:href="#ArialMT-69" x="2417.871094"/>
     <use xlink:href="#ArialMT-65" x="2440.087891"/>
     <use xlink:href="#ArialMT-64" x="2495.703125"/>
     <use xlink:href="#ArialMT-41" x="2551.318359"/>
     <use xlink:href="#ArialMT-6c" x="2618.017578"/>
     <use xlink:href="#ArialMT-69" x="2640.234375"/>
     <use xlink:href="#ArialMT-67" x="2662.451172"/>
     <use xlink:href="#ArialMT-6e" x="2718.066406"/>
     <use xlink:href="#ArialMT-65" x="2773.681641"/>
     <use xlink:href="#ArialMT-64" x="2829.296875"/>
     <use xlink:href="#ArialMT-4e" x="2884.912109"/>
     <use xlink:href="#ArialMT-65" x="2957.128906"/>
     <use xlink:href="#ArialMT-67" x="3012.744141"/>
     <use xlink:href="#ArialMT-61" x="3068.359375"/>
     <use xlink:href="#ArialMT-74" x="3123.974609"/>
     <use xlink:href="#ArialMT-69" x="3151.757812"/>
     <use xlink:href="#ArialMT-76" x="3173.974609"/>
     <use xlink:href="#ArialMT-65" x="3223.974609"/>
     <use xlink:href="#ArialMT-45" x="3279.589844"/>
     <use xlink:href="#ArialMT-70" x="3346.289062"/>
     <use xlink:href="#ArialMT-73" x="3401.904297"/>
     <use xlink:href="#ArialMT-4f" x="3451.904297"/>
     <use xlink:href="#ArialMT-70" x="3529.6875"/>
    </g>
   </g>
   <g id="legend_1">
    <g id="patch_5">
     <path d="M 54.664375 349.083125 
L 163.239531 349.083125 
Q 165.439531 349.083125 165.439531 346.883125 
L 165.439531 285.74375 
Q 165.439531 283.54375 163.239531 283.54375 
L 54.664375 283.54375 
Q 52.464375 283.54375 52.464375 285.74375 
L 52.464375 346.883125 
Q 52.464375 349.083125 54.664375 349.083125 
z
" style="fill: #ffffff; opacity: 0.8; stroke: #cccccc; stroke-linejoin: miter"/>
    </g>
    <g id="line2d_17">
     <path d="M 56.864375 291.967344 
L 67.864375 291.967344 
L 78.864375 291.967344 
" style="fill: none; stroke: #4c72b0; stroke-width: 2.5; stroke-linecap: round"/>
    </g>
    <g id="text_16">
     <!-- Mean -->
     <g style="fill: #262626" transform="translate(87.664375 295.817344) scale(0.11 -0.11)">
      <use xlink:href="#ArialMT-4d"/>
      <use xlink:href="#ArialMT-65" x="83.300781"/>
      <use xlink:href="#ArialMT-61" x="138.916016"/>
      <use xlink:href="#ArialMT-6e" x="194.53125"/>
     </g>
    </g>
    <g id="line2d_18">
     <path d="M 56.864375 307.527187 
L 67.864375 307.527187 
L 78.864375 307.527187 
" style="fill: none; stroke: #dd8452; stroke-width: 2.5; stroke-linecap: round"/>
    </g>
    <g id="text_17">
     <!-- Median -->
     <g style="fill: #262626" transform="translate(87.664375 311.377187) scale(0.11 -0.11)">
      <use xlink:href="#ArialMT-4d"/>
      <use xlink:href="#ArialMT-65" x="83.300781"/>
      <use xlink:href="#ArialMT-64" x="138.916016"/>
      <use xlink:href="#ArialMT-69" x="194.53125"/>
      <use xlink:href="#ArialMT-61" x="216.748047"/>
      <use xlink:href="#ArialMT-6e" x="272.363281"/>
     </g>
    </g>
    <g id="line2d_19">
     <path d="M 56.864375 323.087031 
L 67.864375 323.087031 
L 78.864375 323.087031 
" style="fill: none; stroke-dasharray: 7.4,3.2; stroke-dashoffset: 0; stroke: #55a868; stroke-width: 2"/>
    </g>
    <g id="text_18">
     <!-- 25th Percentile -->
     <g style="fill: #262626" transform="translate(87.664375 326.937031) scale(0.11 -0.11)">
      <defs>
       <path id="ArialMT-63" d="M 2588 1216 
L 3141 1144 
Q 3050 572 2676 248 
Q 2303 -75 1759 -75 
Q 1078 -75 664 370 
Q 250 816 250 1647 
Q 250 2184 428 2587 
Q 606 2991 970 3192 
Q 1334 3394 1763 3394 
Q 2303 3394 2647 3120 
Q 2991 2847 3088 2344 
L 2541 2259 
Q 2463 2594 2264 2762 
Q 2066 2931 1784 2931 
Q 1359 2931 1093 2626 
Q 828 2322 828 1663 
Q 828 994 1084 691 
Q 1341 388 1753 388 
Q 2084 388 2306 591 
Q 2528 794 2588 1216 
z
" transform="scale(0.015625)"/>
      </defs>
      <use xlink:href="#ArialMT-32"/>
      <use xlink:href="#ArialMT-35" x="55.615234"/>
      <use xlink:href="#ArialMT-74" x="111.230469"/>
      <use xlink:href="#ArialMT-68" x="139.013672"/>
      <use xlink:href="#ArialMT-20" x="194.628906"/>
      <use xlink:href="#ArialMT-50" x="222.412109"/>
      <use xlink:href="#ArialMT-65" x="289.111328"/>
      <use xlink:href="#ArialMT-72" x="344.726562"/>
      <use xlink:href="#ArialMT-63" x="378.027344"/>
      <use xlink:href="#ArialMT-65" x="428.027344"/>
      <use xlink:href="#ArialMT-6e" x="483.642578"/>
      <use xlink:href="#ArialMT-74" x="539.257812"/>
      <use xlink:href="#ArialMT-69" x="567.041016"/>
      <use xlink:href="#ArialMT-6c" x="589.257812"/>
      <use xlink:href="#ArialMT-65" x="611.474609"/>
     </g>
    </g>
    <g id="line2d_20">
     <path d="M 56.864375 338.646875 
L 67.864375 338.646875 
L 78.864375 338.646875 
" style="fill: none; stroke-dasharray: 7.4,3.2; stroke-dashoffset: 0; stroke: #c44e52; stroke-width: 2"/>
    </g>
    <g id="text_19">
     <!-- 75th Percentile -->
     <g style="fill: #262626" transform="translate(87.664375 342.496875) scale(0.11 -0.11)">
      <defs>
       <path id="ArialMT-37" d="M 303 3981 
L 303 4522 
L 3269 4522 
L 3269 4084 
Q 2831 3619 2401 2847 
Q 1972 2075 1738 1259 
Q 1569 684 1522 0 
L 944 0 
Q 953 541 1156 1306 
Q 1359 2072 1739 2783 
Q 2119 3494 2547 3981 
L 303 3981 
z
" transform="scale(0.015625)"/>
      </defs>
      <use xlink:href="#ArialMT-37"/>
      <use xlink:href="#ArialMT-35" x="55.615234"/>
      <use xlink:href="#ArialMT-74" x="111.230469"/>
      <use xlink:href="#ArialMT-68" x="139.013672"/>
      <use xlink:href="#ArialMT-20" x="194.628906"/>
      <use xlink:href="#ArialMT-50" x="222.412109"/>
      <use xlink:href="#ArialMT-65" x="289.111328"/>
      <use xlink:href="#ArialMT-72" x="344.726562"/>
      <use xlink:href="#ArialMT-63" x="378.027344"/>
      <use xlink:href="#ArialMT-65" x="428.027344"/>
      <use xlink:href="#ArialMT-6e" x="483.642578"/>
      <use xlink:href="#ArialMT-74" x="539.257812"/>
      <use xlink:href="#ArialMT-69" x="567.041016"/>
      <use xlink:href="#ArialMT-6c" x="589.257812"/>
      <use xlink:href="#ArialMT-65" x="611.474609"/>
     </g>
    </g>
   </g>
  </g>
 </g>
 <defs>
  <clipPath id="pc3a5c0f315">
   <rect x="46.964375" y="21.943125" width="669.6" height="332.64"/>
  </clipPath>
 </defs>
</svg>
