<?xml version="1.0" encoding="utf-8" standalone="no"?>
<!DOCTYPE svg PUBLIC "-//W3C//DTD SVG 1.1//EN"
  "http://www.w3.org/Graphics/SVG/1.1/DTD/svg11.dtd">
<svg xmlns:xlink="http://www.w3.org/1999/xlink" width="723.764375pt" height="396.317344pt" viewBox="0 0 723.764375 396.317344" xmlns="http://www.w3.org/2000/svg" version="1.1">
 <metadata>
  <rdf:RDF xmlns:dc="http://purl.org/dc/elements/1.1/" xmlns:cc="http://creativecommons.org/ns#" xmlns:rdf="http://www.w3.org/1999/02/22-rdf-syntax-ns#">
   <cc:Work>
    <dc:type rdf:resource="http://purl.org/dc/dcmitype/StillImage"/>
    <dc:date>2024-12-12T23:44:36.258677</dc:date>
    <dc:format>image/svg+xml</dc:format>
    <dc:creator>
     <cc:Agent>
      <dc:title>Matplotlib v3.9.2, https://matplotlib.org/</dc:title>
     </cc:Agent>
    </dc:creator>
   </cc:Work>
  </rdf:RDF>
 </metadata>
 <defs>
  <style type="text/css">*{stroke-linejoin: round; stroke-linecap: butt}</style>
 </defs>
 <g id="figure_1">
  <g id="patch_1">
   <path d="M 0 396.317344 
L 723.764375 396.317344 
L 723.764375 0 
L 0 0 
z
" style="fill: #ffffff"/>
  </g>
  <g id="axes_1">
   <g id="patch_2">
    <path d="M 46.964375 354.583125 
L 716.564375 354.583125 
L 716.564375 21.943125 
L 46.964375 21.943125 
z
" style="fill: #ffffff"/>
   </g>
   <g id="matplotlib.axis_1">
    <g id="xtick_1">
     <g id="line2d_1">
      <path d="M 77.400739 354.583125 
L 77.400739 21.943125 
" clip-path="url(#pc1244c051c)" style="fill: none; stroke: #cccccc; stroke-linecap: round"/>
     </g>
     <g id="text_1">
      <!-- 0 -->
      <g style="fill: #262626" transform="translate(74.342223 371.956719) scale(0.11 -0.11)">
       <defs>
        <path id="ArialMT-30" d="M 266 2259 
Q 266 3072 433 3567 
Q 600 4063 929 4331 
Q 1259 4600 1759 4600 
Q 2128 4600 2406 4451 
Q 2684 4303 2865 4023 
Q 3047 3744 3150 3342 
Q 3253 2941 3253 2259 
Q 3253 1453 3087 958 
Q 2922 463 2592 192 
Q 2263 -78 1759 -78 
Q 1097 -78 719 397 
Q 266 969 266 2259 
z
M 844 2259 
Q 844 1131 1108 757 
Q 1372 384 1759 384 
Q 2147 384 2411 759 
Q 2675 1134 2675 2259 
Q 2675 3391 2411 3762 
Q 2147 4134 1753 4134 
Q 1366 4134 1134 3806 
Q 844 3388 844 2259 
z
" transform="scale(0.015625)"/>
       </defs>
       <use xlink:href="#ArialMT-30"/>
      </g>
     </g>
    </g>
    <g id="xtick_2">
     <g id="line2d_2">
      <path d="M 199.146193 354.583125 
L 199.146193 21.943125 
" clip-path="url(#pc1244c051c)" style="fill: none; stroke: #cccccc; stroke-linecap: round"/>
     </g>
     <g id="text_2">
      <!-- 5000 -->
      <g style="fill: #262626" transform="translate(186.912131 371.956719) scale(0.11 -0.11)">
       <defs>
        <path id="ArialMT-35" d="M 266 1200 
L 856 1250 
Q 922 819 1161 601 
Q 1400 384 1738 384 
Q 2144 384 2425 690 
Q 2706 997 2706 1503 
Q 2706 1984 2436 2262 
Q 2166 2541 1728 2541 
Q 1456 2541 1237 2417 
Q 1019 2294 894 2097 
L 366 2166 
L 809 4519 
L 3088 4519 
L 3088 3981 
L 1259 3981 
L 1013 2750 
Q 1425 3038 1878 3038 
Q 2478 3038 2890 2622 
Q 3303 2206 3303 1553 
Q 3303 931 2941 478 
Q 2500 -78 1738 -78 
Q 1113 -78 717 272 
Q 322 622 266 1200 
z
" transform="scale(0.015625)"/>
       </defs>
       <use xlink:href="#ArialMT-35"/>
       <use xlink:href="#ArialMT-30" x="55.615234"/>
       <use xlink:href="#ArialMT-30" x="111.230469"/>
       <use xlink:href="#ArialMT-30" x="166.845703"/>
      </g>
     </g>
    </g>
    <g id="xtick_3">
     <g id="line2d_3">
      <path d="M 320.891648 354.583125 
L 320.891648 21.943125 
" clip-path="url(#pc1244c051c)" style="fill: none; stroke: #cccccc; stroke-linecap: round"/>
     </g>
     <g id="text_3">
      <!-- 10000 -->
      <g style="fill: #262626" transform="translate(305.59907 371.956719) scale(0.11 -0.11)">
       <defs>
        <path id="ArialMT-31" d="M 2384 0 
L 1822 0 
L 1822 3584 
Q 1619 3391 1289 3197 
Q 959 3003 697 2906 
L 697 3450 
Q 1169 3672 1522 3987 
Q 1875 4303 2022 4600 
L 2384 4600 
L 2384 0 
z
" transform="scale(0.015625)"/>
       </defs>
       <use xlink:href="#ArialMT-31"/>
       <use xlink:href="#ArialMT-30" x="55.615234"/>
       <use xlink:href="#ArialMT-30" x="111.230469"/>
       <use xlink:href="#ArialMT-30" x="166.845703"/>
       <use xlink:href="#ArialMT-30" x="222.460938"/>
      </g>
     </g>
    </g>
    <g id="xtick_4">
     <g id="line2d_4">
      <path d="M 442.637102 354.583125 
L 442.637102 21.943125 
" clip-path="url(#pc1244c051c)" style="fill: none; stroke: #cccccc; stroke-linecap: round"/>
     </g>
     <g id="text_4">
      <!-- 15000 -->
      <g style="fill: #262626" transform="translate(427.344524 371.956719) scale(0.11 -0.11)">
       <use xlink:href="#ArialMT-31"/>
       <use xlink:href="#ArialMT-35" x="55.615234"/>
       <use xlink:href="#ArialMT-30" x="111.230469"/>
       <use xlink:href="#ArialMT-30" x="166.845703"/>
       <use xlink:href="#ArialMT-30" x="222.460938"/>
      </g>
     </g>
    </g>
    <g id="xtick_5">
     <g id="line2d_5">
      <path d="M 564.382557 354.583125 
L 564.382557 21.943125 
" clip-path="url(#pc1244c051c)" style="fill: none; stroke: #cccccc; stroke-linecap: round"/>
     </g>
     <g id="text_5">
      <!-- 20000 -->
      <g style="fill: #262626" transform="translate(549.089979 371.956719) scale(0.11 -0.11)">
       <defs>
        <path id="ArialMT-32" d="M 3222 541 
L 3222 0 
L 194 0 
Q 188 203 259 391 
Q 375 700 629 1000 
Q 884 1300 1366 1694 
Q 2113 2306 2375 2664 
Q 2638 3022 2638 3341 
Q 2638 3675 2398 3904 
Q 2159 4134 1775 4134 
Q 1369 4134 1125 3890 
Q 881 3647 878 3216 
L 300 3275 
Q 359 3922 746 4261 
Q 1134 4600 1788 4600 
Q 2447 4600 2831 4234 
Q 3216 3869 3216 3328 
Q 3216 3053 3103 2787 
Q 2991 2522 2730 2228 
Q 2469 1934 1863 1422 
Q 1356 997 1212 845 
Q 1069 694 975 541 
L 3222 541 
z
" transform="scale(0.015625)"/>
       </defs>
       <use xlink:href="#ArialMT-32"/>
       <use xlink:href="#ArialMT-30" x="55.615234"/>
       <use xlink:href="#ArialMT-30" x="111.230469"/>
       <use xlink:href="#ArialMT-30" x="166.845703"/>
       <use xlink:href="#ArialMT-30" x="222.460938"/>
      </g>
     </g>
    </g>
    <g id="xtick_6">
     <g id="line2d_6">
      <path d="M 686.128011 354.583125 
L 686.128011 21.943125 
" clip-path="url(#pc1244c051c)" style="fill: none; stroke: #cccccc; stroke-linecap: round"/>
     </g>
     <g id="text_6">
      <!-- 25000 -->
      <g style="fill: #262626" transform="translate(670.835433 371.956719) scale(0.11 -0.11)">
       <use xlink:href="#ArialMT-32"/>
       <use xlink:href="#ArialMT-35" x="55.615234"/>
       <use xlink:href="#ArialMT-30" x="111.230469"/>
       <use xlink:href="#ArialMT-30" x="166.845703"/>
       <use xlink:href="#ArialMT-30" x="222.460938"/>
      </g>
     </g>
    </g>
    <g id="text_7">
     <!-- Iteration -->
     <g style="fill: #262626" transform="translate(360.086563 386.732344) scale(0.12 -0.12)">
      <defs>
       <path id="ArialMT-49" d="M 597 0 
L 597 4581 
L 1203 4581 
L 1203 0 
L 597 0 
z
" transform="scale(0.015625)"/>
       <path id="ArialMT-74" d="M 1650 503 
L 1731 6 
Q 1494 -44 1306 -44 
Q 1000 -44 831 53 
Q 663 150 594 308 
Q 525 466 525 972 
L 525 2881 
L 113 2881 
L 113 3319 
L 525 3319 
L 525 4141 
L 1084 4478 
L 1084 3319 
L 1650 3319 
L 1650 2881 
L 1084 2881 
L 1084 941 
Q 1084 700 1114 631 
Q 1144 563 1211 522 
Q 1278 481 1403 481 
Q 1497 481 1650 503 
z
" transform="scale(0.015625)"/>
       <path id="ArialMT-65" d="M 2694 1069 
L 3275 997 
Q 3138 488 2766 206 
Q 2394 -75 1816 -75 
Q 1088 -75 661 373 
Q 234 822 234 1631 
Q 234 2469 665 2931 
Q 1097 3394 1784 3394 
Q 2450 3394 2872 2941 
Q 3294 2488 3294 1666 
Q 3294 1616 3291 1516 
L 816 1516 
Q 847 969 1125 678 
Q 1403 388 1819 388 
Q 2128 388 2347 550 
Q 2566 713 2694 1069 
z
M 847 1978 
L 2700 1978 
Q 2663 2397 2488 2606 
Q 2219 2931 1791 2931 
Q 1403 2931 1139 2672 
Q 875 2413 847 1978 
z
" transform="scale(0.015625)"/>
       <path id="ArialMT-72" d="M 416 0 
L 416 3319 
L 922 3319 
L 922 2816 
Q 1116 3169 1280 3281 
Q 1444 3394 1641 3394 
Q 1925 3394 2219 3213 
L 2025 2691 
Q 1819 2813 1613 2813 
Q 1428 2813 1281 2702 
Q 1134 2591 1072 2394 
Q 978 2094 978 1738 
L 978 0 
L 416 0 
z
" transform="scale(0.015625)"/>
       <path id="ArialMT-61" d="M 2588 409 
Q 2275 144 1986 34 
Q 1697 -75 1366 -75 
Q 819 -75 525 192 
Q 231 459 231 875 
Q 231 1119 342 1320 
Q 453 1522 633 1644 
Q 813 1766 1038 1828 
Q 1203 1872 1538 1913 
Q 2219 1994 2541 2106 
Q 2544 2222 2544 2253 
Q 2544 2597 2384 2738 
Q 2169 2928 1744 2928 
Q 1347 2928 1158 2789 
Q 969 2650 878 2297 
L 328 2372 
Q 403 2725 575 2942 
Q 747 3159 1072 3276 
Q 1397 3394 1825 3394 
Q 2250 3394 2515 3294 
Q 2781 3194 2906 3042 
Q 3031 2891 3081 2659 
Q 3109 2516 3109 2141 
L 3109 1391 
Q 3109 606 3145 398 
Q 3181 191 3288 0 
L 2700 0 
Q 2613 175 2588 409 
z
M 2541 1666 
Q 2234 1541 1622 1453 
Q 1275 1403 1131 1340 
Q 988 1278 909 1158 
Q 831 1038 831 891 
Q 831 666 1001 516 
Q 1172 366 1500 366 
Q 1825 366 2078 508 
Q 2331 650 2450 897 
Q 2541 1088 2541 1459 
L 2541 1666 
z
" transform="scale(0.015625)"/>
       <path id="ArialMT-69" d="M 425 3934 
L 425 4581 
L 988 4581 
L 988 3934 
L 425 3934 
z
M 425 0 
L 425 3319 
L 988 3319 
L 988 0 
L 425 0 
z
" transform="scale(0.015625)"/>
       <path id="ArialMT-6f" d="M 213 1659 
Q 213 2581 725 3025 
Q 1153 3394 1769 3394 
Q 2453 3394 2887 2945 
Q 3322 2497 3322 1706 
Q 3322 1066 3130 698 
Q 2938 331 2570 128 
Q 2203 -75 1769 -75 
Q 1072 -75 642 372 
Q 213 819 213 1659 
z
M 791 1659 
Q 791 1022 1069 705 
Q 1347 388 1769 388 
Q 2188 388 2466 706 
Q 2744 1025 2744 1678 
Q 2744 2294 2464 2611 
Q 2184 2928 1769 2928 
Q 1347 2928 1069 2612 
Q 791 2297 791 1659 
z
" transform="scale(0.015625)"/>
       <path id="ArialMT-6e" d="M 422 0 
L 422 3319 
L 928 3319 
L 928 2847 
Q 1294 3394 1984 3394 
Q 2284 3394 2536 3286 
Q 2788 3178 2913 3003 
Q 3038 2828 3088 2588 
Q 3119 2431 3119 2041 
L 3119 0 
L 2556 0 
L 2556 2019 
Q 2556 2363 2490 2533 
Q 2425 2703 2258 2804 
Q 2091 2906 1866 2906 
Q 1506 2906 1245 2678 
Q 984 2450 984 1813 
L 984 0 
L 422 0 
z
" transform="scale(0.015625)"/>
      </defs>
      <use xlink:href="#ArialMT-49"/>
      <use xlink:href="#ArialMT-74" x="27.783203"/>
      <use xlink:href="#ArialMT-65" x="55.566406"/>
      <use xlink:href="#ArialMT-72" x="111.181641"/>
      <use xlink:href="#ArialMT-61" x="144.482422"/>
      <use xlink:href="#ArialMT-74" x="200.097656"/>
      <use xlink:href="#ArialMT-69" x="227.880859"/>
      <use xlink:href="#ArialMT-6f" x="250.097656"/>
      <use xlink:href="#ArialMT-6e" x="305.712891"/>
     </g>
    </g>
   </g>
   <g id="matplotlib.axis_2">
    <g id="ytick_1">
     <g id="line2d_7">
      <path d="M 46.964375 354.583125 
L 716.564375 354.583125 
" clip-path="url(#pc1244c051c)" style="fill: none; stroke: #cccccc; stroke-linecap: round"/>
     </g>
     <g id="text_8">
      <!-- 0.0 -->
      <g style="fill: #262626" transform="translate(22.174375 358.519922) scale(0.11 -0.11)">
       <defs>
        <path id="ArialMT-2e" d="M 581 0 
L 581 641 
L 1222 641 
L 1222 0 
L 581 0 
z
" transform="scale(0.015625)"/>
       </defs>
       <use xlink:href="#ArialMT-30"/>
       <use xlink:href="#ArialMT-2e" x="55.615234"/>
       <use xlink:href="#ArialMT-30" x="83.398438"/>
      </g>
     </g>
    </g>
    <g id="ytick_2">
     <g id="line2d_8">
      <path d="M 46.964375 291.223125 
L 716.564375 291.223125 
" clip-path="url(#pc1244c051c)" style="fill: none; stroke: #cccccc; stroke-linecap: round"/>
     </g>
     <g id="text_9">
      <!-- 0.2 -->
      <g style="fill: #262626" transform="translate(22.174375 295.159922) scale(0.11 -0.11)">
       <use xlink:href="#ArialMT-30"/>
       <use xlink:href="#ArialMT-2e" x="55.615234"/>
       <use xlink:href="#ArialMT-32" x="83.398438"/>
      </g>
     </g>
    </g>
    <g id="ytick_3">
     <g id="line2d_9">
      <path d="M 46.964375 227.863125 
L 716.564375 227.863125 
" clip-path="url(#pc1244c051c)" style="fill: none; stroke: #cccccc; stroke-linecap: round"/>
     </g>
     <g id="text_10">
      <!-- 0.4 -->
      <g style="fill: #262626" transform="translate(22.174375 231.799922) scale(0.11 -0.11)">
       <defs>
        <path id="ArialMT-34" d="M 2069 0 
L 2069 1097 
L 81 1097 
L 81 1613 
L 2172 4581 
L 2631 4581 
L 2631 1613 
L 3250 1613 
L 3250 1097 
L 2631 1097 
L 2631 0 
L 2069 0 
z
M 2069 1613 
L 2069 3678 
L 634 1613 
L 2069 1613 
z
" transform="scale(0.015625)"/>
       </defs>
       <use xlink:href="#ArialMT-30"/>
       <use xlink:href="#ArialMT-2e" x="55.615234"/>
       <use xlink:href="#ArialMT-34" x="83.398438"/>
      </g>
     </g>
    </g>
    <g id="ytick_4">
     <g id="line2d_10">
      <path d="M 46.964375 164.503125 
L 716.564375 164.503125 
" clip-path="url(#pc1244c051c)" style="fill: none; stroke: #cccccc; stroke-linecap: round"/>
     </g>
     <g id="text_11">
      <!-- 0.6 -->
      <g style="fill: #262626" transform="translate(22.174375 168.439922) scale(0.11 -0.11)">
       <defs>
        <path id="ArialMT-36" d="M 3184 3459 
L 2625 3416 
Q 2550 3747 2413 3897 
Q 2184 4138 1850 4138 
Q 1581 4138 1378 3988 
Q 1113 3794 959 3422 
Q 806 3050 800 2363 
Q 1003 2672 1297 2822 
Q 1591 2972 1913 2972 
Q 2475 2972 2870 2558 
Q 3266 2144 3266 1488 
Q 3266 1056 3080 686 
Q 2894 316 2569 119 
Q 2244 -78 1831 -78 
Q 1128 -78 684 439 
Q 241 956 241 2144 
Q 241 3472 731 4075 
Q 1159 4600 1884 4600 
Q 2425 4600 2770 4297 
Q 3116 3994 3184 3459 
z
M 888 1484 
Q 888 1194 1011 928 
Q 1134 663 1356 523 
Q 1578 384 1822 384 
Q 2178 384 2434 671 
Q 2691 959 2691 1453 
Q 2691 1928 2437 2201 
Q 2184 2475 1800 2475 
Q 1419 2475 1153 2201 
Q 888 1928 888 1484 
z
" transform="scale(0.015625)"/>
       </defs>
       <use xlink:href="#ArialMT-30"/>
       <use xlink:href="#ArialMT-2e" x="55.615234"/>
       <use xlink:href="#ArialMT-36" x="83.398438"/>
      </g>
     </g>
    </g>
    <g id="ytick_5">
     <g id="line2d_11">
      <path d="M 46.964375 101.143125 
L 716.564375 101.143125 
" clip-path="url(#pc1244c051c)" style="fill: none; stroke: #cccccc; stroke-linecap: round"/>
     </g>
     <g id="text_12">
      <!-- 0.8 -->
      <g style="fill: #262626" transform="translate(22.174375 105.079922) scale(0.11 -0.11)">
       <defs>
        <path id="ArialMT-38" d="M 1131 2484 
Q 781 2613 612 2850 
Q 444 3088 444 3419 
Q 444 3919 803 4259 
Q 1163 4600 1759 4600 
Q 2359 4600 2725 4251 
Q 3091 3903 3091 3403 
Q 3091 3084 2923 2848 
Q 2756 2613 2416 2484 
Q 2838 2347 3058 2040 
Q 3278 1734 3278 1309 
Q 3278 722 2862 322 
Q 2447 -78 1769 -78 
Q 1091 -78 675 323 
Q 259 725 259 1325 
Q 259 1772 486 2073 
Q 713 2375 1131 2484 
z
M 1019 3438 
Q 1019 3113 1228 2906 
Q 1438 2700 1772 2700 
Q 2097 2700 2305 2904 
Q 2513 3109 2513 3406 
Q 2513 3716 2298 3927 
Q 2084 4138 1766 4138 
Q 1444 4138 1231 3931 
Q 1019 3725 1019 3438 
z
M 838 1322 
Q 838 1081 952 856 
Q 1066 631 1291 507 
Q 1516 384 1775 384 
Q 2178 384 2440 643 
Q 2703 903 2703 1303 
Q 2703 1709 2433 1975 
Q 2163 2241 1756 2241 
Q 1359 2241 1098 1978 
Q 838 1716 838 1322 
z
" transform="scale(0.015625)"/>
       </defs>
       <use xlink:href="#ArialMT-30"/>
       <use xlink:href="#ArialMT-2e" x="55.615234"/>
       <use xlink:href="#ArialMT-38" x="83.398438"/>
      </g>
     </g>
    </g>
    <g id="ytick_6">
     <g id="line2d_12">
      <path d="M 46.964375 37.783125 
L 716.564375 37.783125 
" clip-path="url(#pc1244c051c)" style="fill: none; stroke: #cccccc; stroke-linecap: round"/>
     </g>
     <g id="text_13">
      <!-- 1.0 -->
      <g style="fill: #262626" transform="translate(22.174375 41.719922) scale(0.11 -0.11)">
       <use xlink:href="#ArialMT-31"/>
       <use xlink:href="#ArialMT-2e" x="55.615234"/>
       <use xlink:href="#ArialMT-30" x="83.398438"/>
      </g>
     </g>
    </g>
    <g id="text_14">
     <!-- Beliefs -->
     <g style="fill: #262626" transform="translate(15.789375 206.271563) rotate(-90) scale(0.12 -0.12)">
      <defs>
       <path id="ArialMT-42" d="M 469 0 
L 469 4581 
L 2188 4581 
Q 2713 4581 3030 4442 
Q 3347 4303 3526 4014 
Q 3706 3725 3706 3409 
Q 3706 3116 3547 2856 
Q 3388 2597 3066 2438 
Q 3481 2316 3704 2022 
Q 3928 1728 3928 1328 
Q 3928 1006 3792 729 
Q 3656 453 3456 303 
Q 3256 153 2954 76 
Q 2653 0 2216 0 
L 469 0 
z
M 1075 2656 
L 2066 2656 
Q 2469 2656 2644 2709 
Q 2875 2778 2992 2937 
Q 3109 3097 3109 3338 
Q 3109 3566 3000 3739 
Q 2891 3913 2687 3977 
Q 2484 4041 1991 4041 
L 1075 4041 
L 1075 2656 
z
M 1075 541 
L 2216 541 
Q 2509 541 2628 563 
Q 2838 600 2978 687 
Q 3119 775 3209 942 
Q 3300 1109 3300 1328 
Q 3300 1584 3169 1773 
Q 3038 1963 2805 2039 
Q 2572 2116 2134 2116 
L 1075 2116 
L 1075 541 
z
" transform="scale(0.015625)"/>
       <path id="ArialMT-6c" d="M 409 0 
L 409 4581 
L 972 4581 
L 972 0 
L 409 0 
z
" transform="scale(0.015625)"/>
       <path id="ArialMT-66" d="M 556 0 
L 556 2881 
L 59 2881 
L 59 3319 
L 556 3319 
L 556 3672 
Q 556 4006 616 4169 
Q 697 4388 901 4523 
Q 1106 4659 1475 4659 
Q 1713 4659 2000 4603 
L 1916 4113 
Q 1741 4144 1584 4144 
Q 1328 4144 1222 4034 
Q 1116 3925 1116 3625 
L 1116 3319 
L 1763 3319 
L 1763 2881 
L 1116 2881 
L 1116 0 
L 556 0 
z
" transform="scale(0.015625)"/>
       <path id="ArialMT-73" d="M 197 991 
L 753 1078 
Q 800 744 1014 566 
Q 1228 388 1613 388 
Q 2000 388 2187 545 
Q 2375 703 2375 916 
Q 2375 1106 2209 1216 
Q 2094 1291 1634 1406 
Q 1016 1563 777 1677 
Q 538 1791 414 1992 
Q 291 2194 291 2438 
Q 291 2659 392 2848 
Q 494 3038 669 3163 
Q 800 3259 1026 3326 
Q 1253 3394 1513 3394 
Q 1903 3394 2198 3281 
Q 2494 3169 2634 2976 
Q 2775 2784 2828 2463 
L 2278 2388 
Q 2241 2644 2061 2787 
Q 1881 2931 1553 2931 
Q 1166 2931 1000 2803 
Q 834 2675 834 2503 
Q 834 2394 903 2306 
Q 972 2216 1119 2156 
Q 1203 2125 1616 2013 
Q 2213 1853 2448 1751 
Q 2684 1650 2818 1456 
Q 2953 1263 2953 975 
Q 2953 694 2789 445 
Q 2625 197 2315 61 
Q 2006 -75 1616 -75 
Q 969 -75 630 194 
Q 291 463 197 991 
z
" transform="scale(0.015625)"/>
      </defs>
      <use xlink:href="#ArialMT-42"/>
      <use xlink:href="#ArialMT-65" x="66.699219"/>
      <use xlink:href="#ArialMT-6c" x="122.314453"/>
      <use xlink:href="#ArialMT-69" x="144.53125"/>
      <use xlink:href="#ArialMT-65" x="166.748047"/>
      <use xlink:href="#ArialMT-66" x="222.363281"/>
      <use xlink:href="#ArialMT-73" x="250.146484"/>
     </g>
    </g>
   </g>
   <g id="line2d_13">
    <path d="M 77.400739 196.251698 
L 77.425088 196.12185 
L 79.835648 186.820566 
L 82.270557 180.689827 
L 84.705466 173.767939 
L 89.575284 165.697489 
L 92.010193 162.547506 
L 94.445102 158.53056 
L 96.880011 155.726924 
L 99.31492 153.794785 
L 101.74983 151.510123 
L 104.184739 148.754789 
L 106.619648 145.285348 
L 109.054557 144.275215 
L 111.489466 142.343302 
L 113.924375 139.353709 
L 116.359284 138.187152 
L 118.794193 136.734898 
L 121.229102 134.789692 
L 123.664011 133.178351 
L 126.09892 131.893758 
L 128.53383 130.862986 
L 130.968739 128.335624 
L 133.403648 128.298047 
L 135.838557 126.536362 
L 140.708375 123.583081 
L 143.143284 122.540017 
L 145.578193 120.329205 
L 148.013102 119.175885 
L 150.448011 118.467441 
L 152.88292 117.923505 
L 155.31783 116.816806 
L 157.752739 115.312039 
L 160.187648 114.559165 
L 162.622557 112.721722 
L 165.057466 111.422004 
L 167.492375 111.340279 
L 169.927284 109.713945 
L 174.797102 108.197434 
L 177.232011 107.557044 
L 179.66692 106.394584 
L 184.536739 104.735791 
L 186.971648 104.038319 
L 189.406557 102.958887 
L 194.276375 102.229578 
L 196.711284 102.077289 
L 199.146193 101.556238 
L 201.581102 100.777174 
L 204.016011 100.53251 
L 206.45092 99.579686 
L 208.88583 98.833666 
L 211.320739 97.505284 
L 213.755648 97.157671 
L 216.190557 96.55093 
L 218.625466 96.595267 
L 225.930193 95.091029 
L 228.365102 94.847442 
L 230.800011 94.057142 
L 235.66983 93.597423 
L 238.104739 92.807822 
L 242.974557 92.007778 
L 245.409466 91.319275 
L 247.844375 91.003499 
L 250.279284 90.824547 
L 252.714193 89.828558 
L 255.149102 89.62164 
L 257.584011 88.518737 
L 260.01892 88.475684 
L 262.45383 88.231719 
L 264.888739 87.519745 
L 267.323648 86.93166 
L 272.193466 86.381228 
L 274.628375 85.577087 
L 279.498193 85.769937 
L 281.933102 85.609736 
L 284.368011 84.736654 
L 286.80292 84.778932 
L 289.23783 84.676795 
L 294.107648 83.567963 
L 296.542557 83.602896 
L 298.977466 84.109973 
L 306.282193 83.136586 
L 308.717102 82.552618 
L 313.58692 81.914513 
L 316.02183 82.113273 
L 320.891648 80.670064 
L 323.326557 80.275056 
L 330.631284 79.517424 
L 333.066193 79.669335 
L 335.501102 78.881566 
L 337.936011 78.239779 
L 347.675648 77.498687 
L 350.110557 77.671993 
L 352.545466 77.406558 
L 354.980375 76.931865 
L 357.415284 77.185385 
L 359.850193 76.964985 
L 362.285102 76.876236 
L 367.15492 76.21687 
L 369.58983 76.102799 
L 374.459648 75.502535 
L 376.894557 74.832972 
L 379.329466 75.117119 
L 389.069102 74.227761 
L 393.93892 73.494034 
L 396.37383 73.47736 
L 398.808739 73.02374 
L 401.243648 72.877115 
L 403.678557 72.925493 
L 406.113466 72.639797 
L 410.983284 72.470985 
L 413.418193 72.671935 
L 415.853102 71.807369 
L 418.288011 71.976597 
L 420.72292 71.591917 
L 423.15783 71.604342 
L 425.592739 71.414986 
L 428.027648 71.919269 
L 430.462557 71.526111 
L 432.897466 71.267096 
L 435.332375 70.805092 
L 437.767284 70.492016 
L 440.202193 70.707468 
L 442.637102 70.402379 
L 447.50692 70.154034 
L 449.94183 69.991982 
L 452.376739 70.193064 
L 462.116375 69.161651 
L 464.551284 69.132722 
L 466.986193 69.35146 
L 471.856011 68.928694 
L 474.29092 68.987023 
L 476.72583 68.420125 
L 479.160739 68.004421 
L 481.595648 68.076874 
L 484.030557 67.710058 
L 486.465466 67.693762 
L 488.900375 67.470549 
L 491.335284 67.500818 
L 496.205102 67.850111 
L 498.640011 67.720481 
L 503.50983 67.044686 
L 505.944739 66.980844 
L 508.379648 67.101807 
L 510.814557 67.000954 
L 513.249466 67.148957 
L 515.684375 66.959657 
L 518.119284 66.919664 
L 520.554193 66.297911 
L 522.989102 66.361131 
L 527.85892 65.889761 
L 532.728739 66.413285 
L 535.163648 66.065427 
L 537.598557 66.051152 
L 540.033466 65.509009 
L 542.468375 65.404493 
L 547.338193 65.437745 
L 552.208011 65.785585 
L 554.64292 65.479873 
L 557.07783 65.398752 
L 559.512739 65.52251 
L 561.947648 65.512049 
L 564.382557 65.289516 
L 566.817466 65.543999 
L 569.252375 64.992924 
L 574.122193 64.567817 
L 576.557102 64.818769 
L 583.86183 64.458656 
L 586.296739 63.875613 
L 588.731648 64.043613 
L 591.166557 63.890908 
L 593.601466 63.412986 
L 596.036375 63.790981 
L 598.471284 63.880258 
L 600.906193 63.721586 
L 603.341102 63.438742 
L 605.776011 63.330732 
L 608.21092 63.470049 
L 610.64583 63.456001 
L 617.950557 63.007497 
L 620.385466 62.963368 
L 627.690193 62.409028 
L 632.560011 62.553953 
L 634.99492 62.245239 
L 637.42983 62.212477 
L 642.299648 62.473078 
L 644.734557 62.260647 
L 647.169466 62.2557 
L 649.604375 62.009601 
L 652.039284 62.006655 
L 654.474193 62.193821 
L 661.77892 62.103561 
L 664.21383 62.450853 
L 666.648739 62.070819 
L 669.083648 62.063738 
L 673.953466 61.568179 
L 676.388375 61.71926 
L 678.823284 61.561758 
L 681.258193 61.674791 
L 683.693102 61.271568 
L 686.128011 61.040802 
L 686.128011 61.040802 
" clip-path="url(#pc1244c051c)" style="fill: none; stroke: #4c72b0; stroke-width: 2.5; stroke-linecap: round"/>
   </g>
   <g id="line2d_14">
    <path d="M 77.400739 196.280031 
L 77.425088 196.218209 
L 79.835648 184.921339 
L 82.270557 174.543227 
L 84.705466 162.661634 
L 87.140375 155.027677 
L 89.575284 146.529495 
L 92.010193 140.32315 
L 94.445102 132.16701 
L 96.880011 125.769949 
L 99.31492 121.831762 
L 101.74983 116.736969 
L 104.184739 111.105378 
L 106.619648 104.511332 
L 109.054557 101.997585 
L 111.489466 98.167974 
L 113.924375 92.117336 
L 118.794193 86.782694 
L 121.229102 83.282248 
L 123.664011 80.195258 
L 126.09892 77.90208 
L 128.53383 76.11445 
L 130.968739 71.801346 
L 133.403648 70.708261 
L 135.838557 68.308736 
L 138.273466 66.560287 
L 140.708375 63.81938 
L 143.143284 62.401059 
L 145.578193 60.099233 
L 150.448011 57.25804 
L 152.88292 56.32576 
L 157.752739 53.287412 
L 160.187648 52.328716 
L 162.622557 50.775629 
L 165.057466 49.694421 
L 167.492375 49.193783 
L 169.927284 48.032531 
L 174.797102 46.726638 
L 177.232011 46.137855 
L 182.10183 44.634694 
L 189.406557 43.206308 
L 194.276375 42.499281 
L 199.146193 42.110259 
L 204.016011 41.487845 
L 206.45092 41.111833 
L 216.190557 40.132989 
L 242.974557 38.852984 
L 260.01892 38.370152 
L 286.80292 38.021293 
L 347.675648 37.81296 
L 488.900375 37.783824 
L 686.128011 37.783295 
L 686.128011 37.783295 
" clip-path="url(#pc1244c051c)" style="fill: none; stroke: #dd8452; stroke-width: 2.5; stroke-linecap: round"/>
   </g>
   <g id="line2d_15">
    <path d="M 77.400739 274.871063 
L 77.425088 275.039667 
L 79.835648 275.078074 
L 82.270557 271.501936 
L 84.705466 266.235829 
L 87.140375 262.773091 
L 89.575284 259.947628 
L 92.010193 256.766347 
L 94.445102 252.669129 
L 96.880011 249.89868 
L 99.31492 248.951465 
L 101.74983 246.394221 
L 104.184739 242.614159 
L 106.619648 238.495613 
L 109.054557 237.29873 
L 111.489466 235.153536 
L 113.924375 230.997037 
L 116.359284 229.978454 
L 118.794193 228.09979 
L 121.229102 224.938846 
L 123.664011 222.931789 
L 126.09892 220.332625 
L 128.53383 219.099412 
L 130.968739 214.672492 
L 133.403648 215.316384 
L 135.838557 212.000413 
L 138.273466 209.094622 
L 140.708375 206.637164 
L 143.143284 204.739343 
L 145.578193 200.285186 
L 148.013102 198.065207 
L 150.448011 197.256185 
L 152.88292 196.123493 
L 155.31783 192.434729 
L 157.752739 186.667767 
L 160.187648 185.085411 
L 162.622557 177.989065 
L 165.057466 173.817412 
L 167.492375 174.451797 
L 169.927284 168.253496 
L 172.362193 166.073898 
L 174.797102 162.866965 
L 177.232011 160.809462 
L 179.66692 157.092468 
L 182.10183 153.919033 
L 184.536739 149.836356 
L 186.971648 147.819187 
L 189.406557 143.641397 
L 191.841466 142.275343 
L 194.276375 141.243325 
L 196.711284 139.78501 
L 199.146193 137.554221 
L 201.581102 134.545255 
L 204.016011 133.312117 
L 206.45092 129.581848 
L 208.88583 127.05273 
L 211.320739 121.758139 
L 213.755648 120.634558 
L 216.190557 118.911639 
L 218.625466 117.58286 
L 221.060375 115.970613 
L 223.495284 113.195339 
L 225.930193 111.722674 
L 228.365102 110.8961 
L 230.800011 107.209148 
L 233.23492 105.854254 
L 235.66983 104.877185 
L 238.104739 102.689581 
L 240.539648 101.04242 
L 242.974557 99.005877 
L 245.409466 96.75173 
L 247.844375 94.276276 
L 250.279284 94.625192 
L 252.714193 90.695333 
L 257.584011 85.818371 
L 260.01892 85.726318 
L 262.45383 84.335603 
L 264.888739 82.003451 
L 267.323648 80.79994 
L 269.758557 79.80599 
L 272.193466 78.391237 
L 274.628375 76.719038 
L 277.063284 75.800335 
L 279.498193 75.574101 
L 281.933102 74.941982 
L 284.368011 73.418351 
L 289.23783 72.503312 
L 291.672739 70.792403 
L 294.107648 69.807252 
L 296.542557 68.664978 
L 298.977466 69.182384 
L 301.412375 68.97896 
L 303.847284 67.315446 
L 306.282193 66.415834 
L 313.58692 63.034424 
L 316.02183 62.995299 
L 318.456739 61.696147 
L 320.891648 59.900888 
L 323.326557 58.88173 
L 325.761466 58.230029 
L 328.196375 57.826637 
L 330.631284 56.98998 
L 333.066193 57.137794 
L 335.501102 55.682633 
L 337.936011 54.896638 
L 340.37092 53.65589 
L 342.80583 53.392816 
L 347.675648 51.845355 
L 350.110557 52.217251 
L 354.980375 51.063855 
L 357.415284 50.808995 
L 359.850193 50.212772 
L 362.285102 50.172287 
L 364.720011 49.601461 
L 369.58983 48.852099 
L 372.024739 48.113841 
L 374.459648 47.833885 
L 376.894557 46.852926 
L 379.329466 47.130559 
L 381.764375 46.866219 
L 384.199284 46.28329 
L 386.634193 45.96944 
L 389.069102 45.489799 
L 391.504011 45.149551 
L 393.93892 44.637224 
L 398.808739 44.189835 
L 401.243648 43.854458 
L 406.113466 43.7831 
L 408.548375 43.721486 
L 410.983284 43.214956 
L 413.418193 43.291035 
L 415.853102 42.905619 
L 418.288011 42.86081 
L 420.72292 42.53091 
L 423.15783 42.361928 
L 428.027648 42.183146 
L 432.897466 41.654429 
L 435.332375 41.580881 
L 437.767284 41.321772 
L 442.637102 41.088418 
L 449.94183 40.708856 
L 459.681466 40.188806 
L 464.551284 39.868649 
L 469.421102 39.868574 
L 479.160739 39.450963 
L 549.773102 38.339052 
L 569.252375 38.213916 
L 603.341102 37.992629 
L 686.128011 37.833448 
L 686.128011 37.833448 
" clip-path="url(#pc1244c051c)" style="fill: none; stroke-dasharray: 7.4,3.2; stroke-dashoffset: 0; stroke: #55a868; stroke-width: 2"/>
   </g>
   <g id="line2d_16">
    <path d="M 77.400739 117.346712 
L 77.425088 116.91003 
L 79.835648 94.351751 
L 82.270557 83.663188 
L 84.705466 73.751859 
L 87.140375 67.963955 
L 89.575284 62.676162 
L 94.445102 55.333226 
L 96.880011 52.696231 
L 99.31492 50.527113 
L 101.74983 48.806762 
L 104.184739 47.223103 
L 106.619648 45.45817 
L 109.054557 44.754712 
L 111.489466 43.862804 
L 113.924375 42.620924 
L 118.794193 41.523326 
L 123.664011 40.561665 
L 133.403648 39.344502 
L 140.708375 38.779681 
L 150.448011 38.321831 
L 167.492375 37.950313 
L 191.841466 37.818134 
L 260.01892 37.783786 
L 686.128011 37.783125 
L 686.128011 37.783125 
" clip-path="url(#pc1244c051c)" style="fill: none; stroke-dasharray: 7.4,3.2; stroke-dashoffset: 0; stroke: #c44e52; stroke-width: 2"/>
   </g>
   <g id="patch_3">
    <path d="M 46.964375 354.583125 
L 46.964375 21.943125 
" style="fill: none; stroke: #cccccc; stroke-width: 1.25; stroke-linejoin: miter; stroke-linecap: square"/>
   </g>
   <g id="patch_4">
    <path d="M 46.964375 354.583125 
L 716.564375 354.583125 
" style="fill: none; stroke: #cccccc; stroke-width: 1.25; stroke-linejoin: miter; stroke-linecap: square"/>
   </g>
   <g id="text_15">
    <!-- Aggregated Profile for the Op: UnreliableNetworkModifiedAlignedBinomialOp -->
    <g style="fill: #262626" transform="translate(177.667813 15.943125) scale(0.12 -0.12)">
     <defs>
      <path id="ArialMT-41" d="M -9 0 
L 1750 4581 
L 2403 4581 
L 4278 0 
L 3588 0 
L 3053 1388 
L 1138 1388 
L 634 0 
L -9 0 
z
M 1313 1881 
L 2866 1881 
L 2388 3150 
Q 2169 3728 2063 4100 
Q 1975 3659 1816 3225 
L 1313 1881 
z
" transform="scale(0.015625)"/>
      <path id="ArialMT-67" d="M 319 -275 
L 866 -356 
Q 900 -609 1056 -725 
Q 1266 -881 1628 -881 
Q 2019 -881 2231 -725 
Q 2444 -569 2519 -288 
Q 2563 -116 2559 434 
Q 2191 0 1641 0 
Q 956 0 581 494 
Q 206 988 206 1678 
Q 206 2153 378 2554 
Q 550 2956 876 3175 
Q 1203 3394 1644 3394 
Q 2231 3394 2613 2919 
L 2613 3319 
L 3131 3319 
L 3131 450 
Q 3131 -325 2973 -648 
Q 2816 -972 2473 -1159 
Q 2131 -1347 1631 -1347 
Q 1038 -1347 672 -1080 
Q 306 -813 319 -275 
z
M 784 1719 
Q 784 1066 1043 766 
Q 1303 466 1694 466 
Q 2081 466 2343 764 
Q 2606 1063 2606 1700 
Q 2606 2309 2336 2618 
Q 2066 2928 1684 2928 
Q 1309 2928 1046 2623 
Q 784 2319 784 1719 
z
" transform="scale(0.015625)"/>
      <path id="ArialMT-64" d="M 2575 0 
L 2575 419 
Q 2259 -75 1647 -75 
Q 1250 -75 917 144 
Q 584 363 401 755 
Q 219 1147 219 1656 
Q 219 2153 384 2558 
Q 550 2963 881 3178 
Q 1213 3394 1622 3394 
Q 1922 3394 2156 3267 
Q 2391 3141 2538 2938 
L 2538 4581 
L 3097 4581 
L 3097 0 
L 2575 0 
z
M 797 1656 
Q 797 1019 1065 703 
Q 1334 388 1700 388 
Q 2069 388 2326 689 
Q 2584 991 2584 1609 
Q 2584 2291 2321 2609 
Q 2059 2928 1675 2928 
Q 1300 2928 1048 2622 
Q 797 2316 797 1656 
z
" transform="scale(0.015625)"/>
      <path id="ArialMT-20" transform="scale(0.015625)"/>
      <path id="ArialMT-50" d="M 494 0 
L 494 4581 
L 2222 4581 
Q 2678 4581 2919 4538 
Q 3256 4481 3484 4323 
Q 3713 4166 3852 3881 
Q 3991 3597 3991 3256 
Q 3991 2672 3619 2267 
Q 3247 1863 2275 1863 
L 1100 1863 
L 1100 0 
L 494 0 
z
M 1100 2403 
L 2284 2403 
Q 2872 2403 3119 2622 
Q 3366 2841 3366 3238 
Q 3366 3525 3220 3729 
Q 3075 3934 2838 4000 
Q 2684 4041 2272 4041 
L 1100 4041 
L 1100 2403 
z
" transform="scale(0.015625)"/>
      <path id="ArialMT-68" d="M 422 0 
L 422 4581 
L 984 4581 
L 984 2938 
Q 1378 3394 1978 3394 
Q 2347 3394 2619 3248 
Q 2891 3103 3008 2847 
Q 3125 2591 3125 2103 
L 3125 0 
L 2563 0 
L 2563 2103 
Q 2563 2525 2380 2717 
Q 2197 2909 1863 2909 
Q 1613 2909 1392 2779 
Q 1172 2650 1078 2428 
Q 984 2206 984 1816 
L 984 0 
L 422 0 
z
" transform="scale(0.015625)"/>
      <path id="ArialMT-4f" d="M 309 2231 
Q 309 3372 921 4017 
Q 1534 4663 2503 4663 
Q 3138 4663 3647 4359 
Q 4156 4056 4423 3514 
Q 4691 2972 4691 2284 
Q 4691 1588 4409 1038 
Q 4128 488 3612 205 
Q 3097 -78 2500 -78 
Q 1853 -78 1343 234 
Q 834 547 571 1087 
Q 309 1628 309 2231 
z
M 934 2222 
Q 934 1394 1379 917 
Q 1825 441 2497 441 
Q 3181 441 3623 922 
Q 4066 1403 4066 2288 
Q 4066 2847 3877 3264 
Q 3688 3681 3323 3911 
Q 2959 4141 2506 4141 
Q 1863 4141 1398 3698 
Q 934 3256 934 2222 
z
" transform="scale(0.015625)"/>
      <path id="ArialMT-70" d="M 422 -1272 
L 422 3319 
L 934 3319 
L 934 2888 
Q 1116 3141 1344 3267 
Q 1572 3394 1897 3394 
Q 2322 3394 2647 3175 
Q 2972 2956 3137 2557 
Q 3303 2159 3303 1684 
Q 3303 1175 3120 767 
Q 2938 359 2589 142 
Q 2241 -75 1856 -75 
Q 1575 -75 1351 44 
Q 1128 163 984 344 
L 984 -1272 
L 422 -1272 
z
M 931 1641 
Q 931 1000 1190 694 
Q 1450 388 1819 388 
Q 2194 388 2461 705 
Q 2728 1022 2728 1688 
Q 2728 2322 2467 2637 
Q 2206 2953 1844 2953 
Q 1484 2953 1207 2617 
Q 931 2281 931 1641 
z
" transform="scale(0.015625)"/>
      <path id="ArialMT-3a" d="M 578 2678 
L 578 3319 
L 1219 3319 
L 1219 2678 
L 578 2678 
z
M 578 0 
L 578 641 
L 1219 641 
L 1219 0 
L 578 0 
z
" transform="scale(0.015625)"/>
      <path id="ArialMT-55" d="M 3500 4581 
L 4106 4581 
L 4106 1934 
Q 4106 1244 3950 837 
Q 3794 431 3386 176 
Q 2978 -78 2316 -78 
Q 1672 -78 1262 144 
Q 853 366 678 786 
Q 503 1206 503 1934 
L 503 4581 
L 1109 4581 
L 1109 1938 
Q 1109 1341 1220 1058 
Q 1331 775 1601 622 
Q 1872 469 2263 469 
Q 2931 469 3215 772 
Q 3500 1075 3500 1938 
L 3500 4581 
z
" transform="scale(0.015625)"/>
      <path id="ArialMT-62" d="M 941 0 
L 419 0 
L 419 4581 
L 981 4581 
L 981 2947 
Q 1338 3394 1891 3394 
Q 2197 3394 2470 3270 
Q 2744 3147 2920 2923 
Q 3097 2700 3197 2384 
Q 3297 2069 3297 1709 
Q 3297 856 2875 390 
Q 2453 -75 1863 -75 
Q 1275 -75 941 416 
L 941 0 
z
M 934 1684 
Q 934 1088 1097 822 
Q 1363 388 1816 388 
Q 2184 388 2453 708 
Q 2722 1028 2722 1663 
Q 2722 2313 2464 2622 
Q 2206 2931 1841 2931 
Q 1472 2931 1203 2611 
Q 934 2291 934 1684 
z
" transform="scale(0.015625)"/>
      <path id="ArialMT-4e" d="M 488 0 
L 488 4581 
L 1109 4581 
L 3516 984 
L 3516 4581 
L 4097 4581 
L 4097 0 
L 3475 0 
L 1069 3600 
L 1069 0 
L 488 0 
z
" transform="scale(0.015625)"/>
      <path id="ArialMT-77" d="M 1034 0 
L 19 3319 
L 600 3319 
L 1128 1403 
L 1325 691 
Q 1338 744 1497 1375 
L 2025 3319 
L 2603 3319 
L 3100 1394 
L 3266 759 
L 3456 1400 
L 4025 3319 
L 4572 3319 
L 3534 0 
L 2950 0 
L 2422 1988 
L 2294 2553 
L 1622 0 
L 1034 0 
z
" transform="scale(0.015625)"/>
      <path id="ArialMT-6b" d="M 425 0 
L 425 4581 
L 988 4581 
L 988 1969 
L 2319 3319 
L 3047 3319 
L 1778 2088 
L 3175 0 
L 2481 0 
L 1384 1697 
L 988 1316 
L 988 0 
L 425 0 
z
" transform="scale(0.015625)"/>
      <path id="ArialMT-4d" d="M 475 0 
L 475 4581 
L 1388 4581 
L 2472 1338 
Q 2622 884 2691 659 
Q 2769 909 2934 1394 
L 4031 4581 
L 4847 4581 
L 4847 0 
L 4263 0 
L 4263 3834 
L 2931 0 
L 2384 0 
L 1059 3900 
L 1059 0 
L 475 0 
z
" transform="scale(0.015625)"/>
      <path id="ArialMT-6d" d="M 422 0 
L 422 3319 
L 925 3319 
L 925 2853 
Q 1081 3097 1340 3245 
Q 1600 3394 1931 3394 
Q 2300 3394 2536 3241 
Q 2772 3088 2869 2813 
Q 3263 3394 3894 3394 
Q 4388 3394 4653 3120 
Q 4919 2847 4919 2278 
L 4919 0 
L 4359 0 
L 4359 2091 
Q 4359 2428 4304 2576 
Q 4250 2725 4106 2815 
Q 3963 2906 3769 2906 
Q 3419 2906 3187 2673 
Q 2956 2441 2956 1928 
L 2956 0 
L 2394 0 
L 2394 2156 
Q 2394 2531 2256 2718 
Q 2119 2906 1806 2906 
Q 1569 2906 1367 2781 
Q 1166 2656 1075 2415 
Q 984 2175 984 1722 
L 984 0 
L 422 0 
z
" transform="scale(0.015625)"/>
     </defs>
     <use xlink:href="#ArialMT-41"/>
     <use xlink:href="#ArialMT-67" x="66.699219"/>
     <use xlink:href="#ArialMT-67" x="122.314453"/>
     <use xlink:href="#ArialMT-72" x="177.929688"/>
     <use xlink:href="#ArialMT-65" x="211.230469"/>
     <use xlink:href="#ArialMT-67" x="266.845703"/>
     <use xlink:href="#ArialMT-61" x="322.460938"/>
     <use xlink:href="#ArialMT-74" x="378.076172"/>
     <use xlink:href="#ArialMT-65" x="405.859375"/>
     <use xlink:href="#ArialMT-64" x="461.474609"/>
     <use xlink:href="#ArialMT-20" x="517.089844"/>
     <use xlink:href="#ArialMT-50" x="544.873047"/>
     <use xlink:href="#ArialMT-72" x="611.572266"/>
     <use xlink:href="#ArialMT-6f" x="644.873047"/>
     <use xlink:href="#ArialMT-66" x="700.488281"/>
     <use xlink:href="#ArialMT-69" x="728.271484"/>
     <use xlink:href="#ArialMT-6c" x="750.488281"/>
     <use xlink:href="#ArialMT-65" x="772.705078"/>
     <use xlink:href="#ArialMT-20" x="828.320312"/>
     <use xlink:href="#ArialMT-66" x="856.103516"/>
     <use xlink:href="#ArialMT-6f" x="883.886719"/>
     <use xlink:href="#ArialMT-72" x="939.501953"/>
     <use xlink:href="#ArialMT-20" x="972.802734"/>
     <use xlink:href="#ArialMT-74" x="1000.585938"/>
     <use xlink:href="#ArialMT-68" x="1028.369141"/>
     <use xlink:href="#ArialMT-65" x="1083.984375"/>
     <use xlink:href="#ArialMT-20" x="1139.599609"/>
     <use xlink:href="#ArialMT-4f" x="1167.382812"/>
     <use xlink:href="#ArialMT-70" x="1245.166016"/>
     <use xlink:href="#ArialMT-3a" x="1300.78125"/>
     <use xlink:href="#ArialMT-20" x="1328.564453"/>
     <use xlink:href="#ArialMT-55" x="1356.347656"/>
     <use xlink:href="#ArialMT-6e" x="1428.564453"/>
     <use xlink:href="#ArialMT-72" x="1484.179688"/>
     <use xlink:href="#ArialMT-65" x="1517.480469"/>
     <use xlink:href="#ArialMT-6c" x="1573.095703"/>
     <use xlink:href="#ArialMT-69" x="1595.3125"/>
     <use xlink:href="#ArialMT-61" x="1617.529297"/>
     <use xlink:href="#ArialMT-62" x="1673.144531"/>
     <use xlink:href="#ArialMT-6c" x="1728.759766"/>
     <use xlink:href="#ArialMT-65" x="1750.976562"/>
     <use xlink:href="#ArialMT-4e" x="1806.591797"/>
     <use xlink:href="#ArialMT-65" x="1878.808594"/>
     <use xlink:href="#ArialMT-74" x="1934.423828"/>
     <use xlink:href="#ArialMT-77" x="1962.207031"/>
     <use xlink:href="#ArialMT-6f" x="2034.423828"/>
     <use xlink:href="#ArialMT-72" x="2090.039062"/>
     <use xlink:href="#ArialMT-6b" x="2123.339844"/>
     <use xlink:href="#ArialMT-4d" x="2173.339844"/>
     <use xlink:href="#ArialMT-6f" x="2256.640625"/>
     <use xlink:href="#ArialMT-64" x="2312.255859"/>
     <use xlink:href="#ArialMT-69" x="2367.871094"/>
     <use xlink:href="#ArialMT-66" x="2390.087891"/>
     <use xlink:href="#ArialMT-69" x="2417.871094"/>
     <use xlink:href="#ArialMT-65" x="2440.087891"/>
     <use xlink:href="#ArialMT-64" x="2495.703125"/>
     <use xlink:href="#ArialMT-41" x="2551.318359"/>
     <use xlink:href="#ArialMT-6c" x="2618.017578"/>
     <use xlink:href="#ArialMT-69" x="2640.234375"/>
     <use xlink:href="#ArialMT-67" x="2662.451172"/>
     <use xlink:href="#ArialMT-6e" x="2718.066406"/>
     <use xlink:href="#ArialMT-65" x="2773.681641"/>
     <use xlink:href="#ArialMT-64" x="2829.296875"/>
     <use xlink:href="#ArialMT-42" x="2884.912109"/>
     <use xlink:href="#ArialMT-69" x="2951.611328"/>
     <use xlink:href="#ArialMT-6e" x="2973.828125"/>
     <use xlink:href="#ArialMT-6f" x="3029.443359"/>
     <use xlink:href="#ArialMT-6d" x="3085.058594"/>
     <use xlink:href="#ArialMT-69" x="3168.359375"/>
     <use xlink:href="#ArialMT-61" x="3190.576172"/>
     <use xlink:href="#ArialMT-6c" x="3246.191406"/>
     <use xlink:href="#ArialMT-4f" x="3268.408203"/>
     <use xlink:href="#ArialMT-70" x="3346.191406"/>
    </g>
   </g>
   <g id="legend_1">
    <g id="patch_5">
     <path d="M 54.664375 349.083125 
L 163.239531 349.083125 
Q 165.439531 349.083125 165.439531 346.883125 
L 165.439531 285.74375 
Q 165.439531 283.54375 163.239531 283.54375 
L 54.664375 283.54375 
Q 52.464375 283.54375 52.464375 285.74375 
L 52.464375 346.883125 
Q 52.464375 349.083125 54.664375 349.083125 
z
" style="fill: #ffffff; opacity: 0.8; stroke: #cccccc; stroke-linejoin: miter"/>
    </g>
    <g id="line2d_17">
     <path d="M 56.864375 291.967344 
L 67.864375 291.967344 
L 78.864375 291.967344 
" style="fill: none; stroke: #4c72b0; stroke-width: 2.5; stroke-linecap: round"/>
    </g>
    <g id="text_16">
     <!-- Mean -->
     <g style="fill: #262626" transform="translate(87.664375 295.817344) scale(0.11 -0.11)">
      <use xlink:href="#ArialMT-4d"/>
      <use xlink:href="#ArialMT-65" x="83.300781"/>
      <use xlink:href="#ArialMT-61" x="138.916016"/>
      <use xlink:href="#ArialMT-6e" x="194.53125"/>
     </g>
    </g>
    <g id="line2d_18">
     <path d="M 56.864375 307.527187 
L 67.864375 307.527187 
L 78.864375 307.527187 
" style="fill: none; stroke: #dd8452; stroke-width: 2.5; stroke-linecap: round"/>
    </g>
    <g id="text_17">
     <!-- Median -->
     <g style="fill: #262626" transform="translate(87.664375 311.377187) scale(0.11 -0.11)">
      <use xlink:href="#ArialMT-4d"/>
      <use xlink:href="#ArialMT-65" x="83.300781"/>
      <use xlink:href="#ArialMT-64" x="138.916016"/>
      <use xlink:href="#ArialMT-69" x="194.53125"/>
      <use xlink:href="#ArialMT-61" x="216.748047"/>
      <use xlink:href="#ArialMT-6e" x="272.363281"/>
     </g>
    </g>
    <g id="line2d_19">
     <path d="M 56.864375 323.087031 
L 67.864375 323.087031 
L 78.864375 323.087031 
" style="fill: none; stroke-dasharray: 7.4,3.2; stroke-dashoffset: 0; stroke: #55a868; stroke-width: 2"/>
    </g>
    <g id="text_18">
     <!-- 25th Percentile -->
     <g style="fill: #262626" transform="translate(87.664375 326.937031) scale(0.11 -0.11)">
      <defs>
       <path id="ArialMT-63" d="M 2588 1216 
L 3141 1144 
Q 3050 572 2676 248 
Q 2303 -75 1759 -75 
Q 1078 -75 664 370 
Q 250 816 250 1647 
Q 250 2184 428 2587 
Q 606 2991 970 3192 
Q 1334 3394 1763 3394 
Q 2303 3394 2647 3120 
Q 2991 2847 3088 2344 
L 2541 2259 
Q 2463 2594 2264 2762 
Q 2066 2931 1784 2931 
Q 1359 2931 1093 2626 
Q 828 2322 828 1663 
Q 828 994 1084 691 
Q 1341 388 1753 388 
Q 2084 388 2306 591 
Q 2528 794 2588 1216 
z
" transform="scale(0.015625)"/>
      </defs>
      <use xlink:href="#ArialMT-32"/>
      <use xlink:href="#ArialMT-35" x="55.615234"/>
      <use xlink:href="#ArialMT-74" x="111.230469"/>
      <use xlink:href="#ArialMT-68" x="139.013672"/>
      <use xlink:href="#ArialMT-20" x="194.628906"/>
      <use xlink:href="#ArialMT-50" x="222.412109"/>
      <use xlink:href="#ArialMT-65" x="289.111328"/>
      <use xlink:href="#ArialMT-72" x="344.726562"/>
      <use xlink:href="#ArialMT-63" x="378.027344"/>
      <use xlink:href="#ArialMT-65" x="428.027344"/>
      <use xlink:href="#ArialMT-6e" x="483.642578"/>
      <use xlink:href="#ArialMT-74" x="539.257812"/>
      <use xlink:href="#ArialMT-69" x="567.041016"/>
      <use xlink:href="#ArialMT-6c" x="589.257812"/>
      <use xlink:href="#ArialMT-65" x="611.474609"/>
     </g>
    </g>
    <g id="line2d_20">
     <path d="M 56.864375 338.646875 
L 67.864375 338.646875 
L 78.864375 338.646875 
" style="fill: none; stroke-dasharray: 7.4,3.2; stroke-dashoffset: 0; stroke: #c44e52; stroke-width: 2"/>
    </g>
    <g id="text_19">
     <!-- 75th Percentile -->
     <g style="fill: #262626" transform="translate(87.664375 342.496875) scale(0.11 -0.11)">
      <defs>
       <path id="ArialMT-37" d="M 303 3981 
L 303 4522 
L 3269 4522 
L 3269 4084 
Q 2831 3619 2401 2847 
Q 1972 2075 1738 1259 
Q 1569 684 1522 0 
L 944 0 
Q 953 541 1156 1306 
Q 1359 2072 1739 2783 
Q 2119 3494 2547 3981 
L 303 3981 
z
" transform="scale(0.015625)"/>
      </defs>
      <use xlink:href="#ArialMT-37"/>
      <use xlink:href="#ArialMT-35" x="55.615234"/>
      <use xlink:href="#ArialMT-74" x="111.230469"/>
      <use xlink:href="#ArialMT-68" x="139.013672"/>
      <use xlink:href="#ArialMT-20" x="194.628906"/>
      <use xlink:href="#ArialMT-50" x="222.412109"/>
      <use xlink:href="#ArialMT-65" x="289.111328"/>
      <use xlink:href="#ArialMT-72" x="344.726562"/>
      <use xlink:href="#ArialMT-63" x="378.027344"/>
      <use xlink:href="#ArialMT-65" x="428.027344"/>
      <use xlink:href="#ArialMT-6e" x="483.642578"/>
      <use xlink:href="#ArialMT-74" x="539.257812"/>
      <use xlink:href="#ArialMT-69" x="567.041016"/>
      <use xlink:href="#ArialMT-6c" x="589.257812"/>
      <use xlink:href="#ArialMT-65" x="611.474609"/>
     </g>
    </g>
   </g>
  </g>
 </g>
 <defs>
  <clipPath id="pc1244c051c">
   <rect x="46.964375" y="21.943125" width="669.6" height="332.64"/>
  </clipPath>
 </defs>
</svg>
