<?xml version="1.0" encoding="utf-8" standalone="no"?>
<!DOCTYPE svg PUBLIC "-//W3C//DTD SVG 1.1//EN"
  "http://www.w3.org/Graphics/SVG/1.1/DTD/svg11.dtd">
<svg xmlns:xlink="http://www.w3.org/1999/xlink" width="852.641406pt" height="420.694219pt" viewBox="0 0 852.641406 420.694219" xmlns="http://www.w3.org/2000/svg" version="1.1">
 <metadata>
  <rdf:RDF xmlns:dc="http://purl.org/dc/elements/1.1/" xmlns:cc="http://creativecommons.org/ns#" xmlns:rdf="http://www.w3.org/1999/02/22-rdf-syntax-ns#">
   <cc:Work>
    <dc:type rdf:resource="http://purl.org/dc/dcmitype/StillImage"/>
    <dc:date>2024-12-12T23:44:29.882162</dc:date>
    <dc:format>image/svg+xml</dc:format>
    <dc:creator>
     <cc:Agent>
      <dc:title>Matplotlib v3.9.2, https://matplotlib.org/</dc:title>
     </cc:Agent>
    </dc:creator>
   </cc:Work>
  </rdf:RDF>
 </metadata>
 <defs>
  <style type="text/css">*{stroke-linejoin: round; stroke-linecap: butt}</style>
 </defs>
 <g id="figure_1">
  <g id="patch_1">
   <path d="M 0 420.694219 
L 852.641406 420.694219 
L 852.641406 0 
L 0 0 
z
" style="fill: #ffffff"/>
  </g>
  <g id="axes_1">
   <g id="patch_2">
    <path d="M 53.081406 378.96 
L 845.441406 378.96 
L 845.441406 24.8475 
L 53.081406 24.8475 
z
" style="fill: #ffffff"/>
   </g>
   <g id="matplotlib.axis_1">
    <g id="xtick_1">
     <g id="line2d_1">
      <defs>
       <path id="m244be9f6c4" d="M 0 0 
L 0 6 
" style="stroke: #262626; stroke-width: 1.25"/>
      </defs>
      <g>
       <use xlink:href="#m244be9f6c4" x="89.09777" y="378.96" style="fill: #262626; stroke: #262626; stroke-width: 1.25"/>
      </g>
     </g>
     <g id="text_1">
      <!-- 0 -->
      <g style="fill: #262626" transform="translate(86.039254 396.333594) scale(0.11 -0.11)">
       <defs>
        <path id="ArialMT-30" d="M 266 2259 
Q 266 3072 433 3567 
Q 600 4063 929 4331 
Q 1259 4600 1759 4600 
Q 2128 4600 2406 4451 
Q 2684 4303 2865 4023 
Q 3047 3744 3150 3342 
Q 3253 2941 3253 2259 
Q 3253 1453 3087 958 
Q 2922 463 2592 192 
Q 2263 -78 1759 -78 
Q 1097 -78 719 397 
Q 266 969 266 2259 
z
M 844 2259 
Q 844 1131 1108 757 
Q 1372 384 1759 384 
Q 2147 384 2411 759 
Q 2675 1134 2675 2259 
Q 2675 3391 2411 3762 
Q 2147 4134 1753 4134 
Q 1366 4134 1134 3806 
Q 844 3388 844 2259 
z
" transform="scale(0.015625)"/>
       </defs>
       <use xlink:href="#ArialMT-30"/>
      </g>
     </g>
    </g>
    <g id="xtick_2">
     <g id="line2d_2">
      <g>
       <use xlink:href="#m244be9f6c4" x="233.163224" y="378.96" style="fill: #262626; stroke: #262626; stroke-width: 1.25"/>
      </g>
     </g>
     <g id="text_2">
      <!-- 5000 -->
      <g style="fill: #262626" transform="translate(220.929162 396.333594) scale(0.11 -0.11)">
       <defs>
        <path id="ArialMT-35" d="M 266 1200 
L 856 1250 
Q 922 819 1161 601 
Q 1400 384 1738 384 
Q 2144 384 2425 690 
Q 2706 997 2706 1503 
Q 2706 1984 2436 2262 
Q 2166 2541 1728 2541 
Q 1456 2541 1237 2417 
Q 1019 2294 894 2097 
L 366 2166 
L 809 4519 
L 3088 4519 
L 3088 3981 
L 1259 3981 
L 1013 2750 
Q 1425 3038 1878 3038 
Q 2478 3038 2890 2622 
Q 3303 2206 3303 1553 
Q 3303 931 2941 478 
Q 2500 -78 1738 -78 
Q 1113 -78 717 272 
Q 322 622 266 1200 
z
" transform="scale(0.015625)"/>
       </defs>
       <use xlink:href="#ArialMT-35"/>
       <use xlink:href="#ArialMT-30" x="55.615234"/>
       <use xlink:href="#ArialMT-30" x="111.230469"/>
       <use xlink:href="#ArialMT-30" x="166.845703"/>
      </g>
     </g>
    </g>
    <g id="xtick_3">
     <g id="line2d_3">
      <g>
       <use xlink:href="#m244be9f6c4" x="377.228679" y="378.96" style="fill: #262626; stroke: #262626; stroke-width: 1.25"/>
      </g>
     </g>
     <g id="text_3">
      <!-- 10000 -->
      <g style="fill: #262626" transform="translate(361.936101 396.333594) scale(0.11 -0.11)">
       <defs>
        <path id="ArialMT-31" d="M 2384 0 
L 1822 0 
L 1822 3584 
Q 1619 3391 1289 3197 
Q 959 3003 697 2906 
L 697 3450 
Q 1169 3672 1522 3987 
Q 1875 4303 2022 4600 
L 2384 4600 
L 2384 0 
z
" transform="scale(0.015625)"/>
       </defs>
       <use xlink:href="#ArialMT-31"/>
       <use xlink:href="#ArialMT-30" x="55.615234"/>
       <use xlink:href="#ArialMT-30" x="111.230469"/>
       <use xlink:href="#ArialMT-30" x="166.845703"/>
       <use xlink:href="#ArialMT-30" x="222.460938"/>
      </g>
     </g>
    </g>
    <g id="xtick_4">
     <g id="line2d_4">
      <g>
       <use xlink:href="#m244be9f6c4" x="521.294134" y="378.96" style="fill: #262626; stroke: #262626; stroke-width: 1.25"/>
      </g>
     </g>
     <g id="text_4">
      <!-- 15000 -->
      <g style="fill: #262626" transform="translate(506.001555 396.333594) scale(0.11 -0.11)">
       <use xlink:href="#ArialMT-31"/>
       <use xlink:href="#ArialMT-35" x="55.615234"/>
       <use xlink:href="#ArialMT-30" x="111.230469"/>
       <use xlink:href="#ArialMT-30" x="166.845703"/>
       <use xlink:href="#ArialMT-30" x="222.460938"/>
      </g>
     </g>
    </g>
    <g id="xtick_5">
     <g id="line2d_5">
      <g>
       <use xlink:href="#m244be9f6c4" x="665.359588" y="378.96" style="fill: #262626; stroke: #262626; stroke-width: 1.25"/>
      </g>
     </g>
     <g id="text_5">
      <!-- 20000 -->
      <g style="fill: #262626" transform="translate(650.06701 396.333594) scale(0.11 -0.11)">
       <defs>
        <path id="ArialMT-32" d="M 3222 541 
L 3222 0 
L 194 0 
Q 188 203 259 391 
Q 375 700 629 1000 
Q 884 1300 1366 1694 
Q 2113 2306 2375 2664 
Q 2638 3022 2638 3341 
Q 2638 3675 2398 3904 
Q 2159 4134 1775 4134 
Q 1369 4134 1125 3890 
Q 881 3647 878 3216 
L 300 3275 
Q 359 3922 746 4261 
Q 1134 4600 1788 4600 
Q 2447 4600 2831 4234 
Q 3216 3869 3216 3328 
Q 3216 3053 3103 2787 
Q 2991 2522 2730 2228 
Q 2469 1934 1863 1422 
Q 1356 997 1212 845 
Q 1069 694 975 541 
L 3222 541 
z
" transform="scale(0.015625)"/>
       </defs>
       <use xlink:href="#ArialMT-32"/>
       <use xlink:href="#ArialMT-30" x="55.615234"/>
       <use xlink:href="#ArialMT-30" x="111.230469"/>
       <use xlink:href="#ArialMT-30" x="166.845703"/>
       <use xlink:href="#ArialMT-30" x="222.460938"/>
      </g>
     </g>
    </g>
    <g id="xtick_6">
     <g id="line2d_6">
      <g>
       <use xlink:href="#m244be9f6c4" x="809.425043" y="378.96" style="fill: #262626; stroke: #262626; stroke-width: 1.25"/>
      </g>
     </g>
     <g id="text_6">
      <!-- 25000 -->
      <g style="fill: #262626" transform="translate(794.132464 396.333594) scale(0.11 -0.11)">
       <use xlink:href="#ArialMT-32"/>
       <use xlink:href="#ArialMT-35" x="55.615234"/>
       <use xlink:href="#ArialMT-30" x="111.230469"/>
       <use xlink:href="#ArialMT-30" x="166.845703"/>
       <use xlink:href="#ArialMT-30" x="222.460938"/>
      </g>
     </g>
    </g>
    <g id="text_7">
     <!-- Iteration -->
     <g style="fill: #262626" transform="translate(427.583594 411.109219) scale(0.12 -0.12)">
      <defs>
       <path id="ArialMT-49" d="M 597 0 
L 597 4581 
L 1203 4581 
L 1203 0 
L 597 0 
z
" transform="scale(0.015625)"/>
       <path id="ArialMT-74" d="M 1650 503 
L 1731 6 
Q 1494 -44 1306 -44 
Q 1000 -44 831 53 
Q 663 150 594 308 
Q 525 466 525 972 
L 525 2881 
L 113 2881 
L 113 3319 
L 525 3319 
L 525 4141 
L 1084 4478 
L 1084 3319 
L 1650 3319 
L 1650 2881 
L 1084 2881 
L 1084 941 
Q 1084 700 1114 631 
Q 1144 563 1211 522 
Q 1278 481 1403 481 
Q 1497 481 1650 503 
z
" transform="scale(0.015625)"/>
       <path id="ArialMT-65" d="M 2694 1069 
L 3275 997 
Q 3138 488 2766 206 
Q 2394 -75 1816 -75 
Q 1088 -75 661 373 
Q 234 822 234 1631 
Q 234 2469 665 2931 
Q 1097 3394 1784 3394 
Q 2450 3394 2872 2941 
Q 3294 2488 3294 1666 
Q 3294 1616 3291 1516 
L 816 1516 
Q 847 969 1125 678 
Q 1403 388 1819 388 
Q 2128 388 2347 550 
Q 2566 713 2694 1069 
z
M 847 1978 
L 2700 1978 
Q 2663 2397 2488 2606 
Q 2219 2931 1791 2931 
Q 1403 2931 1139 2672 
Q 875 2413 847 1978 
z
" transform="scale(0.015625)"/>
       <path id="ArialMT-72" d="M 416 0 
L 416 3319 
L 922 3319 
L 922 2816 
Q 1116 3169 1280 3281 
Q 1444 3394 1641 3394 
Q 1925 3394 2219 3213 
L 2025 2691 
Q 1819 2813 1613 2813 
Q 1428 2813 1281 2702 
Q 1134 2591 1072 2394 
Q 978 2094 978 1738 
L 978 0 
L 416 0 
z
" transform="scale(0.015625)"/>
       <path id="ArialMT-61" d="M 2588 409 
Q 2275 144 1986 34 
Q 1697 -75 1366 -75 
Q 819 -75 525 192 
Q 231 459 231 875 
Q 231 1119 342 1320 
Q 453 1522 633 1644 
Q 813 1766 1038 1828 
Q 1203 1872 1538 1913 
Q 2219 1994 2541 2106 
Q 2544 2222 2544 2253 
Q 2544 2597 2384 2738 
Q 2169 2928 1744 2928 
Q 1347 2928 1158 2789 
Q 969 2650 878 2297 
L 328 2372 
Q 403 2725 575 2942 
Q 747 3159 1072 3276 
Q 1397 3394 1825 3394 
Q 2250 3394 2515 3294 
Q 2781 3194 2906 3042 
Q 3031 2891 3081 2659 
Q 3109 2516 3109 2141 
L 3109 1391 
Q 3109 606 3145 398 
Q 3181 191 3288 0 
L 2700 0 
Q 2613 175 2588 409 
z
M 2541 1666 
Q 2234 1541 1622 1453 
Q 1275 1403 1131 1340 
Q 988 1278 909 1158 
Q 831 1038 831 891 
Q 831 666 1001 516 
Q 1172 366 1500 366 
Q 1825 366 2078 508 
Q 2331 650 2450 897 
Q 2541 1088 2541 1459 
L 2541 1666 
z
" transform="scale(0.015625)"/>
       <path id="ArialMT-69" d="M 425 3934 
L 425 4581 
L 988 4581 
L 988 3934 
L 425 3934 
z
M 425 0 
L 425 3319 
L 988 3319 
L 988 0 
L 425 0 
z
" transform="scale(0.015625)"/>
       <path id="ArialMT-6f" d="M 213 1659 
Q 213 2581 725 3025 
Q 1153 3394 1769 3394 
Q 2453 3394 2887 2945 
Q 3322 2497 3322 1706 
Q 3322 1066 3130 698 
Q 2938 331 2570 128 
Q 2203 -75 1769 -75 
Q 1072 -75 642 372 
Q 213 819 213 1659 
z
M 791 1659 
Q 791 1022 1069 705 
Q 1347 388 1769 388 
Q 2188 388 2466 706 
Q 2744 1025 2744 1678 
Q 2744 2294 2464 2611 
Q 2184 2928 1769 2928 
Q 1347 2928 1069 2612 
Q 791 2297 791 1659 
z
" transform="scale(0.015625)"/>
       <path id="ArialMT-6e" d="M 422 0 
L 422 3319 
L 928 3319 
L 928 2847 
Q 1294 3394 1984 3394 
Q 2284 3394 2536 3286 
Q 2788 3178 2913 3003 
Q 3038 2828 3088 2588 
Q 3119 2431 3119 2041 
L 3119 0 
L 2556 0 
L 2556 2019 
Q 2556 2363 2490 2533 
Q 2425 2703 2258 2804 
Q 2091 2906 1866 2906 
Q 1506 2906 1245 2678 
Q 984 2450 984 1813 
L 984 0 
L 422 0 
z
" transform="scale(0.015625)"/>
      </defs>
      <use xlink:href="#ArialMT-49"/>
      <use xlink:href="#ArialMT-74" x="27.783203"/>
      <use xlink:href="#ArialMT-65" x="55.566406"/>
      <use xlink:href="#ArialMT-72" x="111.181641"/>
      <use xlink:href="#ArialMT-61" x="144.482422"/>
      <use xlink:href="#ArialMT-74" x="200.097656"/>
      <use xlink:href="#ArialMT-69" x="227.880859"/>
      <use xlink:href="#ArialMT-6f" x="250.097656"/>
      <use xlink:href="#ArialMT-6e" x="305.712891"/>
     </g>
    </g>
   </g>
   <g id="matplotlib.axis_2">
    <g id="ytick_1">
     <g id="line2d_7">
      <path d="M 53.081406 328.307764 
L 845.441406 328.307764 
" clip-path="url(#pe41df96640)" style="fill: none; stroke-dasharray: 3.7,1.6; stroke-dashoffset: 0; stroke: #cccccc; stroke-opacity: 0.7"/>
     </g>
     <g id="line2d_8">
      <defs>
       <path id="mb3a648ba33" d="M 0 0 
L -6 0 
" style="stroke: #262626; stroke-width: 1.25"/>
      </defs>
      <g>
       <use xlink:href="#mb3a648ba33" x="53.081406" y="328.307764" style="fill: #262626; stroke: #262626; stroke-width: 1.25"/>
      </g>
     </g>
     <g id="text_8">
      <!-- 0.24 -->
      <g style="fill: #262626" transform="translate(22.174375 332.244561) scale(0.11 -0.11)">
       <defs>
        <path id="ArialMT-2e" d="M 581 0 
L 581 641 
L 1222 641 
L 1222 0 
L 581 0 
z
" transform="scale(0.015625)"/>
        <path id="ArialMT-34" d="M 2069 0 
L 2069 1097 
L 81 1097 
L 81 1613 
L 2172 4581 
L 2631 4581 
L 2631 1613 
L 3250 1613 
L 3250 1097 
L 2631 1097 
L 2631 0 
L 2069 0 
z
M 2069 1613 
L 2069 3678 
L 634 1613 
L 2069 1613 
z
" transform="scale(0.015625)"/>
       </defs>
       <use xlink:href="#ArialMT-30"/>
       <use xlink:href="#ArialMT-2e" x="55.615234"/>
       <use xlink:href="#ArialMT-32" x="83.398438"/>
       <use xlink:href="#ArialMT-34" x="139.013672"/>
      </g>
     </g>
    </g>
    <g id="ytick_2">
     <g id="line2d_9">
      <path d="M 53.081406 276.584172 
L 845.441406 276.584172 
" clip-path="url(#pe41df96640)" style="fill: none; stroke-dasharray: 3.7,1.6; stroke-dashoffset: 0; stroke: #cccccc; stroke-opacity: 0.7"/>
     </g>
     <g id="line2d_10">
      <g>
       <use xlink:href="#mb3a648ba33" x="53.081406" y="276.584172" style="fill: #262626; stroke: #262626; stroke-width: 1.25"/>
      </g>
     </g>
     <g id="text_9">
      <!-- 0.26 -->
      <g style="fill: #262626" transform="translate(22.174375 280.520969) scale(0.11 -0.11)">
       <defs>
        <path id="ArialMT-36" d="M 3184 3459 
L 2625 3416 
Q 2550 3747 2413 3897 
Q 2184 4138 1850 4138 
Q 1581 4138 1378 3988 
Q 1113 3794 959 3422 
Q 806 3050 800 2363 
Q 1003 2672 1297 2822 
Q 1591 2972 1913 2972 
Q 2475 2972 2870 2558 
Q 3266 2144 3266 1488 
Q 3266 1056 3080 686 
Q 2894 316 2569 119 
Q 2244 -78 1831 -78 
Q 1128 -78 684 439 
Q 241 956 241 2144 
Q 241 3472 731 4075 
Q 1159 4600 1884 4600 
Q 2425 4600 2770 4297 
Q 3116 3994 3184 3459 
z
M 888 1484 
Q 888 1194 1011 928 
Q 1134 663 1356 523 
Q 1578 384 1822 384 
Q 2178 384 2434 671 
Q 2691 959 2691 1453 
Q 2691 1928 2437 2201 
Q 2184 2475 1800 2475 
Q 1419 2475 1153 2201 
Q 888 1928 888 1484 
z
" transform="scale(0.015625)"/>
       </defs>
       <use xlink:href="#ArialMT-30"/>
       <use xlink:href="#ArialMT-2e" x="55.615234"/>
       <use xlink:href="#ArialMT-32" x="83.398438"/>
       <use xlink:href="#ArialMT-36" x="139.013672"/>
      </g>
     </g>
    </g>
    <g id="ytick_3">
     <g id="line2d_11">
      <path d="M 53.081406 224.86058 
L 845.441406 224.86058 
" clip-path="url(#pe41df96640)" style="fill: none; stroke-dasharray: 3.7,1.6; stroke-dashoffset: 0; stroke: #cccccc; stroke-opacity: 0.7"/>
     </g>
     <g id="line2d_12">
      <g>
       <use xlink:href="#mb3a648ba33" x="53.081406" y="224.86058" style="fill: #262626; stroke: #262626; stroke-width: 1.25"/>
      </g>
     </g>
     <g id="text_10">
      <!-- 0.28 -->
      <g style="fill: #262626" transform="translate(22.174375 228.797377) scale(0.11 -0.11)">
       <defs>
        <path id="ArialMT-38" d="M 1131 2484 
Q 781 2613 612 2850 
Q 444 3088 444 3419 
Q 444 3919 803 4259 
Q 1163 4600 1759 4600 
Q 2359 4600 2725 4251 
Q 3091 3903 3091 3403 
Q 3091 3084 2923 2848 
Q 2756 2613 2416 2484 
Q 2838 2347 3058 2040 
Q 3278 1734 3278 1309 
Q 3278 722 2862 322 
Q 2447 -78 1769 -78 
Q 1091 -78 675 323 
Q 259 725 259 1325 
Q 259 1772 486 2073 
Q 713 2375 1131 2484 
z
M 1019 3438 
Q 1019 3113 1228 2906 
Q 1438 2700 1772 2700 
Q 2097 2700 2305 2904 
Q 2513 3109 2513 3406 
Q 2513 3716 2298 3927 
Q 2084 4138 1766 4138 
Q 1444 4138 1231 3931 
Q 1019 3725 1019 3438 
z
M 838 1322 
Q 838 1081 952 856 
Q 1066 631 1291 507 
Q 1516 384 1775 384 
Q 2178 384 2440 643 
Q 2703 903 2703 1303 
Q 2703 1709 2433 1975 
Q 2163 2241 1756 2241 
Q 1359 2241 1098 1978 
Q 838 1716 838 1322 
z
" transform="scale(0.015625)"/>
       </defs>
       <use xlink:href="#ArialMT-30"/>
       <use xlink:href="#ArialMT-2e" x="55.615234"/>
       <use xlink:href="#ArialMT-32" x="83.398438"/>
       <use xlink:href="#ArialMT-38" x="139.013672"/>
      </g>
     </g>
    </g>
    <g id="ytick_4">
     <g id="line2d_13">
      <path d="M 53.081406 173.136988 
L 845.441406 173.136988 
" clip-path="url(#pe41df96640)" style="fill: none; stroke-dasharray: 3.7,1.6; stroke-dashoffset: 0; stroke: #cccccc; stroke-opacity: 0.7"/>
     </g>
     <g id="line2d_14">
      <g>
       <use xlink:href="#mb3a648ba33" x="53.081406" y="173.136988" style="fill: #262626; stroke: #262626; stroke-width: 1.25"/>
      </g>
     </g>
     <g id="text_11">
      <!-- 0.30 -->
      <g style="fill: #262626" transform="translate(22.174375 177.073785) scale(0.11 -0.11)">
       <defs>
        <path id="ArialMT-33" d="M 269 1209 
L 831 1284 
Q 928 806 1161 595 
Q 1394 384 1728 384 
Q 2125 384 2398 659 
Q 2672 934 2672 1341 
Q 2672 1728 2419 1979 
Q 2166 2231 1775 2231 
Q 1616 2231 1378 2169 
L 1441 2663 
Q 1497 2656 1531 2656 
Q 1891 2656 2178 2843 
Q 2466 3031 2466 3422 
Q 2466 3731 2256 3934 
Q 2047 4138 1716 4138 
Q 1388 4138 1169 3931 
Q 950 3725 888 3313 
L 325 3413 
Q 428 3978 793 4289 
Q 1159 4600 1703 4600 
Q 2078 4600 2393 4439 
Q 2709 4278 2876 4000 
Q 3044 3722 3044 3409 
Q 3044 3113 2884 2869 
Q 2725 2625 2413 2481 
Q 2819 2388 3044 2092 
Q 3269 1797 3269 1353 
Q 3269 753 2831 336 
Q 2394 -81 1725 -81 
Q 1122 -81 723 278 
Q 325 638 269 1209 
z
" transform="scale(0.015625)"/>
       </defs>
       <use xlink:href="#ArialMT-30"/>
       <use xlink:href="#ArialMT-2e" x="55.615234"/>
       <use xlink:href="#ArialMT-33" x="83.398438"/>
       <use xlink:href="#ArialMT-30" x="139.013672"/>
      </g>
     </g>
    </g>
    <g id="ytick_5">
     <g id="line2d_15">
      <path d="M 53.081406 121.413396 
L 845.441406 121.413396 
" clip-path="url(#pe41df96640)" style="fill: none; stroke-dasharray: 3.7,1.6; stroke-dashoffset: 0; stroke: #cccccc; stroke-opacity: 0.7"/>
     </g>
     <g id="line2d_16">
      <g>
       <use xlink:href="#mb3a648ba33" x="53.081406" y="121.413396" style="fill: #262626; stroke: #262626; stroke-width: 1.25"/>
      </g>
     </g>
     <g id="text_12">
      <!-- 0.32 -->
      <g style="fill: #262626" transform="translate(22.174375 125.350193) scale(0.11 -0.11)">
       <use xlink:href="#ArialMT-30"/>
       <use xlink:href="#ArialMT-2e" x="55.615234"/>
       <use xlink:href="#ArialMT-33" x="83.398438"/>
       <use xlink:href="#ArialMT-32" x="139.013672"/>
      </g>
     </g>
    </g>
    <g id="ytick_6">
     <g id="line2d_17">
      <path d="M 53.081406 69.689804 
L 845.441406 69.689804 
" clip-path="url(#pe41df96640)" style="fill: none; stroke-dasharray: 3.7,1.6; stroke-dashoffset: 0; stroke: #cccccc; stroke-opacity: 0.7"/>
     </g>
     <g id="line2d_18">
      <g>
       <use xlink:href="#mb3a648ba33" x="53.081406" y="69.689804" style="fill: #262626; stroke: #262626; stroke-width: 1.25"/>
      </g>
     </g>
     <g id="text_13">
      <!-- 0.34 -->
      <g style="fill: #262626" transform="translate(22.174375 73.626601) scale(0.11 -0.11)">
       <use xlink:href="#ArialMT-30"/>
       <use xlink:href="#ArialMT-2e" x="55.615234"/>
       <use xlink:href="#ArialMT-33" x="83.398438"/>
       <use xlink:href="#ArialMT-34" x="139.013672"/>
      </g>
     </g>
    </g>
    <g id="text_14">
     <!-- Mean Standard Deviation in Beliefs -->
     <g style="fill: #262626" transform="translate(15.789375 295.619062) rotate(-90) scale(0.12 -0.12)">
      <defs>
       <path id="ArialMT-4d" d="M 475 0 
L 475 4581 
L 1388 4581 
L 2472 1338 
Q 2622 884 2691 659 
Q 2769 909 2934 1394 
L 4031 4581 
L 4847 4581 
L 4847 0 
L 4263 0 
L 4263 3834 
L 2931 0 
L 2384 0 
L 1059 3900 
L 1059 0 
L 475 0 
z
" transform="scale(0.015625)"/>
       <path id="ArialMT-20" transform="scale(0.015625)"/>
       <path id="ArialMT-53" d="M 288 1472 
L 859 1522 
Q 900 1178 1048 958 
Q 1197 738 1509 602 
Q 1822 466 2213 466 
Q 2559 466 2825 569 
Q 3091 672 3220 851 
Q 3350 1031 3350 1244 
Q 3350 1459 3225 1620 
Q 3100 1781 2813 1891 
Q 2628 1963 1997 2114 
Q 1366 2266 1113 2400 
Q 784 2572 623 2826 
Q 463 3081 463 3397 
Q 463 3744 659 4045 
Q 856 4347 1234 4503 
Q 1613 4659 2075 4659 
Q 2584 4659 2973 4495 
Q 3363 4331 3572 4012 
Q 3781 3694 3797 3291 
L 3216 3247 
Q 3169 3681 2898 3903 
Q 2628 4125 2100 4125 
Q 1550 4125 1298 3923 
Q 1047 3722 1047 3438 
Q 1047 3191 1225 3031 
Q 1400 2872 2139 2705 
Q 2878 2538 3153 2413 
Q 3553 2228 3743 1945 
Q 3934 1663 3934 1294 
Q 3934 928 3725 604 
Q 3516 281 3123 101 
Q 2731 -78 2241 -78 
Q 1619 -78 1198 103 
Q 778 284 539 648 
Q 300 1013 288 1472 
z
" transform="scale(0.015625)"/>
       <path id="ArialMT-64" d="M 2575 0 
L 2575 419 
Q 2259 -75 1647 -75 
Q 1250 -75 917 144 
Q 584 363 401 755 
Q 219 1147 219 1656 
Q 219 2153 384 2558 
Q 550 2963 881 3178 
Q 1213 3394 1622 3394 
Q 1922 3394 2156 3267 
Q 2391 3141 2538 2938 
L 2538 4581 
L 3097 4581 
L 3097 0 
L 2575 0 
z
M 797 1656 
Q 797 1019 1065 703 
Q 1334 388 1700 388 
Q 2069 388 2326 689 
Q 2584 991 2584 1609 
Q 2584 2291 2321 2609 
Q 2059 2928 1675 2928 
Q 1300 2928 1048 2622 
Q 797 2316 797 1656 
z
" transform="scale(0.015625)"/>
       <path id="ArialMT-44" d="M 494 0 
L 494 4581 
L 2072 4581 
Q 2606 4581 2888 4516 
Q 3281 4425 3559 4188 
Q 3922 3881 4101 3404 
Q 4281 2928 4281 2316 
Q 4281 1794 4159 1391 
Q 4038 988 3847 723 
Q 3656 459 3429 307 
Q 3203 156 2883 78 
Q 2563 0 2147 0 
L 494 0 
z
M 1100 541 
L 2078 541 
Q 2531 541 2789 625 
Q 3047 709 3200 863 
Q 3416 1078 3536 1442 
Q 3656 1806 3656 2325 
Q 3656 3044 3420 3430 
Q 3184 3816 2847 3947 
Q 2603 4041 2063 4041 
L 1100 4041 
L 1100 541 
z
" transform="scale(0.015625)"/>
       <path id="ArialMT-76" d="M 1344 0 
L 81 3319 
L 675 3319 
L 1388 1331 
Q 1503 1009 1600 663 
Q 1675 925 1809 1294 
L 2547 3319 
L 3125 3319 
L 1869 0 
L 1344 0 
z
" transform="scale(0.015625)"/>
       <path id="ArialMT-42" d="M 469 0 
L 469 4581 
L 2188 4581 
Q 2713 4581 3030 4442 
Q 3347 4303 3526 4014 
Q 3706 3725 3706 3409 
Q 3706 3116 3547 2856 
Q 3388 2597 3066 2438 
Q 3481 2316 3704 2022 
Q 3928 1728 3928 1328 
Q 3928 1006 3792 729 
Q 3656 453 3456 303 
Q 3256 153 2954 76 
Q 2653 0 2216 0 
L 469 0 
z
M 1075 2656 
L 2066 2656 
Q 2469 2656 2644 2709 
Q 2875 2778 2992 2937 
Q 3109 3097 3109 3338 
Q 3109 3566 3000 3739 
Q 2891 3913 2687 3977 
Q 2484 4041 1991 4041 
L 1075 4041 
L 1075 2656 
z
M 1075 541 
L 2216 541 
Q 2509 541 2628 563 
Q 2838 600 2978 687 
Q 3119 775 3209 942 
Q 3300 1109 3300 1328 
Q 3300 1584 3169 1773 
Q 3038 1963 2805 2039 
Q 2572 2116 2134 2116 
L 1075 2116 
L 1075 541 
z
" transform="scale(0.015625)"/>
       <path id="ArialMT-6c" d="M 409 0 
L 409 4581 
L 972 4581 
L 972 0 
L 409 0 
z
" transform="scale(0.015625)"/>
       <path id="ArialMT-66" d="M 556 0 
L 556 2881 
L 59 2881 
L 59 3319 
L 556 3319 
L 556 3672 
Q 556 4006 616 4169 
Q 697 4388 901 4523 
Q 1106 4659 1475 4659 
Q 1713 4659 2000 4603 
L 1916 4113 
Q 1741 4144 1584 4144 
Q 1328 4144 1222 4034 
Q 1116 3925 1116 3625 
L 1116 3319 
L 1763 3319 
L 1763 2881 
L 1116 2881 
L 1116 0 
L 556 0 
z
" transform="scale(0.015625)"/>
       <path id="ArialMT-73" d="M 197 991 
L 753 1078 
Q 800 744 1014 566 
Q 1228 388 1613 388 
Q 2000 388 2187 545 
Q 2375 703 2375 916 
Q 2375 1106 2209 1216 
Q 2094 1291 1634 1406 
Q 1016 1563 777 1677 
Q 538 1791 414 1992 
Q 291 2194 291 2438 
Q 291 2659 392 2848 
Q 494 3038 669 3163 
Q 800 3259 1026 3326 
Q 1253 3394 1513 3394 
Q 1903 3394 2198 3281 
Q 2494 3169 2634 2976 
Q 2775 2784 2828 2463 
L 2278 2388 
Q 2241 2644 2061 2787 
Q 1881 2931 1553 2931 
Q 1166 2931 1000 2803 
Q 834 2675 834 2503 
Q 834 2394 903 2306 
Q 972 2216 1119 2156 
Q 1203 2125 1616 2013 
Q 2213 1853 2448 1751 
Q 2684 1650 2818 1456 
Q 2953 1263 2953 975 
Q 2953 694 2789 445 
Q 2625 197 2315 61 
Q 2006 -75 1616 -75 
Q 969 -75 630 194 
Q 291 463 197 991 
z
" transform="scale(0.015625)"/>
      </defs>
      <use xlink:href="#ArialMT-4d"/>
      <use xlink:href="#ArialMT-65" x="83.300781"/>
      <use xlink:href="#ArialMT-61" x="138.916016"/>
      <use xlink:href="#ArialMT-6e" x="194.53125"/>
      <use xlink:href="#ArialMT-20" x="250.146484"/>
      <use xlink:href="#ArialMT-53" x="277.929688"/>
      <use xlink:href="#ArialMT-74" x="344.628906"/>
      <use xlink:href="#ArialMT-61" x="372.412109"/>
      <use xlink:href="#ArialMT-6e" x="428.027344"/>
      <use xlink:href="#ArialMT-64" x="483.642578"/>
      <use xlink:href="#ArialMT-61" x="539.257812"/>
      <use xlink:href="#ArialMT-72" x="594.873047"/>
      <use xlink:href="#ArialMT-64" x="628.173828"/>
      <use xlink:href="#ArialMT-20" x="683.789062"/>
      <use xlink:href="#ArialMT-44" x="711.572266"/>
      <use xlink:href="#ArialMT-65" x="783.789062"/>
      <use xlink:href="#ArialMT-76" x="839.404297"/>
      <use xlink:href="#ArialMT-69" x="889.404297"/>
      <use xlink:href="#ArialMT-61" x="911.621094"/>
      <use xlink:href="#ArialMT-74" x="967.236328"/>
      <use xlink:href="#ArialMT-69" x="995.019531"/>
      <use xlink:href="#ArialMT-6f" x="1017.236328"/>
      <use xlink:href="#ArialMT-6e" x="1072.851562"/>
      <use xlink:href="#ArialMT-20" x="1128.466797"/>
      <use xlink:href="#ArialMT-69" x="1156.25"/>
      <use xlink:href="#ArialMT-6e" x="1178.466797"/>
      <use xlink:href="#ArialMT-20" x="1234.082031"/>
      <use xlink:href="#ArialMT-42" x="1261.865234"/>
      <use xlink:href="#ArialMT-65" x="1328.564453"/>
      <use xlink:href="#ArialMT-6c" x="1384.179688"/>
      <use xlink:href="#ArialMT-69" x="1406.396484"/>
      <use xlink:href="#ArialMT-65" x="1428.613281"/>
      <use xlink:href="#ArialMT-66" x="1484.228516"/>
      <use xlink:href="#ArialMT-73" x="1512.011719"/>
     </g>
    </g>
   </g>
   <g id="PolyCollection_1"/>
   <g id="line2d_19">
    <path d="M 89.09777 202.207326 
L 89.126583 198.933524 
L 91.979079 106.629281 
L 94.860388 76.120554 
L 97.741697 60.578935 
L 100.623006 50.784505 
L 103.504315 44.164914 
L 106.385624 41.524199 
L 109.266934 40.943523 
L 115.029552 41.984795 
L 117.910861 43.671023 
L 120.79217 45.633871 
L 123.673479 48.09323 
L 126.554788 51.396089 
L 129.436097 54.117192 
L 132.317406 57.399395 
L 135.198715 61.722562 
L 138.080024 65.169935 
L 143.842643 73.081366 
L 149.605261 79.536018 
L 152.48657 83.75552 
L 155.367879 87.069555 
L 158.249188 91.22154 
L 161.130497 95.03224 
L 164.011806 98.628906 
L 166.893115 101.889297 
L 169.774424 106.887171 
L 175.537043 112.395275 
L 178.418352 115.730737 
L 181.299661 119.756782 
L 184.18097 124.172053 
L 187.062279 126.836121 
L 189.943588 131.302877 
L 192.824897 134.484421 
L 195.706206 137.48777 
L 198.587515 141.876295 
L 204.350134 147.515965 
L 207.231443 150.013631 
L 210.112752 154.111972 
L 212.994061 157.286965 
L 215.87537 159.856771 
L 221.637988 166.398826 
L 224.519297 168.326297 
L 230.281915 171.372036 
L 233.163224 174.792587 
L 236.044534 177.642327 
L 241.807152 182.443662 
L 244.688461 185.793151 
L 250.451079 190.613368 
L 253.332388 192.418677 
L 261.976315 199.657713 
L 264.857624 202.226286 
L 267.738934 203.493848 
L 270.620243 206.570725 
L 276.382861 210.814274 
L 279.26417 212.592683 
L 282.145479 214.831148 
L 285.026788 215.771453 
L 287.908097 218.234589 
L 290.789406 219.631943 
L 293.670715 221.272081 
L 296.552024 223.135118 
L 299.433334 223.856994 
L 302.314643 226.779724 
L 305.195952 228.476511 
L 308.077261 229.825694 
L 310.95857 232.368833 
L 316.721188 236.753659 
L 319.602497 238.521124 
L 322.483806 241.092549 
L 328.246424 243.077671 
L 331.127734 244.516029 
L 334.009043 247.014773 
L 339.771661 249.644698 
L 342.65297 250.813758 
L 345.534279 252.611976 
L 348.415588 253.599296 
L 351.296897 253.839613 
L 354.178206 255.149719 
L 359.940824 259.254843 
L 362.822134 260.453963 
L 365.703443 262.178035 
L 368.584752 262.285553 
L 371.466061 264.515077 
L 374.34737 267.966535 
L 377.228679 269.876356 
L 380.109988 270.061488 
L 382.991297 271.495915 
L 385.872606 272.286927 
L 388.753915 273.99913 
L 391.635224 274.725708 
L 394.516534 275.741622 
L 397.397843 277.620999 
L 400.279152 279.312237 
L 403.160461 280.69934 
L 406.04177 280.751751 
L 408.923079 281.628161 
L 411.804388 282.155117 
L 414.685697 283.917495 
L 417.567006 285.157772 
L 423.329624 286.471424 
L 426.210934 287.620292 
L 429.092243 288.592505 
L 431.973552 289.751546 
L 437.73617 291.808964 
L 440.617479 293.458582 
L 443.498788 294.676354 
L 446.380097 295.133481 
L 449.261406 296.069932 
L 452.142715 297.635462 
L 455.024024 298.508481 
L 457.905334 300.313249 
L 460.786643 301.494257 
L 463.667952 302.417528 
L 466.549261 302.888104 
L 469.43057 304.762008 
L 472.311879 305.758693 
L 475.193188 306.422725 
L 478.074497 307.235742 
L 480.955806 308.408695 
L 483.837115 309.342217 
L 486.718424 309.558719 
L 489.599734 312.30622 
L 492.481043 312.937149 
L 495.362352 313.836103 
L 498.243661 314.096845 
L 501.12497 315.383097 
L 504.006279 315.453697 
L 506.887588 316.677943 
L 509.768897 317.564758 
L 512.650206 319.150598 
L 515.531515 319.880336 
L 518.412824 319.895442 
L 521.294134 321.24871 
L 524.175443 321.983266 
L 529.938061 323.733234 
L 532.81937 323.606447 
L 535.700679 324.38428 
L 538.581988 325.707104 
L 541.463297 325.663865 
L 544.344606 326.727334 
L 547.225915 326.748337 
L 550.107224 326.437959 
L 552.988534 326.694655 
L 555.869843 327.608754 
L 558.751152 328.898282 
L 561.632461 329.744441 
L 564.51377 331.671757 
L 567.395079 331.590791 
L 570.276388 332.755034 
L 573.157697 332.478492 
L 576.039006 333.284148 
L 578.920315 333.956351 
L 587.564243 334.168729 
L 590.445552 335.723815 
L 593.326861 336.053885 
L 596.20817 336.701501 
L 599.089479 336.642115 
L 604.852097 337.943975 
L 607.733406 338.200054 
L 610.614715 338.980237 
L 613.496024 340.518175 
L 616.377334 340.332272 
L 619.258643 341.260014 
L 622.139952 341.849053 
L 625.021261 342.043935 
L 627.90257 341.283213 
L 630.783879 342.38703 
L 633.665188 342.759106 
L 636.546497 343.997071 
L 639.427806 344.285907 
L 642.309115 344.434082 
L 645.190424 345.015491 
L 648.071734 344.474623 
L 650.953043 344.65856 
L 656.715661 345.746308 
L 659.59697 345.692356 
L 662.478279 345.37797 
L 665.359588 346.012445 
L 668.240897 345.876139 
L 671.122206 347.361628 
L 674.003515 348.213066 
L 676.884824 348.63181 
L 679.766134 348.879334 
L 682.647443 349.580747 
L 685.528752 349.843416 
L 688.410061 350.347943 
L 691.29137 351.054251 
L 694.172679 351.586987 
L 697.053988 351.772659 
L 699.935297 352.275722 
L 705.697915 352.563363 
L 708.579224 353.089972 
L 711.460534 354.130049 
L 714.341843 354.358112 
L 717.223152 354.324584 
L 720.104461 354.072359 
L 722.98577 354.347707 
L 725.867079 354.976169 
L 737.392315 356.898322 
L 740.273624 357.581546 
L 743.154934 356.998364 
L 746.036243 357.15309 
L 748.917552 357.661626 
L 751.798861 357.844369 
L 754.68017 356.734308 
L 757.561479 356.249666 
L 760.442788 357.860361 
L 763.324097 357.646404 
L 766.205406 357.998864 
L 769.086715 358.464931 
L 771.968024 358.397221 
L 774.849334 358.8024 
L 777.730643 358.847103 
L 780.611952 359.116439 
L 783.493261 357.54193 
L 786.37457 358.909957 
L 792.137188 360.314403 
L 795.018497 361.539034 
L 797.899806 360.599346 
L 800.781115 360.81315 
L 803.662424 361.258831 
L 806.543734 362.401185 
L 809.425043 362.863977 
L 809.425043 362.863977 
" clip-path="url(#pe41df96640)" style="fill: none; stroke: #0000ff; stroke-width: 2.5; stroke-linecap: round"/>
   </g>
   <g id="patch_3">
    <path d="M 53.081406 378.96 
L 53.081406 24.8475 
" style="fill: none; stroke: #262626; stroke-width: 1.25; stroke-linejoin: miter; stroke-linecap: square"/>
   </g>
   <g id="patch_4">
    <path d="M 53.081406 378.96 
L 845.441406 378.96 
" style="fill: none; stroke: #262626; stroke-width: 1.25; stroke-linejoin: miter; stroke-linecap: square"/>
   </g>
   <g id="text_15">
    <!-- Average Standard Deviation in Beliefs Across Iterations -->
    <g style="fill: #262626" transform="translate(253.305156 18.8475) scale(0.16 -0.16)">
     <defs>
      <path id="ArialMT-41" d="M -9 0 
L 1750 4581 
L 2403 4581 
L 4278 0 
L 3588 0 
L 3053 1388 
L 1138 1388 
L 634 0 
L -9 0 
z
M 1313 1881 
L 2866 1881 
L 2388 3150 
Q 2169 3728 2063 4100 
Q 1975 3659 1816 3225 
L 1313 1881 
z
" transform="scale(0.015625)"/>
      <path id="ArialMT-67" d="M 319 -275 
L 866 -356 
Q 900 -609 1056 -725 
Q 1266 -881 1628 -881 
Q 2019 -881 2231 -725 
Q 2444 -569 2519 -288 
Q 2563 -116 2559 434 
Q 2191 0 1641 0 
Q 956 0 581 494 
Q 206 988 206 1678 
Q 206 2153 378 2554 
Q 550 2956 876 3175 
Q 1203 3394 1644 3394 
Q 2231 3394 2613 2919 
L 2613 3319 
L 3131 3319 
L 3131 450 
Q 3131 -325 2973 -648 
Q 2816 -972 2473 -1159 
Q 2131 -1347 1631 -1347 
Q 1038 -1347 672 -1080 
Q 306 -813 319 -275 
z
M 784 1719 
Q 784 1066 1043 766 
Q 1303 466 1694 466 
Q 2081 466 2343 764 
Q 2606 1063 2606 1700 
Q 2606 2309 2336 2618 
Q 2066 2928 1684 2928 
Q 1309 2928 1046 2623 
Q 784 2319 784 1719 
z
" transform="scale(0.015625)"/>
      <path id="ArialMT-63" d="M 2588 1216 
L 3141 1144 
Q 3050 572 2676 248 
Q 2303 -75 1759 -75 
Q 1078 -75 664 370 
Q 250 816 250 1647 
Q 250 2184 428 2587 
Q 606 2991 970 3192 
Q 1334 3394 1763 3394 
Q 2303 3394 2647 3120 
Q 2991 2847 3088 2344 
L 2541 2259 
Q 2463 2594 2264 2762 
Q 2066 2931 1784 2931 
Q 1359 2931 1093 2626 
Q 828 2322 828 1663 
Q 828 994 1084 691 
Q 1341 388 1753 388 
Q 2084 388 2306 591 
Q 2528 794 2588 1216 
z
" transform="scale(0.015625)"/>
     </defs>
     <use xlink:href="#ArialMT-41"/>
     <use xlink:href="#ArialMT-76" x="64.949219"/>
     <use xlink:href="#ArialMT-65" x="114.949219"/>
     <use xlink:href="#ArialMT-72" x="170.564453"/>
     <use xlink:href="#ArialMT-61" x="203.865234"/>
     <use xlink:href="#ArialMT-67" x="259.480469"/>
     <use xlink:href="#ArialMT-65" x="315.095703"/>
     <use xlink:href="#ArialMT-20" x="370.710938"/>
     <use xlink:href="#ArialMT-53" x="398.494141"/>
     <use xlink:href="#ArialMT-74" x="465.193359"/>
     <use xlink:href="#ArialMT-61" x="492.976562"/>
     <use xlink:href="#ArialMT-6e" x="548.591797"/>
     <use xlink:href="#ArialMT-64" x="604.207031"/>
     <use xlink:href="#ArialMT-61" x="659.822266"/>
     <use xlink:href="#ArialMT-72" x="715.4375"/>
     <use xlink:href="#ArialMT-64" x="748.738281"/>
     <use xlink:href="#ArialMT-20" x="804.353516"/>
     <use xlink:href="#ArialMT-44" x="832.136719"/>
     <use xlink:href="#ArialMT-65" x="904.353516"/>
     <use xlink:href="#ArialMT-76" x="959.96875"/>
     <use xlink:href="#ArialMT-69" x="1009.96875"/>
     <use xlink:href="#ArialMT-61" x="1032.185547"/>
     <use xlink:href="#ArialMT-74" x="1087.800781"/>
     <use xlink:href="#ArialMT-69" x="1115.583984"/>
     <use xlink:href="#ArialMT-6f" x="1137.800781"/>
     <use xlink:href="#ArialMT-6e" x="1193.416016"/>
     <use xlink:href="#ArialMT-20" x="1249.03125"/>
     <use xlink:href="#ArialMT-69" x="1276.814453"/>
     <use xlink:href="#ArialMT-6e" x="1299.03125"/>
     <use xlink:href="#ArialMT-20" x="1354.646484"/>
     <use xlink:href="#ArialMT-42" x="1382.429688"/>
     <use xlink:href="#ArialMT-65" x="1449.128906"/>
     <use xlink:href="#ArialMT-6c" x="1504.744141"/>
     <use xlink:href="#ArialMT-69" x="1526.960938"/>
     <use xlink:href="#ArialMT-65" x="1549.177734"/>
     <use xlink:href="#ArialMT-66" x="1604.792969"/>
     <use xlink:href="#ArialMT-73" x="1632.576172"/>
     <use xlink:href="#ArialMT-20" x="1682.576172"/>
     <use xlink:href="#ArialMT-41" x="1704.859375"/>
     <use xlink:href="#ArialMT-63" x="1771.558594"/>
     <use xlink:href="#ArialMT-72" x="1821.558594"/>
     <use xlink:href="#ArialMT-6f" x="1854.859375"/>
     <use xlink:href="#ArialMT-73" x="1910.474609"/>
     <use xlink:href="#ArialMT-73" x="1960.474609"/>
     <use xlink:href="#ArialMT-20" x="2010.474609"/>
     <use xlink:href="#ArialMT-49" x="2038.257812"/>
     <use xlink:href="#ArialMT-74" x="2066.041016"/>
     <use xlink:href="#ArialMT-65" x="2093.824219"/>
     <use xlink:href="#ArialMT-72" x="2149.439453"/>
     <use xlink:href="#ArialMT-61" x="2182.740234"/>
     <use xlink:href="#ArialMT-74" x="2238.355469"/>
     <use xlink:href="#ArialMT-69" x="2266.138672"/>
     <use xlink:href="#ArialMT-6f" x="2288.355469"/>
     <use xlink:href="#ArialMT-6e" x="2343.970703"/>
     <use xlink:href="#ArialMT-73" x="2399.585938"/>
    </g>
   </g>
  </g>
 </g>
 <defs>
  <clipPath id="pe41df96640">
   <rect x="53.081406" y="24.8475" width="792.36" height="354.1125"/>
  </clipPath>
 </defs>
</svg>
