<?xml version="1.0" encoding="utf-8" standalone="no"?>
<!DOCTYPE svg PUBLIC "-//W3C//DTD SVG 1.1//EN"
  "http://www.w3.org/Graphics/SVG/1.1/DTD/svg11.dtd">
<svg xmlns:xlink="http://www.w3.org/1999/xlink" width="988.040719pt" height="492.704219pt" viewBox="0 0 988.040719 492.704219" xmlns="http://www.w3.org/2000/svg" version="1.1">
 <metadata>
  <rdf:RDF xmlns:dc="http://purl.org/dc/elements/1.1/" xmlns:cc="http://creativecommons.org/ns#" xmlns:rdf="http://www.w3.org/1999/02/22-rdf-syntax-ns#">
   <cc:Work>
    <dc:type rdf:resource="http://purl.org/dc/dcmitype/StillImage"/>
    <dc:date>2024-12-19T00:26:52.514057</dc:date>
    <dc:format>image/svg+xml</dc:format>
    <dc:creator>
     <cc:Agent>
      <dc:title>Matplotlib v3.9.2, https://matplotlib.org/</dc:title>
     </cc:Agent>
    </dc:creator>
   </cc:Work>
  </rdf:RDF>
 </metadata>
 <defs>
  <style type="text/css">*{stroke-linejoin: round; stroke-linecap: butt}</style>
 </defs>
 <g id="figure_1">
  <g id="patch_1">
   <path d="M 0 492.704219 
L 988.040719 492.704219 
L 988.040719 0 
L 0 0 
z
" style="fill: #ffffff"/>
  </g>
  <g id="axes_1">
   <g id="patch_2">
    <path d="M 53.081406 450.97 
L 660.211406 450.97 
L 660.211406 24.8575 
L 53.081406 24.8575 
z
" style="fill: #ffffff"/>
   </g>
   <g id="matplotlib.axis_1">
    <g id="xtick_1">
     <g id="line2d_1">
      <defs>
       <path id="m619ddb78f1" d="M 0 0 
L 0 6 
" style="stroke: #262626; stroke-width: 1.25"/>
      </defs>
      <g>
       <use xlink:href="#m619ddb78f1" x="80.678224" y="450.97" style="fill: #262626; stroke: #262626; stroke-width: 1.25"/>
      </g>
     </g>
     <g id="text_1">
      <!-- 0 -->
      <g style="fill: #262626" transform="translate(77.619709 468.343594) scale(0.11 -0.11)">
       <defs>
        <path id="ArialMT-30" d="M 266 2259 
Q 266 3072 433 3567 
Q 600 4063 929 4331 
Q 1259 4600 1759 4600 
Q 2128 4600 2406 4451 
Q 2684 4303 2865 4023 
Q 3047 3744 3150 3342 
Q 3253 2941 3253 2259 
Q 3253 1453 3087 958 
Q 2922 463 2592 192 
Q 2263 -78 1759 -78 
Q 1097 -78 719 397 
Q 266 969 266 2259 
z
M 844 2259 
Q 844 1131 1108 757 
Q 1372 384 1759 384 
Q 2147 384 2411 759 
Q 2675 1134 2675 2259 
Q 2675 3391 2411 3762 
Q 2147 4134 1753 4134 
Q 1366 4134 1134 3806 
Q 844 3388 844 2259 
z
" transform="scale(0.015625)"/>
       </defs>
       <use xlink:href="#ArialMT-30"/>
      </g>
     </g>
    </g>
    <g id="xtick_2">
     <g id="line2d_2">
      <g>
       <use xlink:href="#m619ddb78f1" x="191.065497" y="450.97" style="fill: #262626; stroke: #262626; stroke-width: 1.25"/>
      </g>
     </g>
     <g id="text_2">
      <!-- 5000 -->
      <g style="fill: #262626" transform="translate(178.831435 468.343594) scale(0.11 -0.11)">
       <defs>
        <path id="ArialMT-35" d="M 266 1200 
L 856 1250 
Q 922 819 1161 601 
Q 1400 384 1738 384 
Q 2144 384 2425 690 
Q 2706 997 2706 1503 
Q 2706 1984 2436 2262 
Q 2166 2541 1728 2541 
Q 1456 2541 1237 2417 
Q 1019 2294 894 2097 
L 366 2166 
L 809 4519 
L 3088 4519 
L 3088 3981 
L 1259 3981 
L 1013 2750 
Q 1425 3038 1878 3038 
Q 2478 3038 2890 2622 
Q 3303 2206 3303 1553 
Q 3303 931 2941 478 
Q 2500 -78 1738 -78 
Q 1113 -78 717 272 
Q 322 622 266 1200 
z
" transform="scale(0.015625)"/>
       </defs>
       <use xlink:href="#ArialMT-35"/>
       <use xlink:href="#ArialMT-30" x="55.615234"/>
       <use xlink:href="#ArialMT-30" x="111.230469"/>
       <use xlink:href="#ArialMT-30" x="166.845703"/>
      </g>
     </g>
    </g>
    <g id="xtick_3">
     <g id="line2d_3">
      <g>
       <use xlink:href="#m619ddb78f1" x="301.45277" y="450.97" style="fill: #262626; stroke: #262626; stroke-width: 1.25"/>
      </g>
     </g>
     <g id="text_3">
      <!-- 10000 -->
      <g style="fill: #262626" transform="translate(286.160192 468.343594) scale(0.11 -0.11)">
       <defs>
        <path id="ArialMT-31" d="M 2384 0 
L 1822 0 
L 1822 3584 
Q 1619 3391 1289 3197 
Q 959 3003 697 2906 
L 697 3450 
Q 1169 3672 1522 3987 
Q 1875 4303 2022 4600 
L 2384 4600 
L 2384 0 
z
" transform="scale(0.015625)"/>
       </defs>
       <use xlink:href="#ArialMT-31"/>
       <use xlink:href="#ArialMT-30" x="55.615234"/>
       <use xlink:href="#ArialMT-30" x="111.230469"/>
       <use xlink:href="#ArialMT-30" x="166.845703"/>
       <use xlink:href="#ArialMT-30" x="222.460938"/>
      </g>
     </g>
    </g>
    <g id="xtick_4">
     <g id="line2d_4">
      <g>
       <use xlink:href="#m619ddb78f1" x="411.840043" y="450.97" style="fill: #262626; stroke: #262626; stroke-width: 1.25"/>
      </g>
     </g>
     <g id="text_4">
      <!-- 15000 -->
      <g style="fill: #262626" transform="translate(396.547464 468.343594) scale(0.11 -0.11)">
       <use xlink:href="#ArialMT-31"/>
       <use xlink:href="#ArialMT-35" x="55.615234"/>
       <use xlink:href="#ArialMT-30" x="111.230469"/>
       <use xlink:href="#ArialMT-30" x="166.845703"/>
       <use xlink:href="#ArialMT-30" x="222.460938"/>
      </g>
     </g>
    </g>
    <g id="xtick_5">
     <g id="line2d_5">
      <g>
       <use xlink:href="#m619ddb78f1" x="522.227315" y="450.97" style="fill: #262626; stroke: #262626; stroke-width: 1.25"/>
      </g>
     </g>
     <g id="text_5">
      <!-- 20000 -->
      <g style="fill: #262626" transform="translate(506.934737 468.343594) scale(0.11 -0.11)">
       <defs>
        <path id="ArialMT-32" d="M 3222 541 
L 3222 0 
L 194 0 
Q 188 203 259 391 
Q 375 700 629 1000 
Q 884 1300 1366 1694 
Q 2113 2306 2375 2664 
Q 2638 3022 2638 3341 
Q 2638 3675 2398 3904 
Q 2159 4134 1775 4134 
Q 1369 4134 1125 3890 
Q 881 3647 878 3216 
L 300 3275 
Q 359 3922 746 4261 
Q 1134 4600 1788 4600 
Q 2447 4600 2831 4234 
Q 3216 3869 3216 3328 
Q 3216 3053 3103 2787 
Q 2991 2522 2730 2228 
Q 2469 1934 1863 1422 
Q 1356 997 1212 845 
Q 1069 694 975 541 
L 3222 541 
z
" transform="scale(0.015625)"/>
       </defs>
       <use xlink:href="#ArialMT-32"/>
       <use xlink:href="#ArialMT-30" x="55.615234"/>
       <use xlink:href="#ArialMT-30" x="111.230469"/>
       <use xlink:href="#ArialMT-30" x="166.845703"/>
       <use xlink:href="#ArialMT-30" x="222.460938"/>
      </g>
     </g>
    </g>
    <g id="xtick_6">
     <g id="line2d_6">
      <g>
       <use xlink:href="#m619ddb78f1" x="632.614588" y="450.97" style="fill: #262626; stroke: #262626; stroke-width: 1.25"/>
      </g>
     </g>
     <g id="text_6">
      <!-- 25000 -->
      <g style="fill: #262626" transform="translate(617.32201 468.343594) scale(0.11 -0.11)">
       <use xlink:href="#ArialMT-32"/>
       <use xlink:href="#ArialMT-35" x="55.615234"/>
       <use xlink:href="#ArialMT-30" x="111.230469"/>
       <use xlink:href="#ArialMT-30" x="166.845703"/>
       <use xlink:href="#ArialMT-30" x="222.460938"/>
      </g>
     </g>
    </g>
    <g id="text_7">
     <!-- Iteration -->
     <g style="fill: #262626" transform="translate(334.968594 483.119219) scale(0.12 -0.12)">
      <defs>
       <path id="ArialMT-49" d="M 597 0 
L 597 4581 
L 1203 4581 
L 1203 0 
L 597 0 
z
" transform="scale(0.015625)"/>
       <path id="ArialMT-74" d="M 1650 503 
L 1731 6 
Q 1494 -44 1306 -44 
Q 1000 -44 831 53 
Q 663 150 594 308 
Q 525 466 525 972 
L 525 2881 
L 113 2881 
L 113 3319 
L 525 3319 
L 525 4141 
L 1084 4478 
L 1084 3319 
L 1650 3319 
L 1650 2881 
L 1084 2881 
L 1084 941 
Q 1084 700 1114 631 
Q 1144 563 1211 522 
Q 1278 481 1403 481 
Q 1497 481 1650 503 
z
" transform="scale(0.015625)"/>
       <path id="ArialMT-65" d="M 2694 1069 
L 3275 997 
Q 3138 488 2766 206 
Q 2394 -75 1816 -75 
Q 1088 -75 661 373 
Q 234 822 234 1631 
Q 234 2469 665 2931 
Q 1097 3394 1784 3394 
Q 2450 3394 2872 2941 
Q 3294 2488 3294 1666 
Q 3294 1616 3291 1516 
L 816 1516 
Q 847 969 1125 678 
Q 1403 388 1819 388 
Q 2128 388 2347 550 
Q 2566 713 2694 1069 
z
M 847 1978 
L 2700 1978 
Q 2663 2397 2488 2606 
Q 2219 2931 1791 2931 
Q 1403 2931 1139 2672 
Q 875 2413 847 1978 
z
" transform="scale(0.015625)"/>
       <path id="ArialMT-72" d="M 416 0 
L 416 3319 
L 922 3319 
L 922 2816 
Q 1116 3169 1280 3281 
Q 1444 3394 1641 3394 
Q 1925 3394 2219 3213 
L 2025 2691 
Q 1819 2813 1613 2813 
Q 1428 2813 1281 2702 
Q 1134 2591 1072 2394 
Q 978 2094 978 1738 
L 978 0 
L 416 0 
z
" transform="scale(0.015625)"/>
       <path id="ArialMT-61" d="M 2588 409 
Q 2275 144 1986 34 
Q 1697 -75 1366 -75 
Q 819 -75 525 192 
Q 231 459 231 875 
Q 231 1119 342 1320 
Q 453 1522 633 1644 
Q 813 1766 1038 1828 
Q 1203 1872 1538 1913 
Q 2219 1994 2541 2106 
Q 2544 2222 2544 2253 
Q 2544 2597 2384 2738 
Q 2169 2928 1744 2928 
Q 1347 2928 1158 2789 
Q 969 2650 878 2297 
L 328 2372 
Q 403 2725 575 2942 
Q 747 3159 1072 3276 
Q 1397 3394 1825 3394 
Q 2250 3394 2515 3294 
Q 2781 3194 2906 3042 
Q 3031 2891 3081 2659 
Q 3109 2516 3109 2141 
L 3109 1391 
Q 3109 606 3145 398 
Q 3181 191 3288 0 
L 2700 0 
Q 2613 175 2588 409 
z
M 2541 1666 
Q 2234 1541 1622 1453 
Q 1275 1403 1131 1340 
Q 988 1278 909 1158 
Q 831 1038 831 891 
Q 831 666 1001 516 
Q 1172 366 1500 366 
Q 1825 366 2078 508 
Q 2331 650 2450 897 
Q 2541 1088 2541 1459 
L 2541 1666 
z
" transform="scale(0.015625)"/>
       <path id="ArialMT-69" d="M 425 3934 
L 425 4581 
L 988 4581 
L 988 3934 
L 425 3934 
z
M 425 0 
L 425 3319 
L 988 3319 
L 988 0 
L 425 0 
z
" transform="scale(0.015625)"/>
       <path id="ArialMT-6f" d="M 213 1659 
Q 213 2581 725 3025 
Q 1153 3394 1769 3394 
Q 2453 3394 2887 2945 
Q 3322 2497 3322 1706 
Q 3322 1066 3130 698 
Q 2938 331 2570 128 
Q 2203 -75 1769 -75 
Q 1072 -75 642 372 
Q 213 819 213 1659 
z
M 791 1659 
Q 791 1022 1069 705 
Q 1347 388 1769 388 
Q 2188 388 2466 706 
Q 2744 1025 2744 1678 
Q 2744 2294 2464 2611 
Q 2184 2928 1769 2928 
Q 1347 2928 1069 2612 
Q 791 2297 791 1659 
z
" transform="scale(0.015625)"/>
       <path id="ArialMT-6e" d="M 422 0 
L 422 3319 
L 928 3319 
L 928 2847 
Q 1294 3394 1984 3394 
Q 2284 3394 2536 3286 
Q 2788 3178 2913 3003 
Q 3038 2828 3088 2588 
Q 3119 2431 3119 2041 
L 3119 0 
L 2556 0 
L 2556 2019 
Q 2556 2363 2490 2533 
Q 2425 2703 2258 2804 
Q 2091 2906 1866 2906 
Q 1506 2906 1245 2678 
Q 984 2450 984 1813 
L 984 0 
L 422 0 
z
" transform="scale(0.015625)"/>
      </defs>
      <use xlink:href="#ArialMT-49"/>
      <use xlink:href="#ArialMT-74" x="27.783203"/>
      <use xlink:href="#ArialMT-65" x="55.566406"/>
      <use xlink:href="#ArialMT-72" x="111.181641"/>
      <use xlink:href="#ArialMT-61" x="144.482422"/>
      <use xlink:href="#ArialMT-74" x="200.097656"/>
      <use xlink:href="#ArialMT-69" x="227.880859"/>
      <use xlink:href="#ArialMT-6f" x="250.097656"/>
      <use xlink:href="#ArialMT-6e" x="305.712891"/>
     </g>
    </g>
   </g>
   <g id="matplotlib.axis_2">
    <g id="ytick_1">
     <g id="line2d_7">
      <path d="M 53.081406 427.253473 
L 660.211406 427.253473 
" clip-path="url(#p66acbf9fdf)" style="fill: none; stroke-dasharray: 3.7,1.6; stroke-dashoffset: 0; stroke: #cccccc; stroke-opacity: 0.7"/>
     </g>
     <g id="line2d_8">
      <defs>
       <path id="me5cdb9d420" d="M 0 0 
L -6 0 
" style="stroke: #262626; stroke-width: 1.25"/>
      </defs>
      <g>
       <use xlink:href="#me5cdb9d420" x="53.081406" y="427.253473" style="fill: #262626; stroke: #262626; stroke-width: 1.25"/>
      </g>
     </g>
     <g id="text_8">
      <!-- 0.10 -->
      <g style="fill: #262626" transform="translate(22.174375 431.190269) scale(0.11 -0.11)">
       <defs>
        <path id="ArialMT-2e" d="M 581 0 
L 581 641 
L 1222 641 
L 1222 0 
L 581 0 
z
" transform="scale(0.015625)"/>
       </defs>
       <use xlink:href="#ArialMT-30"/>
       <use xlink:href="#ArialMT-2e" x="55.615234"/>
       <use xlink:href="#ArialMT-31" x="83.398438"/>
       <use xlink:href="#ArialMT-30" x="139.013672"/>
      </g>
     </g>
    </g>
    <g id="ytick_2">
     <g id="line2d_9">
      <path d="M 53.081406 360.391288 
L 660.211406 360.391288 
" clip-path="url(#p66acbf9fdf)" style="fill: none; stroke-dasharray: 3.7,1.6; stroke-dashoffset: 0; stroke: #cccccc; stroke-opacity: 0.7"/>
     </g>
     <g id="line2d_10">
      <g>
       <use xlink:href="#me5cdb9d420" x="53.081406" y="360.391288" style="fill: #262626; stroke: #262626; stroke-width: 1.25"/>
      </g>
     </g>
     <g id="text_9">
      <!-- 0.15 -->
      <g style="fill: #262626" transform="translate(22.174375 364.328085) scale(0.11 -0.11)">
       <use xlink:href="#ArialMT-30"/>
       <use xlink:href="#ArialMT-2e" x="55.615234"/>
       <use xlink:href="#ArialMT-31" x="83.398438"/>
       <use xlink:href="#ArialMT-35" x="139.013672"/>
      </g>
     </g>
    </g>
    <g id="ytick_3">
     <g id="line2d_11">
      <path d="M 53.081406 293.529103 
L 660.211406 293.529103 
" clip-path="url(#p66acbf9fdf)" style="fill: none; stroke-dasharray: 3.7,1.6; stroke-dashoffset: 0; stroke: #cccccc; stroke-opacity: 0.7"/>
     </g>
     <g id="line2d_12">
      <g>
       <use xlink:href="#me5cdb9d420" x="53.081406" y="293.529103" style="fill: #262626; stroke: #262626; stroke-width: 1.25"/>
      </g>
     </g>
     <g id="text_10">
      <!-- 0.20 -->
      <g style="fill: #262626" transform="translate(22.174375 297.4659) scale(0.11 -0.11)">
       <use xlink:href="#ArialMT-30"/>
       <use xlink:href="#ArialMT-2e" x="55.615234"/>
       <use xlink:href="#ArialMT-32" x="83.398438"/>
       <use xlink:href="#ArialMT-30" x="139.013672"/>
      </g>
     </g>
    </g>
    <g id="ytick_4">
     <g id="line2d_13">
      <path d="M 53.081406 226.666919 
L 660.211406 226.666919 
" clip-path="url(#p66acbf9fdf)" style="fill: none; stroke-dasharray: 3.7,1.6; stroke-dashoffset: 0; stroke: #cccccc; stroke-opacity: 0.7"/>
     </g>
     <g id="line2d_14">
      <g>
       <use xlink:href="#me5cdb9d420" x="53.081406" y="226.666919" style="fill: #262626; stroke: #262626; stroke-width: 1.25"/>
      </g>
     </g>
     <g id="text_11">
      <!-- 0.25 -->
      <g style="fill: #262626" transform="translate(22.174375 230.603716) scale(0.11 -0.11)">
       <use xlink:href="#ArialMT-30"/>
       <use xlink:href="#ArialMT-2e" x="55.615234"/>
       <use xlink:href="#ArialMT-32" x="83.398438"/>
       <use xlink:href="#ArialMT-35" x="139.013672"/>
      </g>
     </g>
    </g>
    <g id="ytick_5">
     <g id="line2d_15">
      <path d="M 53.081406 159.804734 
L 660.211406 159.804734 
" clip-path="url(#p66acbf9fdf)" style="fill: none; stroke-dasharray: 3.7,1.6; stroke-dashoffset: 0; stroke: #cccccc; stroke-opacity: 0.7"/>
     </g>
     <g id="line2d_16">
      <g>
       <use xlink:href="#me5cdb9d420" x="53.081406" y="159.804734" style="fill: #262626; stroke: #262626; stroke-width: 1.25"/>
      </g>
     </g>
     <g id="text_12">
      <!-- 0.30 -->
      <g style="fill: #262626" transform="translate(22.174375 163.741531) scale(0.11 -0.11)">
       <defs>
        <path id="ArialMT-33" d="M 269 1209 
L 831 1284 
Q 928 806 1161 595 
Q 1394 384 1728 384 
Q 2125 384 2398 659 
Q 2672 934 2672 1341 
Q 2672 1728 2419 1979 
Q 2166 2231 1775 2231 
Q 1616 2231 1378 2169 
L 1441 2663 
Q 1497 2656 1531 2656 
Q 1891 2656 2178 2843 
Q 2466 3031 2466 3422 
Q 2466 3731 2256 3934 
Q 2047 4138 1716 4138 
Q 1388 4138 1169 3931 
Q 950 3725 888 3313 
L 325 3413 
Q 428 3978 793 4289 
Q 1159 4600 1703 4600 
Q 2078 4600 2393 4439 
Q 2709 4278 2876 4000 
Q 3044 3722 3044 3409 
Q 3044 3113 2884 2869 
Q 2725 2625 2413 2481 
Q 2819 2388 3044 2092 
Q 3269 1797 3269 1353 
Q 3269 753 2831 336 
Q 2394 -81 1725 -81 
Q 1122 -81 723 278 
Q 325 638 269 1209 
z
" transform="scale(0.015625)"/>
       </defs>
       <use xlink:href="#ArialMT-30"/>
       <use xlink:href="#ArialMT-2e" x="55.615234"/>
       <use xlink:href="#ArialMT-33" x="83.398438"/>
       <use xlink:href="#ArialMT-30" x="139.013672"/>
      </g>
     </g>
    </g>
    <g id="ytick_6">
     <g id="line2d_17">
      <path d="M 53.081406 92.94255 
L 660.211406 92.94255 
" clip-path="url(#p66acbf9fdf)" style="fill: none; stroke-dasharray: 3.7,1.6; stroke-dashoffset: 0; stroke: #cccccc; stroke-opacity: 0.7"/>
     </g>
     <g id="line2d_18">
      <g>
       <use xlink:href="#me5cdb9d420" x="53.081406" y="92.94255" style="fill: #262626; stroke: #262626; stroke-width: 1.25"/>
      </g>
     </g>
     <g id="text_13">
      <!-- 0.35 -->
      <g style="fill: #262626" transform="translate(22.174375 96.879346) scale(0.11 -0.11)">
       <use xlink:href="#ArialMT-30"/>
       <use xlink:href="#ArialMT-2e" x="55.615234"/>
       <use xlink:href="#ArialMT-33" x="83.398438"/>
       <use xlink:href="#ArialMT-35" x="139.013672"/>
      </g>
     </g>
    </g>
    <g id="ytick_7">
     <g id="line2d_19">
      <path d="M 53.081406 26.080365 
L 660.211406 26.080365 
" clip-path="url(#p66acbf9fdf)" style="fill: none; stroke-dasharray: 3.7,1.6; stroke-dashoffset: 0; stroke: #cccccc; stroke-opacity: 0.7"/>
     </g>
     <g id="line2d_20">
      <g>
       <use xlink:href="#me5cdb9d420" x="53.081406" y="26.080365" style="fill: #262626; stroke: #262626; stroke-width: 1.25"/>
      </g>
     </g>
     <g id="text_14">
      <!-- 0.40 -->
      <g style="fill: #262626" transform="translate(22.174375 30.017162) scale(0.11 -0.11)">
       <defs>
        <path id="ArialMT-34" d="M 2069 0 
L 2069 1097 
L 81 1097 
L 81 1613 
L 2172 4581 
L 2631 4581 
L 2631 1613 
L 3250 1613 
L 3250 1097 
L 2631 1097 
L 2631 0 
L 2069 0 
z
M 2069 1613 
L 2069 3678 
L 634 1613 
L 2069 1613 
z
" transform="scale(0.015625)"/>
       </defs>
       <use xlink:href="#ArialMT-30"/>
       <use xlink:href="#ArialMT-2e" x="55.615234"/>
       <use xlink:href="#ArialMT-34" x="83.398438"/>
       <use xlink:href="#ArialMT-30" x="139.013672"/>
      </g>
     </g>
    </g>
    <g id="text_15">
     <!-- Mean Standard Deviation in Beliefs -->
     <g style="fill: #262626" transform="translate(15.789375 331.629062) rotate(-90) scale(0.12 -0.12)">
      <defs>
       <path id="ArialMT-4d" d="M 475 0 
L 475 4581 
L 1388 4581 
L 2472 1338 
Q 2622 884 2691 659 
Q 2769 909 2934 1394 
L 4031 4581 
L 4847 4581 
L 4847 0 
L 4263 0 
L 4263 3834 
L 2931 0 
L 2384 0 
L 1059 3900 
L 1059 0 
L 475 0 
z
" transform="scale(0.015625)"/>
       <path id="ArialMT-20" transform="scale(0.015625)"/>
       <path id="ArialMT-53" d="M 288 1472 
L 859 1522 
Q 900 1178 1048 958 
Q 1197 738 1509 602 
Q 1822 466 2213 466 
Q 2559 466 2825 569 
Q 3091 672 3220 851 
Q 3350 1031 3350 1244 
Q 3350 1459 3225 1620 
Q 3100 1781 2813 1891 
Q 2628 1963 1997 2114 
Q 1366 2266 1113 2400 
Q 784 2572 623 2826 
Q 463 3081 463 3397 
Q 463 3744 659 4045 
Q 856 4347 1234 4503 
Q 1613 4659 2075 4659 
Q 2584 4659 2973 4495 
Q 3363 4331 3572 4012 
Q 3781 3694 3797 3291 
L 3216 3247 
Q 3169 3681 2898 3903 
Q 2628 4125 2100 4125 
Q 1550 4125 1298 3923 
Q 1047 3722 1047 3438 
Q 1047 3191 1225 3031 
Q 1400 2872 2139 2705 
Q 2878 2538 3153 2413 
Q 3553 2228 3743 1945 
Q 3934 1663 3934 1294 
Q 3934 928 3725 604 
Q 3516 281 3123 101 
Q 2731 -78 2241 -78 
Q 1619 -78 1198 103 
Q 778 284 539 648 
Q 300 1013 288 1472 
z
" transform="scale(0.015625)"/>
       <path id="ArialMT-64" d="M 2575 0 
L 2575 419 
Q 2259 -75 1647 -75 
Q 1250 -75 917 144 
Q 584 363 401 755 
Q 219 1147 219 1656 
Q 219 2153 384 2558 
Q 550 2963 881 3178 
Q 1213 3394 1622 3394 
Q 1922 3394 2156 3267 
Q 2391 3141 2538 2938 
L 2538 4581 
L 3097 4581 
L 3097 0 
L 2575 0 
z
M 797 1656 
Q 797 1019 1065 703 
Q 1334 388 1700 388 
Q 2069 388 2326 689 
Q 2584 991 2584 1609 
Q 2584 2291 2321 2609 
Q 2059 2928 1675 2928 
Q 1300 2928 1048 2622 
Q 797 2316 797 1656 
z
" transform="scale(0.015625)"/>
       <path id="ArialMT-44" d="M 494 0 
L 494 4581 
L 2072 4581 
Q 2606 4581 2888 4516 
Q 3281 4425 3559 4188 
Q 3922 3881 4101 3404 
Q 4281 2928 4281 2316 
Q 4281 1794 4159 1391 
Q 4038 988 3847 723 
Q 3656 459 3429 307 
Q 3203 156 2883 78 
Q 2563 0 2147 0 
L 494 0 
z
M 1100 541 
L 2078 541 
Q 2531 541 2789 625 
Q 3047 709 3200 863 
Q 3416 1078 3536 1442 
Q 3656 1806 3656 2325 
Q 3656 3044 3420 3430 
Q 3184 3816 2847 3947 
Q 2603 4041 2063 4041 
L 1100 4041 
L 1100 541 
z
" transform="scale(0.015625)"/>
       <path id="ArialMT-76" d="M 1344 0 
L 81 3319 
L 675 3319 
L 1388 1331 
Q 1503 1009 1600 663 
Q 1675 925 1809 1294 
L 2547 3319 
L 3125 3319 
L 1869 0 
L 1344 0 
z
" transform="scale(0.015625)"/>
       <path id="ArialMT-42" d="M 469 0 
L 469 4581 
L 2188 4581 
Q 2713 4581 3030 4442 
Q 3347 4303 3526 4014 
Q 3706 3725 3706 3409 
Q 3706 3116 3547 2856 
Q 3388 2597 3066 2438 
Q 3481 2316 3704 2022 
Q 3928 1728 3928 1328 
Q 3928 1006 3792 729 
Q 3656 453 3456 303 
Q 3256 153 2954 76 
Q 2653 0 2216 0 
L 469 0 
z
M 1075 2656 
L 2066 2656 
Q 2469 2656 2644 2709 
Q 2875 2778 2992 2937 
Q 3109 3097 3109 3338 
Q 3109 3566 3000 3739 
Q 2891 3913 2687 3977 
Q 2484 4041 1991 4041 
L 1075 4041 
L 1075 2656 
z
M 1075 541 
L 2216 541 
Q 2509 541 2628 563 
Q 2838 600 2978 687 
Q 3119 775 3209 942 
Q 3300 1109 3300 1328 
Q 3300 1584 3169 1773 
Q 3038 1963 2805 2039 
Q 2572 2116 2134 2116 
L 1075 2116 
L 1075 541 
z
" transform="scale(0.015625)"/>
       <path id="ArialMT-6c" d="M 409 0 
L 409 4581 
L 972 4581 
L 972 0 
L 409 0 
z
" transform="scale(0.015625)"/>
       <path id="ArialMT-66" d="M 556 0 
L 556 2881 
L 59 2881 
L 59 3319 
L 556 3319 
L 556 3672 
Q 556 4006 616 4169 
Q 697 4388 901 4523 
Q 1106 4659 1475 4659 
Q 1713 4659 2000 4603 
L 1916 4113 
Q 1741 4144 1584 4144 
Q 1328 4144 1222 4034 
Q 1116 3925 1116 3625 
L 1116 3319 
L 1763 3319 
L 1763 2881 
L 1116 2881 
L 1116 0 
L 556 0 
z
" transform="scale(0.015625)"/>
       <path id="ArialMT-73" d="M 197 991 
L 753 1078 
Q 800 744 1014 566 
Q 1228 388 1613 388 
Q 2000 388 2187 545 
Q 2375 703 2375 916 
Q 2375 1106 2209 1216 
Q 2094 1291 1634 1406 
Q 1016 1563 777 1677 
Q 538 1791 414 1992 
Q 291 2194 291 2438 
Q 291 2659 392 2848 
Q 494 3038 669 3163 
Q 800 3259 1026 3326 
Q 1253 3394 1513 3394 
Q 1903 3394 2198 3281 
Q 2494 3169 2634 2976 
Q 2775 2784 2828 2463 
L 2278 2388 
Q 2241 2644 2061 2787 
Q 1881 2931 1553 2931 
Q 1166 2931 1000 2803 
Q 834 2675 834 2503 
Q 834 2394 903 2306 
Q 972 2216 1119 2156 
Q 1203 2125 1616 2013 
Q 2213 1853 2448 1751 
Q 2684 1650 2818 1456 
Q 2953 1263 2953 975 
Q 2953 694 2789 445 
Q 2625 197 2315 61 
Q 2006 -75 1616 -75 
Q 969 -75 630 194 
Q 291 463 197 991 
z
" transform="scale(0.015625)"/>
      </defs>
      <use xlink:href="#ArialMT-4d"/>
      <use xlink:href="#ArialMT-65" x="83.300781"/>
      <use xlink:href="#ArialMT-61" x="138.916016"/>
      <use xlink:href="#ArialMT-6e" x="194.53125"/>
      <use xlink:href="#ArialMT-20" x="250.146484"/>
      <use xlink:href="#ArialMT-53" x="277.929688"/>
      <use xlink:href="#ArialMT-74" x="344.628906"/>
      <use xlink:href="#ArialMT-61" x="372.412109"/>
      <use xlink:href="#ArialMT-6e" x="428.027344"/>
      <use xlink:href="#ArialMT-64" x="483.642578"/>
      <use xlink:href="#ArialMT-61" x="539.257812"/>
      <use xlink:href="#ArialMT-72" x="594.873047"/>
      <use xlink:href="#ArialMT-64" x="628.173828"/>
      <use xlink:href="#ArialMT-20" x="683.789062"/>
      <use xlink:href="#ArialMT-44" x="711.572266"/>
      <use xlink:href="#ArialMT-65" x="783.789062"/>
      <use xlink:href="#ArialMT-76" x="839.404297"/>
      <use xlink:href="#ArialMT-69" x="889.404297"/>
      <use xlink:href="#ArialMT-61" x="911.621094"/>
      <use xlink:href="#ArialMT-74" x="967.236328"/>
      <use xlink:href="#ArialMT-69" x="995.019531"/>
      <use xlink:href="#ArialMT-6f" x="1017.236328"/>
      <use xlink:href="#ArialMT-6e" x="1072.851562"/>
      <use xlink:href="#ArialMT-20" x="1128.466797"/>
      <use xlink:href="#ArialMT-69" x="1156.25"/>
      <use xlink:href="#ArialMT-6e" x="1178.466797"/>
      <use xlink:href="#ArialMT-20" x="1234.082031"/>
      <use xlink:href="#ArialMT-42" x="1261.865234"/>
      <use xlink:href="#ArialMT-65" x="1328.564453"/>
      <use xlink:href="#ArialMT-6c" x="1384.179688"/>
      <use xlink:href="#ArialMT-69" x="1406.396484"/>
      <use xlink:href="#ArialMT-65" x="1428.613281"/>
      <use xlink:href="#ArialMT-66" x="1484.228516"/>
      <use xlink:href="#ArialMT-73" x="1512.011719"/>
     </g>
    </g>
   </g>
   <g id="PolyCollection_1"/>
   <g id="PolyCollection_2"/>
   <g id="PolyCollection_3"/>
   <g id="PolyCollection_4"/>
   <g id="PolyCollection_5"/>
   <g id="PolyCollection_6"/>
   <g id="line2d_21">
    <path d="M 80.678224 175.311348 
L 80.700302 172.95548 
L 82.88597 114.906166 
L 85.093715 98.975898 
L 87.301461 92.504494 
L 89.509206 89.73814 
L 91.716952 89.013852 
L 93.924697 92.720736 
L 96.132443 96.989547 
L 98.340188 102.177287 
L 100.547934 106.284693 
L 102.755679 109.668848 
L 104.963424 115.022935 
L 107.17117 120.075534 
L 111.586661 131.638474 
L 113.794406 136.629978 
L 116.002152 142.452059 
L 118.209897 147.814395 
L 120.417643 153.619219 
L 122.625388 158.666517 
L 124.833134 163.324492 
L 127.040879 166.73224 
L 129.248624 170.591123 
L 131.45637 175.217016 
L 133.664115 178.690083 
L 138.079606 187.039519 
L 140.287352 190.016536 
L 142.495097 195.72894 
L 144.702843 199.543547 
L 149.118334 208.161512 
L 155.74157 218.528743 
L 157.949315 222.897147 
L 160.157061 226.500891 
L 162.364806 230.384324 
L 164.572552 234.843173 
L 168.988043 240.379368 
L 171.195788 243.457233 
L 177.819024 251.030333 
L 180.02677 253.962017 
L 182.234515 256.190336 
L 184.442261 258.727675 
L 186.650006 261.634132 
L 191.065497 266.701377 
L 193.273243 269.146715 
L 195.480988 271.906872 
L 197.688734 274.409758 
L 199.896479 277.537379 
L 202.104224 279.314981 
L 206.519715 283.365716 
L 208.727461 285.167927 
L 210.935206 287.432791 
L 213.142952 289.219539 
L 215.350697 291.387959 
L 217.558443 293.045623 
L 219.766188 295.360821 
L 221.973934 297.219165 
L 224.181679 299.690428 
L 226.389424 301.945369 
L 228.59717 303.734727 
L 230.804915 304.958652 
L 233.012661 306.784794 
L 235.220406 308.380228 
L 237.428152 310.589677 
L 239.635897 312.612952 
L 241.843643 313.783653 
L 244.051388 315.928201 
L 248.466879 319.120443 
L 250.674624 320.558558 
L 252.88237 322.6395 
L 255.090115 324.339209 
L 259.505606 327.429528 
L 261.713352 328.701894 
L 263.921097 330.38881 
L 266.128843 332.278259 
L 268.336588 334.010508 
L 270.544334 335.337911 
L 274.959824 339.103897 
L 277.16757 340.515649 
L 279.375315 341.34186 
L 283.790806 343.77598 
L 285.998552 344.590953 
L 290.414043 346.876421 
L 292.621788 348.809031 
L 294.829534 350.132548 
L 297.037279 351.04008 
L 299.245024 352.570494 
L 303.660515 355.042733 
L 308.076006 357.112855 
L 312.491497 359.807215 
L 314.699243 360.728297 
L 316.906988 361.880027 
L 319.114734 362.462319 
L 321.322479 363.960811 
L 325.73797 364.679539 
L 327.945715 365.350025 
L 334.568952 368.653159 
L 336.776697 370.526029 
L 341.192188 372.455451 
L 343.399934 373.047845 
L 345.607679 374.041061 
L 347.815424 374.836606 
L 350.02317 375.942685 
L 354.438661 377.642195 
L 367.685134 383.618347 
L 374.30837 385.695842 
L 376.516115 386.147117 
L 378.723861 386.875749 
L 383.139352 387.723581 
L 385.347097 388.667897 
L 389.762588 391.258041 
L 391.970334 392.121236 
L 394.178079 392.361789 
L 396.385824 393.002266 
L 398.59357 393.340458 
L 405.216806 395.621562 
L 407.424552 396.562431 
L 409.632297 397.151608 
L 411.840043 397.979951 
L 416.255534 398.823031 
L 420.671024 399.466118 
L 422.87877 400.003815 
L 425.086515 400.378632 
L 427.294261 400.985642 
L 429.502006 401.809513 
L 431.709752 402.37676 
L 433.917497 402.804472 
L 440.540734 403.629787 
L 444.956224 404.923325 
L 447.16397 405.042246 
L 453.787206 406.346365 
L 455.994952 407.152371 
L 458.202697 407.661672 
L 460.410443 408.02808 
L 462.618188 407.940274 
L 464.825934 408.777097 
L 469.241424 409.245389 
L 471.44917 409.577524 
L 473.656915 410.085201 
L 480.280152 411.302958 
L 482.487897 411.983218 
L 484.695643 412.382196 
L 486.903388 413.370022 
L 489.111134 413.873454 
L 491.318879 414.105269 
L 495.73437 415.244546 
L 497.942115 415.364723 
L 500.149861 415.871333 
L 502.357606 415.944155 
L 504.565352 415.901283 
L 508.980843 416.794767 
L 513.396334 417.480108 
L 515.604079 417.354242 
L 517.811824 417.866114 
L 522.227315 418.570964 
L 524.435061 419.104455 
L 537.681534 420.635487 
L 539.889279 420.763604 
L 542.097024 421.284731 
L 544.30477 421.259495 
L 546.512515 421.466959 
L 550.928006 421.64028 
L 553.135752 422.213624 
L 555.343497 422.381664 
L 557.551243 422.878083 
L 559.758988 423.088776 
L 561.966734 423.419794 
L 564.174479 423.90074 
L 568.58997 424.151674 
L 570.797715 424.206203 
L 573.005461 424.802334 
L 575.213206 425.03372 
L 577.420952 425.593046 
L 579.628697 425.978205 
L 581.836443 426.162396 
L 584.044188 426.764534 
L 586.251934 426.798509 
L 588.459679 426.997884 
L 590.667424 427.379785 
L 592.87517 427.462719 
L 595.082915 428.002686 
L 599.498406 428.576878 
L 601.706152 428.720259 
L 610.537134 429.772766 
L 612.744879 430.197848 
L 614.952624 430.187805 
L 617.16037 430.41672 
L 619.368115 430.265458 
L 621.575861 430.689364 
L 623.783606 430.619871 
L 625.991352 430.750578 
L 628.199097 431.055075 
L 630.406843 431.169005 
L 632.614588 431.60125 
L 632.614588 431.60125 
" clip-path="url(#p66acbf9fdf)" style="fill: none; stroke: #1f77b4; stroke-width: 2.5; stroke-linecap: round"/>
   </g>
   <g id="line2d_22">
    <path d="M 80.678224 173.839618 
L 80.700302 171.641568 
L 82.88597 113.835077 
L 85.093715 94.951067 
L 87.301461 86.805121 
L 89.509206 80.740854 
L 93.924697 76.602084 
L 98.340188 77.091518 
L 100.547934 78.980349 
L 102.755679 80.686853 
L 104.963424 80.98591 
L 111.586661 87.34736 
L 113.794406 88.649994 
L 116.002152 92.666815 
L 118.209897 95.649969 
L 122.625388 101.85926 
L 124.833134 104.382631 
L 127.040879 108.29137 
L 129.248624 110.623526 
L 131.45637 113.944792 
L 133.664115 117.832689 
L 138.079606 122.585314 
L 142.495097 128.800385 
L 144.702843 131.279917 
L 146.910588 133.111001 
L 149.118334 135.227074 
L 153.533824 141.434214 
L 155.74157 143.432601 
L 157.949315 146.182296 
L 160.157061 148.714116 
L 162.364806 150.554247 
L 164.572552 152.94407 
L 166.780297 154.492597 
L 168.988043 156.400318 
L 171.195788 158.670503 
L 173.403534 160.134143 
L 175.611279 161.8426 
L 177.819024 164.203529 
L 180.02677 167.416994 
L 182.234515 168.21493 
L 186.650006 171.225264 
L 188.857752 173.516849 
L 193.273243 177.045072 
L 195.480988 178.169723 
L 197.688734 179.549951 
L 199.896479 181.728712 
L 202.104224 183.250378 
L 204.31197 185.279652 
L 206.519715 186.264419 
L 208.727461 187.900423 
L 210.935206 189.237251 
L 213.142952 191.578134 
L 215.350697 194.570335 
L 217.558443 195.319571 
L 219.766188 196.920584 
L 221.973934 198.103898 
L 224.181679 200.206342 
L 226.389424 201.157951 
L 230.804915 204.03932 
L 239.635897 208.001184 
L 241.843643 209.438999 
L 244.051388 210.42807 
L 246.259134 211.938577 
L 248.466879 213.589925 
L 250.674624 214.826004 
L 252.88237 216.31515 
L 255.090115 217.581757 
L 257.297861 218.186606 
L 259.505606 219.699026 
L 261.713352 220.772147 
L 266.128843 223.350873 
L 268.336588 224.564475 
L 272.752079 226.345465 
L 274.959824 227.2629 
L 277.16757 228.79423 
L 279.375315 229.872193 
L 281.583061 230.610669 
L 283.790806 232.023755 
L 285.998552 233.023925 
L 288.206297 233.769794 
L 290.414043 234.749678 
L 292.621788 234.940176 
L 294.829534 235.868909 
L 299.245024 238.463537 
L 301.45277 238.831399 
L 303.660515 238.93141 
L 305.868261 240.799997 
L 308.076006 241.319281 
L 310.283752 241.106605 
L 312.491497 241.833364 
L 314.699243 242.936315 
L 316.906988 243.361167 
L 319.114734 244.223008 
L 321.322479 244.793603 
L 323.530224 244.872551 
L 325.73797 245.192989 
L 327.945715 245.936705 
L 330.153461 246.536493 
L 332.361206 247.311374 
L 334.568952 248.355043 
L 341.192188 252.096539 
L 343.399934 252.620267 
L 345.607679 253.307472 
L 347.815424 254.355306 
L 352.230915 256.744372 
L 356.646406 258.845978 
L 358.854152 259.356555 
L 361.061897 260.150685 
L 363.269643 261.250706 
L 365.477388 261.661252 
L 367.685134 261.803925 
L 369.892879 262.120139 
L 372.100624 262.594289 
L 374.30837 262.907474 
L 376.516115 263.96027 
L 378.723861 264.294337 
L 380.931606 265.438835 
L 383.139352 265.771527 
L 385.347097 267.045089 
L 387.554843 268.105536 
L 389.762588 268.498845 
L 391.970334 268.512614 
L 394.178079 269.206275 
L 396.385824 269.475781 
L 398.59357 269.631765 
L 400.801315 270.016526 
L 407.424552 272.359841 
L 409.632297 272.100756 
L 411.840043 272.53089 
L 414.047788 272.478304 
L 416.255534 273.482359 
L 418.463279 273.935368 
L 420.671024 274.608325 
L 422.87877 274.63409 
L 425.086515 275.19787 
L 427.294261 275.923513 
L 429.502006 276.240005 
L 431.709752 276.427753 
L 433.917497 276.446005 
L 436.125243 276.704651 
L 438.332988 277.328031 
L 442.748479 277.900001 
L 444.956224 278.556858 
L 447.16397 278.772801 
L 451.579461 279.981721 
L 453.787206 280.297276 
L 455.994952 280.904098 
L 458.202697 280.935781 
L 460.410443 281.696295 
L 462.618188 282.22612 
L 464.825934 282.425704 
L 467.033679 282.262307 
L 471.44917 283.347324 
L 473.656915 283.65194 
L 475.864661 284.557957 
L 478.072406 284.614389 
L 480.280152 285.264192 
L 482.487897 285.711003 
L 486.903388 285.91503 
L 489.111134 285.862624 
L 491.318879 286.600342 
L 493.526624 286.669786 
L 495.73437 287.194231 
L 500.149861 287.109384 
L 502.357606 287.418045 
L 504.565352 286.911076 
L 506.773097 286.908246 
L 508.980843 286.751465 
L 511.188588 287.208718 
L 513.396334 287.525648 
L 515.604079 287.614082 
L 517.811824 287.516084 
L 520.01957 287.050063 
L 522.227315 286.947302 
L 524.435061 287.368428 
L 526.642806 287.612508 
L 528.850552 287.582479 
L 531.058297 287.802806 
L 533.266043 288.179476 
L 535.473788 288.235709 
L 537.681534 289.04853 
L 539.889279 289.53362 
L 542.097024 289.817194 
L 544.30477 290.225747 
L 546.512515 290.465263 
L 548.720261 290.927079 
L 550.928006 291.175841 
L 553.135752 291.131684 
L 557.551243 291.518418 
L 559.758988 291.477827 
L 564.174479 292.515778 
L 566.382224 292.688162 
L 568.58997 292.730705 
L 570.797715 293.213344 
L 573.005461 293.812474 
L 579.628697 293.999723 
L 586.251934 294.922319 
L 590.667424 295.200832 
L 592.87517 295.181463 
L 595.082915 295.553012 
L 597.290661 295.810184 
L 599.498406 295.887977 
L 601.706152 295.566941 
L 603.913897 295.785435 
L 606.121643 295.650214 
L 610.537134 295.695068 
L 612.744879 295.248934 
L 614.952624 295.72719 
L 621.575861 296.72451 
L 623.783606 296.560834 
L 628.199097 297.096956 
L 630.406843 297.191986 
L 632.614588 297.019123 
L 632.614588 297.019123 
" clip-path="url(#p66acbf9fdf)" style="fill: none; stroke: #ff7f0e; stroke-width: 2.5; stroke-linecap: round"/>
   </g>
   <g id="line2d_23">
    <path d="M 80.678224 174.169162 
L 80.700302 172.182731 
L 82.88597 114.963195 
L 85.093715 94.83386 
L 87.301461 82.854616 
L 89.509206 74.840024 
L 91.716952 68.767787 
L 93.924697 63.311318 
L 96.132443 59.190003 
L 98.340188 56.411096 
L 100.547934 53.952646 
L 102.755679 51.944574 
L 104.963424 49.213968 
L 107.17117 47.505352 
L 109.378915 46.88791 
L 111.586661 45.852809 
L 113.794406 44.482066 
L 116.002152 45.235965 
L 118.209897 45.086636 
L 120.417643 44.721543 
L 122.625388 44.834008 
L 124.833134 44.22625 
L 127.040879 44.432091 
L 129.248624 45.219187 
L 131.45637 45.881902 
L 133.664115 46.215949 
L 135.871861 47.4166 
L 138.079606 47.368856 
L 140.287352 47.510852 
L 142.495097 47.266593 
L 144.702843 47.763918 
L 146.910588 47.250532 
L 149.118334 46.8636 
L 151.326079 47.713783 
L 153.533824 48.376817 
L 155.74157 48.650368 
L 157.949315 49.56579 
L 160.157061 49.819016 
L 164.572552 50.943667 
L 166.780297 50.855791 
L 168.988043 51.617581 
L 171.195788 51.887545 
L 173.403534 52.46067 
L 175.611279 53.336678 
L 177.819024 53.935031 
L 180.02677 54.668126 
L 182.234515 55.26333 
L 184.442261 55.525563 
L 188.857752 55.377509 
L 191.065497 55.83247 
L 193.273243 56.020537 
L 199.896479 57.59425 
L 204.31197 58.031796 
L 208.727461 59.81976 
L 210.935206 59.775961 
L 213.142952 60.108415 
L 215.350697 60.647028 
L 217.558443 61.408498 
L 219.766188 61.419418 
L 221.973934 61.79559 
L 224.181679 61.683803 
L 226.389424 60.82529 
L 228.59717 61.405031 
L 233.012661 62.032516 
L 237.428152 62.320414 
L 239.635897 62.114255 
L 241.843643 62.987951 
L 244.051388 62.786215 
L 248.466879 63.538799 
L 250.674624 64.089487 
L 252.88237 63.932307 
L 255.090115 64.454899 
L 259.505606 65.251879 
L 261.713352 65.767457 
L 263.921097 66.031203 
L 268.336588 66.248482 
L 270.544334 66.702009 
L 272.752079 66.997518 
L 274.959824 67.117077 
L 277.16757 67.537207 
L 279.375315 68.165848 
L 281.583061 67.716067 
L 285.998552 67.722165 
L 294.829534 68.224671 
L 297.037279 68.602836 
L 299.245024 68.479331 
L 301.45277 69.198917 
L 303.660515 68.974186 
L 305.868261 68.948839 
L 308.076006 68.655641 
L 310.283752 68.792018 
L 312.491497 68.620809 
L 319.114734 69.361955 
L 321.322479 69.946558 
L 323.530224 70.213533 
L 325.73797 70.65339 
L 327.945715 70.849666 
L 330.153461 70.610708 
L 332.361206 70.622186 
L 334.568952 70.501072 
L 336.776697 70.870868 
L 338.984443 70.971258 
L 341.192188 70.707232 
L 343.399934 70.896693 
L 345.607679 70.908649 
L 347.815424 71.300045 
L 350.02317 71.377718 
L 352.230915 71.612213 
L 354.438661 71.628274 
L 358.854152 72.268312 
L 361.061897 72.127512 
L 365.477388 72.391936 
L 367.685134 72.255799 
L 372.100624 72.534411 
L 374.30837 72.920148 
L 376.516115 72.967134 
L 378.723861 72.858973 
L 380.931606 73.292255 
L 389.762588 73.753114 
L 394.178079 74.506136 
L 398.59357 74.907774 
L 400.801315 75.080537 
L 403.009061 75.019682 
L 405.216806 75.161239 
L 407.424552 74.98752 
L 409.632297 75.582724 
L 414.047788 75.844957 
L 418.463279 76.252174 
L 422.87877 76.227625 
L 425.086515 76.350731 
L 427.294261 76.149713 
L 431.709752 76.483322 
L 433.917497 76.447414 
L 436.125243 76.221129 
L 438.332988 76.300476 
L 449.371715 76.169679 
L 451.579461 76.317494 
L 453.787206 76.310958 
L 455.994952 76.506795 
L 464.825934 76.476467 
L 471.44917 76.538159 
L 473.656915 76.503886 
L 475.864661 76.594751 
L 478.072406 76.49189 
L 482.487897 76.664174 
L 484.695643 76.441954 
L 486.903388 76.420474 
L 489.111134 76.261819 
L 491.318879 76.471206 
L 495.73437 76.294419 
L 502.357606 76.750775 
L 506.773097 76.999736 
L 508.980843 76.941312 
L 511.188588 77.175926 
L 513.396334 77.235746 
L 515.604079 77.12069 
L 517.811824 77.157116 
L 520.01957 77.038474 
L 524.435061 77.117422 
L 526.642806 77.18314 
L 528.850552 77.373318 
L 546.512515 77.711989 
L 548.720261 77.654959 
L 553.135752 78.051137 
L 557.551243 78.541767 
L 570.797715 78.279774 
L 573.005461 78.40547 
L 577.420952 78.449348 
L 581.836443 78.666148 
L 586.251934 78.580504 
L 590.667424 78.53555 
L 592.87517 78.514548 
L 597.290661 78.848635 
L 601.706152 78.906661 
L 606.121643 79.204961 
L 608.329388 79.325755 
L 614.952624 79.129638 
L 617.16037 79.358474 
L 619.368115 79.192447 
L 625.991352 79.470461 
L 632.614588 79.262668 
L 632.614588 79.262668 
" clip-path="url(#p66acbf9fdf)" style="fill: none; stroke: #2ca02c; stroke-width: 2.5; stroke-linecap: round"/>
   </g>
   <g id="line2d_24">
    <path d="M 80.678224 175.304055 
L 80.700302 173.584918 
L 82.88597 122.774656 
L 85.093715 107.119852 
L 87.301461 98.818399 
L 91.716952 92.241623 
L 93.924697 92.866199 
L 96.132443 93.266403 
L 98.340188 95.940975 
L 100.547934 98.056969 
L 102.755679 102.854269 
L 104.963424 105.028249 
L 107.17117 108.338078 
L 109.378915 113.242224 
L 111.586661 114.408003 
L 113.794406 117.52339 
L 116.002152 121.843332 
L 118.209897 124.798429 
L 122.625388 132.806644 
L 124.833134 136.062273 
L 127.040879 138.867125 
L 129.248624 142.979951 
L 131.45637 146.492273 
L 133.664115 150.716209 
L 135.871861 153.234717 
L 140.287352 158.88543 
L 142.495097 162.405045 
L 144.702843 164.918731 
L 151.326079 175.607536 
L 153.533824 178.071844 
L 155.74157 180.727008 
L 157.949315 183.793654 
L 160.157061 186.214005 
L 162.364806 189.15057 
L 164.572552 191.762972 
L 168.988043 196.55577 
L 171.195788 198.438185 
L 173.403534 201.725895 
L 175.611279 203.873373 
L 177.819024 206.258493 
L 180.02677 209.595581 
L 182.234515 212.471531 
L 186.650006 217.316217 
L 188.857752 219.264748 
L 191.065497 221.922303 
L 199.896479 229.83238 
L 202.104224 231.282032 
L 204.31197 232.866865 
L 206.519715 234.228601 
L 208.727461 236.629344 
L 210.935206 237.891886 
L 215.350697 240.775288 
L 217.558443 241.806145 
L 219.766188 243.778548 
L 221.973934 245.533353 
L 224.181679 247.122231 
L 226.389424 248.30985 
L 228.59717 250.429789 
L 230.804915 251.373447 
L 233.012661 253.428027 
L 235.220406 254.98576 
L 237.428152 255.258932 
L 239.635897 256.234413 
L 241.843643 256.434495 
L 244.051388 257.852982 
L 246.259134 258.906156 
L 248.466879 259.629109 
L 250.674624 261.624966 
L 252.88237 263.340158 
L 255.090115 264.414932 
L 257.297861 265.616579 
L 259.505606 267.398604 
L 263.921097 269.822143 
L 266.128843 271.106246 
L 268.336588 271.843406 
L 270.544334 273.239057 
L 272.752079 273.994928 
L 274.959824 275.240254 
L 277.16757 275.928395 
L 279.375315 276.784556 
L 281.583061 278.258219 
L 283.790806 278.715951 
L 285.998552 280.031716 
L 288.206297 281.046114 
L 290.414043 281.751392 
L 292.621788 283.007438 
L 294.829534 283.89056 
L 299.245024 285.416649 
L 303.660515 287.488705 
L 305.868261 288.329323 
L 308.076006 289.37377 
L 312.491497 291.080912 
L 314.699243 291.53934 
L 316.906988 292.483098 
L 319.114734 293.276491 
L 321.322479 294.341422 
L 323.530224 295.056165 
L 325.73797 295.270256 
L 330.153461 296.899863 
L 332.361206 297.397687 
L 334.568952 298.143156 
L 336.776697 299.252802 
L 341.192188 300.21577 
L 343.399934 300.54904 
L 345.607679 301.215561 
L 347.815424 301.74995 
L 350.02317 302.629525 
L 352.230915 303.270838 
L 354.438661 303.696508 
L 358.854152 305.085862 
L 367.685134 307.751328 
L 369.892879 307.988214 
L 372.100624 308.719098 
L 376.516115 309.838269 
L 378.723861 310.790137 
L 385.347097 312.160003 
L 387.554843 312.983047 
L 389.762588 313.553323 
L 396.385824 314.566425 
L 403.009061 315.821753 
L 405.216806 316.437821 
L 409.632297 317.33509 
L 411.840043 317.674498 
L 414.047788 317.861807 
L 416.255534 318.483713 
L 420.671024 319.264273 
L 422.87877 319.892176 
L 425.086515 320.355308 
L 429.502006 321.480795 
L 431.709752 321.887096 
L 433.917497 322.540745 
L 436.125243 322.718589 
L 442.748479 324.169874 
L 449.371715 324.601641 
L 451.579461 324.83787 
L 453.787206 325.354225 
L 455.994952 325.693931 
L 467.033679 326.666882 
L 469.241424 327.39384 
L 471.44917 327.479564 
L 475.864661 328.385661 
L 478.072406 328.360015 
L 480.280152 329.029904 
L 482.487897 329.202507 
L 486.903388 329.858467 
L 489.111134 329.80347 
L 491.318879 330.246475 
L 493.526624 330.273336 
L 495.73437 330.578112 
L 502.357606 330.847996 
L 504.565352 331.081594 
L 506.773097 331.781034 
L 511.188588 332.080868 
L 515.604079 332.663438 
L 517.811824 332.525507 
L 520.01957 332.825221 
L 522.227315 332.861149 
L 526.642806 333.503061 
L 528.850552 333.576789 
L 531.058297 333.900953 
L 533.266043 333.879671 
L 535.473788 334.173527 
L 537.681534 334.322039 
L 542.097024 334.285952 
L 544.30477 334.856687 
L 546.512515 334.909571 
L 548.720261 335.097438 
L 555.343497 335.289589 
L 559.758988 335.76643 
L 561.966734 335.829318 
L 564.174479 336.017663 
L 566.382224 335.991101 
L 568.58997 336.241119 
L 570.797715 336.181519 
L 573.005461 336.453535 
L 575.213206 336.512697 
L 577.420952 336.770466 
L 581.836443 336.889945 
L 592.87517 337.643505 
L 595.082915 337.598252 
L 597.290661 337.835497 
L 603.913897 338.220795 
L 606.121643 338.512778 
L 614.952624 338.784894 
L 625.991352 339.311272 
L 632.614588 339.500574 
L 632.614588 339.500574 
" clip-path="url(#p66acbf9fdf)" style="fill: none; stroke: #d62728; stroke-width: 2.5; stroke-linecap: round"/>
   </g>
   <g id="line2d_25">
    <path d="M 80.678224 175.365748 
L 80.700302 174.48703 
L 82.88597 144.045938 
L 85.093715 133.099245 
L 87.301461 126.376726 
L 89.509206 121.80579 
L 91.716952 117.7048 
L 93.924697 115.105709 
L 96.132443 114.542866 
L 98.340188 112.588875 
L 100.547934 110.80661 
L 102.755679 109.812 
L 104.963424 110.211247 
L 107.17117 111.512048 
L 109.378915 110.317256 
L 111.586661 110.518035 
L 113.794406 112.18903 
L 116.002152 111.457449 
L 118.209897 111.85849 
L 120.417643 112.893471 
L 122.625388 113.43846 
L 124.833134 114.488108 
L 127.040879 114.441042 
L 129.248624 116.992867 
L 131.45637 115.59347 
L 135.871861 119.491329 
L 138.079606 120.089403 
L 140.287352 121.435995 
L 142.495097 124.632521 
L 144.702843 125.647298 
L 146.910588 125.610234 
L 149.118334 125.098363 
L 151.326079 126.234093 
L 153.533824 129.096173 
L 155.74157 129.137461 
L 157.949315 132.297443 
L 160.157061 134.315278 
L 162.364806 133.5126 
L 164.572552 136.782217 
L 166.780297 138.031368 
L 171.195788 139.625248 
L 173.403534 141.929785 
L 177.819024 144.457061 
L 180.02677 144.907719 
L 182.234515 147.689097 
L 186.650006 147.903785 
L 188.857752 147.223694 
L 191.065497 147.206358 
L 193.273243 149.405644 
L 195.480988 149.126155 
L 197.688734 151.273035 
L 199.896479 152.996676 
L 202.104224 156.3511 
L 204.31197 157.083358 
L 206.519715 158.769936 
L 208.727461 157.194947 
L 210.935206 158.416201 
L 213.142952 159.814044 
L 215.350697 160.549211 
L 217.558443 160.436029 
L 219.766188 162.304974 
L 221.973934 162.446731 
L 224.181679 163.042533 
L 226.389424 164.899083 
L 228.59717 165.819448 
L 230.804915 165.855515 
L 233.012661 167.775352 
L 237.428152 167.776507 
L 239.635897 171.371285 
L 241.843643 170.320123 
L 244.051388 174.662941 
L 246.259134 174.459611 
L 248.466879 174.886197 
L 250.674624 176.824685 
L 252.88237 179.325738 
L 255.090115 179.851558 
L 257.297861 180.828434 
L 259.505606 183.308922 
L 263.921097 180.697238 
L 266.128843 181.242626 
L 268.336588 185.311295 
L 270.544334 184.234707 
L 272.752079 184.290979 
L 277.16757 188.07733 
L 279.375315 186.312481 
L 281.583061 183.551428 
L 283.790806 185.595526 
L 285.998552 185.512632 
L 288.206297 186.619708 
L 290.414043 188.961867 
L 292.621788 190.426543 
L 294.829534 190.927853 
L 297.037279 189.253072 
L 301.45277 195.30897 
L 303.660515 195.911905 
L 305.868261 195.893254 
L 308.076006 197.113393 
L 310.283752 198.802601 
L 312.491497 198.17117 
L 314.699243 201.168273 
L 316.906988 203.885568 
L 319.114734 204.053707 
L 321.322479 204.843633 
L 323.530224 204.642495 
L 325.73797 204.910945 
L 327.945715 204.004569 
L 330.153461 205.327209 
L 332.361206 207.32177 
L 334.568952 205.303257 
L 336.776697 205.137907 
L 338.984443 205.694374 
L 341.192188 207.472375 
L 343.399934 209.040629 
L 345.607679 209.004163 
L 347.815424 209.613595 
L 350.02317 211.163198 
L 352.230915 214.423808 
L 354.438661 212.495124 
L 356.646406 213.413496 
L 361.061897 213.701951 
L 363.269643 214.920097 
L 367.685134 218.199478 
L 369.892879 218.410579 
L 372.100624 220.525696 
L 374.30837 220.933033 
L 376.516115 219.951415 
L 378.723861 222.1509 
L 380.931606 221.196979 
L 383.139352 221.25652 
L 385.347097 220.311128 
L 387.554843 225.219459 
L 389.762588 224.024308 
L 391.970334 225.873366 
L 394.178079 225.141467 
L 396.385824 226.270541 
L 398.59357 222.868174 
L 400.801315 224.854087 
L 403.009061 225.344438 
L 405.216806 228.346941 
L 407.424552 229.49913 
L 409.632297 227.925695 
L 411.840043 229.449891 
L 414.047788 229.331229 
L 416.255534 230.631352 
L 418.463279 230.890696 
L 420.671024 229.60486 
L 422.87877 230.629499 
L 425.086515 231.981133 
L 427.294261 232.854112 
L 429.502006 234.373526 
L 431.709752 234.437709 
L 433.917497 232.606764 
L 436.125243 233.971529 
L 438.332988 234.821095 
L 440.540734 233.814987 
L 442.748479 237.289448 
L 444.956224 239.60919 
L 447.16397 238.675395 
L 449.371715 240.860214 
L 451.579461 240.364443 
L 453.787206 241.577508 
L 455.994952 241.090565 
L 458.202697 240.314069 
L 460.410443 238.649132 
L 462.618188 238.832635 
L 464.825934 241.660562 
L 467.033679 243.46086 
L 469.241424 243.439718 
L 471.44917 241.929649 
L 473.656915 242.503571 
L 475.864661 241.630194 
L 478.072406 242.794697 
L 480.280152 242.689545 
L 482.487897 246.449195 
L 484.695643 245.650382 
L 486.903388 246.533304 
L 489.111134 247.977157 
L 491.318879 246.434628 
L 493.526624 244.171896 
L 495.73437 246.622635 
L 497.942115 245.777612 
L 500.149861 249.445062 
L 502.357606 249.767034 
L 504.565352 249.708849 
L 506.773097 249.313208 
L 508.980843 248.319176 
L 511.188588 246.960588 
L 513.396334 248.465655 
L 515.604079 249.428323 
L 517.811824 248.210815 
L 520.01957 247.853354 
L 522.227315 248.760946 
L 524.435061 247.341144 
L 526.642806 250.859603 
L 531.058297 253.093641 
L 533.266043 252.24286 
L 535.473788 252.496046 
L 537.681534 252.373278 
L 539.889279 253.732026 
L 542.097024 256.842669 
L 544.30477 255.942411 
L 546.512515 256.103177 
L 548.720261 259.2737 
L 550.928006 256.431088 
L 553.135752 255.832237 
L 555.343497 256.300131 
L 557.551243 258.259343 
L 559.758988 259.229204 
L 561.966734 257.742948 
L 564.174479 258.222359 
L 566.382224 259.204794 
L 570.797715 260.660504 
L 573.005461 260.138031 
L 575.213206 262.180974 
L 577.420952 262.906179 
L 579.628697 264.592856 
L 581.836443 263.143882 
L 584.044188 262.83528 
L 586.251934 264.912417 
L 588.459679 264.380858 
L 590.667424 264.482144 
L 592.87517 262.380737 
L 595.082915 264.136938 
L 597.290661 263.91952 
L 599.498406 265.442262 
L 601.706152 265.591691 
L 603.913897 263.337966 
L 606.121643 263.581248 
L 608.329388 264.221386 
L 610.537134 264.20146 
L 612.744879 261.155019 
L 614.952624 263.759112 
L 617.16037 264.010524 
L 619.368115 266.04462 
L 621.575861 267.503019 
L 623.783606 266.044321 
L 625.991352 266.6139 
L 628.199097 265.822061 
L 630.406843 268.312034 
L 632.614588 269.899199 
L 632.614588 269.899199 
" clip-path="url(#p66acbf9fdf)" style="fill: none; stroke: #9467bd; stroke-width: 2.5; stroke-linecap: round"/>
   </g>
   <g id="line2d_26">
    <path d="M 80.678224 175.007669 
L 80.700302 174.124208 
L 82.88597 144.430559 
L 85.093715 131.583636 
L 87.301461 124.940665 
L 89.509206 119.131457 
L 91.716952 114.491137 
L 93.924697 111.50886 
L 96.132443 108.924873 
L 98.340188 106.69482 
L 100.547934 103.79197 
L 102.755679 101.979178 
L 104.963424 102.103758 
L 107.17117 99.083661 
L 109.378915 97.784414 
L 111.586661 97.478463 
L 113.794406 97.574389 
L 116.002152 96.314716 
L 118.209897 94.92313 
L 120.417643 93.134609 
L 124.833134 91.080188 
L 129.248624 89.677085 
L 131.45637 88.747554 
L 133.664115 87.537499 
L 135.871861 86.679703 
L 138.079606 87.672321 
L 140.287352 87.105493 
L 142.495097 86.935041 
L 144.702843 84.896124 
L 146.910588 83.697267 
L 149.118334 83.065797 
L 151.326079 83.009564 
L 153.533824 83.848509 
L 157.949315 82.509887 
L 160.157061 80.997587 
L 162.364806 81.235071 
L 164.572552 81.341319 
L 166.780297 82.152885 
L 168.988043 81.890254 
L 171.195788 80.910668 
L 173.403534 83.430092 
L 175.611279 84.43088 
L 177.819024 82.979595 
L 180.02677 82.196005 
L 182.234515 83.059699 
L 184.442261 81.867936 
L 186.650006 79.366485 
L 188.857752 77.243716 
L 191.065497 80.216947 
L 193.273243 80.245561 
L 195.480988 80.686534 
L 197.688734 79.482855 
L 199.896479 80.05072 
L 202.104224 79.352138 
L 204.31197 80.108109 
L 206.519715 78.675474 
L 208.727461 80.352487 
L 210.935206 81.23527 
L 213.142952 81.672298 
L 215.350697 81.390657 
L 217.558443 80.863522 
L 219.766188 82.662086 
L 221.973934 83.601301 
L 224.181679 83.220107 
L 226.389424 83.377885 
L 228.59717 83.276858 
L 230.804915 81.97255 
L 233.012661 82.635903 
L 235.220406 82.374786 
L 237.428152 83.476999 
L 239.635897 82.221432 
L 241.843643 81.287398 
L 244.051388 82.234224 
L 246.259134 82.734818 
L 248.466879 81.947722 
L 250.674624 82.835526 
L 252.88237 82.358287 
L 255.090115 83.664508 
L 257.297861 84.405932 
L 259.505606 84.852843 
L 261.713352 84.614204 
L 263.921097 83.896332 
L 266.128843 82.978638 
L 268.336588 83.442845 
L 270.544334 84.176857 
L 272.752079 83.987277 
L 274.959824 81.41967 
L 277.16757 81.191113 
L 279.375315 82.084098 
L 281.583061 81.857455 
L 283.790806 80.978776 
L 285.998552 84.094641 
L 288.206297 86.421855 
L 290.414043 85.203988 
L 292.621788 85.987776 
L 294.829534 82.409777 
L 299.245024 87.248923 
L 301.45277 87.055158 
L 303.660515 84.699011 
L 305.868261 85.291704 
L 308.076006 84.194273 
L 310.283752 85.900618 
L 312.491497 85.613995 
L 314.699243 83.347477 
L 316.906988 83.967629 
L 319.114734 83.762108 
L 321.322479 83.37661 
L 323.530224 82.145711 
L 325.73797 83.274706 
L 327.945715 83.047185 
L 330.153461 85.074426 
L 332.361206 84.648278 
L 334.568952 85.278991 
L 336.776697 85.408513 
L 338.984443 82.749005 
L 341.192188 81.729287 
L 345.607679 82.888411 
L 347.815424 82.756019 
L 350.02317 83.123783 
L 352.230915 81.090524 
L 354.438661 81.469486 
L 356.646406 80.422668 
L 358.854152 79.545823 
L 361.061897 79.720857 
L 363.269643 81.44386 
L 365.477388 81.283014 
L 367.685134 80.810039 
L 369.892879 80.51154 
L 372.100624 82.669419 
L 374.30837 80.221171 
L 376.516115 80.93442 
L 378.723861 79.487956 
L 380.931606 81.499774 
L 383.139352 82.982305 
L 385.347097 81.200598 
L 387.554843 82.224739 
L 389.762588 82.668901 
L 391.970334 82.104981 
L 394.178079 81.805167 
L 396.385824 83.361266 
L 398.59357 85.383884 
L 403.009061 86.081112 
L 405.216806 86.093227 
L 407.424552 85.03262 
L 409.632297 84.828772 
L 411.840043 86.020974 
L 414.047788 87.720225 
L 416.255534 87.061535 
L 418.463279 88.246603 
L 420.671024 87.270564 
L 422.87877 87.563483 
L 425.086515 89.097663 
L 427.294261 87.858315 
L 429.502006 87.903429 
L 431.709752 86.336171 
L 433.917497 85.657953 
L 436.125243 84.751617 
L 440.540734 86.27396 
L 442.748479 84.504847 
L 444.956224 87.286226 
L 447.16397 87.224215 
L 449.371715 87.769284 
L 451.579461 85.621288 
L 453.787206 85.737619 
L 455.994952 86.114987 
L 458.202697 86.212467 
L 460.410443 86.511883 
L 462.618188 85.902451 
L 464.825934 86.894152 
L 467.033679 86.096495 
L 469.241424 86.513875 
L 471.44917 86.553808 
L 473.656915 86.727806 
L 475.864661 87.674035 
L 478.072406 86.9841 
L 480.280152 87.655623 
L 482.487897 87.855725 
L 484.695643 87.064643 
L 486.903388 87.819219 
L 489.111134 88.187421 
L 491.318879 88.354963 
L 493.526624 86.955486 
L 495.73437 86.98968 
L 497.942115 88.637879 
L 500.149861 88.604761 
L 502.357606 88.685065 
L 506.773097 90.325652 
L 508.980843 88.860777 
L 511.188588 89.317811 
L 513.396334 88.686818 
L 515.604079 89.497587 
L 517.811824 89.955617 
L 520.01957 89.130223 
L 522.227315 90.046881 
L 524.435061 89.222442 
L 526.642806 90.107378 
L 528.850552 91.482424 
L 531.058297 90.753872 
L 533.266043 91.503547 
L 535.473788 93.053309 
L 539.889279 92.217154 
L 542.097024 90.76268 
L 544.30477 93.25345 
L 546.512515 93.147641 
L 548.720261 91.252513 
L 550.928006 93.620895 
L 553.135752 93.588494 
L 555.343497 94.281617 
L 557.551243 94.544408 
L 559.758988 94.05306 
L 561.966734 94.157555 
L 564.174479 91.634583 
L 566.382224 91.288938 
L 568.58997 92.441526 
L 573.005461 93.423702 
L 575.213206 92.20464 
L 579.628697 92.249435 
L 581.836443 90.76252 
L 584.044188 90.254993 
L 586.251934 89.520423 
L 588.459679 90.077846 
L 590.667424 89.186017 
L 592.87517 89.220729 
L 595.082915 91.875933 
L 597.290661 90.15273 
L 599.498406 89.405367 
L 601.706152 91.03105 
L 603.913897 91.736766 
L 606.121643 92.292356 
L 608.329388 91.26686 
L 610.537134 91.936509 
L 612.744879 89.081323 
L 614.952624 90.929305 
L 617.16037 92.111862 
L 619.368115 92.581649 
L 621.575861 94.087812 
L 623.783606 92.282473 
L 625.991352 91.856046 
L 628.199097 93.500379 
L 630.406843 94.8013 
L 632.614588 94.696965 
L 632.614588 94.696965 
" clip-path="url(#p66acbf9fdf)" style="fill: none; stroke: #8c564b; stroke-width: 2.5; stroke-linecap: round"/>
   </g>
   <g id="line2d_27"/>
   <g id="line2d_28"/>
   <g id="line2d_29"/>
   <g id="line2d_30"/>
   <g id="line2d_31"/>
   <g id="line2d_32"/>
   <g id="patch_3">
    <path d="M 53.081406 450.97 
L 53.081406 24.8575 
" style="fill: none; stroke: #262626; stroke-width: 1.25; stroke-linejoin: miter; stroke-linecap: square"/>
   </g>
   <g id="patch_4">
    <path d="M 53.081406 450.97 
L 660.211406 450.97 
" style="fill: none; stroke: #262626; stroke-width: 1.25; stroke-linejoin: miter; stroke-linecap: square"/>
   </g>
   <g id="text_16">
    <!-- Average Standard Deviation in Beliefs Across Iterations by Operator -->
    <g style="fill: #262626" transform="translate(116.228906 18.8575) scale(0.16 -0.16)">
     <defs>
      <path id="ArialMT-41" d="M -9 0 
L 1750 4581 
L 2403 4581 
L 4278 0 
L 3588 0 
L 3053 1388 
L 1138 1388 
L 634 0 
L -9 0 
z
M 1313 1881 
L 2866 1881 
L 2388 3150 
Q 2169 3728 2063 4100 
Q 1975 3659 1816 3225 
L 1313 1881 
z
" transform="scale(0.015625)"/>
      <path id="ArialMT-67" d="M 319 -275 
L 866 -356 
Q 900 -609 1056 -725 
Q 1266 -881 1628 -881 
Q 2019 -881 2231 -725 
Q 2444 -569 2519 -288 
Q 2563 -116 2559 434 
Q 2191 0 1641 0 
Q 956 0 581 494 
Q 206 988 206 1678 
Q 206 2153 378 2554 
Q 550 2956 876 3175 
Q 1203 3394 1644 3394 
Q 2231 3394 2613 2919 
L 2613 3319 
L 3131 3319 
L 3131 450 
Q 3131 -325 2973 -648 
Q 2816 -972 2473 -1159 
Q 2131 -1347 1631 -1347 
Q 1038 -1347 672 -1080 
Q 306 -813 319 -275 
z
M 784 1719 
Q 784 1066 1043 766 
Q 1303 466 1694 466 
Q 2081 466 2343 764 
Q 2606 1063 2606 1700 
Q 2606 2309 2336 2618 
Q 2066 2928 1684 2928 
Q 1309 2928 1046 2623 
Q 784 2319 784 1719 
z
" transform="scale(0.015625)"/>
      <path id="ArialMT-63" d="M 2588 1216 
L 3141 1144 
Q 3050 572 2676 248 
Q 2303 -75 1759 -75 
Q 1078 -75 664 370 
Q 250 816 250 1647 
Q 250 2184 428 2587 
Q 606 2991 970 3192 
Q 1334 3394 1763 3394 
Q 2303 3394 2647 3120 
Q 2991 2847 3088 2344 
L 2541 2259 
Q 2463 2594 2264 2762 
Q 2066 2931 1784 2931 
Q 1359 2931 1093 2626 
Q 828 2322 828 1663 
Q 828 994 1084 691 
Q 1341 388 1753 388 
Q 2084 388 2306 591 
Q 2528 794 2588 1216 
z
" transform="scale(0.015625)"/>
      <path id="ArialMT-62" d="M 941 0 
L 419 0 
L 419 4581 
L 981 4581 
L 981 2947 
Q 1338 3394 1891 3394 
Q 2197 3394 2470 3270 
Q 2744 3147 2920 2923 
Q 3097 2700 3197 2384 
Q 3297 2069 3297 1709 
Q 3297 856 2875 390 
Q 2453 -75 1863 -75 
Q 1275 -75 941 416 
L 941 0 
z
M 934 1684 
Q 934 1088 1097 822 
Q 1363 388 1816 388 
Q 2184 388 2453 708 
Q 2722 1028 2722 1663 
Q 2722 2313 2464 2622 
Q 2206 2931 1841 2931 
Q 1472 2931 1203 2611 
Q 934 2291 934 1684 
z
" transform="scale(0.015625)"/>
      <path id="ArialMT-79" d="M 397 -1278 
L 334 -750 
Q 519 -800 656 -800 
Q 844 -800 956 -737 
Q 1069 -675 1141 -563 
Q 1194 -478 1313 -144 
Q 1328 -97 1363 -6 
L 103 3319 
L 709 3319 
L 1400 1397 
Q 1534 1031 1641 628 
Q 1738 1016 1872 1384 
L 2581 3319 
L 3144 3319 
L 1881 -56 
Q 1678 -603 1566 -809 
Q 1416 -1088 1222 -1217 
Q 1028 -1347 759 -1347 
Q 597 -1347 397 -1278 
z
" transform="scale(0.015625)"/>
      <path id="ArialMT-4f" d="M 309 2231 
Q 309 3372 921 4017 
Q 1534 4663 2503 4663 
Q 3138 4663 3647 4359 
Q 4156 4056 4423 3514 
Q 4691 2972 4691 2284 
Q 4691 1588 4409 1038 
Q 4128 488 3612 205 
Q 3097 -78 2500 -78 
Q 1853 -78 1343 234 
Q 834 547 571 1087 
Q 309 1628 309 2231 
z
M 934 2222 
Q 934 1394 1379 917 
Q 1825 441 2497 441 
Q 3181 441 3623 922 
Q 4066 1403 4066 2288 
Q 4066 2847 3877 3264 
Q 3688 3681 3323 3911 
Q 2959 4141 2506 4141 
Q 1863 4141 1398 3698 
Q 934 3256 934 2222 
z
" transform="scale(0.015625)"/>
      <path id="ArialMT-70" d="M 422 -1272 
L 422 3319 
L 934 3319 
L 934 2888 
Q 1116 3141 1344 3267 
Q 1572 3394 1897 3394 
Q 2322 3394 2647 3175 
Q 2972 2956 3137 2557 
Q 3303 2159 3303 1684 
Q 3303 1175 3120 767 
Q 2938 359 2589 142 
Q 2241 -75 1856 -75 
Q 1575 -75 1351 44 
Q 1128 163 984 344 
L 984 -1272 
L 422 -1272 
z
M 931 1641 
Q 931 1000 1190 694 
Q 1450 388 1819 388 
Q 2194 388 2461 705 
Q 2728 1022 2728 1688 
Q 2728 2322 2467 2637 
Q 2206 2953 1844 2953 
Q 1484 2953 1207 2617 
Q 931 2281 931 1641 
z
" transform="scale(0.015625)"/>
     </defs>
     <use xlink:href="#ArialMT-41"/>
     <use xlink:href="#ArialMT-76" x="64.949219"/>
     <use xlink:href="#ArialMT-65" x="114.949219"/>
     <use xlink:href="#ArialMT-72" x="170.564453"/>
     <use xlink:href="#ArialMT-61" x="203.865234"/>
     <use xlink:href="#ArialMT-67" x="259.480469"/>
     <use xlink:href="#ArialMT-65" x="315.095703"/>
     <use xlink:href="#ArialMT-20" x="370.710938"/>
     <use xlink:href="#ArialMT-53" x="398.494141"/>
     <use xlink:href="#ArialMT-74" x="465.193359"/>
     <use xlink:href="#ArialMT-61" x="492.976562"/>
     <use xlink:href="#ArialMT-6e" x="548.591797"/>
     <use xlink:href="#ArialMT-64" x="604.207031"/>
     <use xlink:href="#ArialMT-61" x="659.822266"/>
     <use xlink:href="#ArialMT-72" x="715.4375"/>
     <use xlink:href="#ArialMT-64" x="748.738281"/>
     <use xlink:href="#ArialMT-20" x="804.353516"/>
     <use xlink:href="#ArialMT-44" x="832.136719"/>
     <use xlink:href="#ArialMT-65" x="904.353516"/>
     <use xlink:href="#ArialMT-76" x="959.96875"/>
     <use xlink:href="#ArialMT-69" x="1009.96875"/>
     <use xlink:href="#ArialMT-61" x="1032.185547"/>
     <use xlink:href="#ArialMT-74" x="1087.800781"/>
     <use xlink:href="#ArialMT-69" x="1115.583984"/>
     <use xlink:href="#ArialMT-6f" x="1137.800781"/>
     <use xlink:href="#ArialMT-6e" x="1193.416016"/>
     <use xlink:href="#ArialMT-20" x="1249.03125"/>
     <use xlink:href="#ArialMT-69" x="1276.814453"/>
     <use xlink:href="#ArialMT-6e" x="1299.03125"/>
     <use xlink:href="#ArialMT-20" x="1354.646484"/>
     <use xlink:href="#ArialMT-42" x="1382.429688"/>
     <use xlink:href="#ArialMT-65" x="1449.128906"/>
     <use xlink:href="#ArialMT-6c" x="1504.744141"/>
     <use xlink:href="#ArialMT-69" x="1526.960938"/>
     <use xlink:href="#ArialMT-65" x="1549.177734"/>
     <use xlink:href="#ArialMT-66" x="1604.792969"/>
     <use xlink:href="#ArialMT-73" x="1632.576172"/>
     <use xlink:href="#ArialMT-20" x="1682.576172"/>
     <use xlink:href="#ArialMT-41" x="1704.859375"/>
     <use xlink:href="#ArialMT-63" x="1771.558594"/>
     <use xlink:href="#ArialMT-72" x="1821.558594"/>
     <use xlink:href="#ArialMT-6f" x="1854.859375"/>
     <use xlink:href="#ArialMT-73" x="1910.474609"/>
     <use xlink:href="#ArialMT-73" x="1960.474609"/>
     <use xlink:href="#ArialMT-20" x="2010.474609"/>
     <use xlink:href="#ArialMT-49" x="2038.257812"/>
     <use xlink:href="#ArialMT-74" x="2066.041016"/>
     <use xlink:href="#ArialMT-65" x="2093.824219"/>
     <use xlink:href="#ArialMT-72" x="2149.439453"/>
     <use xlink:href="#ArialMT-61" x="2182.740234"/>
     <use xlink:href="#ArialMT-74" x="2238.355469"/>
     <use xlink:href="#ArialMT-69" x="2266.138672"/>
     <use xlink:href="#ArialMT-6f" x="2288.355469"/>
     <use xlink:href="#ArialMT-6e" x="2343.970703"/>
     <use xlink:href="#ArialMT-73" x="2399.585938"/>
     <use xlink:href="#ArialMT-20" x="2449.585938"/>
     <use xlink:href="#ArialMT-62" x="2477.369141"/>
     <use xlink:href="#ArialMT-79" x="2532.984375"/>
     <use xlink:href="#ArialMT-20" x="2582.984375"/>
     <use xlink:href="#ArialMT-4f" x="2610.767578"/>
     <use xlink:href="#ArialMT-70" x="2688.550781"/>
     <use xlink:href="#ArialMT-65" x="2744.166016"/>
     <use xlink:href="#ArialMT-72" x="2799.78125"/>
     <use xlink:href="#ArialMT-61" x="2833.082031"/>
     <use xlink:href="#ArialMT-74" x="2888.697266"/>
     <use xlink:href="#ArialMT-6f" x="2916.480469"/>
     <use xlink:href="#ArialMT-72" x="2972.095703"/>
    </g>
   </g>
   <g id="legend_1">
    <g id="patch_5">
     <path d="M 698.267906 145.005937 
L 978.640719 145.005937 
Q 980.840719 145.005937 980.840719 142.805937 
L 980.840719 32.5575 
Q 980.840719 30.3575 978.640719 30.3575 
L 698.267906 30.3575 
Q 696.067906 30.3575 696.067906 32.5575 
L 696.067906 142.805937 
Q 696.067906 145.005937 698.267906 145.005937 
z
" style="fill: #ffffff; opacity: 0.8; stroke: #cccccc; stroke-linejoin: miter"/>
    </g>
    <g id="text_17">
     <!-- Operator -->
     <g style="fill: #262626" transform="translate(814.778688 43.500625) scale(0.12 -0.12)">
      <use xlink:href="#ArialMT-4f"/>
      <use xlink:href="#ArialMT-70" x="77.783203"/>
      <use xlink:href="#ArialMT-65" x="133.398438"/>
      <use xlink:href="#ArialMT-72" x="189.013672"/>
      <use xlink:href="#ArialMT-61" x="222.314453"/>
      <use xlink:href="#ArialMT-74" x="277.929688"/>
      <use xlink:href="#ArialMT-6f" x="305.712891"/>
      <use xlink:href="#ArialMT-72" x="361.328125"/>
     </g>
    </g>
    <g id="line2d_33">
     <path d="M 700.467906 55.550156 
L 711.467906 55.550156 
L 722.467906 55.550156 
" style="fill: none; stroke: #1f77b4; stroke-width: 2.5; stroke-linecap: round"/>
    </g>
    <g id="text_18">
     <!-- BalaGoyalOp -->
     <g style="fill: #262626" transform="translate(731.267906 59.400156) scale(0.11 -0.11)">
      <defs>
       <path id="ArialMT-47" d="M 2638 1797 
L 2638 2334 
L 4578 2338 
L 4578 638 
Q 4131 281 3656 101 
Q 3181 -78 2681 -78 
Q 2006 -78 1454 211 
Q 903 500 622 1047 
Q 341 1594 341 2269 
Q 341 2938 620 3517 
Q 900 4097 1425 4378 
Q 1950 4659 2634 4659 
Q 3131 4659 3532 4498 
Q 3934 4338 4162 4050 
Q 4391 3763 4509 3300 
L 3963 3150 
Q 3859 3500 3706 3700 
Q 3553 3900 3268 4020 
Q 2984 4141 2638 4141 
Q 2222 4141 1919 4014 
Q 1616 3888 1430 3681 
Q 1244 3475 1141 3228 
Q 966 2803 966 2306 
Q 966 1694 1177 1281 
Q 1388 869 1791 669 
Q 2194 469 2647 469 
Q 3041 469 3416 620 
Q 3791 772 3984 944 
L 3984 1797 
L 2638 1797 
z
" transform="scale(0.015625)"/>
      </defs>
      <use xlink:href="#ArialMT-42"/>
      <use xlink:href="#ArialMT-61" x="66.699219"/>
      <use xlink:href="#ArialMT-6c" x="122.314453"/>
      <use xlink:href="#ArialMT-61" x="144.53125"/>
      <use xlink:href="#ArialMT-47" x="200.146484"/>
      <use xlink:href="#ArialMT-6f" x="277.929688"/>
      <use xlink:href="#ArialMT-79" x="333.544922"/>
      <use xlink:href="#ArialMT-61" x="383.544922"/>
      <use xlink:href="#ArialMT-6c" x="439.160156"/>
      <use xlink:href="#ArialMT-4f" x="461.376953"/>
      <use xlink:href="#ArialMT-70" x="539.160156"/>
     </g>
    </g>
    <g id="line2d_34">
     <path d="M 700.467906 71.379844 
L 711.467906 71.379844 
L 722.467906 71.379844 
" style="fill: none; stroke: #ff7f0e; stroke-width: 2.5; stroke-linecap: round"/>
    </g>
    <g id="text_19">
     <!-- UnreliableNetworkBasicGullibleBinomialOp -->
     <g style="fill: #262626" transform="translate(731.267906 75.229844) scale(0.11 -0.11)">
      <defs>
       <path id="ArialMT-55" d="M 3500 4581 
L 4106 4581 
L 4106 1934 
Q 4106 1244 3950 837 
Q 3794 431 3386 176 
Q 2978 -78 2316 -78 
Q 1672 -78 1262 144 
Q 853 366 678 786 
Q 503 1206 503 1934 
L 503 4581 
L 1109 4581 
L 1109 1938 
Q 1109 1341 1220 1058 
Q 1331 775 1601 622 
Q 1872 469 2263 469 
Q 2931 469 3215 772 
Q 3500 1075 3500 1938 
L 3500 4581 
z
" transform="scale(0.015625)"/>
       <path id="ArialMT-4e" d="M 488 0 
L 488 4581 
L 1109 4581 
L 3516 984 
L 3516 4581 
L 4097 4581 
L 4097 0 
L 3475 0 
L 1069 3600 
L 1069 0 
L 488 0 
z
" transform="scale(0.015625)"/>
       <path id="ArialMT-77" d="M 1034 0 
L 19 3319 
L 600 3319 
L 1128 1403 
L 1325 691 
Q 1338 744 1497 1375 
L 2025 3319 
L 2603 3319 
L 3100 1394 
L 3266 759 
L 3456 1400 
L 4025 3319 
L 4572 3319 
L 3534 0 
L 2950 0 
L 2422 1988 
L 2294 2553 
L 1622 0 
L 1034 0 
z
" transform="scale(0.015625)"/>
       <path id="ArialMT-6b" d="M 425 0 
L 425 4581 
L 988 4581 
L 988 1969 
L 2319 3319 
L 3047 3319 
L 1778 2088 
L 3175 0 
L 2481 0 
L 1384 1697 
L 988 1316 
L 988 0 
L 425 0 
z
" transform="scale(0.015625)"/>
       <path id="ArialMT-75" d="M 2597 0 
L 2597 488 
Q 2209 -75 1544 -75 
Q 1250 -75 995 37 
Q 741 150 617 320 
Q 494 491 444 738 
Q 409 903 409 1263 
L 409 3319 
L 972 3319 
L 972 1478 
Q 972 1038 1006 884 
Q 1059 663 1231 536 
Q 1403 409 1656 409 
Q 1909 409 2131 539 
Q 2353 669 2445 892 
Q 2538 1116 2538 1541 
L 2538 3319 
L 3100 3319 
L 3100 0 
L 2597 0 
z
" transform="scale(0.015625)"/>
       <path id="ArialMT-6d" d="M 422 0 
L 422 3319 
L 925 3319 
L 925 2853 
Q 1081 3097 1340 3245 
Q 1600 3394 1931 3394 
Q 2300 3394 2536 3241 
Q 2772 3088 2869 2813 
Q 3263 3394 3894 3394 
Q 4388 3394 4653 3120 
Q 4919 2847 4919 2278 
L 4919 0 
L 4359 0 
L 4359 2091 
Q 4359 2428 4304 2576 
Q 4250 2725 4106 2815 
Q 3963 2906 3769 2906 
Q 3419 2906 3187 2673 
Q 2956 2441 2956 1928 
L 2956 0 
L 2394 0 
L 2394 2156 
Q 2394 2531 2256 2718 
Q 2119 2906 1806 2906 
Q 1569 2906 1367 2781 
Q 1166 2656 1075 2415 
Q 984 2175 984 1722 
L 984 0 
L 422 0 
z
" transform="scale(0.015625)"/>
      </defs>
      <use xlink:href="#ArialMT-55"/>
      <use xlink:href="#ArialMT-6e" x="72.216797"/>
      <use xlink:href="#ArialMT-72" x="127.832031"/>
      <use xlink:href="#ArialMT-65" x="161.132812"/>
      <use xlink:href="#ArialMT-6c" x="216.748047"/>
      <use xlink:href="#ArialMT-69" x="238.964844"/>
      <use xlink:href="#ArialMT-61" x="261.181641"/>
      <use xlink:href="#ArialMT-62" x="316.796875"/>
      <use xlink:href="#ArialMT-6c" x="372.412109"/>
      <use xlink:href="#ArialMT-65" x="394.628906"/>
      <use xlink:href="#ArialMT-4e" x="450.244141"/>
      <use xlink:href="#ArialMT-65" x="522.460938"/>
      <use xlink:href="#ArialMT-74" x="578.076172"/>
      <use xlink:href="#ArialMT-77" x="605.859375"/>
      <use xlink:href="#ArialMT-6f" x="678.076172"/>
      <use xlink:href="#ArialMT-72" x="733.691406"/>
      <use xlink:href="#ArialMT-6b" x="766.992188"/>
      <use xlink:href="#ArialMT-42" x="816.992188"/>
      <use xlink:href="#ArialMT-61" x="883.691406"/>
      <use xlink:href="#ArialMT-73" x="939.306641"/>
      <use xlink:href="#ArialMT-69" x="989.306641"/>
      <use xlink:href="#ArialMT-63" x="1011.523438"/>
      <use xlink:href="#ArialMT-47" x="1061.523438"/>
      <use xlink:href="#ArialMT-75" x="1139.306641"/>
      <use xlink:href="#ArialMT-6c" x="1194.921875"/>
      <use xlink:href="#ArialMT-6c" x="1217.138672"/>
      <use xlink:href="#ArialMT-69" x="1239.355469"/>
      <use xlink:href="#ArialMT-62" x="1261.572266"/>
      <use xlink:href="#ArialMT-6c" x="1317.1875"/>
      <use xlink:href="#ArialMT-65" x="1339.404297"/>
      <use xlink:href="#ArialMT-42" x="1395.019531"/>
      <use xlink:href="#ArialMT-69" x="1461.71875"/>
      <use xlink:href="#ArialMT-6e" x="1483.935547"/>
      <use xlink:href="#ArialMT-6f" x="1539.550781"/>
      <use xlink:href="#ArialMT-6d" x="1595.166016"/>
      <use xlink:href="#ArialMT-69" x="1678.466797"/>
      <use xlink:href="#ArialMT-61" x="1700.683594"/>
      <use xlink:href="#ArialMT-6c" x="1756.298828"/>
      <use xlink:href="#ArialMT-4f" x="1778.515625"/>
      <use xlink:href="#ArialMT-70" x="1856.298828"/>
     </g>
    </g>
    <g id="line2d_35">
     <path d="M 700.467906 87.080625 
L 711.467906 87.080625 
L 722.467906 87.080625 
" style="fill: none; stroke: #2ca02c; stroke-width: 2.5; stroke-linecap: round"/>
    </g>
    <g id="text_20">
     <!-- UnreliableNetworkBasicGullibleNegativeEpsOp -->
     <g style="fill: #262626" transform="translate(731.267906 90.930625) scale(0.11 -0.11)">
      <defs>
       <path id="ArialMT-45" d="M 506 0 
L 506 4581 
L 3819 4581 
L 3819 4041 
L 1113 4041 
L 1113 2638 
L 3647 2638 
L 3647 2100 
L 1113 2100 
L 1113 541 
L 3925 541 
L 3925 0 
L 506 0 
z
" transform="scale(0.015625)"/>
      </defs>
      <use xlink:href="#ArialMT-55"/>
      <use xlink:href="#ArialMT-6e" x="72.216797"/>
      <use xlink:href="#ArialMT-72" x="127.832031"/>
      <use xlink:href="#ArialMT-65" x="161.132812"/>
      <use xlink:href="#ArialMT-6c" x="216.748047"/>
      <use xlink:href="#ArialMT-69" x="238.964844"/>
      <use xlink:href="#ArialMT-61" x="261.181641"/>
      <use xlink:href="#ArialMT-62" x="316.796875"/>
      <use xlink:href="#ArialMT-6c" x="372.412109"/>
      <use xlink:href="#ArialMT-65" x="394.628906"/>
      <use xlink:href="#ArialMT-4e" x="450.244141"/>
      <use xlink:href="#ArialMT-65" x="522.460938"/>
      <use xlink:href="#ArialMT-74" x="578.076172"/>
      <use xlink:href="#ArialMT-77" x="605.859375"/>
      <use xlink:href="#ArialMT-6f" x="678.076172"/>
      <use xlink:href="#ArialMT-72" x="733.691406"/>
      <use xlink:href="#ArialMT-6b" x="766.992188"/>
      <use xlink:href="#ArialMT-42" x="816.992188"/>
      <use xlink:href="#ArialMT-61" x="883.691406"/>
      <use xlink:href="#ArialMT-73" x="939.306641"/>
      <use xlink:href="#ArialMT-69" x="989.306641"/>
      <use xlink:href="#ArialMT-63" x="1011.523438"/>
      <use xlink:href="#ArialMT-47" x="1061.523438"/>
      <use xlink:href="#ArialMT-75" x="1139.306641"/>
      <use xlink:href="#ArialMT-6c" x="1194.921875"/>
      <use xlink:href="#ArialMT-6c" x="1217.138672"/>
      <use xlink:href="#ArialMT-69" x="1239.355469"/>
      <use xlink:href="#ArialMT-62" x="1261.572266"/>
      <use xlink:href="#ArialMT-6c" x="1317.1875"/>
      <use xlink:href="#ArialMT-65" x="1339.404297"/>
      <use xlink:href="#ArialMT-4e" x="1395.019531"/>
      <use xlink:href="#ArialMT-65" x="1467.236328"/>
      <use xlink:href="#ArialMT-67" x="1522.851562"/>
      <use xlink:href="#ArialMT-61" x="1578.466797"/>
      <use xlink:href="#ArialMT-74" x="1634.082031"/>
      <use xlink:href="#ArialMT-69" x="1661.865234"/>
      <use xlink:href="#ArialMT-76" x="1684.082031"/>
      <use xlink:href="#ArialMT-65" x="1734.082031"/>
      <use xlink:href="#ArialMT-45" x="1789.697266"/>
      <use xlink:href="#ArialMT-70" x="1856.396484"/>
      <use xlink:href="#ArialMT-73" x="1912.011719"/>
      <use xlink:href="#ArialMT-4f" x="1962.011719"/>
      <use xlink:href="#ArialMT-70" x="2039.794922"/>
     </g>
    </g>
    <g id="line2d_36">
     <path d="M 700.467906 102.910312 
L 711.467906 102.910312 
L 722.467906 102.910312 
" style="fill: none; stroke: #d62728; stroke-width: 2.5; stroke-linecap: round"/>
    </g>
    <g id="text_21">
     <!-- UnreliableNetworkIdealOp -->
     <g style="fill: #262626" transform="translate(731.267906 106.760312) scale(0.11 -0.11)">
      <use xlink:href="#ArialMT-55"/>
      <use xlink:href="#ArialMT-6e" x="72.216797"/>
      <use xlink:href="#ArialMT-72" x="127.832031"/>
      <use xlink:href="#ArialMT-65" x="161.132812"/>
      <use xlink:href="#ArialMT-6c" x="216.748047"/>
      <use xlink:href="#ArialMT-69" x="238.964844"/>
      <use xlink:href="#ArialMT-61" x="261.181641"/>
      <use xlink:href="#ArialMT-62" x="316.796875"/>
      <use xlink:href="#ArialMT-6c" x="372.412109"/>
      <use xlink:href="#ArialMT-65" x="394.628906"/>
      <use xlink:href="#ArialMT-4e" x="450.244141"/>
      <use xlink:href="#ArialMT-65" x="522.460938"/>
      <use xlink:href="#ArialMT-74" x="578.076172"/>
      <use xlink:href="#ArialMT-77" x="605.859375"/>
      <use xlink:href="#ArialMT-6f" x="678.076172"/>
      <use xlink:href="#ArialMT-72" x="733.691406"/>
      <use xlink:href="#ArialMT-6b" x="766.992188"/>
      <use xlink:href="#ArialMT-49" x="816.992188"/>
      <use xlink:href="#ArialMT-64" x="844.775391"/>
      <use xlink:href="#ArialMT-65" x="900.390625"/>
      <use xlink:href="#ArialMT-61" x="956.005859"/>
      <use xlink:href="#ArialMT-6c" x="1011.621094"/>
      <use xlink:href="#ArialMT-4f" x="1033.837891"/>
      <use xlink:href="#ArialMT-70" x="1111.621094"/>
     </g>
    </g>
    <g id="line2d_37">
     <path d="M 700.467906 118.611094 
L 711.467906 118.611094 
L 722.467906 118.611094 
" style="fill: none; stroke: #9467bd; stroke-width: 2.5; stroke-linecap: round"/>
    </g>
    <g id="text_22">
     <!-- UnreliableNetworkModifiedAlignedBinomialOp -->
     <g style="fill: #262626" transform="translate(731.267906 122.461094) scale(0.11 -0.11)">
      <use xlink:href="#ArialMT-55"/>
      <use xlink:href="#ArialMT-6e" x="72.216797"/>
      <use xlink:href="#ArialMT-72" x="127.832031"/>
      <use xlink:href="#ArialMT-65" x="161.132812"/>
      <use xlink:href="#ArialMT-6c" x="216.748047"/>
      <use xlink:href="#ArialMT-69" x="238.964844"/>
      <use xlink:href="#ArialMT-61" x="261.181641"/>
      <use xlink:href="#ArialMT-62" x="316.796875"/>
      <use xlink:href="#ArialMT-6c" x="372.412109"/>
      <use xlink:href="#ArialMT-65" x="394.628906"/>
      <use xlink:href="#ArialMT-4e" x="450.244141"/>
      <use xlink:href="#ArialMT-65" x="522.460938"/>
      <use xlink:href="#ArialMT-74" x="578.076172"/>
      <use xlink:href="#ArialMT-77" x="605.859375"/>
      <use xlink:href="#ArialMT-6f" x="678.076172"/>
      <use xlink:href="#ArialMT-72" x="733.691406"/>
      <use xlink:href="#ArialMT-6b" x="766.992188"/>
      <use xlink:href="#ArialMT-4d" x="816.992188"/>
      <use xlink:href="#ArialMT-6f" x="900.292969"/>
      <use xlink:href="#ArialMT-64" x="955.908203"/>
      <use xlink:href="#ArialMT-69" x="1011.523438"/>
      <use xlink:href="#ArialMT-66" x="1033.740234"/>
      <use xlink:href="#ArialMT-69" x="1061.523438"/>
      <use xlink:href="#ArialMT-65" x="1083.740234"/>
      <use xlink:href="#ArialMT-64" x="1139.355469"/>
      <use xlink:href="#ArialMT-41" x="1194.970703"/>
      <use xlink:href="#ArialMT-6c" x="1261.669922"/>
      <use xlink:href="#ArialMT-69" x="1283.886719"/>
      <use xlink:href="#ArialMT-67" x="1306.103516"/>
      <use xlink:href="#ArialMT-6e" x="1361.71875"/>
      <use xlink:href="#ArialMT-65" x="1417.333984"/>
      <use xlink:href="#ArialMT-64" x="1472.949219"/>
      <use xlink:href="#ArialMT-42" x="1528.564453"/>
      <use xlink:href="#ArialMT-69" x="1595.263672"/>
      <use xlink:href="#ArialMT-6e" x="1617.480469"/>
      <use xlink:href="#ArialMT-6f" x="1673.095703"/>
      <use xlink:href="#ArialMT-6d" x="1728.710938"/>
      <use xlink:href="#ArialMT-69" x="1812.011719"/>
      <use xlink:href="#ArialMT-61" x="1834.228516"/>
      <use xlink:href="#ArialMT-6c" x="1889.84375"/>
      <use xlink:href="#ArialMT-4f" x="1912.060547"/>
      <use xlink:href="#ArialMT-70" x="1989.84375"/>
     </g>
    </g>
    <g id="line2d_38">
     <path d="M 700.467906 134.440781 
L 711.467906 134.440781 
L 722.467906 134.440781 
" style="fill: none; stroke: #8c564b; stroke-width: 2.5; stroke-linecap: round"/>
    </g>
    <g id="text_23">
     <!-- UnreliableNetworkModifiedAlignedNegativeEpsOp -->
     <g style="fill: #262626" transform="translate(731.267906 138.290781) scale(0.11 -0.11)">
      <use xlink:href="#ArialMT-55"/>
      <use xlink:href="#ArialMT-6e" x="72.216797"/>
      <use xlink:href="#ArialMT-72" x="127.832031"/>
      <use xlink:href="#ArialMT-65" x="161.132812"/>
      <use xlink:href="#ArialMT-6c" x="216.748047"/>
      <use xlink:href="#ArialMT-69" x="238.964844"/>
      <use xlink:href="#ArialMT-61" x="261.181641"/>
      <use xlink:href="#ArialMT-62" x="316.796875"/>
      <use xlink:href="#ArialMT-6c" x="372.412109"/>
      <use xlink:href="#ArialMT-65" x="394.628906"/>
      <use xlink:href="#ArialMT-4e" x="450.244141"/>
      <use xlink:href="#ArialMT-65" x="522.460938"/>
      <use xlink:href="#ArialMT-74" x="578.076172"/>
      <use xlink:href="#ArialMT-77" x="605.859375"/>
      <use xlink:href="#ArialMT-6f" x="678.076172"/>
      <use xlink:href="#ArialMT-72" x="733.691406"/>
      <use xlink:href="#ArialMT-6b" x="766.992188"/>
      <use xlink:href="#ArialMT-4d" x="816.992188"/>
      <use xlink:href="#ArialMT-6f" x="900.292969"/>
      <use xlink:href="#ArialMT-64" x="955.908203"/>
      <use xlink:href="#ArialMT-69" x="1011.523438"/>
      <use xlink:href="#ArialMT-66" x="1033.740234"/>
      <use xlink:href="#ArialMT-69" x="1061.523438"/>
      <use xlink:href="#ArialMT-65" x="1083.740234"/>
      <use xlink:href="#ArialMT-64" x="1139.355469"/>
      <use xlink:href="#ArialMT-41" x="1194.970703"/>
      <use xlink:href="#ArialMT-6c" x="1261.669922"/>
      <use xlink:href="#ArialMT-69" x="1283.886719"/>
      <use xlink:href="#ArialMT-67" x="1306.103516"/>
      <use xlink:href="#ArialMT-6e" x="1361.71875"/>
      <use xlink:href="#ArialMT-65" x="1417.333984"/>
      <use xlink:href="#ArialMT-64" x="1472.949219"/>
      <use xlink:href="#ArialMT-4e" x="1528.564453"/>
      <use xlink:href="#ArialMT-65" x="1600.78125"/>
      <use xlink:href="#ArialMT-67" x="1656.396484"/>
      <use xlink:href="#ArialMT-61" x="1712.011719"/>
      <use xlink:href="#ArialMT-74" x="1767.626953"/>
      <use xlink:href="#ArialMT-69" x="1795.410156"/>
      <use xlink:href="#ArialMT-76" x="1817.626953"/>
      <use xlink:href="#ArialMT-65" x="1867.626953"/>
      <use xlink:href="#ArialMT-45" x="1923.242188"/>
      <use xlink:href="#ArialMT-70" x="1989.941406"/>
      <use xlink:href="#ArialMT-73" x="2045.556641"/>
      <use xlink:href="#ArialMT-4f" x="2095.556641"/>
      <use xlink:href="#ArialMT-70" x="2173.339844"/>
     </g>
    </g>
   </g>
  </g>
 </g>
 <defs>
  <clipPath id="p66acbf9fdf">
   <rect x="53.081406" y="24.8575" width="607.13" height="426.1125"/>
  </clipPath>
 </defs>
</svg>
