<?xml version="1.0" encoding="utf-8" standalone="no"?>
<!DOCTYPE svg PUBLIC "-//W3C//DTD SVG 1.1//EN"
  "http://www.w3.org/Graphics/SVG/1.1/DTD/svg11.dtd">
<svg xmlns:xlink="http://www.w3.org/1999/xlink" width="723.764375pt" height="396.317344pt" viewBox="0 0 723.764375 396.317344" xmlns="http://www.w3.org/2000/svg" version="1.1">
 <metadata>
  <rdf:RDF xmlns:dc="http://purl.org/dc/elements/1.1/" xmlns:cc="http://creativecommons.org/ns#" xmlns:rdf="http://www.w3.org/1999/02/22-rdf-syntax-ns#">
   <cc:Work>
    <dc:type rdf:resource="http://purl.org/dc/dcmitype/StillImage"/>
    <dc:date>2024-12-12T23:44:31.146728</dc:date>
    <dc:format>image/svg+xml</dc:format>
    <dc:creator>
     <cc:Agent>
      <dc:title>Matplotlib v3.9.2, https://matplotlib.org/</dc:title>
     </cc:Agent>
    </dc:creator>
   </cc:Work>
  </rdf:RDF>
 </metadata>
 <defs>
  <style type="text/css">*{stroke-linejoin: round; stroke-linecap: butt}</style>
 </defs>
 <g id="figure_1">
  <g id="patch_1">
   <path d="M 0 396.317344 
L 723.764375 396.317344 
L 723.764375 0 
L 0 0 
z
" style="fill: #ffffff"/>
  </g>
  <g id="axes_1">
   <g id="patch_2">
    <path d="M 46.964375 354.583125 
L 716.564375 354.583125 
L 716.564375 21.943125 
L 46.964375 21.943125 
z
" style="fill: #ffffff"/>
   </g>
   <g id="matplotlib.axis_1">
    <g id="xtick_1">
     <g id="line2d_1">
      <defs>
       <path id="m8652f2de62" d="M 0 0 
L 0 6 
" style="stroke: #262626; stroke-width: 1.25"/>
      </defs>
      <g>
       <use xlink:href="#m8652f2de62" x="77.400739" y="354.583125" style="fill: #262626; stroke: #262626; stroke-width: 1.25"/>
      </g>
     </g>
     <g id="text_1">
      <!-- 0 -->
      <g style="fill: #262626" transform="translate(74.342223 371.956719) scale(0.11 -0.11)">
       <defs>
        <path id="ArialMT-30" d="M 266 2259 
Q 266 3072 433 3567 
Q 600 4063 929 4331 
Q 1259 4600 1759 4600 
Q 2128 4600 2406 4451 
Q 2684 4303 2865 4023 
Q 3047 3744 3150 3342 
Q 3253 2941 3253 2259 
Q 3253 1453 3087 958 
Q 2922 463 2592 192 
Q 2263 -78 1759 -78 
Q 1097 -78 719 397 
Q 266 969 266 2259 
z
M 844 2259 
Q 844 1131 1108 757 
Q 1372 384 1759 384 
Q 2147 384 2411 759 
Q 2675 1134 2675 2259 
Q 2675 3391 2411 3762 
Q 2147 4134 1753 4134 
Q 1366 4134 1134 3806 
Q 844 3388 844 2259 
z
" transform="scale(0.015625)"/>
       </defs>
       <use xlink:href="#ArialMT-30"/>
      </g>
     </g>
    </g>
    <g id="xtick_2">
     <g id="line2d_2">
      <g>
       <use xlink:href="#m8652f2de62" x="199.146193" y="354.583125" style="fill: #262626; stroke: #262626; stroke-width: 1.25"/>
      </g>
     </g>
     <g id="text_2">
      <!-- 5000 -->
      <g style="fill: #262626" transform="translate(186.912131 371.956719) scale(0.11 -0.11)">
       <defs>
        <path id="ArialMT-35" d="M 266 1200 
L 856 1250 
Q 922 819 1161 601 
Q 1400 384 1738 384 
Q 2144 384 2425 690 
Q 2706 997 2706 1503 
Q 2706 1984 2436 2262 
Q 2166 2541 1728 2541 
Q 1456 2541 1237 2417 
Q 1019 2294 894 2097 
L 366 2166 
L 809 4519 
L 3088 4519 
L 3088 3981 
L 1259 3981 
L 1013 2750 
Q 1425 3038 1878 3038 
Q 2478 3038 2890 2622 
Q 3303 2206 3303 1553 
Q 3303 931 2941 478 
Q 2500 -78 1738 -78 
Q 1113 -78 717 272 
Q 322 622 266 1200 
z
" transform="scale(0.015625)"/>
       </defs>
       <use xlink:href="#ArialMT-35"/>
       <use xlink:href="#ArialMT-30" x="55.615234"/>
       <use xlink:href="#ArialMT-30" x="111.230469"/>
       <use xlink:href="#ArialMT-30" x="166.845703"/>
      </g>
     </g>
    </g>
    <g id="xtick_3">
     <g id="line2d_3">
      <g>
       <use xlink:href="#m8652f2de62" x="320.891648" y="354.583125" style="fill: #262626; stroke: #262626; stroke-width: 1.25"/>
      </g>
     </g>
     <g id="text_3">
      <!-- 10000 -->
      <g style="fill: #262626" transform="translate(305.59907 371.956719) scale(0.11 -0.11)">
       <defs>
        <path id="ArialMT-31" d="M 2384 0 
L 1822 0 
L 1822 3584 
Q 1619 3391 1289 3197 
Q 959 3003 697 2906 
L 697 3450 
Q 1169 3672 1522 3987 
Q 1875 4303 2022 4600 
L 2384 4600 
L 2384 0 
z
" transform="scale(0.015625)"/>
       </defs>
       <use xlink:href="#ArialMT-31"/>
       <use xlink:href="#ArialMT-30" x="55.615234"/>
       <use xlink:href="#ArialMT-30" x="111.230469"/>
       <use xlink:href="#ArialMT-30" x="166.845703"/>
       <use xlink:href="#ArialMT-30" x="222.460938"/>
      </g>
     </g>
    </g>
    <g id="xtick_4">
     <g id="line2d_4">
      <g>
       <use xlink:href="#m8652f2de62" x="442.637102" y="354.583125" style="fill: #262626; stroke: #262626; stroke-width: 1.25"/>
      </g>
     </g>
     <g id="text_4">
      <!-- 15000 -->
      <g style="fill: #262626" transform="translate(427.344524 371.956719) scale(0.11 -0.11)">
       <use xlink:href="#ArialMT-31"/>
       <use xlink:href="#ArialMT-35" x="55.615234"/>
       <use xlink:href="#ArialMT-30" x="111.230469"/>
       <use xlink:href="#ArialMT-30" x="166.845703"/>
       <use xlink:href="#ArialMT-30" x="222.460938"/>
      </g>
     </g>
    </g>
    <g id="xtick_5">
     <g id="line2d_5">
      <g>
       <use xlink:href="#m8652f2de62" x="564.382557" y="354.583125" style="fill: #262626; stroke: #262626; stroke-width: 1.25"/>
      </g>
     </g>
     <g id="text_5">
      <!-- 20000 -->
      <g style="fill: #262626" transform="translate(549.089979 371.956719) scale(0.11 -0.11)">
       <defs>
        <path id="ArialMT-32" d="M 3222 541 
L 3222 0 
L 194 0 
Q 188 203 259 391 
Q 375 700 629 1000 
Q 884 1300 1366 1694 
Q 2113 2306 2375 2664 
Q 2638 3022 2638 3341 
Q 2638 3675 2398 3904 
Q 2159 4134 1775 4134 
Q 1369 4134 1125 3890 
Q 881 3647 878 3216 
L 300 3275 
Q 359 3922 746 4261 
Q 1134 4600 1788 4600 
Q 2447 4600 2831 4234 
Q 3216 3869 3216 3328 
Q 3216 3053 3103 2787 
Q 2991 2522 2730 2228 
Q 2469 1934 1863 1422 
Q 1356 997 1212 845 
Q 1069 694 975 541 
L 3222 541 
z
" transform="scale(0.015625)"/>
       </defs>
       <use xlink:href="#ArialMT-32"/>
       <use xlink:href="#ArialMT-30" x="55.615234"/>
       <use xlink:href="#ArialMT-30" x="111.230469"/>
       <use xlink:href="#ArialMT-30" x="166.845703"/>
       <use xlink:href="#ArialMT-30" x="222.460938"/>
      </g>
     </g>
    </g>
    <g id="xtick_6">
     <g id="line2d_6">
      <g>
       <use xlink:href="#m8652f2de62" x="686.128011" y="354.583125" style="fill: #262626; stroke: #262626; stroke-width: 1.25"/>
      </g>
     </g>
     <g id="text_6">
      <!-- 25000 -->
      <g style="fill: #262626" transform="translate(670.835433 371.956719) scale(0.11 -0.11)">
       <use xlink:href="#ArialMT-32"/>
       <use xlink:href="#ArialMT-35" x="55.615234"/>
       <use xlink:href="#ArialMT-30" x="111.230469"/>
       <use xlink:href="#ArialMT-30" x="166.845703"/>
       <use xlink:href="#ArialMT-30" x="222.460938"/>
      </g>
     </g>
    </g>
    <g id="text_7">
     <!-- Iteration -->
     <g style="fill: #262626" transform="translate(360.086563 386.732344) scale(0.12 -0.12)">
      <defs>
       <path id="ArialMT-49" d="M 597 0 
L 597 4581 
L 1203 4581 
L 1203 0 
L 597 0 
z
" transform="scale(0.015625)"/>
       <path id="ArialMT-74" d="M 1650 503 
L 1731 6 
Q 1494 -44 1306 -44 
Q 1000 -44 831 53 
Q 663 150 594 308 
Q 525 466 525 972 
L 525 2881 
L 113 2881 
L 113 3319 
L 525 3319 
L 525 4141 
L 1084 4478 
L 1084 3319 
L 1650 3319 
L 1650 2881 
L 1084 2881 
L 1084 941 
Q 1084 700 1114 631 
Q 1144 563 1211 522 
Q 1278 481 1403 481 
Q 1497 481 1650 503 
z
" transform="scale(0.015625)"/>
       <path id="ArialMT-65" d="M 2694 1069 
L 3275 997 
Q 3138 488 2766 206 
Q 2394 -75 1816 -75 
Q 1088 -75 661 373 
Q 234 822 234 1631 
Q 234 2469 665 2931 
Q 1097 3394 1784 3394 
Q 2450 3394 2872 2941 
Q 3294 2488 3294 1666 
Q 3294 1616 3291 1516 
L 816 1516 
Q 847 969 1125 678 
Q 1403 388 1819 388 
Q 2128 388 2347 550 
Q 2566 713 2694 1069 
z
M 847 1978 
L 2700 1978 
Q 2663 2397 2488 2606 
Q 2219 2931 1791 2931 
Q 1403 2931 1139 2672 
Q 875 2413 847 1978 
z
" transform="scale(0.015625)"/>
       <path id="ArialMT-72" d="M 416 0 
L 416 3319 
L 922 3319 
L 922 2816 
Q 1116 3169 1280 3281 
Q 1444 3394 1641 3394 
Q 1925 3394 2219 3213 
L 2025 2691 
Q 1819 2813 1613 2813 
Q 1428 2813 1281 2702 
Q 1134 2591 1072 2394 
Q 978 2094 978 1738 
L 978 0 
L 416 0 
z
" transform="scale(0.015625)"/>
       <path id="ArialMT-61" d="M 2588 409 
Q 2275 144 1986 34 
Q 1697 -75 1366 -75 
Q 819 -75 525 192 
Q 231 459 231 875 
Q 231 1119 342 1320 
Q 453 1522 633 1644 
Q 813 1766 1038 1828 
Q 1203 1872 1538 1913 
Q 2219 1994 2541 2106 
Q 2544 2222 2544 2253 
Q 2544 2597 2384 2738 
Q 2169 2928 1744 2928 
Q 1347 2928 1158 2789 
Q 969 2650 878 2297 
L 328 2372 
Q 403 2725 575 2942 
Q 747 3159 1072 3276 
Q 1397 3394 1825 3394 
Q 2250 3394 2515 3294 
Q 2781 3194 2906 3042 
Q 3031 2891 3081 2659 
Q 3109 2516 3109 2141 
L 3109 1391 
Q 3109 606 3145 398 
Q 3181 191 3288 0 
L 2700 0 
Q 2613 175 2588 409 
z
M 2541 1666 
Q 2234 1541 1622 1453 
Q 1275 1403 1131 1340 
Q 988 1278 909 1158 
Q 831 1038 831 891 
Q 831 666 1001 516 
Q 1172 366 1500 366 
Q 1825 366 2078 508 
Q 2331 650 2450 897 
Q 2541 1088 2541 1459 
L 2541 1666 
z
" transform="scale(0.015625)"/>
       <path id="ArialMT-69" d="M 425 3934 
L 425 4581 
L 988 4581 
L 988 3934 
L 425 3934 
z
M 425 0 
L 425 3319 
L 988 3319 
L 988 0 
L 425 0 
z
" transform="scale(0.015625)"/>
       <path id="ArialMT-6f" d="M 213 1659 
Q 213 2581 725 3025 
Q 1153 3394 1769 3394 
Q 2453 3394 2887 2945 
Q 3322 2497 3322 1706 
Q 3322 1066 3130 698 
Q 2938 331 2570 128 
Q 2203 -75 1769 -75 
Q 1072 -75 642 372 
Q 213 819 213 1659 
z
M 791 1659 
Q 791 1022 1069 705 
Q 1347 388 1769 388 
Q 2188 388 2466 706 
Q 2744 1025 2744 1678 
Q 2744 2294 2464 2611 
Q 2184 2928 1769 2928 
Q 1347 2928 1069 2612 
Q 791 2297 791 1659 
z
" transform="scale(0.015625)"/>
       <path id="ArialMT-6e" d="M 422 0 
L 422 3319 
L 928 3319 
L 928 2847 
Q 1294 3394 1984 3394 
Q 2284 3394 2536 3286 
Q 2788 3178 2913 3003 
Q 3038 2828 3088 2588 
Q 3119 2431 3119 2041 
L 3119 0 
L 2556 0 
L 2556 2019 
Q 2556 2363 2490 2533 
Q 2425 2703 2258 2804 
Q 2091 2906 1866 2906 
Q 1506 2906 1245 2678 
Q 984 2450 984 1813 
L 984 0 
L 422 0 
z
" transform="scale(0.015625)"/>
      </defs>
      <use xlink:href="#ArialMT-49"/>
      <use xlink:href="#ArialMT-74" x="27.783203"/>
      <use xlink:href="#ArialMT-65" x="55.566406"/>
      <use xlink:href="#ArialMT-72" x="111.181641"/>
      <use xlink:href="#ArialMT-61" x="144.482422"/>
      <use xlink:href="#ArialMT-74" x="200.097656"/>
      <use xlink:href="#ArialMT-69" x="227.880859"/>
      <use xlink:href="#ArialMT-6f" x="250.097656"/>
      <use xlink:href="#ArialMT-6e" x="305.712891"/>
     </g>
    </g>
   </g>
   <g id="matplotlib.axis_2">
    <g id="ytick_1">
     <g id="line2d_7">
      <defs>
       <path id="m02a31df5ce" d="M 0 0 
L -6 0 
" style="stroke: #262626; stroke-width: 1.25"/>
      </defs>
      <g>
       <use xlink:href="#m02a31df5ce" x="46.964375" y="338.22023" style="fill: #262626; stroke: #262626; stroke-width: 1.25"/>
      </g>
     </g>
     <g id="text_8">
      <!-- 0.5 -->
      <g style="fill: #262626" transform="translate(22.174375 342.157027) scale(0.11 -0.11)">
       <defs>
        <path id="ArialMT-2e" d="M 581 0 
L 581 641 
L 1222 641 
L 1222 0 
L 581 0 
z
" transform="scale(0.015625)"/>
       </defs>
       <use xlink:href="#ArialMT-30"/>
       <use xlink:href="#ArialMT-2e" x="55.615234"/>
       <use xlink:href="#ArialMT-35" x="83.398438"/>
      </g>
     </g>
    </g>
    <g id="ytick_2">
     <g id="line2d_8">
      <g>
       <use xlink:href="#m02a31df5ce" x="46.964375" y="276.187476" style="fill: #262626; stroke: #262626; stroke-width: 1.25"/>
      </g>
     </g>
     <g id="text_9">
      <!-- 0.6 -->
      <g style="fill: #262626" transform="translate(22.174375 280.124272) scale(0.11 -0.11)">
       <defs>
        <path id="ArialMT-36" d="M 3184 3459 
L 2625 3416 
Q 2550 3747 2413 3897 
Q 2184 4138 1850 4138 
Q 1581 4138 1378 3988 
Q 1113 3794 959 3422 
Q 806 3050 800 2363 
Q 1003 2672 1297 2822 
Q 1591 2972 1913 2972 
Q 2475 2972 2870 2558 
Q 3266 2144 3266 1488 
Q 3266 1056 3080 686 
Q 2894 316 2569 119 
Q 2244 -78 1831 -78 
Q 1128 -78 684 439 
Q 241 956 241 2144 
Q 241 3472 731 4075 
Q 1159 4600 1884 4600 
Q 2425 4600 2770 4297 
Q 3116 3994 3184 3459 
z
M 888 1484 
Q 888 1194 1011 928 
Q 1134 663 1356 523 
Q 1578 384 1822 384 
Q 2178 384 2434 671 
Q 2691 959 2691 1453 
Q 2691 1928 2437 2201 
Q 2184 2475 1800 2475 
Q 1419 2475 1153 2201 
Q 888 1928 888 1484 
z
" transform="scale(0.015625)"/>
       </defs>
       <use xlink:href="#ArialMT-30"/>
       <use xlink:href="#ArialMT-2e" x="55.615234"/>
       <use xlink:href="#ArialMT-36" x="83.398438"/>
      </g>
     </g>
    </g>
    <g id="ytick_3">
     <g id="line2d_9">
      <g>
       <use xlink:href="#m02a31df5ce" x="46.964375" y="214.154721" style="fill: #262626; stroke: #262626; stroke-width: 1.25"/>
      </g>
     </g>
     <g id="text_10">
      <!-- 0.7 -->
      <g style="fill: #262626" transform="translate(22.174375 218.091518) scale(0.11 -0.11)">
       <defs>
        <path id="ArialMT-37" d="M 303 3981 
L 303 4522 
L 3269 4522 
L 3269 4084 
Q 2831 3619 2401 2847 
Q 1972 2075 1738 1259 
Q 1569 684 1522 0 
L 944 0 
Q 953 541 1156 1306 
Q 1359 2072 1739 2783 
Q 2119 3494 2547 3981 
L 303 3981 
z
" transform="scale(0.015625)"/>
       </defs>
       <use xlink:href="#ArialMT-30"/>
       <use xlink:href="#ArialMT-2e" x="55.615234"/>
       <use xlink:href="#ArialMT-37" x="83.398438"/>
      </g>
     </g>
    </g>
    <g id="ytick_4">
     <g id="line2d_10">
      <g>
       <use xlink:href="#m02a31df5ce" x="46.964375" y="152.121966" style="fill: #262626; stroke: #262626; stroke-width: 1.25"/>
      </g>
     </g>
     <g id="text_11">
      <!-- 0.8 -->
      <g style="fill: #262626" transform="translate(22.174375 156.058763) scale(0.11 -0.11)">
       <defs>
        <path id="ArialMT-38" d="M 1131 2484 
Q 781 2613 612 2850 
Q 444 3088 444 3419 
Q 444 3919 803 4259 
Q 1163 4600 1759 4600 
Q 2359 4600 2725 4251 
Q 3091 3903 3091 3403 
Q 3091 3084 2923 2848 
Q 2756 2613 2416 2484 
Q 2838 2347 3058 2040 
Q 3278 1734 3278 1309 
Q 3278 722 2862 322 
Q 2447 -78 1769 -78 
Q 1091 -78 675 323 
Q 259 725 259 1325 
Q 259 1772 486 2073 
Q 713 2375 1131 2484 
z
M 1019 3438 
Q 1019 3113 1228 2906 
Q 1438 2700 1772 2700 
Q 2097 2700 2305 2904 
Q 2513 3109 2513 3406 
Q 2513 3716 2298 3927 
Q 2084 4138 1766 4138 
Q 1444 4138 1231 3931 
Q 1019 3725 1019 3438 
z
M 838 1322 
Q 838 1081 952 856 
Q 1066 631 1291 507 
Q 1516 384 1775 384 
Q 2178 384 2440 643 
Q 2703 903 2703 1303 
Q 2703 1709 2433 1975 
Q 2163 2241 1756 2241 
Q 1359 2241 1098 1978 
Q 838 1716 838 1322 
z
" transform="scale(0.015625)"/>
       </defs>
       <use xlink:href="#ArialMT-30"/>
       <use xlink:href="#ArialMT-2e" x="55.615234"/>
       <use xlink:href="#ArialMT-38" x="83.398438"/>
      </g>
     </g>
    </g>
    <g id="ytick_5">
     <g id="line2d_11">
      <g>
       <use xlink:href="#m02a31df5ce" x="46.964375" y="90.089211" style="fill: #262626; stroke: #262626; stroke-width: 1.25"/>
      </g>
     </g>
     <g id="text_12">
      <!-- 0.9 -->
      <g style="fill: #262626" transform="translate(22.174375 94.026008) scale(0.11 -0.11)">
       <defs>
        <path id="ArialMT-39" d="M 350 1059 
L 891 1109 
Q 959 728 1153 556 
Q 1347 384 1650 384 
Q 1909 384 2104 503 
Q 2300 622 2425 820 
Q 2550 1019 2634 1356 
Q 2719 1694 2719 2044 
Q 2719 2081 2716 2156 
Q 2547 1888 2255 1720 
Q 1963 1553 1622 1553 
Q 1053 1553 659 1965 
Q 266 2378 266 3053 
Q 266 3750 677 4175 
Q 1088 4600 1706 4600 
Q 2153 4600 2523 4359 
Q 2894 4119 3086 3673 
Q 3278 3228 3278 2384 
Q 3278 1506 3087 986 
Q 2897 466 2520 194 
Q 2144 -78 1638 -78 
Q 1100 -78 759 220 
Q 419 519 350 1059 
z
M 2653 3081 
Q 2653 3566 2395 3850 
Q 2138 4134 1775 4134 
Q 1400 4134 1122 3828 
Q 844 3522 844 3034 
Q 844 2597 1108 2323 
Q 1372 2050 1759 2050 
Q 2150 2050 2401 2323 
Q 2653 2597 2653 3081 
z
" transform="scale(0.015625)"/>
       </defs>
       <use xlink:href="#ArialMT-30"/>
       <use xlink:href="#ArialMT-2e" x="55.615234"/>
       <use xlink:href="#ArialMT-39" x="83.398438"/>
      </g>
     </g>
    </g>
    <g id="ytick_6">
     <g id="line2d_12">
      <g>
       <use xlink:href="#m02a31df5ce" x="46.964375" y="28.056456" style="fill: #262626; stroke: #262626; stroke-width: 1.25"/>
      </g>
     </g>
     <g id="text_13">
      <!-- 1.0 -->
      <g style="fill: #262626" transform="translate(22.174375 31.993253) scale(0.11 -0.11)">
       <use xlink:href="#ArialMT-31"/>
       <use xlink:href="#ArialMT-2e" x="55.615234"/>
       <use xlink:href="#ArialMT-30" x="83.398438"/>
      </g>
     </g>
    </g>
    <g id="text_14">
     <!-- Mean Beliefs -->
     <g style="fill: #262626" transform="translate(15.789375 222.945938) rotate(-90) scale(0.12 -0.12)">
      <defs>
       <path id="ArialMT-4d" d="M 475 0 
L 475 4581 
L 1388 4581 
L 2472 1338 
Q 2622 884 2691 659 
Q 2769 909 2934 1394 
L 4031 4581 
L 4847 4581 
L 4847 0 
L 4263 0 
L 4263 3834 
L 2931 0 
L 2384 0 
L 1059 3900 
L 1059 0 
L 475 0 
z
" transform="scale(0.015625)"/>
       <path id="ArialMT-20" transform="scale(0.015625)"/>
       <path id="ArialMT-42" d="M 469 0 
L 469 4581 
L 2188 4581 
Q 2713 4581 3030 4442 
Q 3347 4303 3526 4014 
Q 3706 3725 3706 3409 
Q 3706 3116 3547 2856 
Q 3388 2597 3066 2438 
Q 3481 2316 3704 2022 
Q 3928 1728 3928 1328 
Q 3928 1006 3792 729 
Q 3656 453 3456 303 
Q 3256 153 2954 76 
Q 2653 0 2216 0 
L 469 0 
z
M 1075 2656 
L 2066 2656 
Q 2469 2656 2644 2709 
Q 2875 2778 2992 2937 
Q 3109 3097 3109 3338 
Q 3109 3566 3000 3739 
Q 2891 3913 2687 3977 
Q 2484 4041 1991 4041 
L 1075 4041 
L 1075 2656 
z
M 1075 541 
L 2216 541 
Q 2509 541 2628 563 
Q 2838 600 2978 687 
Q 3119 775 3209 942 
Q 3300 1109 3300 1328 
Q 3300 1584 3169 1773 
Q 3038 1963 2805 2039 
Q 2572 2116 2134 2116 
L 1075 2116 
L 1075 541 
z
" transform="scale(0.015625)"/>
       <path id="ArialMT-6c" d="M 409 0 
L 409 4581 
L 972 4581 
L 972 0 
L 409 0 
z
" transform="scale(0.015625)"/>
       <path id="ArialMT-66" d="M 556 0 
L 556 2881 
L 59 2881 
L 59 3319 
L 556 3319 
L 556 3672 
Q 556 4006 616 4169 
Q 697 4388 901 4523 
Q 1106 4659 1475 4659 
Q 1713 4659 2000 4603 
L 1916 4113 
Q 1741 4144 1584 4144 
Q 1328 4144 1222 4034 
Q 1116 3925 1116 3625 
L 1116 3319 
L 1763 3319 
L 1763 2881 
L 1116 2881 
L 1116 0 
L 556 0 
z
" transform="scale(0.015625)"/>
       <path id="ArialMT-73" d="M 197 991 
L 753 1078 
Q 800 744 1014 566 
Q 1228 388 1613 388 
Q 2000 388 2187 545 
Q 2375 703 2375 916 
Q 2375 1106 2209 1216 
Q 2094 1291 1634 1406 
Q 1016 1563 777 1677 
Q 538 1791 414 1992 
Q 291 2194 291 2438 
Q 291 2659 392 2848 
Q 494 3038 669 3163 
Q 800 3259 1026 3326 
Q 1253 3394 1513 3394 
Q 1903 3394 2198 3281 
Q 2494 3169 2634 2976 
Q 2775 2784 2828 2463 
L 2278 2388 
Q 2241 2644 2061 2787 
Q 1881 2931 1553 2931 
Q 1166 2931 1000 2803 
Q 834 2675 834 2503 
Q 834 2394 903 2306 
Q 972 2216 1119 2156 
Q 1203 2125 1616 2013 
Q 2213 1853 2448 1751 
Q 2684 1650 2818 1456 
Q 2953 1263 2953 975 
Q 2953 694 2789 445 
Q 2625 197 2315 61 
Q 2006 -75 1616 -75 
Q 969 -75 630 194 
Q 291 463 197 991 
z
" transform="scale(0.015625)"/>
      </defs>
      <use xlink:href="#ArialMT-4d"/>
      <use xlink:href="#ArialMT-65" x="83.300781"/>
      <use xlink:href="#ArialMT-61" x="138.916016"/>
      <use xlink:href="#ArialMT-6e" x="194.53125"/>
      <use xlink:href="#ArialMT-20" x="250.146484"/>
      <use xlink:href="#ArialMT-42" x="277.929688"/>
      <use xlink:href="#ArialMT-65" x="344.628906"/>
      <use xlink:href="#ArialMT-6c" x="400.244141"/>
      <use xlink:href="#ArialMT-69" x="422.460938"/>
      <use xlink:href="#ArialMT-65" x="444.677734"/>
      <use xlink:href="#ArialMT-66" x="500.292969"/>
      <use xlink:href="#ArialMT-73" x="528.076172"/>
     </g>
    </g>
   </g>
   <g id="PolyCollection_1"/>
   <g id="PolyCollection_2"/>
   <g id="PolyCollection_3"/>
   <g id="PolyCollection_4"/>
   <g id="PolyCollection_5"/>
   <g id="PolyCollection_6"/>
   <g id="line2d_13">
    <path d="M 77.400739 338.587479 
L 77.425088 337.789257 
L 79.835648 307.519237 
L 82.270557 285.931325 
L 84.705466 267.908707 
L 87.140375 252.75338 
L 89.575284 241.571359 
L 92.010193 227.177741 
L 94.445102 215.767034 
L 96.880011 205.091415 
L 99.31492 197.081797 
L 101.74983 190.082469 
L 104.184739 182.668842 
L 109.054557 169.513054 
L 111.489466 163.550599 
L 116.359284 153.16789 
L 121.229102 144.135561 
L 123.664011 140.046784 
L 126.09892 136.703521 
L 133.403648 127.63969 
L 135.838557 125.149945 
L 140.708375 119.61007 
L 143.143284 117.616743 
L 145.578193 114.545834 
L 150.448011 109.908356 
L 152.88292 107.615019 
L 157.752739 103.877979 
L 160.187648 102.154898 
L 162.622557 100.061001 
L 167.492375 96.362599 
L 169.927284 94.457715 
L 172.362193 93.088774 
L 179.66692 89.402537 
L 182.10183 88.357234 
L 189.406557 84.849361 
L 196.711284 81.562522 
L 199.146193 80.697653 
L 208.88583 76.653726 
L 216.190557 74.342863 
L 233.23492 69.514708 
L 235.66983 68.699164 
L 240.539648 67.441036 
L 245.409466 66.396583 
L 247.844375 65.891069 
L 252.714193 64.606948 
L 255.149102 64.162663 
L 257.584011 63.495054 
L 262.45383 62.47138 
L 267.323648 61.452144 
L 272.193466 60.476833 
L 277.063284 59.609229 
L 294.107648 56.470952 
L 325.761466 52.193236 
L 345.240739 50.185193 
L 350.110557 49.836154 
L 357.415284 49.09796 
L 359.850193 48.713759 
L 367.15492 48.168979 
L 381.764375 46.966941 
L 393.93892 45.924004 
L 408.548375 45.068009 
L 413.418193 44.780459 
L 420.72292 44.164651 
L 428.027648 43.840607 
L 442.637102 42.932775 
L 481.595648 41.513734 
L 491.335284 41.127832 
L 503.50983 40.769735 
L 515.684375 40.391709 
L 542.468375 39.565664 
L 547.338193 39.472118 
L 591.166557 38.581294 
L 603.341102 38.352312 
L 686.128011 37.063125 
L 686.128011 37.063125 
" clip-path="url(#p234aa4ae07)" style="fill: none; stroke: #4c72b0; stroke-width: 2.5; stroke-linecap: round"/>
   </g>
   <g id="line2d_14">
    <path d="M 77.400739 339.463125 
L 77.425088 338.90629 
L 79.835648 317.776491 
L 82.270557 303.765892 
L 84.705466 287.051502 
L 87.140375 273.052179 
L 89.575284 261.692422 
L 92.010193 253.564229 
L 96.880011 236.643226 
L 99.31492 228.96501 
L 101.74983 221.790571 
L 104.184739 216.83992 
L 106.619648 211.587891 
L 109.054557 205.906256 
L 111.489466 201.645215 
L 113.924375 197.613526 
L 116.359284 191.97419 
L 121.229102 182.966412 
L 123.664011 179.010632 
L 126.09892 175.552712 
L 128.53383 171.161373 
L 130.968739 168.429371 
L 135.838557 161.504065 
L 143.143284 153.433847 
L 145.578193 150.505327 
L 148.013102 148.32576 
L 152.88292 144.673428 
L 157.752739 139.757422 
L 160.187648 138.190558 
L 165.057466 134.402604 
L 167.492375 133.063281 
L 169.927284 131.351144 
L 172.362193 129.955138 
L 177.232011 126.899389 
L 182.10183 124.439001 
L 184.536739 122.870288 
L 186.971648 121.004634 
L 189.406557 120.214897 
L 194.276375 118.108909 
L 196.711284 116.742779 
L 201.581102 114.522873 
L 206.45092 112.825859 
L 208.88583 111.644379 
L 213.755648 109.452018 
L 216.190557 108.709424 
L 221.060375 106.823619 
L 223.495284 105.642878 
L 225.930193 104.23848 
L 228.365102 103.611283 
L 230.800011 102.698865 
L 233.23492 101.989474 
L 235.66983 100.895993 
L 238.104739 100.250568 
L 242.974557 98.772184 
L 247.844375 97.546371 
L 252.714193 96.499922 
L 255.149102 95.737916 
L 260.01892 94.542275 
L 262.45383 93.801678 
L 264.888739 93.298493 
L 267.323648 92.505392 
L 269.758557 91.921381 
L 272.193466 91.521281 
L 274.628375 90.858848 
L 279.498193 89.697408 
L 284.368011 88.496775 
L 296.542557 86.06153 
L 298.977466 85.676405 
L 303.847284 84.631397 
L 316.02183 82.823977 
L 318.456739 82.335361 
L 323.326557 81.904128 
L 325.761466 81.225204 
L 328.196375 81.018554 
L 330.631284 80.962723 
L 333.066193 80.652471 
L 335.501102 80.217615 
L 337.936011 80.005567 
L 342.80583 79.364763 
L 345.240739 79.239642 
L 350.110557 78.630119 
L 354.980375 78.051321 
L 364.720011 76.261612 
L 369.58983 75.793775 
L 376.894557 74.660991 
L 381.764375 73.894696 
L 386.634193 73.413326 
L 389.069102 73.087101 
L 406.113466 71.778096 
L 408.548375 71.465958 
L 410.983284 71.295913 
L 415.853102 70.628525 
L 418.288011 70.425425 
L 420.72292 70.387859 
L 423.15783 70.067771 
L 430.462557 69.635393 
L 437.767284 68.88289 
L 440.202193 68.901451 
L 464.551284 67.327303 
L 469.421102 67.163136 
L 474.29092 66.913374 
L 481.595648 66.482622 
L 486.465466 66.099272 
L 493.770193 65.726237 
L 498.640011 65.380822 
L 508.379648 64.952806 
L 510.814557 64.812378 
L 513.249466 64.556958 
L 515.684375 64.503678 
L 520.554193 64.176603 
L 542.468375 63.439407 
L 547.338193 63.466103 
L 549.773102 63.44218 
L 554.64292 63.190569 
L 559.512739 63.133777 
L 561.947648 63.230613 
L 566.817466 63.092661 
L 576.557102 62.750537 
L 578.992011 62.72129 
L 581.42692 62.508983 
L 603.341102 61.781475 
L 605.776011 61.733075 
L 610.64583 61.430662 
L 615.515648 61.318149 
L 620.385466 61.013369 
L 627.690193 60.956613 
L 637.42983 60.639927 
L 661.77892 60.339362 
L 664.21383 60.39194 
L 673.953466 60.026596 
L 676.388375 60.062498 
L 683.693102 59.859582 
L 686.128011 59.865498 
L 686.128011 59.865498 
" clip-path="url(#p234aa4ae07)" style="fill: none; stroke: #dd8452; stroke-width: 2.5; stroke-linecap: round"/>
   </g>
   <g id="line2d_15">
    <path d="M 77.400739 338.90581 
L 77.425088 338.137519 
L 79.835648 324.249415 
L 82.270557 313.834872 
L 84.705466 306.937149 
L 87.140375 298.039592 
L 89.575284 292.359473 
L 92.010193 287.182465 
L 94.445102 281.307085 
L 96.880011 276.030763 
L 99.31492 271.141527 
L 101.74983 266.595598 
L 106.619648 260.434331 
L 109.054557 254.840067 
L 111.489466 251.426073 
L 113.924375 248.478658 
L 116.359284 243.62085 
L 118.794193 240.044168 
L 121.229102 237.574056 
L 123.664011 234.019818 
L 126.09892 231.431573 
L 128.53383 228.47839 
L 130.968739 225.089353 
L 133.403648 222.094833 
L 135.838557 219.604238 
L 138.273466 216.250548 
L 140.708375 214.824335 
L 148.013102 209.252588 
L 150.448011 208.463739 
L 152.88292 207.246763 
L 155.31783 204.8374 
L 157.752739 202.898537 
L 160.187648 201.481086 
L 162.622557 199.449416 
L 165.057466 198.025273 
L 167.492375 196.280045 
L 169.927284 194.772783 
L 172.362193 193.812706 
L 177.232011 190.989229 
L 179.66692 189.611674 
L 182.10183 188.076645 
L 184.536739 186.765458 
L 189.406557 183.866554 
L 191.841466 182.925851 
L 194.276375 182.345797 
L 196.711284 181.610524 
L 199.146193 180.507097 
L 201.581102 179.790681 
L 206.45092 178.060316 
L 208.88583 177.098759 
L 216.190557 174.532588 
L 218.625466 173.459628 
L 221.060375 172.754119 
L 233.23492 168.61025 
L 235.66983 168.141525 
L 238.104739 168.23936 
L 240.539648 167.399967 
L 245.409466 166.314361 
L 250.279284 164.779295 
L 252.714193 164.638164 
L 255.149102 163.850461 
L 257.584011 163.572783 
L 264.888739 161.691747 
L 267.323648 161.427676 
L 269.758557 160.795118 
L 272.193466 160.338817 
L 279.498193 158.497455 
L 286.80292 157.225461 
L 296.542557 155.307118 
L 298.977466 155.200928 
L 308.717102 153.961842 
L 316.02183 152.876495 
L 318.456739 152.683674 
L 320.891648 152.056329 
L 330.631284 151.253023 
L 333.066193 151.185545 
L 340.37092 150.241403 
L 345.240739 149.359453 
L 347.675648 148.957948 
L 350.110557 148.679789 
L 352.545466 148.588315 
L 354.980375 148.374899 
L 357.415284 148.317477 
L 359.850193 147.934977 
L 362.285102 147.738865 
L 364.720011 147.706808 
L 367.15492 147.309888 
L 369.58983 147.173896 
L 372.024739 146.718556 
L 379.329466 145.969233 
L 384.199284 145.3481 
L 386.634193 145.293895 
L 398.808739 144.337663 
L 401.243648 143.979899 
L 406.113466 143.682588 
L 408.548375 143.358692 
L 410.983284 143.207541 
L 415.853102 142.726504 
L 420.72292 142.229531 
L 425.592739 141.830873 
L 430.462557 141.394945 
L 432.897466 141.348727 
L 435.332375 141.084508 
L 437.767284 141.074118 
L 440.202193 140.706185 
L 447.50692 140.242009 
L 449.94183 140.034435 
L 462.116375 139.60897 
L 464.551284 139.419217 
L 466.986193 139.357951 
L 469.421102 139.414226 
L 471.856011 139.235935 
L 476.72583 139.129227 
L 486.465466 138.675034 
L 488.900375 138.661612 
L 491.335284 138.448972 
L 501.07492 138.118162 
L 508.379648 137.793046 
L 532.728739 137.172246 
L 537.598557 137.033851 
L 540.033466 136.850384 
L 549.773102 136.541352 
L 554.64292 136.306934 
L 564.382557 136.191315 
L 576.557102 135.656813 
L 581.42692 135.570034 
L 583.86183 135.422358 
L 593.601466 135.265513 
L 608.21092 134.644972 
L 613.080739 134.607221 
L 617.950557 134.521662 
L 622.820375 134.40046 
L 654.474193 133.644703 
L 659.344011 133.485898 
L 661.77892 133.51581 
L 669.083648 133.308347 
L 671.518557 133.332713 
L 678.823284 133.127394 
L 686.128011 133.106393 
L 686.128011 133.106393 
" clip-path="url(#p234aa4ae07)" style="fill: none; stroke: #55a868; stroke-width: 2.5; stroke-linecap: round"/>
   </g>
   <g id="line2d_16">
    <path d="M 77.400739 337.827821 
L 77.425088 337.386495 
L 79.835648 312.693953 
L 82.270557 295.47013 
L 84.705466 279.078526 
L 87.140375 263.839748 
L 89.575284 254.508074 
L 92.010193 243.919788 
L 96.880011 225.121928 
L 99.31492 217.313377 
L 101.74983 208.621694 
L 104.184739 202.78924 
L 109.054557 190.189917 
L 111.489466 186.762759 
L 113.924375 182.637562 
L 116.359284 177.697671 
L 123.664011 164.257142 
L 126.09892 160.793861 
L 128.53383 157.819714 
L 130.968739 154.188088 
L 133.403648 151.044561 
L 135.838557 147.520383 
L 138.273466 145.111944 
L 145.578193 138.27534 
L 148.013102 136.333001 
L 150.448011 133.796853 
L 152.88292 131.606859 
L 155.31783 129.087978 
L 160.187648 125.50586 
L 162.622557 123.33195 
L 165.057466 121.69306 
L 169.927284 118.078368 
L 174.797102 115.049832 
L 177.232011 113.892274 
L 179.66692 112.202877 
L 184.536739 109.5456 
L 189.406557 106.358333 
L 194.276375 103.792125 
L 196.711284 102.695168 
L 199.146193 101.419477 
L 204.016011 99.412876 
L 208.88583 97.470611 
L 213.755648 95.907518 
L 216.190557 95.164554 
L 218.625466 94.075214 
L 223.495284 92.668301 
L 225.930193 91.857749 
L 228.365102 91.232068 
L 233.23492 89.697223 
L 235.66983 88.978108 
L 238.104739 88.469895 
L 240.539648 87.630835 
L 242.974557 87.065607 
L 245.409466 86.18521 
L 247.844375 85.596429 
L 250.279284 85.312872 
L 252.714193 84.848215 
L 255.149102 84.585327 
L 257.584011 83.966043 
L 260.01892 83.472324 
L 262.45383 83.149722 
L 267.323648 81.833026 
L 272.193466 80.813088 
L 274.628375 80.184375 
L 277.063284 79.779283 
L 281.933102 78.797243 
L 284.368011 78.486067 
L 286.80292 78.014791 
L 289.23783 77.707903 
L 291.672739 77.233522 
L 296.542557 76.586987 
L 298.977466 76.130908 
L 301.412375 75.83393 
L 306.282193 75.002819 
L 308.717102 74.710351 
L 313.58692 73.87839 
L 318.456739 73.28155 
L 323.326557 72.503793 
L 330.631284 71.633194 
L 345.240739 69.954999 
L 347.675648 69.800372 
L 362.285102 68.255286 
L 372.024739 67.511694 
L 376.894557 67.00385 
L 386.634193 66.188269 
L 420.72292 63.674379 
L 432.897466 62.978299 
L 442.637102 62.413478 
L 449.94183 62.03597 
L 481.595648 60.386652 
L 491.335284 60.024044 
L 525.424011 58.763402 
L 530.29383 58.62741 
L 544.903284 58.318563 
L 549.773102 58.097345 
L 561.947648 57.846437 
L 571.687284 57.577005 
L 581.42692 57.342624 
L 591.166557 57.148989 
L 610.64583 56.834817 
L 632.560011 56.511513 
L 639.864739 56.386983 
L 671.518557 55.922141 
L 686.128011 55.813806 
L 686.128011 55.813806 
" clip-path="url(#p234aa4ae07)" style="fill: none; stroke: #c44e52; stroke-width: 2.5; stroke-linecap: round"/>
   </g>
   <g id="line2d_17">
    <path d="M 77.400739 338.354503 
L 77.425088 338.100248 
L 79.835648 319.88736 
L 82.270557 307.882733 
L 84.705466 294.328952 
L 89.575284 278.526166 
L 92.010193 272.35817 
L 94.445102 264.492568 
L 96.880011 259.002757 
L 99.31492 255.219425 
L 101.74983 250.745818 
L 104.184739 245.350587 
L 106.619648 238.557058 
L 109.054557 236.579112 
L 111.489466 232.796224 
L 113.924375 226.942288 
L 116.359284 224.658047 
L 118.794193 221.814382 
L 121.229102 218.005464 
L 123.664011 214.850291 
L 126.09892 212.334922 
L 128.53383 210.316563 
L 130.968739 205.367724 
L 133.403648 205.294145 
L 135.838557 201.844581 
L 140.708375 196.061748 
L 143.143284 194.019319 
L 145.578193 189.690318 
L 148.013102 187.431996 
L 150.448011 186.04479 
L 152.88292 184.979706 
L 155.31783 182.812673 
L 157.752739 179.866183 
L 160.187648 178.391976 
L 162.622557 174.794071 
L 165.057466 172.249086 
L 167.492375 172.089061 
L 169.927284 168.904529 
L 172.362193 167.352418 
L 174.797102 165.935041 
L 177.232011 164.681091 
L 179.66692 162.404873 
L 184.536739 159.156782 
L 186.971648 157.791059 
L 189.406557 155.677417 
L 194.276375 154.249355 
L 196.711284 153.951156 
L 199.146193 152.930884 
L 201.581102 151.405395 
L 204.016011 150.926317 
L 206.45092 149.060589 
L 208.88583 147.599804 
L 211.320739 144.998692 
L 213.755648 144.31803 
L 216.190557 143.129969 
L 218.625466 143.216784 
L 225.930193 140.27133 
L 228.365102 139.79436 
L 230.800011 138.24687 
L 235.66983 137.346691 
L 238.104739 135.80057 
L 242.974557 134.234001 
L 245.409466 132.88584 
L 247.844375 132.267517 
L 250.279284 131.917111 
L 252.714193 129.966859 
L 255.149102 129.561694 
L 257.584011 127.402093 
L 260.01892 127.317791 
L 262.45383 126.840082 
L 264.888739 125.445962 
L 267.323648 124.294431 
L 272.193466 123.216627 
L 274.628375 121.642035 
L 279.498193 122.019655 
L 281.933102 121.705964 
L 284.368011 119.996379 
L 286.80292 120.079164 
L 289.23783 119.87917 
L 291.672739 118.695952 
L 294.107648 117.707959 
L 296.542557 117.776361 
L 298.977466 118.769272 
L 301.412375 118.088573 
L 303.847284 117.584168 
L 306.282193 116.863279 
L 308.717102 115.719808 
L 311.152011 115.029755 
L 313.58692 114.470332 
L 316.02183 114.859525 
L 320.891648 112.033571 
L 323.326557 111.260104 
L 325.761466 110.800142 
L 328.196375 110.540619 
L 330.631284 109.77658 
L 333.066193 110.074039 
L 335.501102 108.531504 
L 337.936011 107.274817 
L 342.80583 106.462971 
L 345.240739 105.929097 
L 347.675648 105.823683 
L 350.110557 106.163034 
L 352.545466 105.643285 
L 354.980375 104.713785 
L 357.415284 105.210204 
L 359.850193 104.778639 
L 362.285102 104.604859 
L 364.720011 103.878866 
L 367.15492 103.31375 
L 369.58983 103.090387 
L 374.459648 101.915008 
L 376.894557 100.603933 
L 379.329466 101.160323 
L 381.764375 100.777047 
L 384.199284 100.254044 
L 386.634193 100.164603 
L 393.93892 97.982152 
L 396.37383 97.949503 
L 398.808739 97.061267 
L 401.243648 96.774161 
L 403.678557 96.868889 
L 406.113466 96.309467 
L 408.548375 96.22779 
L 410.983284 95.978915 
L 413.418193 96.372397 
L 415.853102 94.679487 
L 418.288011 95.010852 
L 420.72292 94.257609 
L 423.15783 94.281938 
L 425.592739 93.911159 
L 428.027648 94.898597 
L 430.462557 94.128753 
L 432.897466 93.621575 
L 435.332375 92.716923 
L 437.767284 92.103887 
L 440.202193 92.525765 
L 442.637102 91.92837 
L 445.072011 91.78184 
L 449.94183 91.124768 
L 452.376739 91.518508 
L 457.246557 90.480748 
L 459.681466 90.165393 
L 462.116375 89.498893 
L 464.551284 89.442248 
L 466.986193 89.870559 
L 471.856011 89.042739 
L 474.29092 89.156953 
L 476.72583 88.046908 
L 479.160739 87.232916 
L 481.595648 87.374787 
L 484.030557 86.656522 
L 486.465466 86.624613 
L 488.900375 86.187539 
L 491.335284 86.246809 
L 496.205102 86.930761 
L 498.640011 86.676932 
L 501.07492 85.930345 
L 503.50983 85.353655 
L 505.944739 85.228645 
L 508.379648 85.465503 
L 510.814557 85.268022 
L 513.249466 85.557828 
L 515.684375 85.187159 
L 518.119284 85.108848 
L 520.554193 83.891391 
L 522.989102 84.015182 
L 525.424011 83.617004 
L 527.85892 83.09219 
L 532.728739 84.117305 
L 535.163648 83.436163 
L 537.598557 83.40821 
L 540.033466 82.346638 
L 542.468375 82.141985 
L 547.338193 82.207097 
L 549.773102 82.450758 
L 552.208011 82.888202 
L 554.64292 82.289586 
L 557.07783 82.130744 
L 559.512739 82.373075 
L 561.947648 82.352591 
L 564.382557 81.916847 
L 566.817466 82.415151 
L 569.252375 81.33609 
L 574.122193 80.503686 
L 576.557102 80.995076 
L 581.42692 80.668111 
L 583.86183 80.289937 
L 586.296739 79.148278 
L 588.731648 79.477239 
L 591.166557 79.178227 
L 593.601466 78.242405 
L 596.036375 78.982559 
L 598.471284 79.157374 
L 600.906193 78.846678 
L 603.341102 78.292838 
L 605.776011 78.081345 
L 608.21092 78.354142 
L 610.64583 78.326633 
L 615.515648 77.659984 
L 617.950557 77.448417 
L 620.385466 77.362008 
L 627.690193 76.27655 
L 632.560011 76.560329 
L 634.99492 75.955834 
L 637.42983 75.891684 
L 642.299648 76.401967 
L 644.734557 75.986005 
L 647.169466 75.976318 
L 649.604375 75.494431 
L 652.039284 75.488663 
L 654.474193 75.855153 
L 661.77892 75.678415 
L 664.21383 76.358448 
L 666.648739 75.614302 
L 669.083648 75.600436 
L 671.518557 75.047262 
L 673.953466 74.63008 
L 676.388375 74.925912 
L 678.823284 74.617509 
L 681.258193 74.838837 
L 683.693102 74.049286 
L 686.128011 73.597422 
L 686.128011 73.597422 
" clip-path="url(#p234aa4ae07)" style="fill: none; stroke: #8172b3; stroke-width: 2.5; stroke-linecap: round"/>
   </g>
   <g id="line2d_18">
    <path d="M 77.400739 338.097254 
L 77.425088 337.890123 
L 79.835648 324.618383 
L 82.270557 316.052227 
L 87.140375 304.309378 
L 89.575284 301.12481 
L 92.010193 297.542212 
L 94.445102 289.773299 
L 96.880011 287.19426 
L 99.31492 282.158383 
L 101.74983 280.121168 
L 104.184739 274.147583 
L 106.619648 274.463344 
L 109.054557 270.785574 
L 111.489466 267.858015 
L 113.924375 262.597112 
L 116.359284 262.226074 
L 118.794193 259.708968 
L 121.229102 258.501014 
L 123.664011 257.850116 
L 126.09892 256.910449 
L 128.53383 255.422377 
L 130.968739 253.054352 
L 133.403648 251.936061 
L 135.838557 251.873241 
L 138.273466 250.590562 
L 140.708375 246.756243 
L 143.143284 244.096896 
L 145.578193 242.449131 
L 148.013102 243.941529 
L 150.448011 243.118997 
L 155.31783 240.433952 
L 157.752739 237.427157 
L 162.622557 236.210551 
L 165.057466 236.165849 
L 167.492375 233.762069 
L 169.927284 232.648807 
L 172.362193 229.999998 
L 174.797102 229.756115 
L 177.232011 228.481422 
L 179.66692 224.999949 
L 182.10183 222.543518 
L 184.536739 222.545699 
L 186.971648 222.223948 
L 189.406557 220.979648 
L 191.841466 220.509186 
L 194.276375 221.678871 
L 196.711284 222.346962 
L 199.146193 219.220628 
L 201.581102 218.404418 
L 204.016011 216.61556 
L 206.45092 216.972954 
L 208.88583 214.912408 
L 211.320739 214.785364 
L 213.755648 213.346098 
L 216.190557 213.932475 
L 218.625466 211.640506 
L 221.060375 209.938944 
L 225.930193 207.288027 
L 228.365102 207.273459 
L 230.800011 204.919188 
L 233.23492 203.723177 
L 235.66983 203.491347 
L 240.539648 202.086542 
L 242.974557 202.228413 
L 245.409466 201.500904 
L 247.844375 200.621838 
L 250.279284 199.503066 
L 252.714193 199.860498 
L 255.149102 199.912225 
L 257.584011 198.472627 
L 260.01892 197.435901 
L 262.45383 197.692615 
L 264.888739 196.510099 
L 267.323648 196.493978 
L 272.193466 193.940859 
L 274.628375 192.375954 
L 277.063284 192.147157 
L 279.498193 192.702032 
L 281.933102 193.058798 
L 284.368011 191.90723 
L 286.80292 190.962497 
L 289.23783 190.657495 
L 291.672739 191.895546 
L 294.107648 191.879314 
L 296.542557 190.43709 
L 298.977466 190.130905 
L 301.412375 190.201379 
L 303.847284 187.603816 
L 306.282193 185.597067 
L 308.717102 185.821169 
L 311.152011 184.939773 
L 313.58692 187.22102 
L 316.02183 185.154853 
L 318.456739 182.868985 
L 320.891648 182.65298 
L 323.326557 184.156101 
L 325.761466 183.713554 
L 328.196375 184.213781 
L 330.631284 182.494915 
L 333.066193 182.353118 
L 335.501102 183.74195 
L 337.936011 183.034112 
L 342.80583 182.733806 
L 345.240739 183.25851 
L 347.675648 181.97646 
L 350.110557 182.157856 
L 352.545466 180.183534 
L 354.980375 180.185937 
L 357.415284 179.015217 
L 359.850193 179.113975 
L 362.285102 180.578975 
L 364.720011 181.03609 
L 369.58983 180.231638 
L 372.024739 180.007462 
L 374.459648 179.358931 
L 376.894557 180.669858 
L 379.329466 180.128923 
L 381.764375 180.605671 
L 384.199284 181.366826 
L 386.634193 180.857836 
L 389.069102 179.435061 
L 391.504011 179.017028 
L 396.37383 179.206559 
L 398.808739 177.868936 
L 401.243648 179.493111 
L 403.678557 178.503676 
L 406.113466 179.065613 
L 408.548375 177.22218 
L 410.983284 176.126554 
L 413.418193 176.825223 
L 415.853102 176.082296 
L 418.288011 175.82684 
L 420.72292 175.409436 
L 423.15783 175.673544 
L 425.592739 174.184548 
L 428.027648 172.860753 
L 430.462557 172.824888 
L 432.897466 171.825877 
L 435.332375 172.109433 
L 437.767284 171.980689 
L 440.202193 172.000507 
L 445.072011 169.337536 
L 447.50692 169.57029 
L 449.94183 168.19854 
L 452.376739 168.790833 
L 454.811648 168.230301 
L 457.246557 167.404071 
L 459.681466 167.723863 
L 462.116375 167.627433 
L 464.551284 168.68357 
L 466.986193 168.729455 
L 469.421102 168.919984 
L 471.856011 168.776931 
L 474.29092 168.112464 
L 476.72583 169.026619 
L 479.160739 167.18644 
L 481.595648 167.277508 
L 484.030557 166.596254 
L 486.465466 167.974438 
L 491.335284 167.120736 
L 493.770193 166.41715 
L 496.205102 166.287333 
L 498.640011 166.459634 
L 501.07492 165.947427 
L 503.50983 166.030805 
L 508.379648 165.760781 
L 510.814557 165.460068 
L 513.249466 164.487752 
L 515.684375 164.895025 
L 518.119284 164.484498 
L 520.554193 164.380526 
L 522.989102 164.479396 
L 525.424011 163.95521 
L 527.85892 163.848132 
L 530.29383 163.573782 
L 532.728739 164.372096 
L 535.163648 164.165409 
L 537.598557 162.954867 
L 540.033466 162.420772 
L 542.468375 162.630047 
L 544.903284 161.930565 
L 547.338193 160.999143 
L 549.773102 162.003737 
L 552.208011 161.391441 
L 554.64292 161.667714 
L 557.07783 160.830022 
L 559.512739 160.405001 
L 561.947648 161.061334 
L 564.382557 160.142742 
L 566.817466 160.937285 
L 569.252375 160.202825 
L 571.687284 159.250919 
L 574.122193 159.732215 
L 576.557102 159.359328 
L 578.992011 158.631968 
L 581.42692 158.73594 
L 583.86183 158.61178 
L 586.296739 159.368978 
L 588.731648 157.701285 
L 591.166557 157.579011 
L 593.601466 158.640398 
L 596.036375 157.018072 
L 598.471284 157.036374 
L 600.906193 156.418125 
L 603.341102 156.035144 
L 608.21092 156.178346 
L 610.64583 157.224389 
L 613.080739 157.308432 
L 615.515648 156.725161 
L 617.950557 156.729709 
L 620.385466 155.942561 
L 622.820375 156.432841 
L 625.255284 156.400156 
L 627.690193 156.554154 
L 630.125102 157.171146 
L 632.560011 157.49726 
L 634.99492 157.577458 
L 637.42983 157.02225 
L 639.864739 157.475002 
L 642.299648 157.640092 
L 644.734557 156.097557 
L 647.169466 156.980728 
L 649.604375 157.537451 
L 652.039284 156.404149 
L 654.474193 155.633528 
L 656.909102 155.364577 
L 659.344011 156.043242 
L 661.77892 155.645952 
L 664.21383 157.134209 
L 669.083648 155.323239 
L 671.518557 155.088674 
L 673.953466 154.250908 
L 676.388375 154.834475 
L 678.823284 154.992873 
L 683.693102 152.91713 
L 686.128011 153.186378 
L 686.128011 153.186378 
" clip-path="url(#p234aa4ae07)" style="fill: none; stroke: #937860; stroke-width: 2.5; stroke-linecap: round"/>
   </g>
   <g id="line2d_19"/>
   <g id="line2d_20"/>
   <g id="line2d_21"/>
   <g id="line2d_22"/>
   <g id="line2d_23"/>
   <g id="line2d_24"/>
   <g id="patch_3">
    <path d="M 46.964375 354.583125 
L 46.964375 21.943125 
" style="fill: none; stroke: #262626; stroke-width: 1.25; stroke-linejoin: miter; stroke-linecap: square"/>
   </g>
   <g id="patch_4">
    <path d="M 46.964375 354.583125 
L 716.564375 354.583125 
" style="fill: none; stroke: #262626; stroke-width: 1.25; stroke-linejoin: miter; stroke-linecap: square"/>
   </g>
   <g id="text_15">
    <!-- Mean Beliefs Comparison Across Ops -->
    <g style="fill: #262626" transform="translate(280.72625 15.943125) scale(0.12 -0.12)">
     <defs>
      <path id="ArialMT-43" d="M 3763 1606 
L 4369 1453 
Q 4178 706 3683 314 
Q 3188 -78 2472 -78 
Q 1731 -78 1267 223 
Q 803 525 561 1097 
Q 319 1669 319 2325 
Q 319 3041 592 3573 
Q 866 4106 1370 4382 
Q 1875 4659 2481 4659 
Q 3169 4659 3637 4309 
Q 4106 3959 4291 3325 
L 3694 3184 
Q 3534 3684 3231 3912 
Q 2928 4141 2469 4141 
Q 1941 4141 1586 3887 
Q 1231 3634 1087 3207 
Q 944 2781 944 2328 
Q 944 1744 1114 1308 
Q 1284 872 1643 656 
Q 2003 441 2422 441 
Q 2931 441 3284 734 
Q 3638 1028 3763 1606 
z
" transform="scale(0.015625)"/>
      <path id="ArialMT-6d" d="M 422 0 
L 422 3319 
L 925 3319 
L 925 2853 
Q 1081 3097 1340 3245 
Q 1600 3394 1931 3394 
Q 2300 3394 2536 3241 
Q 2772 3088 2869 2813 
Q 3263 3394 3894 3394 
Q 4388 3394 4653 3120 
Q 4919 2847 4919 2278 
L 4919 0 
L 4359 0 
L 4359 2091 
Q 4359 2428 4304 2576 
Q 4250 2725 4106 2815 
Q 3963 2906 3769 2906 
Q 3419 2906 3187 2673 
Q 2956 2441 2956 1928 
L 2956 0 
L 2394 0 
L 2394 2156 
Q 2394 2531 2256 2718 
Q 2119 2906 1806 2906 
Q 1569 2906 1367 2781 
Q 1166 2656 1075 2415 
Q 984 2175 984 1722 
L 984 0 
L 422 0 
z
" transform="scale(0.015625)"/>
      <path id="ArialMT-70" d="M 422 -1272 
L 422 3319 
L 934 3319 
L 934 2888 
Q 1116 3141 1344 3267 
Q 1572 3394 1897 3394 
Q 2322 3394 2647 3175 
Q 2972 2956 3137 2557 
Q 3303 2159 3303 1684 
Q 3303 1175 3120 767 
Q 2938 359 2589 142 
Q 2241 -75 1856 -75 
Q 1575 -75 1351 44 
Q 1128 163 984 344 
L 984 -1272 
L 422 -1272 
z
M 931 1641 
Q 931 1000 1190 694 
Q 1450 388 1819 388 
Q 2194 388 2461 705 
Q 2728 1022 2728 1688 
Q 2728 2322 2467 2637 
Q 2206 2953 1844 2953 
Q 1484 2953 1207 2617 
Q 931 2281 931 1641 
z
" transform="scale(0.015625)"/>
      <path id="ArialMT-41" d="M -9 0 
L 1750 4581 
L 2403 4581 
L 4278 0 
L 3588 0 
L 3053 1388 
L 1138 1388 
L 634 0 
L -9 0 
z
M 1313 1881 
L 2866 1881 
L 2388 3150 
Q 2169 3728 2063 4100 
Q 1975 3659 1816 3225 
L 1313 1881 
z
" transform="scale(0.015625)"/>
      <path id="ArialMT-63" d="M 2588 1216 
L 3141 1144 
Q 3050 572 2676 248 
Q 2303 -75 1759 -75 
Q 1078 -75 664 370 
Q 250 816 250 1647 
Q 250 2184 428 2587 
Q 606 2991 970 3192 
Q 1334 3394 1763 3394 
Q 2303 3394 2647 3120 
Q 2991 2847 3088 2344 
L 2541 2259 
Q 2463 2594 2264 2762 
Q 2066 2931 1784 2931 
Q 1359 2931 1093 2626 
Q 828 2322 828 1663 
Q 828 994 1084 691 
Q 1341 388 1753 388 
Q 2084 388 2306 591 
Q 2528 794 2588 1216 
z
" transform="scale(0.015625)"/>
      <path id="ArialMT-4f" d="M 309 2231 
Q 309 3372 921 4017 
Q 1534 4663 2503 4663 
Q 3138 4663 3647 4359 
Q 4156 4056 4423 3514 
Q 4691 2972 4691 2284 
Q 4691 1588 4409 1038 
Q 4128 488 3612 205 
Q 3097 -78 2500 -78 
Q 1853 -78 1343 234 
Q 834 547 571 1087 
Q 309 1628 309 2231 
z
M 934 2222 
Q 934 1394 1379 917 
Q 1825 441 2497 441 
Q 3181 441 3623 922 
Q 4066 1403 4066 2288 
Q 4066 2847 3877 3264 
Q 3688 3681 3323 3911 
Q 2959 4141 2506 4141 
Q 1863 4141 1398 3698 
Q 934 3256 934 2222 
z
" transform="scale(0.015625)"/>
     </defs>
     <use xlink:href="#ArialMT-4d"/>
     <use xlink:href="#ArialMT-65" x="83.300781"/>
     <use xlink:href="#ArialMT-61" x="138.916016"/>
     <use xlink:href="#ArialMT-6e" x="194.53125"/>
     <use xlink:href="#ArialMT-20" x="250.146484"/>
     <use xlink:href="#ArialMT-42" x="277.929688"/>
     <use xlink:href="#ArialMT-65" x="344.628906"/>
     <use xlink:href="#ArialMT-6c" x="400.244141"/>
     <use xlink:href="#ArialMT-69" x="422.460938"/>
     <use xlink:href="#ArialMT-65" x="444.677734"/>
     <use xlink:href="#ArialMT-66" x="500.292969"/>
     <use xlink:href="#ArialMT-73" x="528.076172"/>
     <use xlink:href="#ArialMT-20" x="578.076172"/>
     <use xlink:href="#ArialMT-43" x="605.859375"/>
     <use xlink:href="#ArialMT-6f" x="678.076172"/>
     <use xlink:href="#ArialMT-6d" x="733.691406"/>
     <use xlink:href="#ArialMT-70" x="816.992188"/>
     <use xlink:href="#ArialMT-61" x="872.607422"/>
     <use xlink:href="#ArialMT-72" x="928.222656"/>
     <use xlink:href="#ArialMT-69" x="961.523438"/>
     <use xlink:href="#ArialMT-73" x="983.740234"/>
     <use xlink:href="#ArialMT-6f" x="1033.740234"/>
     <use xlink:href="#ArialMT-6e" x="1089.355469"/>
     <use xlink:href="#ArialMT-20" x="1144.970703"/>
     <use xlink:href="#ArialMT-41" x="1167.253906"/>
     <use xlink:href="#ArialMT-63" x="1233.953125"/>
     <use xlink:href="#ArialMT-72" x="1283.953125"/>
     <use xlink:href="#ArialMT-6f" x="1317.253906"/>
     <use xlink:href="#ArialMT-73" x="1372.869141"/>
     <use xlink:href="#ArialMT-73" x="1422.869141"/>
     <use xlink:href="#ArialMT-20" x="1472.869141"/>
     <use xlink:href="#ArialMT-4f" x="1500.652344"/>
     <use xlink:href="#ArialMT-70" x="1578.435547"/>
     <use xlink:href="#ArialMT-73" x="1634.050781"/>
    </g>
   </g>
   <g id="legend_1">
    <g id="patch_5">
     <path d="M 428.491563 349.083125 
L 708.864375 349.083125 
Q 711.064375 349.083125 711.064375 346.883125 
L 711.064375 236.788437 
Q 711.064375 234.588437 708.864375 234.588437 
L 428.491563 234.588437 
Q 426.291563 234.588437 426.291563 236.788437 
L 426.291563 346.883125 
Q 426.291563 349.083125 428.491563 349.083125 
z
" style="fill: #ffffff; opacity: 0.8; stroke: #cccccc; stroke-linejoin: miter"/>
    </g>
    <g id="text_16">
     <!-- op -->
     <g style="fill: #262626" transform="translate(562.004844 247.577812) scale(0.12 -0.12)">
      <use xlink:href="#ArialMT-6f"/>
      <use xlink:href="#ArialMT-70" x="55.615234"/>
     </g>
    </g>
    <g id="line2d_25">
     <path d="M 430.691563 259.627344 
L 441.691563 259.627344 
L 452.691563 259.627344 
" style="fill: none; stroke: #4c72b0; stroke-width: 2.5; stroke-linecap: round"/>
    </g>
    <g id="text_17">
     <!-- BalaGoyalOp -->
     <g style="fill: #262626" transform="translate(461.491563 263.477344) scale(0.11 -0.11)">
      <defs>
       <path id="ArialMT-47" d="M 2638 1797 
L 2638 2334 
L 4578 2338 
L 4578 638 
Q 4131 281 3656 101 
Q 3181 -78 2681 -78 
Q 2006 -78 1454 211 
Q 903 500 622 1047 
Q 341 1594 341 2269 
Q 341 2938 620 3517 
Q 900 4097 1425 4378 
Q 1950 4659 2634 4659 
Q 3131 4659 3532 4498 
Q 3934 4338 4162 4050 
Q 4391 3763 4509 3300 
L 3963 3150 
Q 3859 3500 3706 3700 
Q 3553 3900 3268 4020 
Q 2984 4141 2638 4141 
Q 2222 4141 1919 4014 
Q 1616 3888 1430 3681 
Q 1244 3475 1141 3228 
Q 966 2803 966 2306 
Q 966 1694 1177 1281 
Q 1388 869 1791 669 
Q 2194 469 2647 469 
Q 3041 469 3416 620 
Q 3791 772 3984 944 
L 3984 1797 
L 2638 1797 
z
" transform="scale(0.015625)"/>
       <path id="ArialMT-79" d="M 397 -1278 
L 334 -750 
Q 519 -800 656 -800 
Q 844 -800 956 -737 
Q 1069 -675 1141 -563 
Q 1194 -478 1313 -144 
Q 1328 -97 1363 -6 
L 103 3319 
L 709 3319 
L 1400 1397 
Q 1534 1031 1641 628 
Q 1738 1016 1872 1384 
L 2581 3319 
L 3144 3319 
L 1881 -56 
Q 1678 -603 1566 -809 
Q 1416 -1088 1222 -1217 
Q 1028 -1347 759 -1347 
Q 597 -1347 397 -1278 
z
" transform="scale(0.015625)"/>
      </defs>
      <use xlink:href="#ArialMT-42"/>
      <use xlink:href="#ArialMT-61" x="66.699219"/>
      <use xlink:href="#ArialMT-6c" x="122.314453"/>
      <use xlink:href="#ArialMT-61" x="144.53125"/>
      <use xlink:href="#ArialMT-47" x="200.146484"/>
      <use xlink:href="#ArialMT-6f" x="277.929688"/>
      <use xlink:href="#ArialMT-79" x="333.544922"/>
      <use xlink:href="#ArialMT-61" x="383.544922"/>
      <use xlink:href="#ArialMT-6c" x="439.160156"/>
      <use xlink:href="#ArialMT-4f" x="461.376953"/>
      <use xlink:href="#ArialMT-70" x="539.160156"/>
     </g>
    </g>
    <g id="line2d_26">
     <path d="M 430.691563 275.457031 
L 441.691563 275.457031 
L 452.691563 275.457031 
" style="fill: none; stroke: #dd8452; stroke-width: 2.5; stroke-linecap: round"/>
    </g>
    <g id="text_18">
     <!-- UnreliableNetworkBasicGullibleBinomialOp -->
     <g style="fill: #262626" transform="translate(461.491563 279.307031) scale(0.11 -0.11)">
      <defs>
       <path id="ArialMT-55" d="M 3500 4581 
L 4106 4581 
L 4106 1934 
Q 4106 1244 3950 837 
Q 3794 431 3386 176 
Q 2978 -78 2316 -78 
Q 1672 -78 1262 144 
Q 853 366 678 786 
Q 503 1206 503 1934 
L 503 4581 
L 1109 4581 
L 1109 1938 
Q 1109 1341 1220 1058 
Q 1331 775 1601 622 
Q 1872 469 2263 469 
Q 2931 469 3215 772 
Q 3500 1075 3500 1938 
L 3500 4581 
z
" transform="scale(0.015625)"/>
       <path id="ArialMT-62" d="M 941 0 
L 419 0 
L 419 4581 
L 981 4581 
L 981 2947 
Q 1338 3394 1891 3394 
Q 2197 3394 2470 3270 
Q 2744 3147 2920 2923 
Q 3097 2700 3197 2384 
Q 3297 2069 3297 1709 
Q 3297 856 2875 390 
Q 2453 -75 1863 -75 
Q 1275 -75 941 416 
L 941 0 
z
M 934 1684 
Q 934 1088 1097 822 
Q 1363 388 1816 388 
Q 2184 388 2453 708 
Q 2722 1028 2722 1663 
Q 2722 2313 2464 2622 
Q 2206 2931 1841 2931 
Q 1472 2931 1203 2611 
Q 934 2291 934 1684 
z
" transform="scale(0.015625)"/>
       <path id="ArialMT-4e" d="M 488 0 
L 488 4581 
L 1109 4581 
L 3516 984 
L 3516 4581 
L 4097 4581 
L 4097 0 
L 3475 0 
L 1069 3600 
L 1069 0 
L 488 0 
z
" transform="scale(0.015625)"/>
       <path id="ArialMT-77" d="M 1034 0 
L 19 3319 
L 600 3319 
L 1128 1403 
L 1325 691 
Q 1338 744 1497 1375 
L 2025 3319 
L 2603 3319 
L 3100 1394 
L 3266 759 
L 3456 1400 
L 4025 3319 
L 4572 3319 
L 3534 0 
L 2950 0 
L 2422 1988 
L 2294 2553 
L 1622 0 
L 1034 0 
z
" transform="scale(0.015625)"/>
       <path id="ArialMT-6b" d="M 425 0 
L 425 4581 
L 988 4581 
L 988 1969 
L 2319 3319 
L 3047 3319 
L 1778 2088 
L 3175 0 
L 2481 0 
L 1384 1697 
L 988 1316 
L 988 0 
L 425 0 
z
" transform="scale(0.015625)"/>
       <path id="ArialMT-75" d="M 2597 0 
L 2597 488 
Q 2209 -75 1544 -75 
Q 1250 -75 995 37 
Q 741 150 617 320 
Q 494 491 444 738 
Q 409 903 409 1263 
L 409 3319 
L 972 3319 
L 972 1478 
Q 972 1038 1006 884 
Q 1059 663 1231 536 
Q 1403 409 1656 409 
Q 1909 409 2131 539 
Q 2353 669 2445 892 
Q 2538 1116 2538 1541 
L 2538 3319 
L 3100 3319 
L 3100 0 
L 2597 0 
z
" transform="scale(0.015625)"/>
      </defs>
      <use xlink:href="#ArialMT-55"/>
      <use xlink:href="#ArialMT-6e" x="72.216797"/>
      <use xlink:href="#ArialMT-72" x="127.832031"/>
      <use xlink:href="#ArialMT-65" x="161.132812"/>
      <use xlink:href="#ArialMT-6c" x="216.748047"/>
      <use xlink:href="#ArialMT-69" x="238.964844"/>
      <use xlink:href="#ArialMT-61" x="261.181641"/>
      <use xlink:href="#ArialMT-62" x="316.796875"/>
      <use xlink:href="#ArialMT-6c" x="372.412109"/>
      <use xlink:href="#ArialMT-65" x="394.628906"/>
      <use xlink:href="#ArialMT-4e" x="450.244141"/>
      <use xlink:href="#ArialMT-65" x="522.460938"/>
      <use xlink:href="#ArialMT-74" x="578.076172"/>
      <use xlink:href="#ArialMT-77" x="605.859375"/>
      <use xlink:href="#ArialMT-6f" x="678.076172"/>
      <use xlink:href="#ArialMT-72" x="733.691406"/>
      <use xlink:href="#ArialMT-6b" x="766.992188"/>
      <use xlink:href="#ArialMT-42" x="816.992188"/>
      <use xlink:href="#ArialMT-61" x="883.691406"/>
      <use xlink:href="#ArialMT-73" x="939.306641"/>
      <use xlink:href="#ArialMT-69" x="989.306641"/>
      <use xlink:href="#ArialMT-63" x="1011.523438"/>
      <use xlink:href="#ArialMT-47" x="1061.523438"/>
      <use xlink:href="#ArialMT-75" x="1139.306641"/>
      <use xlink:href="#ArialMT-6c" x="1194.921875"/>
      <use xlink:href="#ArialMT-6c" x="1217.138672"/>
      <use xlink:href="#ArialMT-69" x="1239.355469"/>
      <use xlink:href="#ArialMT-62" x="1261.572266"/>
      <use xlink:href="#ArialMT-6c" x="1317.1875"/>
      <use xlink:href="#ArialMT-65" x="1339.404297"/>
      <use xlink:href="#ArialMT-42" x="1395.019531"/>
      <use xlink:href="#ArialMT-69" x="1461.71875"/>
      <use xlink:href="#ArialMT-6e" x="1483.935547"/>
      <use xlink:href="#ArialMT-6f" x="1539.550781"/>
      <use xlink:href="#ArialMT-6d" x="1595.166016"/>
      <use xlink:href="#ArialMT-69" x="1678.466797"/>
      <use xlink:href="#ArialMT-61" x="1700.683594"/>
      <use xlink:href="#ArialMT-6c" x="1756.298828"/>
      <use xlink:href="#ArialMT-4f" x="1778.515625"/>
      <use xlink:href="#ArialMT-70" x="1856.298828"/>
     </g>
    </g>
    <g id="line2d_27">
     <path d="M 430.691563 291.157812 
L 441.691563 291.157812 
L 452.691563 291.157812 
" style="fill: none; stroke: #55a868; stroke-width: 2.5; stroke-linecap: round"/>
    </g>
    <g id="text_19">
     <!-- UnreliableNetworkBasicGullibleNegativeEpsOp -->
     <g style="fill: #262626" transform="translate(461.491563 295.007812) scale(0.11 -0.11)">
      <defs>
       <path id="ArialMT-67" d="M 319 -275 
L 866 -356 
Q 900 -609 1056 -725 
Q 1266 -881 1628 -881 
Q 2019 -881 2231 -725 
Q 2444 -569 2519 -288 
Q 2563 -116 2559 434 
Q 2191 0 1641 0 
Q 956 0 581 494 
Q 206 988 206 1678 
Q 206 2153 378 2554 
Q 550 2956 876 3175 
Q 1203 3394 1644 3394 
Q 2231 3394 2613 2919 
L 2613 3319 
L 3131 3319 
L 3131 450 
Q 3131 -325 2973 -648 
Q 2816 -972 2473 -1159 
Q 2131 -1347 1631 -1347 
Q 1038 -1347 672 -1080 
Q 306 -813 319 -275 
z
M 784 1719 
Q 784 1066 1043 766 
Q 1303 466 1694 466 
Q 2081 466 2343 764 
Q 2606 1063 2606 1700 
Q 2606 2309 2336 2618 
Q 2066 2928 1684 2928 
Q 1309 2928 1046 2623 
Q 784 2319 784 1719 
z
" transform="scale(0.015625)"/>
       <path id="ArialMT-76" d="M 1344 0 
L 81 3319 
L 675 3319 
L 1388 1331 
Q 1503 1009 1600 663 
Q 1675 925 1809 1294 
L 2547 3319 
L 3125 3319 
L 1869 0 
L 1344 0 
z
" transform="scale(0.015625)"/>
       <path id="ArialMT-45" d="M 506 0 
L 506 4581 
L 3819 4581 
L 3819 4041 
L 1113 4041 
L 1113 2638 
L 3647 2638 
L 3647 2100 
L 1113 2100 
L 1113 541 
L 3925 541 
L 3925 0 
L 506 0 
z
" transform="scale(0.015625)"/>
      </defs>
      <use xlink:href="#ArialMT-55"/>
      <use xlink:href="#ArialMT-6e" x="72.216797"/>
      <use xlink:href="#ArialMT-72" x="127.832031"/>
      <use xlink:href="#ArialMT-65" x="161.132812"/>
      <use xlink:href="#ArialMT-6c" x="216.748047"/>
      <use xlink:href="#ArialMT-69" x="238.964844"/>
      <use xlink:href="#ArialMT-61" x="261.181641"/>
      <use xlink:href="#ArialMT-62" x="316.796875"/>
      <use xlink:href="#ArialMT-6c" x="372.412109"/>
      <use xlink:href="#ArialMT-65" x="394.628906"/>
      <use xlink:href="#ArialMT-4e" x="450.244141"/>
      <use xlink:href="#ArialMT-65" x="522.460938"/>
      <use xlink:href="#ArialMT-74" x="578.076172"/>
      <use xlink:href="#ArialMT-77" x="605.859375"/>
      <use xlink:href="#ArialMT-6f" x="678.076172"/>
      <use xlink:href="#ArialMT-72" x="733.691406"/>
      <use xlink:href="#ArialMT-6b" x="766.992188"/>
      <use xlink:href="#ArialMT-42" x="816.992188"/>
      <use xlink:href="#ArialMT-61" x="883.691406"/>
      <use xlink:href="#ArialMT-73" x="939.306641"/>
      <use xlink:href="#ArialMT-69" x="989.306641"/>
      <use xlink:href="#ArialMT-63" x="1011.523438"/>
      <use xlink:href="#ArialMT-47" x="1061.523438"/>
      <use xlink:href="#ArialMT-75" x="1139.306641"/>
      <use xlink:href="#ArialMT-6c" x="1194.921875"/>
      <use xlink:href="#ArialMT-6c" x="1217.138672"/>
      <use xlink:href="#ArialMT-69" x="1239.355469"/>
      <use xlink:href="#ArialMT-62" x="1261.572266"/>
      <use xlink:href="#ArialMT-6c" x="1317.1875"/>
      <use xlink:href="#ArialMT-65" x="1339.404297"/>
      <use xlink:href="#ArialMT-4e" x="1395.019531"/>
      <use xlink:href="#ArialMT-65" x="1467.236328"/>
      <use xlink:href="#ArialMT-67" x="1522.851562"/>
      <use xlink:href="#ArialMT-61" x="1578.466797"/>
      <use xlink:href="#ArialMT-74" x="1634.082031"/>
      <use xlink:href="#ArialMT-69" x="1661.865234"/>
      <use xlink:href="#ArialMT-76" x="1684.082031"/>
      <use xlink:href="#ArialMT-65" x="1734.082031"/>
      <use xlink:href="#ArialMT-45" x="1789.697266"/>
      <use xlink:href="#ArialMT-70" x="1856.396484"/>
      <use xlink:href="#ArialMT-73" x="1912.011719"/>
      <use xlink:href="#ArialMT-4f" x="1962.011719"/>
      <use xlink:href="#ArialMT-70" x="2039.794922"/>
     </g>
    </g>
    <g id="line2d_28">
     <path d="M 430.691563 306.9875 
L 441.691563 306.9875 
L 452.691563 306.9875 
" style="fill: none; stroke: #c44e52; stroke-width: 2.5; stroke-linecap: round"/>
    </g>
    <g id="text_20">
     <!-- UnreliableNetworkIdealOp -->
     <g style="fill: #262626" transform="translate(461.491563 310.8375) scale(0.11 -0.11)">
      <defs>
       <path id="ArialMT-64" d="M 2575 0 
L 2575 419 
Q 2259 -75 1647 -75 
Q 1250 -75 917 144 
Q 584 363 401 755 
Q 219 1147 219 1656 
Q 219 2153 384 2558 
Q 550 2963 881 3178 
Q 1213 3394 1622 3394 
Q 1922 3394 2156 3267 
Q 2391 3141 2538 2938 
L 2538 4581 
L 3097 4581 
L 3097 0 
L 2575 0 
z
M 797 1656 
Q 797 1019 1065 703 
Q 1334 388 1700 388 
Q 2069 388 2326 689 
Q 2584 991 2584 1609 
Q 2584 2291 2321 2609 
Q 2059 2928 1675 2928 
Q 1300 2928 1048 2622 
Q 797 2316 797 1656 
z
" transform="scale(0.015625)"/>
      </defs>
      <use xlink:href="#ArialMT-55"/>
      <use xlink:href="#ArialMT-6e" x="72.216797"/>
      <use xlink:href="#ArialMT-72" x="127.832031"/>
      <use xlink:href="#ArialMT-65" x="161.132812"/>
      <use xlink:href="#ArialMT-6c" x="216.748047"/>
      <use xlink:href="#ArialMT-69" x="238.964844"/>
      <use xlink:href="#ArialMT-61" x="261.181641"/>
      <use xlink:href="#ArialMT-62" x="316.796875"/>
      <use xlink:href="#ArialMT-6c" x="372.412109"/>
      <use xlink:href="#ArialMT-65" x="394.628906"/>
      <use xlink:href="#ArialMT-4e" x="450.244141"/>
      <use xlink:href="#ArialMT-65" x="522.460938"/>
      <use xlink:href="#ArialMT-74" x="578.076172"/>
      <use xlink:href="#ArialMT-77" x="605.859375"/>
      <use xlink:href="#ArialMT-6f" x="678.076172"/>
      <use xlink:href="#ArialMT-72" x="733.691406"/>
      <use xlink:href="#ArialMT-6b" x="766.992188"/>
      <use xlink:href="#ArialMT-49" x="816.992188"/>
      <use xlink:href="#ArialMT-64" x="844.775391"/>
      <use xlink:href="#ArialMT-65" x="900.390625"/>
      <use xlink:href="#ArialMT-61" x="956.005859"/>
      <use xlink:href="#ArialMT-6c" x="1011.621094"/>
      <use xlink:href="#ArialMT-4f" x="1033.837891"/>
      <use xlink:href="#ArialMT-70" x="1111.621094"/>
     </g>
    </g>
    <g id="line2d_29">
     <path d="M 430.691563 322.688281 
L 441.691563 322.688281 
L 452.691563 322.688281 
" style="fill: none; stroke: #8172b3; stroke-width: 2.5; stroke-linecap: round"/>
    </g>
    <g id="text_21">
     <!-- UnreliableNetworkModifiedAlignedBinomialOp -->
     <g style="fill: #262626" transform="translate(461.491563 326.538281) scale(0.11 -0.11)">
      <use xlink:href="#ArialMT-55"/>
      <use xlink:href="#ArialMT-6e" x="72.216797"/>
      <use xlink:href="#ArialMT-72" x="127.832031"/>
      <use xlink:href="#ArialMT-65" x="161.132812"/>
      <use xlink:href="#ArialMT-6c" x="216.748047"/>
      <use xlink:href="#ArialMT-69" x="238.964844"/>
      <use xlink:href="#ArialMT-61" x="261.181641"/>
      <use xlink:href="#ArialMT-62" x="316.796875"/>
      <use xlink:href="#ArialMT-6c" x="372.412109"/>
      <use xlink:href="#ArialMT-65" x="394.628906"/>
      <use xlink:href="#ArialMT-4e" x="450.244141"/>
      <use xlink:href="#ArialMT-65" x="522.460938"/>
      <use xlink:href="#ArialMT-74" x="578.076172"/>
      <use xlink:href="#ArialMT-77" x="605.859375"/>
      <use xlink:href="#ArialMT-6f" x="678.076172"/>
      <use xlink:href="#ArialMT-72" x="733.691406"/>
      <use xlink:href="#ArialMT-6b" x="766.992188"/>
      <use xlink:href="#ArialMT-4d" x="816.992188"/>
      <use xlink:href="#ArialMT-6f" x="900.292969"/>
      <use xlink:href="#ArialMT-64" x="955.908203"/>
      <use xlink:href="#ArialMT-69" x="1011.523438"/>
      <use xlink:href="#ArialMT-66" x="1033.740234"/>
      <use xlink:href="#ArialMT-69" x="1061.523438"/>
      <use xlink:href="#ArialMT-65" x="1083.740234"/>
      <use xlink:href="#ArialMT-64" x="1139.355469"/>
      <use xlink:href="#ArialMT-41" x="1194.970703"/>
      <use xlink:href="#ArialMT-6c" x="1261.669922"/>
      <use xlink:href="#ArialMT-69" x="1283.886719"/>
      <use xlink:href="#ArialMT-67" x="1306.103516"/>
      <use xlink:href="#ArialMT-6e" x="1361.71875"/>
      <use xlink:href="#ArialMT-65" x="1417.333984"/>
      <use xlink:href="#ArialMT-64" x="1472.949219"/>
      <use xlink:href="#ArialMT-42" x="1528.564453"/>
      <use xlink:href="#ArialMT-69" x="1595.263672"/>
      <use xlink:href="#ArialMT-6e" x="1617.480469"/>
      <use xlink:href="#ArialMT-6f" x="1673.095703"/>
      <use xlink:href="#ArialMT-6d" x="1728.710938"/>
      <use xlink:href="#ArialMT-69" x="1812.011719"/>
      <use xlink:href="#ArialMT-61" x="1834.228516"/>
      <use xlink:href="#ArialMT-6c" x="1889.84375"/>
      <use xlink:href="#ArialMT-4f" x="1912.060547"/>
      <use xlink:href="#ArialMT-70" x="1989.84375"/>
     </g>
    </g>
    <g id="line2d_30">
     <path d="M 430.691563 338.517969 
L 441.691563 338.517969 
L 452.691563 338.517969 
" style="fill: none; stroke: #937860; stroke-width: 2.5; stroke-linecap: round"/>
    </g>
    <g id="text_22">
     <!-- UnreliableNetworkModifiedAlignedNegativeEpsOp -->
     <g style="fill: #262626" transform="translate(461.491563 342.367969) scale(0.11 -0.11)">
      <use xlink:href="#ArialMT-55"/>
      <use xlink:href="#ArialMT-6e" x="72.216797"/>
      <use xlink:href="#ArialMT-72" x="127.832031"/>
      <use xlink:href="#ArialMT-65" x="161.132812"/>
      <use xlink:href="#ArialMT-6c" x="216.748047"/>
      <use xlink:href="#ArialMT-69" x="238.964844"/>
      <use xlink:href="#ArialMT-61" x="261.181641"/>
      <use xlink:href="#ArialMT-62" x="316.796875"/>
      <use xlink:href="#ArialMT-6c" x="372.412109"/>
      <use xlink:href="#ArialMT-65" x="394.628906"/>
      <use xlink:href="#ArialMT-4e" x="450.244141"/>
      <use xlink:href="#ArialMT-65" x="522.460938"/>
      <use xlink:href="#ArialMT-74" x="578.076172"/>
      <use xlink:href="#ArialMT-77" x="605.859375"/>
      <use xlink:href="#ArialMT-6f" x="678.076172"/>
      <use xlink:href="#ArialMT-72" x="733.691406"/>
      <use xlink:href="#ArialMT-6b" x="766.992188"/>
      <use xlink:href="#ArialMT-4d" x="816.992188"/>
      <use xlink:href="#ArialMT-6f" x="900.292969"/>
      <use xlink:href="#ArialMT-64" x="955.908203"/>
      <use xlink:href="#ArialMT-69" x="1011.523438"/>
      <use xlink:href="#ArialMT-66" x="1033.740234"/>
      <use xlink:href="#ArialMT-69" x="1061.523438"/>
      <use xlink:href="#ArialMT-65" x="1083.740234"/>
      <use xlink:href="#ArialMT-64" x="1139.355469"/>
      <use xlink:href="#ArialMT-41" x="1194.970703"/>
      <use xlink:href="#ArialMT-6c" x="1261.669922"/>
      <use xlink:href="#ArialMT-69" x="1283.886719"/>
      <use xlink:href="#ArialMT-67" x="1306.103516"/>
      <use xlink:href="#ArialMT-6e" x="1361.71875"/>
      <use xlink:href="#ArialMT-65" x="1417.333984"/>
      <use xlink:href="#ArialMT-64" x="1472.949219"/>
      <use xlink:href="#ArialMT-4e" x="1528.564453"/>
      <use xlink:href="#ArialMT-65" x="1600.78125"/>
      <use xlink:href="#ArialMT-67" x="1656.396484"/>
      <use xlink:href="#ArialMT-61" x="1712.011719"/>
      <use xlink:href="#ArialMT-74" x="1767.626953"/>
      <use xlink:href="#ArialMT-69" x="1795.410156"/>
      <use xlink:href="#ArialMT-76" x="1817.626953"/>
      <use xlink:href="#ArialMT-65" x="1867.626953"/>
      <use xlink:href="#ArialMT-45" x="1923.242188"/>
      <use xlink:href="#ArialMT-70" x="1989.941406"/>
      <use xlink:href="#ArialMT-73" x="2045.556641"/>
      <use xlink:href="#ArialMT-4f" x="2095.556641"/>
      <use xlink:href="#ArialMT-70" x="2173.339844"/>
     </g>
    </g>
   </g>
  </g>
 </g>
 <defs>
  <clipPath id="p234aa4ae07">
   <rect x="46.964375" y="21.943125" width="669.6" height="332.64"/>
  </clipPath>
 </defs>
</svg>
