<?xml version="1.0" encoding="utf-8" standalone="no"?>
<!DOCTYPE svg PUBLIC "-//W3C//DTD SVG 1.1//EN"
  "http://www.w3.org/Graphics/SVG/1.1/DTD/svg11.dtd">
<svg xmlns:xlink="http://www.w3.org/1999/xlink" width="729.881406pt" height="396.317344pt" viewBox="0 0 729.881406 396.317344" xmlns="http://www.w3.org/2000/svg" version="1.1">
 <metadata>
  <rdf:RDF xmlns:dc="http://purl.org/dc/elements/1.1/" xmlns:cc="http://creativecommons.org/ns#" xmlns:rdf="http://www.w3.org/1999/02/22-rdf-syntax-ns#">
   <cc:Work>
    <dc:type rdf:resource="http://purl.org/dc/dcmitype/StillImage"/>
    <dc:date>2024-12-19T00:36:43.370910</dc:date>
    <dc:format>image/svg+xml</dc:format>
    <dc:creator>
     <cc:Agent>
      <dc:title>Matplotlib v3.9.2, https://matplotlib.org/</dc:title>
     </cc:Agent>
    </dc:creator>
   </cc:Work>
  </rdf:RDF>
 </metadata>
 <defs>
  <style type="text/css">*{stroke-linejoin: round; stroke-linecap: butt}</style>
 </defs>
 <g id="figure_1">
  <g id="patch_1">
   <path d="M 0 396.317344 
L 729.881406 396.317344 
L 729.881406 0 
L 0 0 
z
" style="fill: #ffffff"/>
  </g>
  <g id="axes_1">
   <g id="patch_2">
    <path d="M 53.081406 354.583125 
L 722.681406 354.583125 
L 722.681406 21.943125 
L 53.081406 21.943125 
z
" style="fill: #ffffff"/>
   </g>
   <g id="matplotlib.axis_1">
    <g id="xtick_1">
     <g id="line2d_1">
      <defs>
       <path id="m631c277c3f" d="M 0 0 
L 0 6 
" style="stroke: #262626; stroke-width: 1.25"/>
      </defs>
      <g>
       <use xlink:href="#m631c277c3f" x="83.51777" y="354.583125" style="fill: #262626; stroke: #262626; stroke-width: 1.25"/>
      </g>
     </g>
     <g id="text_1">
      <!-- 0 -->
      <g style="fill: #262626" transform="translate(80.459254 371.956719) scale(0.11 -0.11)">
       <defs>
        <path id="ArialMT-30" d="M 266 2259 
Q 266 3072 433 3567 
Q 600 4063 929 4331 
Q 1259 4600 1759 4600 
Q 2128 4600 2406 4451 
Q 2684 4303 2865 4023 
Q 3047 3744 3150 3342 
Q 3253 2941 3253 2259 
Q 3253 1453 3087 958 
Q 2922 463 2592 192 
Q 2263 -78 1759 -78 
Q 1097 -78 719 397 
Q 266 969 266 2259 
z
M 844 2259 
Q 844 1131 1108 757 
Q 1372 384 1759 384 
Q 2147 384 2411 759 
Q 2675 1134 2675 2259 
Q 2675 3391 2411 3762 
Q 2147 4134 1753 4134 
Q 1366 4134 1134 3806 
Q 844 3388 844 2259 
z
" transform="scale(0.015625)"/>
       </defs>
       <use xlink:href="#ArialMT-30"/>
      </g>
     </g>
    </g>
    <g id="xtick_2">
     <g id="line2d_2">
      <g>
       <use xlink:href="#m631c277c3f" x="205.263224" y="354.583125" style="fill: #262626; stroke: #262626; stroke-width: 1.25"/>
      </g>
     </g>
     <g id="text_2">
      <!-- 5000 -->
      <g style="fill: #262626" transform="translate(193.029162 371.956719) scale(0.11 -0.11)">
       <defs>
        <path id="ArialMT-35" d="M 266 1200 
L 856 1250 
Q 922 819 1161 601 
Q 1400 384 1738 384 
Q 2144 384 2425 690 
Q 2706 997 2706 1503 
Q 2706 1984 2436 2262 
Q 2166 2541 1728 2541 
Q 1456 2541 1237 2417 
Q 1019 2294 894 2097 
L 366 2166 
L 809 4519 
L 3088 4519 
L 3088 3981 
L 1259 3981 
L 1013 2750 
Q 1425 3038 1878 3038 
Q 2478 3038 2890 2622 
Q 3303 2206 3303 1553 
Q 3303 931 2941 478 
Q 2500 -78 1738 -78 
Q 1113 -78 717 272 
Q 322 622 266 1200 
z
" transform="scale(0.015625)"/>
       </defs>
       <use xlink:href="#ArialMT-35"/>
       <use xlink:href="#ArialMT-30" x="55.615234"/>
       <use xlink:href="#ArialMT-30" x="111.230469"/>
       <use xlink:href="#ArialMT-30" x="166.845703"/>
      </g>
     </g>
    </g>
    <g id="xtick_3">
     <g id="line2d_3">
      <g>
       <use xlink:href="#m631c277c3f" x="327.008679" y="354.583125" style="fill: #262626; stroke: #262626; stroke-width: 1.25"/>
      </g>
     </g>
     <g id="text_3">
      <!-- 10000 -->
      <g style="fill: #262626" transform="translate(311.716101 371.956719) scale(0.11 -0.11)">
       <defs>
        <path id="ArialMT-31" d="M 2384 0 
L 1822 0 
L 1822 3584 
Q 1619 3391 1289 3197 
Q 959 3003 697 2906 
L 697 3450 
Q 1169 3672 1522 3987 
Q 1875 4303 2022 4600 
L 2384 4600 
L 2384 0 
z
" transform="scale(0.015625)"/>
       </defs>
       <use xlink:href="#ArialMT-31"/>
       <use xlink:href="#ArialMT-30" x="55.615234"/>
       <use xlink:href="#ArialMT-30" x="111.230469"/>
       <use xlink:href="#ArialMT-30" x="166.845703"/>
       <use xlink:href="#ArialMT-30" x="222.460938"/>
      </g>
     </g>
    </g>
    <g id="xtick_4">
     <g id="line2d_4">
      <g>
       <use xlink:href="#m631c277c3f" x="448.754134" y="354.583125" style="fill: #262626; stroke: #262626; stroke-width: 1.25"/>
      </g>
     </g>
     <g id="text_4">
      <!-- 15000 -->
      <g style="fill: #262626" transform="translate(433.461555 371.956719) scale(0.11 -0.11)">
       <use xlink:href="#ArialMT-31"/>
       <use xlink:href="#ArialMT-35" x="55.615234"/>
       <use xlink:href="#ArialMT-30" x="111.230469"/>
       <use xlink:href="#ArialMT-30" x="166.845703"/>
       <use xlink:href="#ArialMT-30" x="222.460938"/>
      </g>
     </g>
    </g>
    <g id="xtick_5">
     <g id="line2d_5">
      <g>
       <use xlink:href="#m631c277c3f" x="570.499588" y="354.583125" style="fill: #262626; stroke: #262626; stroke-width: 1.25"/>
      </g>
     </g>
     <g id="text_5">
      <!-- 20000 -->
      <g style="fill: #262626" transform="translate(555.20701 371.956719) scale(0.11 -0.11)">
       <defs>
        <path id="ArialMT-32" d="M 3222 541 
L 3222 0 
L 194 0 
Q 188 203 259 391 
Q 375 700 629 1000 
Q 884 1300 1366 1694 
Q 2113 2306 2375 2664 
Q 2638 3022 2638 3341 
Q 2638 3675 2398 3904 
Q 2159 4134 1775 4134 
Q 1369 4134 1125 3890 
Q 881 3647 878 3216 
L 300 3275 
Q 359 3922 746 4261 
Q 1134 4600 1788 4600 
Q 2447 4600 2831 4234 
Q 3216 3869 3216 3328 
Q 3216 3053 3103 2787 
Q 2991 2522 2730 2228 
Q 2469 1934 1863 1422 
Q 1356 997 1212 845 
Q 1069 694 975 541 
L 3222 541 
z
" transform="scale(0.015625)"/>
       </defs>
       <use xlink:href="#ArialMT-32"/>
       <use xlink:href="#ArialMT-30" x="55.615234"/>
       <use xlink:href="#ArialMT-30" x="111.230469"/>
       <use xlink:href="#ArialMT-30" x="166.845703"/>
       <use xlink:href="#ArialMT-30" x="222.460938"/>
      </g>
     </g>
    </g>
    <g id="xtick_6">
     <g id="line2d_6">
      <g>
       <use xlink:href="#m631c277c3f" x="692.245043" y="354.583125" style="fill: #262626; stroke: #262626; stroke-width: 1.25"/>
      </g>
     </g>
     <g id="text_6">
      <!-- 25000 -->
      <g style="fill: #262626" transform="translate(676.952464 371.956719) scale(0.11 -0.11)">
       <use xlink:href="#ArialMT-32"/>
       <use xlink:href="#ArialMT-35" x="55.615234"/>
       <use xlink:href="#ArialMT-30" x="111.230469"/>
       <use xlink:href="#ArialMT-30" x="166.845703"/>
       <use xlink:href="#ArialMT-30" x="222.460938"/>
      </g>
     </g>
    </g>
    <g id="text_7">
     <!-- Iteration -->
     <g style="fill: #262626" transform="translate(366.203594 386.732344) scale(0.12 -0.12)">
      <defs>
       <path id="ArialMT-49" d="M 597 0 
L 597 4581 
L 1203 4581 
L 1203 0 
L 597 0 
z
" transform="scale(0.015625)"/>
       <path id="ArialMT-74" d="M 1650 503 
L 1731 6 
Q 1494 -44 1306 -44 
Q 1000 -44 831 53 
Q 663 150 594 308 
Q 525 466 525 972 
L 525 2881 
L 113 2881 
L 113 3319 
L 525 3319 
L 525 4141 
L 1084 4478 
L 1084 3319 
L 1650 3319 
L 1650 2881 
L 1084 2881 
L 1084 941 
Q 1084 700 1114 631 
Q 1144 563 1211 522 
Q 1278 481 1403 481 
Q 1497 481 1650 503 
z
" transform="scale(0.015625)"/>
       <path id="ArialMT-65" d="M 2694 1069 
L 3275 997 
Q 3138 488 2766 206 
Q 2394 -75 1816 -75 
Q 1088 -75 661 373 
Q 234 822 234 1631 
Q 234 2469 665 2931 
Q 1097 3394 1784 3394 
Q 2450 3394 2872 2941 
Q 3294 2488 3294 1666 
Q 3294 1616 3291 1516 
L 816 1516 
Q 847 969 1125 678 
Q 1403 388 1819 388 
Q 2128 388 2347 550 
Q 2566 713 2694 1069 
z
M 847 1978 
L 2700 1978 
Q 2663 2397 2488 2606 
Q 2219 2931 1791 2931 
Q 1403 2931 1139 2672 
Q 875 2413 847 1978 
z
" transform="scale(0.015625)"/>
       <path id="ArialMT-72" d="M 416 0 
L 416 3319 
L 922 3319 
L 922 2816 
Q 1116 3169 1280 3281 
Q 1444 3394 1641 3394 
Q 1925 3394 2219 3213 
L 2025 2691 
Q 1819 2813 1613 2813 
Q 1428 2813 1281 2702 
Q 1134 2591 1072 2394 
Q 978 2094 978 1738 
L 978 0 
L 416 0 
z
" transform="scale(0.015625)"/>
       <path id="ArialMT-61" d="M 2588 409 
Q 2275 144 1986 34 
Q 1697 -75 1366 -75 
Q 819 -75 525 192 
Q 231 459 231 875 
Q 231 1119 342 1320 
Q 453 1522 633 1644 
Q 813 1766 1038 1828 
Q 1203 1872 1538 1913 
Q 2219 1994 2541 2106 
Q 2544 2222 2544 2253 
Q 2544 2597 2384 2738 
Q 2169 2928 1744 2928 
Q 1347 2928 1158 2789 
Q 969 2650 878 2297 
L 328 2372 
Q 403 2725 575 2942 
Q 747 3159 1072 3276 
Q 1397 3394 1825 3394 
Q 2250 3394 2515 3294 
Q 2781 3194 2906 3042 
Q 3031 2891 3081 2659 
Q 3109 2516 3109 2141 
L 3109 1391 
Q 3109 606 3145 398 
Q 3181 191 3288 0 
L 2700 0 
Q 2613 175 2588 409 
z
M 2541 1666 
Q 2234 1541 1622 1453 
Q 1275 1403 1131 1340 
Q 988 1278 909 1158 
Q 831 1038 831 891 
Q 831 666 1001 516 
Q 1172 366 1500 366 
Q 1825 366 2078 508 
Q 2331 650 2450 897 
Q 2541 1088 2541 1459 
L 2541 1666 
z
" transform="scale(0.015625)"/>
       <path id="ArialMT-69" d="M 425 3934 
L 425 4581 
L 988 4581 
L 988 3934 
L 425 3934 
z
M 425 0 
L 425 3319 
L 988 3319 
L 988 0 
L 425 0 
z
" transform="scale(0.015625)"/>
       <path id="ArialMT-6f" d="M 213 1659 
Q 213 2581 725 3025 
Q 1153 3394 1769 3394 
Q 2453 3394 2887 2945 
Q 3322 2497 3322 1706 
Q 3322 1066 3130 698 
Q 2938 331 2570 128 
Q 2203 -75 1769 -75 
Q 1072 -75 642 372 
Q 213 819 213 1659 
z
M 791 1659 
Q 791 1022 1069 705 
Q 1347 388 1769 388 
Q 2188 388 2466 706 
Q 2744 1025 2744 1678 
Q 2744 2294 2464 2611 
Q 2184 2928 1769 2928 
Q 1347 2928 1069 2612 
Q 791 2297 791 1659 
z
" transform="scale(0.015625)"/>
       <path id="ArialMT-6e" d="M 422 0 
L 422 3319 
L 928 3319 
L 928 2847 
Q 1294 3394 1984 3394 
Q 2284 3394 2536 3286 
Q 2788 3178 2913 3003 
Q 3038 2828 3088 2588 
Q 3119 2431 3119 2041 
L 3119 0 
L 2556 0 
L 2556 2019 
Q 2556 2363 2490 2533 
Q 2425 2703 2258 2804 
Q 2091 2906 1866 2906 
Q 1506 2906 1245 2678 
Q 984 2450 984 1813 
L 984 0 
L 422 0 
z
" transform="scale(0.015625)"/>
      </defs>
      <use xlink:href="#ArialMT-49"/>
      <use xlink:href="#ArialMT-74" x="27.783203"/>
      <use xlink:href="#ArialMT-65" x="55.566406"/>
      <use xlink:href="#ArialMT-72" x="111.181641"/>
      <use xlink:href="#ArialMT-61" x="144.482422"/>
      <use xlink:href="#ArialMT-74" x="200.097656"/>
      <use xlink:href="#ArialMT-69" x="227.880859"/>
      <use xlink:href="#ArialMT-6f" x="250.097656"/>
      <use xlink:href="#ArialMT-6e" x="305.712891"/>
     </g>
    </g>
   </g>
   <g id="matplotlib.axis_2">
    <g id="ytick_1">
     <g id="line2d_7">
      <defs>
       <path id="me9260c6b62" d="M 0 0 
L -6 0 
" style="stroke: #262626; stroke-width: 1.25"/>
      </defs>
      <g>
       <use xlink:href="#me9260c6b62" x="53.081406" y="307.002315" style="fill: #262626; stroke: #262626; stroke-width: 1.25"/>
      </g>
     </g>
     <g id="text_8">
      <!-- 0.24 -->
      <g style="fill: #262626" transform="translate(22.174375 310.939112) scale(0.11 -0.11)">
       <defs>
        <path id="ArialMT-2e" d="M 581 0 
L 581 641 
L 1222 641 
L 1222 0 
L 581 0 
z
" transform="scale(0.015625)"/>
        <path id="ArialMT-34" d="M 2069 0 
L 2069 1097 
L 81 1097 
L 81 1613 
L 2172 4581 
L 2631 4581 
L 2631 1613 
L 3250 1613 
L 3250 1097 
L 2631 1097 
L 2631 0 
L 2069 0 
z
M 2069 1613 
L 2069 3678 
L 634 1613 
L 2069 1613 
z
" transform="scale(0.015625)"/>
       </defs>
       <use xlink:href="#ArialMT-30"/>
       <use xlink:href="#ArialMT-2e" x="55.615234"/>
       <use xlink:href="#ArialMT-32" x="83.398438"/>
       <use xlink:href="#ArialMT-34" x="139.013672"/>
      </g>
     </g>
    </g>
    <g id="ytick_2">
     <g id="line2d_8">
      <g>
       <use xlink:href="#me9260c6b62" x="53.081406" y="258.415113" style="fill: #262626; stroke: #262626; stroke-width: 1.25"/>
      </g>
     </g>
     <g id="text_9">
      <!-- 0.26 -->
      <g style="fill: #262626" transform="translate(22.174375 262.351909) scale(0.11 -0.11)">
       <defs>
        <path id="ArialMT-36" d="M 3184 3459 
L 2625 3416 
Q 2550 3747 2413 3897 
Q 2184 4138 1850 4138 
Q 1581 4138 1378 3988 
Q 1113 3794 959 3422 
Q 806 3050 800 2363 
Q 1003 2672 1297 2822 
Q 1591 2972 1913 2972 
Q 2475 2972 2870 2558 
Q 3266 2144 3266 1488 
Q 3266 1056 3080 686 
Q 2894 316 2569 119 
Q 2244 -78 1831 -78 
Q 1128 -78 684 439 
Q 241 956 241 2144 
Q 241 3472 731 4075 
Q 1159 4600 1884 4600 
Q 2425 4600 2770 4297 
Q 3116 3994 3184 3459 
z
M 888 1484 
Q 888 1194 1011 928 
Q 1134 663 1356 523 
Q 1578 384 1822 384 
Q 2178 384 2434 671 
Q 2691 959 2691 1453 
Q 2691 1928 2437 2201 
Q 2184 2475 1800 2475 
Q 1419 2475 1153 2201 
Q 888 1928 888 1484 
z
" transform="scale(0.015625)"/>
       </defs>
       <use xlink:href="#ArialMT-30"/>
       <use xlink:href="#ArialMT-2e" x="55.615234"/>
       <use xlink:href="#ArialMT-32" x="83.398438"/>
       <use xlink:href="#ArialMT-36" x="139.013672"/>
      </g>
     </g>
    </g>
    <g id="ytick_3">
     <g id="line2d_9">
      <g>
       <use xlink:href="#me9260c6b62" x="53.081406" y="209.82791" style="fill: #262626; stroke: #262626; stroke-width: 1.25"/>
      </g>
     </g>
     <g id="text_10">
      <!-- 0.28 -->
      <g style="fill: #262626" transform="translate(22.174375 213.764707) scale(0.11 -0.11)">
       <defs>
        <path id="ArialMT-38" d="M 1131 2484 
Q 781 2613 612 2850 
Q 444 3088 444 3419 
Q 444 3919 803 4259 
Q 1163 4600 1759 4600 
Q 2359 4600 2725 4251 
Q 3091 3903 3091 3403 
Q 3091 3084 2923 2848 
Q 2756 2613 2416 2484 
Q 2838 2347 3058 2040 
Q 3278 1734 3278 1309 
Q 3278 722 2862 322 
Q 2447 -78 1769 -78 
Q 1091 -78 675 323 
Q 259 725 259 1325 
Q 259 1772 486 2073 
Q 713 2375 1131 2484 
z
M 1019 3438 
Q 1019 3113 1228 2906 
Q 1438 2700 1772 2700 
Q 2097 2700 2305 2904 
Q 2513 3109 2513 3406 
Q 2513 3716 2298 3927 
Q 2084 4138 1766 4138 
Q 1444 4138 1231 3931 
Q 1019 3725 1019 3438 
z
M 838 1322 
Q 838 1081 952 856 
Q 1066 631 1291 507 
Q 1516 384 1775 384 
Q 2178 384 2440 643 
Q 2703 903 2703 1303 
Q 2703 1709 2433 1975 
Q 2163 2241 1756 2241 
Q 1359 2241 1098 1978 
Q 838 1716 838 1322 
z
" transform="scale(0.015625)"/>
       </defs>
       <use xlink:href="#ArialMT-30"/>
       <use xlink:href="#ArialMT-2e" x="55.615234"/>
       <use xlink:href="#ArialMT-32" x="83.398438"/>
       <use xlink:href="#ArialMT-38" x="139.013672"/>
      </g>
     </g>
    </g>
    <g id="ytick_4">
     <g id="line2d_10">
      <g>
       <use xlink:href="#me9260c6b62" x="53.081406" y="161.240708" style="fill: #262626; stroke: #262626; stroke-width: 1.25"/>
      </g>
     </g>
     <g id="text_11">
      <!-- 0.30 -->
      <g style="fill: #262626" transform="translate(22.174375 165.177505) scale(0.11 -0.11)">
       <defs>
        <path id="ArialMT-33" d="M 269 1209 
L 831 1284 
Q 928 806 1161 595 
Q 1394 384 1728 384 
Q 2125 384 2398 659 
Q 2672 934 2672 1341 
Q 2672 1728 2419 1979 
Q 2166 2231 1775 2231 
Q 1616 2231 1378 2169 
L 1441 2663 
Q 1497 2656 1531 2656 
Q 1891 2656 2178 2843 
Q 2466 3031 2466 3422 
Q 2466 3731 2256 3934 
Q 2047 4138 1716 4138 
Q 1388 4138 1169 3931 
Q 950 3725 888 3313 
L 325 3413 
Q 428 3978 793 4289 
Q 1159 4600 1703 4600 
Q 2078 4600 2393 4439 
Q 2709 4278 2876 4000 
Q 3044 3722 3044 3409 
Q 3044 3113 2884 2869 
Q 2725 2625 2413 2481 
Q 2819 2388 3044 2092 
Q 3269 1797 3269 1353 
Q 3269 753 2831 336 
Q 2394 -81 1725 -81 
Q 1122 -81 723 278 
Q 325 638 269 1209 
z
" transform="scale(0.015625)"/>
       </defs>
       <use xlink:href="#ArialMT-30"/>
       <use xlink:href="#ArialMT-2e" x="55.615234"/>
       <use xlink:href="#ArialMT-33" x="83.398438"/>
       <use xlink:href="#ArialMT-30" x="139.013672"/>
      </g>
     </g>
    </g>
    <g id="ytick_5">
     <g id="line2d_11">
      <g>
       <use xlink:href="#me9260c6b62" x="53.081406" y="112.653505" style="fill: #262626; stroke: #262626; stroke-width: 1.25"/>
      </g>
     </g>
     <g id="text_12">
      <!-- 0.32 -->
      <g style="fill: #262626" transform="translate(22.174375 116.590302) scale(0.11 -0.11)">
       <use xlink:href="#ArialMT-30"/>
       <use xlink:href="#ArialMT-2e" x="55.615234"/>
       <use xlink:href="#ArialMT-33" x="83.398438"/>
       <use xlink:href="#ArialMT-32" x="139.013672"/>
      </g>
     </g>
    </g>
    <g id="ytick_6">
     <g id="line2d_12">
      <g>
       <use xlink:href="#me9260c6b62" x="53.081406" y="64.066303" style="fill: #262626; stroke: #262626; stroke-width: 1.25"/>
      </g>
     </g>
     <g id="text_13">
      <!-- 0.34 -->
      <g style="fill: #262626" transform="translate(22.174375 68.0031) scale(0.11 -0.11)">
       <use xlink:href="#ArialMT-30"/>
       <use xlink:href="#ArialMT-2e" x="55.615234"/>
       <use xlink:href="#ArialMT-33" x="83.398438"/>
       <use xlink:href="#ArialMT-34" x="139.013672"/>
      </g>
     </g>
    </g>
    <g id="text_14">
     <!-- Mean Standard Beliefs -->
     <g style="fill: #262626" transform="translate(15.789375 248.9625) rotate(-90) scale(0.12 -0.12)">
      <defs>
       <path id="ArialMT-4d" d="M 475 0 
L 475 4581 
L 1388 4581 
L 2472 1338 
Q 2622 884 2691 659 
Q 2769 909 2934 1394 
L 4031 4581 
L 4847 4581 
L 4847 0 
L 4263 0 
L 4263 3834 
L 2931 0 
L 2384 0 
L 1059 3900 
L 1059 0 
L 475 0 
z
" transform="scale(0.015625)"/>
       <path id="ArialMT-20" transform="scale(0.015625)"/>
       <path id="ArialMT-53" d="M 288 1472 
L 859 1522 
Q 900 1178 1048 958 
Q 1197 738 1509 602 
Q 1822 466 2213 466 
Q 2559 466 2825 569 
Q 3091 672 3220 851 
Q 3350 1031 3350 1244 
Q 3350 1459 3225 1620 
Q 3100 1781 2813 1891 
Q 2628 1963 1997 2114 
Q 1366 2266 1113 2400 
Q 784 2572 623 2826 
Q 463 3081 463 3397 
Q 463 3744 659 4045 
Q 856 4347 1234 4503 
Q 1613 4659 2075 4659 
Q 2584 4659 2973 4495 
Q 3363 4331 3572 4012 
Q 3781 3694 3797 3291 
L 3216 3247 
Q 3169 3681 2898 3903 
Q 2628 4125 2100 4125 
Q 1550 4125 1298 3923 
Q 1047 3722 1047 3438 
Q 1047 3191 1225 3031 
Q 1400 2872 2139 2705 
Q 2878 2538 3153 2413 
Q 3553 2228 3743 1945 
Q 3934 1663 3934 1294 
Q 3934 928 3725 604 
Q 3516 281 3123 101 
Q 2731 -78 2241 -78 
Q 1619 -78 1198 103 
Q 778 284 539 648 
Q 300 1013 288 1472 
z
" transform="scale(0.015625)"/>
       <path id="ArialMT-64" d="M 2575 0 
L 2575 419 
Q 2259 -75 1647 -75 
Q 1250 -75 917 144 
Q 584 363 401 755 
Q 219 1147 219 1656 
Q 219 2153 384 2558 
Q 550 2963 881 3178 
Q 1213 3394 1622 3394 
Q 1922 3394 2156 3267 
Q 2391 3141 2538 2938 
L 2538 4581 
L 3097 4581 
L 3097 0 
L 2575 0 
z
M 797 1656 
Q 797 1019 1065 703 
Q 1334 388 1700 388 
Q 2069 388 2326 689 
Q 2584 991 2584 1609 
Q 2584 2291 2321 2609 
Q 2059 2928 1675 2928 
Q 1300 2928 1048 2622 
Q 797 2316 797 1656 
z
" transform="scale(0.015625)"/>
       <path id="ArialMT-42" d="M 469 0 
L 469 4581 
L 2188 4581 
Q 2713 4581 3030 4442 
Q 3347 4303 3526 4014 
Q 3706 3725 3706 3409 
Q 3706 3116 3547 2856 
Q 3388 2597 3066 2438 
Q 3481 2316 3704 2022 
Q 3928 1728 3928 1328 
Q 3928 1006 3792 729 
Q 3656 453 3456 303 
Q 3256 153 2954 76 
Q 2653 0 2216 0 
L 469 0 
z
M 1075 2656 
L 2066 2656 
Q 2469 2656 2644 2709 
Q 2875 2778 2992 2937 
Q 3109 3097 3109 3338 
Q 3109 3566 3000 3739 
Q 2891 3913 2687 3977 
Q 2484 4041 1991 4041 
L 1075 4041 
L 1075 2656 
z
M 1075 541 
L 2216 541 
Q 2509 541 2628 563 
Q 2838 600 2978 687 
Q 3119 775 3209 942 
Q 3300 1109 3300 1328 
Q 3300 1584 3169 1773 
Q 3038 1963 2805 2039 
Q 2572 2116 2134 2116 
L 1075 2116 
L 1075 541 
z
" transform="scale(0.015625)"/>
       <path id="ArialMT-6c" d="M 409 0 
L 409 4581 
L 972 4581 
L 972 0 
L 409 0 
z
" transform="scale(0.015625)"/>
       <path id="ArialMT-66" d="M 556 0 
L 556 2881 
L 59 2881 
L 59 3319 
L 556 3319 
L 556 3672 
Q 556 4006 616 4169 
Q 697 4388 901 4523 
Q 1106 4659 1475 4659 
Q 1713 4659 2000 4603 
L 1916 4113 
Q 1741 4144 1584 4144 
Q 1328 4144 1222 4034 
Q 1116 3925 1116 3625 
L 1116 3319 
L 1763 3319 
L 1763 2881 
L 1116 2881 
L 1116 0 
L 556 0 
z
" transform="scale(0.015625)"/>
       <path id="ArialMT-73" d="M 197 991 
L 753 1078 
Q 800 744 1014 566 
Q 1228 388 1613 388 
Q 2000 388 2187 545 
Q 2375 703 2375 916 
Q 2375 1106 2209 1216 
Q 2094 1291 1634 1406 
Q 1016 1563 777 1677 
Q 538 1791 414 1992 
Q 291 2194 291 2438 
Q 291 2659 392 2848 
Q 494 3038 669 3163 
Q 800 3259 1026 3326 
Q 1253 3394 1513 3394 
Q 1903 3394 2198 3281 
Q 2494 3169 2634 2976 
Q 2775 2784 2828 2463 
L 2278 2388 
Q 2241 2644 2061 2787 
Q 1881 2931 1553 2931 
Q 1166 2931 1000 2803 
Q 834 2675 834 2503 
Q 834 2394 903 2306 
Q 972 2216 1119 2156 
Q 1203 2125 1616 2013 
Q 2213 1853 2448 1751 
Q 2684 1650 2818 1456 
Q 2953 1263 2953 975 
Q 2953 694 2789 445 
Q 2625 197 2315 61 
Q 2006 -75 1616 -75 
Q 969 -75 630 194 
Q 291 463 197 991 
z
" transform="scale(0.015625)"/>
      </defs>
      <use xlink:href="#ArialMT-4d"/>
      <use xlink:href="#ArialMT-65" x="83.300781"/>
      <use xlink:href="#ArialMT-61" x="138.916016"/>
      <use xlink:href="#ArialMT-6e" x="194.53125"/>
      <use xlink:href="#ArialMT-20" x="250.146484"/>
      <use xlink:href="#ArialMT-53" x="277.929688"/>
      <use xlink:href="#ArialMT-74" x="344.628906"/>
      <use xlink:href="#ArialMT-61" x="372.412109"/>
      <use xlink:href="#ArialMT-6e" x="428.027344"/>
      <use xlink:href="#ArialMT-64" x="483.642578"/>
      <use xlink:href="#ArialMT-61" x="539.257812"/>
      <use xlink:href="#ArialMT-72" x="594.873047"/>
      <use xlink:href="#ArialMT-64" x="628.173828"/>
      <use xlink:href="#ArialMT-20" x="683.789062"/>
      <use xlink:href="#ArialMT-42" x="711.572266"/>
      <use xlink:href="#ArialMT-65" x="778.271484"/>
      <use xlink:href="#ArialMT-6c" x="833.886719"/>
      <use xlink:href="#ArialMT-69" x="856.103516"/>
      <use xlink:href="#ArialMT-65" x="878.320312"/>
      <use xlink:href="#ArialMT-66" x="933.935547"/>
      <use xlink:href="#ArialMT-73" x="961.71875"/>
     </g>
    </g>
   </g>
   <g id="PolyCollection_1"/>
   <g id="PolyCollection_2"/>
   <g id="PolyCollection_3"/>
   <g id="PolyCollection_4"/>
   <g id="PolyCollection_5"/>
   <g id="PolyCollection_6"/>
   <g id="line2d_13">
    <path d="M 83.51777 188.548293 
L 83.542119 185.473006 
L 85.952679 98.765862 
L 88.387588 70.107109 
L 90.822497 55.507895 
L 93.257406 46.307375 
L 95.692315 40.089179 
L 98.127224 37.608591 
L 100.562134 37.063125 
L 105.431952 38.041257 
L 107.866861 39.625236 
L 110.30177 41.469062 
L 112.736679 43.779292 
L 115.171588 46.881874 
L 117.606497 49.437976 
L 120.041406 52.521154 
L 122.476315 56.582175 
L 124.911224 59.820508 
L 129.781043 67.252209 
L 134.650861 73.315468 
L 137.08577 77.27911 
L 139.520679 80.392189 
L 141.955588 84.292408 
L 144.390497 87.872037 
L 146.825406 91.25061 
L 149.260315 94.313299 
L 151.695224 99.008114 
L 156.565043 104.182221 
L 158.999952 107.315429 
L 161.434861 111.097345 
L 163.86977 115.244884 
L 166.304679 117.74741 
L 168.739588 121.943313 
L 173.609406 127.753169 
L 176.044315 131.875586 
L 180.914134 137.17328 
L 183.349043 139.519493 
L 185.783952 143.369321 
L 188.218861 146.351791 
L 190.65377 148.76577 
L 195.523588 154.911131 
L 197.958497 156.721725 
L 202.828315 159.582778 
L 205.263224 162.795916 
L 207.698134 165.472854 
L 212.567952 169.983048 
L 215.002861 173.129432 
L 219.872679 177.657364 
L 222.307588 179.353203 
L 229.612315 186.153282 
L 232.047224 188.566103 
L 234.482134 189.756803 
L 236.917043 192.647106 
L 241.786861 196.633337 
L 244.22177 198.303908 
L 246.656679 200.406638 
L 249.091588 201.289925 
L 251.526497 203.603702 
L 253.961406 204.916325 
L 256.396315 206.457009 
L 258.831224 208.207076 
L 261.266134 208.885179 
L 263.701043 211.630682 
L 266.135952 213.22458 
L 268.570861 214.491952 
L 271.00577 216.880882 
L 275.875588 220.999823 
L 278.310497 222.660113 
L 280.745406 225.075613 
L 285.615224 226.940362 
L 288.050134 228.291502 
L 290.485043 230.638728 
L 295.354861 233.10918 
L 297.78977 234.207352 
L 300.224679 235.89653 
L 302.659588 236.823982 
L 305.094497 237.049726 
L 307.529406 238.280391 
L 312.399224 242.136591 
L 314.834134 243.262999 
L 317.269043 244.882527 
L 319.703952 244.983526 
L 322.138861 247.077858 
L 324.57377 250.320028 
L 327.008679 252.114041 
L 329.443588 252.287948 
L 331.878497 253.635395 
L 334.313406 254.378442 
L 336.748315 255.98682 
L 339.183224 256.669341 
L 341.618134 257.623653 
L 344.053043 259.389068 
L 346.487952 260.977754 
L 348.922861 262.280747 
L 351.35777 262.32998 
L 353.792679 263.153246 
L 356.227588 263.648249 
L 358.662497 265.303761 
L 361.097406 266.468831 
L 365.967224 267.702826 
L 368.402134 268.782029 
L 370.837043 269.69529 
L 373.271952 270.78405 
L 378.14177 272.716711 
L 380.576679 274.2663 
L 383.011588 275.410229 
L 385.446497 275.839637 
L 387.881406 276.719304 
L 390.316315 278.189977 
L 392.751224 279.009986 
L 395.186134 280.705317 
L 397.621043 281.814711 
L 400.055952 282.681998 
L 402.490861 283.12404 
L 404.92577 284.884315 
L 407.360679 285.820563 
L 409.795588 286.44433 
L 412.230497 287.208047 
L 414.665406 288.309875 
L 417.100315 289.186791 
L 419.535224 289.390164 
L 421.970134 291.971064 
L 424.405043 292.563735 
L 426.839952 293.408179 
L 429.274861 293.65311 
L 431.70977 294.861367 
L 434.144679 294.927686 
L 436.579588 296.077697 
L 439.014497 296.910738 
L 441.449406 298.400416 
L 443.884315 299.085904 
L 446.319224 299.100095 
L 448.754134 300.371304 
L 451.189043 301.061318 
L 456.058861 302.705173 
L 458.49377 302.586074 
L 460.928679 303.316741 
L 463.363588 304.559352 
L 465.798497 304.518735 
L 468.233406 305.517718 
L 470.668315 305.537447 
L 473.103224 305.24589 
L 475.538134 305.48702 
L 477.973043 306.345691 
L 480.407952 307.557025 
L 482.842861 308.351875 
L 485.27777 310.162323 
L 487.712679 310.086267 
L 490.147588 311.179913 
L 492.582497 310.92014 
L 495.017406 311.676943 
L 497.452315 312.308385 
L 504.757043 312.507885 
L 507.191952 313.968675 
L 509.626861 314.27873 
L 512.06177 314.887076 
L 514.496679 314.831292 
L 519.366497 316.05421 
L 521.801406 316.294761 
L 524.236315 317.027635 
L 526.671224 318.472316 
L 529.106134 318.297686 
L 531.541043 319.169172 
L 533.975952 319.722493 
L 536.410861 319.905558 
L 538.84577 319.190964 
L 541.280679 320.227849 
L 543.715588 320.577363 
L 546.150497 321.740261 
L 548.585406 322.011582 
L 551.020315 322.150772 
L 553.455224 322.696926 
L 555.890134 322.188855 
L 558.325043 322.361639 
L 563.194861 323.383428 
L 565.62977 323.332748 
L 568.064679 323.037426 
L 570.499588 323.633427 
L 572.934497 323.505387 
L 575.369406 324.900799 
L 577.804315 325.700609 
L 580.239224 326.093961 
L 582.674134 326.326475 
L 585.109043 326.985357 
L 587.543952 327.232098 
L 589.978861 327.706032 
L 592.41377 328.369511 
L 594.848679 328.869944 
L 597.283588 329.044357 
L 599.718497 329.516915 
L 604.588315 329.787114 
L 607.023224 330.281791 
L 609.458134 331.258801 
L 611.893043 331.473034 
L 614.327952 331.44154 
L 616.762861 331.204609 
L 619.19777 331.46326 
L 621.632679 332.053614 
L 631.372315 333.859212 
L 633.807224 334.501007 
L 636.242134 333.953188 
L 638.677043 334.098532 
L 641.111952 334.576231 
L 643.546861 334.747893 
L 645.98177 333.705144 
L 648.416679 333.249889 
L 650.851588 334.762916 
L 653.286497 334.561932 
L 658.156315 335.330826 
L 660.591224 335.267222 
L 663.026134 335.647832 
L 665.461043 335.689824 
L 667.895952 335.942828 
L 670.330861 334.463793 
L 672.76577 335.748867 
L 677.635588 337.06815 
L 680.070497 338.218523 
L 682.505406 337.335815 
L 684.940315 337.536654 
L 687.375224 337.955311 
L 689.810134 339.028396 
L 692.245043 339.463125 
L 692.245043 339.463125 
" clip-path="url(#p84edf1aa2a)" style="fill: none; stroke: #4c72b0; stroke-width: 2.5; stroke-linecap: round"/>
   </g>
   <g id="line2d_14">
    <path d="M 83.51777 188.548293 
L 83.542119 185.473006 
L 85.952679 98.765862 
L 88.387588 70.107109 
L 90.822497 55.507895 
L 93.257406 46.307375 
L 95.692315 40.089179 
L 98.127224 37.608591 
L 100.562134 37.063125 
L 105.431952 38.041257 
L 107.866861 39.625236 
L 110.30177 41.469062 
L 112.736679 43.779292 
L 115.171588 46.881874 
L 117.606497 49.437976 
L 120.041406 52.521154 
L 122.476315 56.582175 
L 124.911224 59.820508 
L 129.781043 67.252209 
L 134.650861 73.315468 
L 137.08577 77.27911 
L 139.520679 80.392189 
L 141.955588 84.292408 
L 144.390497 87.872037 
L 146.825406 91.25061 
L 149.260315 94.313299 
L 151.695224 99.008114 
L 156.565043 104.182221 
L 158.999952 107.315429 
L 161.434861 111.097345 
L 163.86977 115.244884 
L 166.304679 117.74741 
L 168.739588 121.943313 
L 173.609406 127.753169 
L 176.044315 131.875586 
L 180.914134 137.17328 
L 183.349043 139.519493 
L 185.783952 143.369321 
L 188.218861 146.351791 
L 190.65377 148.76577 
L 195.523588 154.911131 
L 197.958497 156.721725 
L 202.828315 159.582778 
L 205.263224 162.795916 
L 207.698134 165.472854 
L 212.567952 169.983048 
L 215.002861 173.129432 
L 219.872679 177.657364 
L 222.307588 179.353203 
L 229.612315 186.153282 
L 232.047224 188.566103 
L 234.482134 189.756803 
L 236.917043 192.647106 
L 241.786861 196.633337 
L 244.22177 198.303908 
L 246.656679 200.406638 
L 249.091588 201.289925 
L 251.526497 203.603702 
L 253.961406 204.916325 
L 256.396315 206.457009 
L 258.831224 208.207076 
L 261.266134 208.885179 
L 263.701043 211.630682 
L 266.135952 213.22458 
L 268.570861 214.491952 
L 271.00577 216.880882 
L 275.875588 220.999823 
L 278.310497 222.660113 
L 280.745406 225.075613 
L 285.615224 226.940362 
L 288.050134 228.291502 
L 290.485043 230.638728 
L 295.354861 233.10918 
L 297.78977 234.207352 
L 300.224679 235.89653 
L 302.659588 236.823982 
L 305.094497 237.049726 
L 307.529406 238.280391 
L 312.399224 242.136591 
L 314.834134 243.262999 
L 317.269043 244.882527 
L 319.703952 244.983526 
L 322.138861 247.077858 
L 324.57377 250.320028 
L 327.008679 252.114041 
L 329.443588 252.287948 
L 331.878497 253.635395 
L 334.313406 254.378442 
L 336.748315 255.98682 
L 339.183224 256.669341 
L 341.618134 257.623653 
L 344.053043 259.389068 
L 346.487952 260.977754 
L 348.922861 262.280747 
L 351.35777 262.32998 
L 353.792679 263.153246 
L 356.227588 263.648249 
L 358.662497 265.303761 
L 361.097406 266.468831 
L 365.967224 267.702826 
L 368.402134 268.782029 
L 370.837043 269.69529 
L 373.271952 270.78405 
L 378.14177 272.716711 
L 380.576679 274.2663 
L 383.011588 275.410229 
L 385.446497 275.839637 
L 387.881406 276.719304 
L 390.316315 278.189977 
L 392.751224 279.009986 
L 395.186134 280.705317 
L 397.621043 281.814711 
L 400.055952 282.681998 
L 402.490861 283.12404 
L 404.92577 284.884315 
L 407.360679 285.820563 
L 409.795588 286.44433 
L 412.230497 287.208047 
L 414.665406 288.309875 
L 417.100315 289.186791 
L 419.535224 289.390164 
L 421.970134 291.971064 
L 424.405043 292.563735 
L 426.839952 293.408179 
L 429.274861 293.65311 
L 431.70977 294.861367 
L 434.144679 294.927686 
L 436.579588 296.077697 
L 439.014497 296.910738 
L 441.449406 298.400416 
L 443.884315 299.085904 
L 446.319224 299.100095 
L 448.754134 300.371304 
L 451.189043 301.061318 
L 456.058861 302.705173 
L 458.49377 302.586074 
L 460.928679 303.316741 
L 463.363588 304.559352 
L 465.798497 304.518735 
L 468.233406 305.517718 
L 470.668315 305.537447 
L 473.103224 305.24589 
L 475.538134 305.48702 
L 477.973043 306.345691 
L 480.407952 307.557025 
L 482.842861 308.351875 
L 485.27777 310.162323 
L 487.712679 310.086267 
L 490.147588 311.179913 
L 492.582497 310.92014 
L 495.017406 311.676943 
L 497.452315 312.308385 
L 504.757043 312.507885 
L 507.191952 313.968675 
L 509.626861 314.27873 
L 512.06177 314.887076 
L 514.496679 314.831292 
L 519.366497 316.05421 
L 521.801406 316.294761 
L 524.236315 317.027635 
L 526.671224 318.472316 
L 529.106134 318.297686 
L 531.541043 319.169172 
L 533.975952 319.722493 
L 536.410861 319.905558 
L 538.84577 319.190964 
L 541.280679 320.227849 
L 543.715588 320.577363 
L 546.150497 321.740261 
L 548.585406 322.011582 
L 551.020315 322.150772 
L 553.455224 322.696926 
L 555.890134 322.188855 
L 558.325043 322.361639 
L 563.194861 323.383428 
L 565.62977 323.332748 
L 568.064679 323.037426 
L 570.499588 323.633427 
L 572.934497 323.505387 
L 575.369406 324.900799 
L 577.804315 325.700609 
L 580.239224 326.093961 
L 582.674134 326.326475 
L 585.109043 326.985357 
L 587.543952 327.232098 
L 589.978861 327.706032 
L 592.41377 328.369511 
L 594.848679 328.869944 
L 597.283588 329.044357 
L 599.718497 329.516915 
L 604.588315 329.787114 
L 607.023224 330.281791 
L 609.458134 331.258801 
L 611.893043 331.473034 
L 614.327952 331.44154 
L 616.762861 331.204609 
L 619.19777 331.46326 
L 621.632679 332.053614 
L 631.372315 333.859212 
L 633.807224 334.501007 
L 636.242134 333.953188 
L 638.677043 334.098532 
L 641.111952 334.576231 
L 643.546861 334.747893 
L 645.98177 333.705144 
L 648.416679 333.249889 
L 650.851588 334.762916 
L 653.286497 334.561932 
L 658.156315 335.330826 
L 660.591224 335.267222 
L 663.026134 335.647832 
L 665.461043 335.689824 
L 667.895952 335.942828 
L 670.330861 334.463793 
L 672.76577 335.748867 
L 677.635588 337.06815 
L 680.070497 338.218523 
L 682.505406 337.335815 
L 684.940315 337.536654 
L 687.375224 337.955311 
L 689.810134 339.028396 
L 692.245043 339.463125 
L 692.245043 339.463125 
" clip-path="url(#p84edf1aa2a)" style="fill: none; stroke: #dd8452; stroke-width: 2.5; stroke-linecap: round"/>
   </g>
   <g id="line2d_15">
    <path d="M 83.51777 188.548293 
L 83.542119 185.473006 
L 85.952679 98.765862 
L 88.387588 70.107109 
L 90.822497 55.507895 
L 93.257406 46.307375 
L 95.692315 40.089179 
L 98.127224 37.608591 
L 100.562134 37.063125 
L 105.431952 38.041257 
L 107.866861 39.625236 
L 110.30177 41.469062 
L 112.736679 43.779292 
L 115.171588 46.881874 
L 117.606497 49.437976 
L 120.041406 52.521154 
L 122.476315 56.582175 
L 124.911224 59.820508 
L 129.781043 67.252209 
L 134.650861 73.315468 
L 137.08577 77.27911 
L 139.520679 80.392189 
L 141.955588 84.292408 
L 144.390497 87.872037 
L 146.825406 91.25061 
L 149.260315 94.313299 
L 151.695224 99.008114 
L 156.565043 104.182221 
L 158.999952 107.315429 
L 161.434861 111.097345 
L 163.86977 115.244884 
L 166.304679 117.74741 
L 168.739588 121.943313 
L 173.609406 127.753169 
L 176.044315 131.875586 
L 180.914134 137.17328 
L 183.349043 139.519493 
L 185.783952 143.369321 
L 188.218861 146.351791 
L 190.65377 148.76577 
L 195.523588 154.911131 
L 197.958497 156.721725 
L 202.828315 159.582778 
L 205.263224 162.795916 
L 207.698134 165.472854 
L 212.567952 169.983048 
L 215.002861 173.129432 
L 219.872679 177.657364 
L 222.307588 179.353203 
L 229.612315 186.153282 
L 232.047224 188.566103 
L 234.482134 189.756803 
L 236.917043 192.647106 
L 241.786861 196.633337 
L 244.22177 198.303908 
L 246.656679 200.406638 
L 249.091588 201.289925 
L 251.526497 203.603702 
L 253.961406 204.916325 
L 256.396315 206.457009 
L 258.831224 208.207076 
L 261.266134 208.885179 
L 263.701043 211.630682 
L 266.135952 213.22458 
L 268.570861 214.491952 
L 271.00577 216.880882 
L 275.875588 220.999823 
L 278.310497 222.660113 
L 280.745406 225.075613 
L 285.615224 226.940362 
L 288.050134 228.291502 
L 290.485043 230.638728 
L 295.354861 233.10918 
L 297.78977 234.207352 
L 300.224679 235.89653 
L 302.659588 236.823982 
L 305.094497 237.049726 
L 307.529406 238.280391 
L 312.399224 242.136591 
L 314.834134 243.262999 
L 317.269043 244.882527 
L 319.703952 244.983526 
L 322.138861 247.077858 
L 324.57377 250.320028 
L 327.008679 252.114041 
L 329.443588 252.287948 
L 331.878497 253.635395 
L 334.313406 254.378442 
L 336.748315 255.98682 
L 339.183224 256.669341 
L 341.618134 257.623653 
L 344.053043 259.389068 
L 346.487952 260.977754 
L 348.922861 262.280747 
L 351.35777 262.32998 
L 353.792679 263.153246 
L 356.227588 263.648249 
L 358.662497 265.303761 
L 361.097406 266.468831 
L 365.967224 267.702826 
L 368.402134 268.782029 
L 370.837043 269.69529 
L 373.271952 270.78405 
L 378.14177 272.716711 
L 380.576679 274.2663 
L 383.011588 275.410229 
L 385.446497 275.839637 
L 387.881406 276.719304 
L 390.316315 278.189977 
L 392.751224 279.009986 
L 395.186134 280.705317 
L 397.621043 281.814711 
L 400.055952 282.681998 
L 402.490861 283.12404 
L 404.92577 284.884315 
L 407.360679 285.820563 
L 409.795588 286.44433 
L 412.230497 287.208047 
L 414.665406 288.309875 
L 417.100315 289.186791 
L 419.535224 289.390164 
L 421.970134 291.971064 
L 424.405043 292.563735 
L 426.839952 293.408179 
L 429.274861 293.65311 
L 431.70977 294.861367 
L 434.144679 294.927686 
L 436.579588 296.077697 
L 439.014497 296.910738 
L 441.449406 298.400416 
L 443.884315 299.085904 
L 446.319224 299.100095 
L 448.754134 300.371304 
L 451.189043 301.061318 
L 456.058861 302.705173 
L 458.49377 302.586074 
L 460.928679 303.316741 
L 463.363588 304.559352 
L 465.798497 304.518735 
L 468.233406 305.517718 
L 470.668315 305.537447 
L 473.103224 305.24589 
L 475.538134 305.48702 
L 477.973043 306.345691 
L 480.407952 307.557025 
L 482.842861 308.351875 
L 485.27777 310.162323 
L 487.712679 310.086267 
L 490.147588 311.179913 
L 492.582497 310.92014 
L 495.017406 311.676943 
L 497.452315 312.308385 
L 504.757043 312.507885 
L 507.191952 313.968675 
L 509.626861 314.27873 
L 512.06177 314.887076 
L 514.496679 314.831292 
L 519.366497 316.05421 
L 521.801406 316.294761 
L 524.236315 317.027635 
L 526.671224 318.472316 
L 529.106134 318.297686 
L 531.541043 319.169172 
L 533.975952 319.722493 
L 536.410861 319.905558 
L 538.84577 319.190964 
L 541.280679 320.227849 
L 543.715588 320.577363 
L 546.150497 321.740261 
L 548.585406 322.011582 
L 551.020315 322.150772 
L 553.455224 322.696926 
L 555.890134 322.188855 
L 558.325043 322.361639 
L 563.194861 323.383428 
L 565.62977 323.332748 
L 568.064679 323.037426 
L 570.499588 323.633427 
L 572.934497 323.505387 
L 575.369406 324.900799 
L 577.804315 325.700609 
L 580.239224 326.093961 
L 582.674134 326.326475 
L 585.109043 326.985357 
L 587.543952 327.232098 
L 589.978861 327.706032 
L 592.41377 328.369511 
L 594.848679 328.869944 
L 597.283588 329.044357 
L 599.718497 329.516915 
L 604.588315 329.787114 
L 607.023224 330.281791 
L 609.458134 331.258801 
L 611.893043 331.473034 
L 614.327952 331.44154 
L 616.762861 331.204609 
L 619.19777 331.46326 
L 621.632679 332.053614 
L 631.372315 333.859212 
L 633.807224 334.501007 
L 636.242134 333.953188 
L 638.677043 334.098532 
L 641.111952 334.576231 
L 643.546861 334.747893 
L 645.98177 333.705144 
L 648.416679 333.249889 
L 650.851588 334.762916 
L 653.286497 334.561932 
L 658.156315 335.330826 
L 660.591224 335.267222 
L 663.026134 335.647832 
L 665.461043 335.689824 
L 667.895952 335.942828 
L 670.330861 334.463793 
L 672.76577 335.748867 
L 677.635588 337.06815 
L 680.070497 338.218523 
L 682.505406 337.335815 
L 684.940315 337.536654 
L 687.375224 337.955311 
L 689.810134 339.028396 
L 692.245043 339.463125 
L 692.245043 339.463125 
" clip-path="url(#p84edf1aa2a)" style="fill: none; stroke: #55a868; stroke-width: 2.5; stroke-linecap: round"/>
   </g>
   <g id="line2d_16">
    <path d="M 83.51777 188.548293 
L 83.542119 185.473006 
L 85.952679 98.765862 
L 88.387588 70.107109 
L 90.822497 55.507895 
L 93.257406 46.307375 
L 95.692315 40.089179 
L 98.127224 37.608591 
L 100.562134 37.063125 
L 105.431952 38.041257 
L 107.866861 39.625236 
L 110.30177 41.469062 
L 112.736679 43.779292 
L 115.171588 46.881874 
L 117.606497 49.437976 
L 120.041406 52.521154 
L 122.476315 56.582175 
L 124.911224 59.820508 
L 129.781043 67.252209 
L 134.650861 73.315468 
L 137.08577 77.27911 
L 139.520679 80.392189 
L 141.955588 84.292408 
L 144.390497 87.872037 
L 146.825406 91.25061 
L 149.260315 94.313299 
L 151.695224 99.008114 
L 156.565043 104.182221 
L 158.999952 107.315429 
L 161.434861 111.097345 
L 163.86977 115.244884 
L 166.304679 117.74741 
L 168.739588 121.943313 
L 173.609406 127.753169 
L 176.044315 131.875586 
L 180.914134 137.17328 
L 183.349043 139.519493 
L 185.783952 143.369321 
L 188.218861 146.351791 
L 190.65377 148.76577 
L 195.523588 154.911131 
L 197.958497 156.721725 
L 202.828315 159.582778 
L 205.263224 162.795916 
L 207.698134 165.472854 
L 212.567952 169.983048 
L 215.002861 173.129432 
L 219.872679 177.657364 
L 222.307588 179.353203 
L 229.612315 186.153282 
L 232.047224 188.566103 
L 234.482134 189.756803 
L 236.917043 192.647106 
L 241.786861 196.633337 
L 244.22177 198.303908 
L 246.656679 200.406638 
L 249.091588 201.289925 
L 251.526497 203.603702 
L 253.961406 204.916325 
L 256.396315 206.457009 
L 258.831224 208.207076 
L 261.266134 208.885179 
L 263.701043 211.630682 
L 266.135952 213.22458 
L 268.570861 214.491952 
L 271.00577 216.880882 
L 275.875588 220.999823 
L 278.310497 222.660113 
L 280.745406 225.075613 
L 285.615224 226.940362 
L 288.050134 228.291502 
L 290.485043 230.638728 
L 295.354861 233.10918 
L 297.78977 234.207352 
L 300.224679 235.89653 
L 302.659588 236.823982 
L 305.094497 237.049726 
L 307.529406 238.280391 
L 312.399224 242.136591 
L 314.834134 243.262999 
L 317.269043 244.882527 
L 319.703952 244.983526 
L 322.138861 247.077858 
L 324.57377 250.320028 
L 327.008679 252.114041 
L 329.443588 252.287948 
L 331.878497 253.635395 
L 334.313406 254.378442 
L 336.748315 255.98682 
L 339.183224 256.669341 
L 341.618134 257.623653 
L 344.053043 259.389068 
L 346.487952 260.977754 
L 348.922861 262.280747 
L 351.35777 262.32998 
L 353.792679 263.153246 
L 356.227588 263.648249 
L 358.662497 265.303761 
L 361.097406 266.468831 
L 365.967224 267.702826 
L 368.402134 268.782029 
L 370.837043 269.69529 
L 373.271952 270.78405 
L 378.14177 272.716711 
L 380.576679 274.2663 
L 383.011588 275.410229 
L 385.446497 275.839637 
L 387.881406 276.719304 
L 390.316315 278.189977 
L 392.751224 279.009986 
L 395.186134 280.705317 
L 397.621043 281.814711 
L 400.055952 282.681998 
L 402.490861 283.12404 
L 404.92577 284.884315 
L 407.360679 285.820563 
L 409.795588 286.44433 
L 412.230497 287.208047 
L 414.665406 288.309875 
L 417.100315 289.186791 
L 419.535224 289.390164 
L 421.970134 291.971064 
L 424.405043 292.563735 
L 426.839952 293.408179 
L 429.274861 293.65311 
L 431.70977 294.861367 
L 434.144679 294.927686 
L 436.579588 296.077697 
L 439.014497 296.910738 
L 441.449406 298.400416 
L 443.884315 299.085904 
L 446.319224 299.100095 
L 448.754134 300.371304 
L 451.189043 301.061318 
L 456.058861 302.705173 
L 458.49377 302.586074 
L 460.928679 303.316741 
L 463.363588 304.559352 
L 465.798497 304.518735 
L 468.233406 305.517718 
L 470.668315 305.537447 
L 473.103224 305.24589 
L 475.538134 305.48702 
L 477.973043 306.345691 
L 480.407952 307.557025 
L 482.842861 308.351875 
L 485.27777 310.162323 
L 487.712679 310.086267 
L 490.147588 311.179913 
L 492.582497 310.92014 
L 495.017406 311.676943 
L 497.452315 312.308385 
L 504.757043 312.507885 
L 507.191952 313.968675 
L 509.626861 314.27873 
L 512.06177 314.887076 
L 514.496679 314.831292 
L 519.366497 316.05421 
L 521.801406 316.294761 
L 524.236315 317.027635 
L 526.671224 318.472316 
L 529.106134 318.297686 
L 531.541043 319.169172 
L 533.975952 319.722493 
L 536.410861 319.905558 
L 538.84577 319.190964 
L 541.280679 320.227849 
L 543.715588 320.577363 
L 546.150497 321.740261 
L 548.585406 322.011582 
L 551.020315 322.150772 
L 553.455224 322.696926 
L 555.890134 322.188855 
L 558.325043 322.361639 
L 563.194861 323.383428 
L 565.62977 323.332748 
L 568.064679 323.037426 
L 570.499588 323.633427 
L 572.934497 323.505387 
L 575.369406 324.900799 
L 577.804315 325.700609 
L 580.239224 326.093961 
L 582.674134 326.326475 
L 585.109043 326.985357 
L 587.543952 327.232098 
L 589.978861 327.706032 
L 592.41377 328.369511 
L 594.848679 328.869944 
L 597.283588 329.044357 
L 599.718497 329.516915 
L 604.588315 329.787114 
L 607.023224 330.281791 
L 609.458134 331.258801 
L 611.893043 331.473034 
L 614.327952 331.44154 
L 616.762861 331.204609 
L 619.19777 331.46326 
L 621.632679 332.053614 
L 631.372315 333.859212 
L 633.807224 334.501007 
L 636.242134 333.953188 
L 638.677043 334.098532 
L 641.111952 334.576231 
L 643.546861 334.747893 
L 645.98177 333.705144 
L 648.416679 333.249889 
L 650.851588 334.762916 
L 653.286497 334.561932 
L 658.156315 335.330826 
L 660.591224 335.267222 
L 663.026134 335.647832 
L 665.461043 335.689824 
L 667.895952 335.942828 
L 670.330861 334.463793 
L 672.76577 335.748867 
L 677.635588 337.06815 
L 680.070497 338.218523 
L 682.505406 337.335815 
L 684.940315 337.536654 
L 687.375224 337.955311 
L 689.810134 339.028396 
L 692.245043 339.463125 
L 692.245043 339.463125 
" clip-path="url(#p84edf1aa2a)" style="fill: none; stroke: #c44e52; stroke-width: 2.5; stroke-linecap: round"/>
   </g>
   <g id="line2d_17">
    <path d="M 83.51777 188.548293 
L 83.542119 185.473006 
L 85.952679 98.765862 
L 88.387588 70.107109 
L 90.822497 55.507895 
L 93.257406 46.307375 
L 95.692315 40.089179 
L 98.127224 37.608591 
L 100.562134 37.063125 
L 105.431952 38.041257 
L 107.866861 39.625236 
L 110.30177 41.469062 
L 112.736679 43.779292 
L 115.171588 46.881874 
L 117.606497 49.437976 
L 120.041406 52.521154 
L 122.476315 56.582175 
L 124.911224 59.820508 
L 129.781043 67.252209 
L 134.650861 73.315468 
L 137.08577 77.27911 
L 139.520679 80.392189 
L 141.955588 84.292408 
L 144.390497 87.872037 
L 146.825406 91.25061 
L 149.260315 94.313299 
L 151.695224 99.008114 
L 156.565043 104.182221 
L 158.999952 107.315429 
L 161.434861 111.097345 
L 163.86977 115.244884 
L 166.304679 117.74741 
L 168.739588 121.943313 
L 173.609406 127.753169 
L 176.044315 131.875586 
L 180.914134 137.17328 
L 183.349043 139.519493 
L 185.783952 143.369321 
L 188.218861 146.351791 
L 190.65377 148.76577 
L 195.523588 154.911131 
L 197.958497 156.721725 
L 202.828315 159.582778 
L 205.263224 162.795916 
L 207.698134 165.472854 
L 212.567952 169.983048 
L 215.002861 173.129432 
L 219.872679 177.657364 
L 222.307588 179.353203 
L 229.612315 186.153282 
L 232.047224 188.566103 
L 234.482134 189.756803 
L 236.917043 192.647106 
L 241.786861 196.633337 
L 244.22177 198.303908 
L 246.656679 200.406638 
L 249.091588 201.289925 
L 251.526497 203.603702 
L 253.961406 204.916325 
L 256.396315 206.457009 
L 258.831224 208.207076 
L 261.266134 208.885179 
L 263.701043 211.630682 
L 266.135952 213.22458 
L 268.570861 214.491952 
L 271.00577 216.880882 
L 275.875588 220.999823 
L 278.310497 222.660113 
L 280.745406 225.075613 
L 285.615224 226.940362 
L 288.050134 228.291502 
L 290.485043 230.638728 
L 295.354861 233.10918 
L 297.78977 234.207352 
L 300.224679 235.89653 
L 302.659588 236.823982 
L 305.094497 237.049726 
L 307.529406 238.280391 
L 312.399224 242.136591 
L 314.834134 243.262999 
L 317.269043 244.882527 
L 319.703952 244.983526 
L 322.138861 247.077858 
L 324.57377 250.320028 
L 327.008679 252.114041 
L 329.443588 252.287948 
L 331.878497 253.635395 
L 334.313406 254.378442 
L 336.748315 255.98682 
L 339.183224 256.669341 
L 341.618134 257.623653 
L 344.053043 259.389068 
L 346.487952 260.977754 
L 348.922861 262.280747 
L 351.35777 262.32998 
L 353.792679 263.153246 
L 356.227588 263.648249 
L 358.662497 265.303761 
L 361.097406 266.468831 
L 365.967224 267.702826 
L 368.402134 268.782029 
L 370.837043 269.69529 
L 373.271952 270.78405 
L 378.14177 272.716711 
L 380.576679 274.2663 
L 383.011588 275.410229 
L 385.446497 275.839637 
L 387.881406 276.719304 
L 390.316315 278.189977 
L 392.751224 279.009986 
L 395.186134 280.705317 
L 397.621043 281.814711 
L 400.055952 282.681998 
L 402.490861 283.12404 
L 404.92577 284.884315 
L 407.360679 285.820563 
L 409.795588 286.44433 
L 412.230497 287.208047 
L 414.665406 288.309875 
L 417.100315 289.186791 
L 419.535224 289.390164 
L 421.970134 291.971064 
L 424.405043 292.563735 
L 426.839952 293.408179 
L 429.274861 293.65311 
L 431.70977 294.861367 
L 434.144679 294.927686 
L 436.579588 296.077697 
L 439.014497 296.910738 
L 441.449406 298.400416 
L 443.884315 299.085904 
L 446.319224 299.100095 
L 448.754134 300.371304 
L 451.189043 301.061318 
L 456.058861 302.705173 
L 458.49377 302.586074 
L 460.928679 303.316741 
L 463.363588 304.559352 
L 465.798497 304.518735 
L 468.233406 305.517718 
L 470.668315 305.537447 
L 473.103224 305.24589 
L 475.538134 305.48702 
L 477.973043 306.345691 
L 480.407952 307.557025 
L 482.842861 308.351875 
L 485.27777 310.162323 
L 487.712679 310.086267 
L 490.147588 311.179913 
L 492.582497 310.92014 
L 495.017406 311.676943 
L 497.452315 312.308385 
L 504.757043 312.507885 
L 507.191952 313.968675 
L 509.626861 314.27873 
L 512.06177 314.887076 
L 514.496679 314.831292 
L 519.366497 316.05421 
L 521.801406 316.294761 
L 524.236315 317.027635 
L 526.671224 318.472316 
L 529.106134 318.297686 
L 531.541043 319.169172 
L 533.975952 319.722493 
L 536.410861 319.905558 
L 538.84577 319.190964 
L 541.280679 320.227849 
L 543.715588 320.577363 
L 546.150497 321.740261 
L 548.585406 322.011582 
L 551.020315 322.150772 
L 553.455224 322.696926 
L 555.890134 322.188855 
L 558.325043 322.361639 
L 563.194861 323.383428 
L 565.62977 323.332748 
L 568.064679 323.037426 
L 570.499588 323.633427 
L 572.934497 323.505387 
L 575.369406 324.900799 
L 577.804315 325.700609 
L 580.239224 326.093961 
L 582.674134 326.326475 
L 585.109043 326.985357 
L 587.543952 327.232098 
L 589.978861 327.706032 
L 592.41377 328.369511 
L 594.848679 328.869944 
L 597.283588 329.044357 
L 599.718497 329.516915 
L 604.588315 329.787114 
L 607.023224 330.281791 
L 609.458134 331.258801 
L 611.893043 331.473034 
L 614.327952 331.44154 
L 616.762861 331.204609 
L 619.19777 331.46326 
L 621.632679 332.053614 
L 631.372315 333.859212 
L 633.807224 334.501007 
L 636.242134 333.953188 
L 638.677043 334.098532 
L 641.111952 334.576231 
L 643.546861 334.747893 
L 645.98177 333.705144 
L 648.416679 333.249889 
L 650.851588 334.762916 
L 653.286497 334.561932 
L 658.156315 335.330826 
L 660.591224 335.267222 
L 663.026134 335.647832 
L 665.461043 335.689824 
L 667.895952 335.942828 
L 670.330861 334.463793 
L 672.76577 335.748867 
L 677.635588 337.06815 
L 680.070497 338.218523 
L 682.505406 337.335815 
L 684.940315 337.536654 
L 687.375224 337.955311 
L 689.810134 339.028396 
L 692.245043 339.463125 
L 692.245043 339.463125 
" clip-path="url(#p84edf1aa2a)" style="fill: none; stroke: #8172b3; stroke-width: 2.5; stroke-linecap: round"/>
   </g>
   <g id="line2d_18">
    <path d="M 83.51777 188.548293 
L 83.542119 185.473006 
L 85.952679 98.765862 
L 88.387588 70.107109 
L 90.822497 55.507895 
L 93.257406 46.307375 
L 95.692315 40.089179 
L 98.127224 37.608591 
L 100.562134 37.063125 
L 105.431952 38.041257 
L 107.866861 39.625236 
L 110.30177 41.469062 
L 112.736679 43.779292 
L 115.171588 46.881874 
L 117.606497 49.437976 
L 120.041406 52.521154 
L 122.476315 56.582175 
L 124.911224 59.820508 
L 129.781043 67.252209 
L 134.650861 73.315468 
L 137.08577 77.27911 
L 139.520679 80.392189 
L 141.955588 84.292408 
L 144.390497 87.872037 
L 146.825406 91.25061 
L 149.260315 94.313299 
L 151.695224 99.008114 
L 156.565043 104.182221 
L 158.999952 107.315429 
L 161.434861 111.097345 
L 163.86977 115.244884 
L 166.304679 117.74741 
L 168.739588 121.943313 
L 173.609406 127.753169 
L 176.044315 131.875586 
L 180.914134 137.17328 
L 183.349043 139.519493 
L 185.783952 143.369321 
L 188.218861 146.351791 
L 190.65377 148.76577 
L 195.523588 154.911131 
L 197.958497 156.721725 
L 202.828315 159.582778 
L 205.263224 162.795916 
L 207.698134 165.472854 
L 212.567952 169.983048 
L 215.002861 173.129432 
L 219.872679 177.657364 
L 222.307588 179.353203 
L 229.612315 186.153282 
L 232.047224 188.566103 
L 234.482134 189.756803 
L 236.917043 192.647106 
L 241.786861 196.633337 
L 244.22177 198.303908 
L 246.656679 200.406638 
L 249.091588 201.289925 
L 251.526497 203.603702 
L 253.961406 204.916325 
L 256.396315 206.457009 
L 258.831224 208.207076 
L 261.266134 208.885179 
L 263.701043 211.630682 
L 266.135952 213.22458 
L 268.570861 214.491952 
L 271.00577 216.880882 
L 275.875588 220.999823 
L 278.310497 222.660113 
L 280.745406 225.075613 
L 285.615224 226.940362 
L 288.050134 228.291502 
L 290.485043 230.638728 
L 295.354861 233.10918 
L 297.78977 234.207352 
L 300.224679 235.89653 
L 302.659588 236.823982 
L 305.094497 237.049726 
L 307.529406 238.280391 
L 312.399224 242.136591 
L 314.834134 243.262999 
L 317.269043 244.882527 
L 319.703952 244.983526 
L 322.138861 247.077858 
L 324.57377 250.320028 
L 327.008679 252.114041 
L 329.443588 252.287948 
L 331.878497 253.635395 
L 334.313406 254.378442 
L 336.748315 255.98682 
L 339.183224 256.669341 
L 341.618134 257.623653 
L 344.053043 259.389068 
L 346.487952 260.977754 
L 348.922861 262.280747 
L 351.35777 262.32998 
L 353.792679 263.153246 
L 356.227588 263.648249 
L 358.662497 265.303761 
L 361.097406 266.468831 
L 365.967224 267.702826 
L 368.402134 268.782029 
L 370.837043 269.69529 
L 373.271952 270.78405 
L 378.14177 272.716711 
L 380.576679 274.2663 
L 383.011588 275.410229 
L 385.446497 275.839637 
L 387.881406 276.719304 
L 390.316315 278.189977 
L 392.751224 279.009986 
L 395.186134 280.705317 
L 397.621043 281.814711 
L 400.055952 282.681998 
L 402.490861 283.12404 
L 404.92577 284.884315 
L 407.360679 285.820563 
L 409.795588 286.44433 
L 412.230497 287.208047 
L 414.665406 288.309875 
L 417.100315 289.186791 
L 419.535224 289.390164 
L 421.970134 291.971064 
L 424.405043 292.563735 
L 426.839952 293.408179 
L 429.274861 293.65311 
L 431.70977 294.861367 
L 434.144679 294.927686 
L 436.579588 296.077697 
L 439.014497 296.910738 
L 441.449406 298.400416 
L 443.884315 299.085904 
L 446.319224 299.100095 
L 448.754134 300.371304 
L 451.189043 301.061318 
L 456.058861 302.705173 
L 458.49377 302.586074 
L 460.928679 303.316741 
L 463.363588 304.559352 
L 465.798497 304.518735 
L 468.233406 305.517718 
L 470.668315 305.537447 
L 473.103224 305.24589 
L 475.538134 305.48702 
L 477.973043 306.345691 
L 480.407952 307.557025 
L 482.842861 308.351875 
L 485.27777 310.162323 
L 487.712679 310.086267 
L 490.147588 311.179913 
L 492.582497 310.92014 
L 495.017406 311.676943 
L 497.452315 312.308385 
L 504.757043 312.507885 
L 507.191952 313.968675 
L 509.626861 314.27873 
L 512.06177 314.887076 
L 514.496679 314.831292 
L 519.366497 316.05421 
L 521.801406 316.294761 
L 524.236315 317.027635 
L 526.671224 318.472316 
L 529.106134 318.297686 
L 531.541043 319.169172 
L 533.975952 319.722493 
L 536.410861 319.905558 
L 538.84577 319.190964 
L 541.280679 320.227849 
L 543.715588 320.577363 
L 546.150497 321.740261 
L 548.585406 322.011582 
L 551.020315 322.150772 
L 553.455224 322.696926 
L 555.890134 322.188855 
L 558.325043 322.361639 
L 563.194861 323.383428 
L 565.62977 323.332748 
L 568.064679 323.037426 
L 570.499588 323.633427 
L 572.934497 323.505387 
L 575.369406 324.900799 
L 577.804315 325.700609 
L 580.239224 326.093961 
L 582.674134 326.326475 
L 585.109043 326.985357 
L 587.543952 327.232098 
L 589.978861 327.706032 
L 592.41377 328.369511 
L 594.848679 328.869944 
L 597.283588 329.044357 
L 599.718497 329.516915 
L 604.588315 329.787114 
L 607.023224 330.281791 
L 609.458134 331.258801 
L 611.893043 331.473034 
L 614.327952 331.44154 
L 616.762861 331.204609 
L 619.19777 331.46326 
L 621.632679 332.053614 
L 631.372315 333.859212 
L 633.807224 334.501007 
L 636.242134 333.953188 
L 638.677043 334.098532 
L 641.111952 334.576231 
L 643.546861 334.747893 
L 645.98177 333.705144 
L 648.416679 333.249889 
L 650.851588 334.762916 
L 653.286497 334.561932 
L 658.156315 335.330826 
L 660.591224 335.267222 
L 663.026134 335.647832 
L 665.461043 335.689824 
L 667.895952 335.942828 
L 670.330861 334.463793 
L 672.76577 335.748867 
L 677.635588 337.06815 
L 680.070497 338.218523 
L 682.505406 337.335815 
L 684.940315 337.536654 
L 687.375224 337.955311 
L 689.810134 339.028396 
L 692.245043 339.463125 
L 692.245043 339.463125 
" clip-path="url(#p84edf1aa2a)" style="fill: none; stroke: #937860; stroke-width: 2.5; stroke-linecap: round"/>
   </g>
   <g id="line2d_19"/>
   <g id="line2d_20"/>
   <g id="line2d_21"/>
   <g id="line2d_22"/>
   <g id="line2d_23"/>
   <g id="line2d_24"/>
   <g id="patch_3">
    <path d="M 53.081406 354.583125 
L 53.081406 21.943125 
" style="fill: none; stroke: #262626; stroke-width: 1.25; stroke-linejoin: miter; stroke-linecap: square"/>
   </g>
   <g id="patch_4">
    <path d="M 53.081406 354.583125 
L 722.681406 354.583125 
" style="fill: none; stroke: #262626; stroke-width: 1.25; stroke-linejoin: miter; stroke-linecap: square"/>
   </g>
   <g id="text_15">
    <!-- Mean Standard Beliefs Comparison Across Ops -->
    <g style="fill: #262626" transform="translate(260.826719 15.943125) scale(0.12 -0.12)">
     <defs>
      <path id="ArialMT-43" d="M 3763 1606 
L 4369 1453 
Q 4178 706 3683 314 
Q 3188 -78 2472 -78 
Q 1731 -78 1267 223 
Q 803 525 561 1097 
Q 319 1669 319 2325 
Q 319 3041 592 3573 
Q 866 4106 1370 4382 
Q 1875 4659 2481 4659 
Q 3169 4659 3637 4309 
Q 4106 3959 4291 3325 
L 3694 3184 
Q 3534 3684 3231 3912 
Q 2928 4141 2469 4141 
Q 1941 4141 1586 3887 
Q 1231 3634 1087 3207 
Q 944 2781 944 2328 
Q 944 1744 1114 1308 
Q 1284 872 1643 656 
Q 2003 441 2422 441 
Q 2931 441 3284 734 
Q 3638 1028 3763 1606 
z
" transform="scale(0.015625)"/>
      <path id="ArialMT-6d" d="M 422 0 
L 422 3319 
L 925 3319 
L 925 2853 
Q 1081 3097 1340 3245 
Q 1600 3394 1931 3394 
Q 2300 3394 2536 3241 
Q 2772 3088 2869 2813 
Q 3263 3394 3894 3394 
Q 4388 3394 4653 3120 
Q 4919 2847 4919 2278 
L 4919 0 
L 4359 0 
L 4359 2091 
Q 4359 2428 4304 2576 
Q 4250 2725 4106 2815 
Q 3963 2906 3769 2906 
Q 3419 2906 3187 2673 
Q 2956 2441 2956 1928 
L 2956 0 
L 2394 0 
L 2394 2156 
Q 2394 2531 2256 2718 
Q 2119 2906 1806 2906 
Q 1569 2906 1367 2781 
Q 1166 2656 1075 2415 
Q 984 2175 984 1722 
L 984 0 
L 422 0 
z
" transform="scale(0.015625)"/>
      <path id="ArialMT-70" d="M 422 -1272 
L 422 3319 
L 934 3319 
L 934 2888 
Q 1116 3141 1344 3267 
Q 1572 3394 1897 3394 
Q 2322 3394 2647 3175 
Q 2972 2956 3137 2557 
Q 3303 2159 3303 1684 
Q 3303 1175 3120 767 
Q 2938 359 2589 142 
Q 2241 -75 1856 -75 
Q 1575 -75 1351 44 
Q 1128 163 984 344 
L 984 -1272 
L 422 -1272 
z
M 931 1641 
Q 931 1000 1190 694 
Q 1450 388 1819 388 
Q 2194 388 2461 705 
Q 2728 1022 2728 1688 
Q 2728 2322 2467 2637 
Q 2206 2953 1844 2953 
Q 1484 2953 1207 2617 
Q 931 2281 931 1641 
z
" transform="scale(0.015625)"/>
      <path id="ArialMT-41" d="M -9 0 
L 1750 4581 
L 2403 4581 
L 4278 0 
L 3588 0 
L 3053 1388 
L 1138 1388 
L 634 0 
L -9 0 
z
M 1313 1881 
L 2866 1881 
L 2388 3150 
Q 2169 3728 2063 4100 
Q 1975 3659 1816 3225 
L 1313 1881 
z
" transform="scale(0.015625)"/>
      <path id="ArialMT-63" d="M 2588 1216 
L 3141 1144 
Q 3050 572 2676 248 
Q 2303 -75 1759 -75 
Q 1078 -75 664 370 
Q 250 816 250 1647 
Q 250 2184 428 2587 
Q 606 2991 970 3192 
Q 1334 3394 1763 3394 
Q 2303 3394 2647 3120 
Q 2991 2847 3088 2344 
L 2541 2259 
Q 2463 2594 2264 2762 
Q 2066 2931 1784 2931 
Q 1359 2931 1093 2626 
Q 828 2322 828 1663 
Q 828 994 1084 691 
Q 1341 388 1753 388 
Q 2084 388 2306 591 
Q 2528 794 2588 1216 
z
" transform="scale(0.015625)"/>
      <path id="ArialMT-4f" d="M 309 2231 
Q 309 3372 921 4017 
Q 1534 4663 2503 4663 
Q 3138 4663 3647 4359 
Q 4156 4056 4423 3514 
Q 4691 2972 4691 2284 
Q 4691 1588 4409 1038 
Q 4128 488 3612 205 
Q 3097 -78 2500 -78 
Q 1853 -78 1343 234 
Q 834 547 571 1087 
Q 309 1628 309 2231 
z
M 934 2222 
Q 934 1394 1379 917 
Q 1825 441 2497 441 
Q 3181 441 3623 922 
Q 4066 1403 4066 2288 
Q 4066 2847 3877 3264 
Q 3688 3681 3323 3911 
Q 2959 4141 2506 4141 
Q 1863 4141 1398 3698 
Q 934 3256 934 2222 
z
" transform="scale(0.015625)"/>
     </defs>
     <use xlink:href="#ArialMT-4d"/>
     <use xlink:href="#ArialMT-65" x="83.300781"/>
     <use xlink:href="#ArialMT-61" x="138.916016"/>
     <use xlink:href="#ArialMT-6e" x="194.53125"/>
     <use xlink:href="#ArialMT-20" x="250.146484"/>
     <use xlink:href="#ArialMT-53" x="277.929688"/>
     <use xlink:href="#ArialMT-74" x="344.628906"/>
     <use xlink:href="#ArialMT-61" x="372.412109"/>
     <use xlink:href="#ArialMT-6e" x="428.027344"/>
     <use xlink:href="#ArialMT-64" x="483.642578"/>
     <use xlink:href="#ArialMT-61" x="539.257812"/>
     <use xlink:href="#ArialMT-72" x="594.873047"/>
     <use xlink:href="#ArialMT-64" x="628.173828"/>
     <use xlink:href="#ArialMT-20" x="683.789062"/>
     <use xlink:href="#ArialMT-42" x="711.572266"/>
     <use xlink:href="#ArialMT-65" x="778.271484"/>
     <use xlink:href="#ArialMT-6c" x="833.886719"/>
     <use xlink:href="#ArialMT-69" x="856.103516"/>
     <use xlink:href="#ArialMT-65" x="878.320312"/>
     <use xlink:href="#ArialMT-66" x="933.935547"/>
     <use xlink:href="#ArialMT-73" x="961.71875"/>
     <use xlink:href="#ArialMT-20" x="1011.71875"/>
     <use xlink:href="#ArialMT-43" x="1039.501953"/>
     <use xlink:href="#ArialMT-6f" x="1111.71875"/>
     <use xlink:href="#ArialMT-6d" x="1167.333984"/>
     <use xlink:href="#ArialMT-70" x="1250.634766"/>
     <use xlink:href="#ArialMT-61" x="1306.25"/>
     <use xlink:href="#ArialMT-72" x="1361.865234"/>
     <use xlink:href="#ArialMT-69" x="1395.166016"/>
     <use xlink:href="#ArialMT-73" x="1417.382812"/>
     <use xlink:href="#ArialMT-6f" x="1467.382812"/>
     <use xlink:href="#ArialMT-6e" x="1522.998047"/>
     <use xlink:href="#ArialMT-20" x="1578.613281"/>
     <use xlink:href="#ArialMT-41" x="1600.896484"/>
     <use xlink:href="#ArialMT-63" x="1667.595703"/>
     <use xlink:href="#ArialMT-72" x="1717.595703"/>
     <use xlink:href="#ArialMT-6f" x="1750.896484"/>
     <use xlink:href="#ArialMT-73" x="1806.511719"/>
     <use xlink:href="#ArialMT-73" x="1856.511719"/>
     <use xlink:href="#ArialMT-20" x="1906.511719"/>
     <use xlink:href="#ArialMT-4f" x="1934.294922"/>
     <use xlink:href="#ArialMT-70" x="2012.078125"/>
     <use xlink:href="#ArialMT-73" x="2067.693359"/>
    </g>
   </g>
   <g id="legend_1">
    <g id="patch_5">
     <path d="M 434.608594 141.937813 
L 714.981406 141.937813 
Q 717.181406 141.937813 717.181406 139.737813 
L 717.181406 29.643125 
Q 717.181406 27.443125 714.981406 27.443125 
L 434.608594 27.443125 
Q 432.408594 27.443125 432.408594 29.643125 
L 432.408594 139.737813 
Q 432.408594 141.937813 434.608594 141.937813 
z
" style="fill: #ffffff; opacity: 0.8; stroke: #cccccc; stroke-linejoin: miter"/>
    </g>
    <g id="text_16">
     <!-- op -->
     <g style="fill: #262626" transform="translate(568.121875 40.4325) scale(0.12 -0.12)">
      <use xlink:href="#ArialMT-6f"/>
      <use xlink:href="#ArialMT-70" x="55.615234"/>
     </g>
    </g>
    <g id="line2d_25">
     <path d="M 436.808594 52.482031 
L 447.808594 52.482031 
L 458.808594 52.482031 
" style="fill: none; stroke: #4c72b0; stroke-width: 2.5; stroke-linecap: round"/>
    </g>
    <g id="text_17">
     <!-- BalaGoyalOp -->
     <g style="fill: #262626" transform="translate(467.608594 56.332031) scale(0.11 -0.11)">
      <defs>
       <path id="ArialMT-47" d="M 2638 1797 
L 2638 2334 
L 4578 2338 
L 4578 638 
Q 4131 281 3656 101 
Q 3181 -78 2681 -78 
Q 2006 -78 1454 211 
Q 903 500 622 1047 
Q 341 1594 341 2269 
Q 341 2938 620 3517 
Q 900 4097 1425 4378 
Q 1950 4659 2634 4659 
Q 3131 4659 3532 4498 
Q 3934 4338 4162 4050 
Q 4391 3763 4509 3300 
L 3963 3150 
Q 3859 3500 3706 3700 
Q 3553 3900 3268 4020 
Q 2984 4141 2638 4141 
Q 2222 4141 1919 4014 
Q 1616 3888 1430 3681 
Q 1244 3475 1141 3228 
Q 966 2803 966 2306 
Q 966 1694 1177 1281 
Q 1388 869 1791 669 
Q 2194 469 2647 469 
Q 3041 469 3416 620 
Q 3791 772 3984 944 
L 3984 1797 
L 2638 1797 
z
" transform="scale(0.015625)"/>
       <path id="ArialMT-79" d="M 397 -1278 
L 334 -750 
Q 519 -800 656 -800 
Q 844 -800 956 -737 
Q 1069 -675 1141 -563 
Q 1194 -478 1313 -144 
Q 1328 -97 1363 -6 
L 103 3319 
L 709 3319 
L 1400 1397 
Q 1534 1031 1641 628 
Q 1738 1016 1872 1384 
L 2581 3319 
L 3144 3319 
L 1881 -56 
Q 1678 -603 1566 -809 
Q 1416 -1088 1222 -1217 
Q 1028 -1347 759 -1347 
Q 597 -1347 397 -1278 
z
" transform="scale(0.015625)"/>
      </defs>
      <use xlink:href="#ArialMT-42"/>
      <use xlink:href="#ArialMT-61" x="66.699219"/>
      <use xlink:href="#ArialMT-6c" x="122.314453"/>
      <use xlink:href="#ArialMT-61" x="144.53125"/>
      <use xlink:href="#ArialMT-47" x="200.146484"/>
      <use xlink:href="#ArialMT-6f" x="277.929688"/>
      <use xlink:href="#ArialMT-79" x="333.544922"/>
      <use xlink:href="#ArialMT-61" x="383.544922"/>
      <use xlink:href="#ArialMT-6c" x="439.160156"/>
      <use xlink:href="#ArialMT-4f" x="461.376953"/>
      <use xlink:href="#ArialMT-70" x="539.160156"/>
     </g>
    </g>
    <g id="line2d_26">
     <path d="M 436.808594 68.311719 
L 447.808594 68.311719 
L 458.808594 68.311719 
" style="fill: none; stroke: #dd8452; stroke-width: 2.5; stroke-linecap: round"/>
    </g>
    <g id="text_18">
     <!-- UnreliableNetworkBasicGullibleBinomialOp -->
     <g style="fill: #262626" transform="translate(467.608594 72.161719) scale(0.11 -0.11)">
      <defs>
       <path id="ArialMT-55" d="M 3500 4581 
L 4106 4581 
L 4106 1934 
Q 4106 1244 3950 837 
Q 3794 431 3386 176 
Q 2978 -78 2316 -78 
Q 1672 -78 1262 144 
Q 853 366 678 786 
Q 503 1206 503 1934 
L 503 4581 
L 1109 4581 
L 1109 1938 
Q 1109 1341 1220 1058 
Q 1331 775 1601 622 
Q 1872 469 2263 469 
Q 2931 469 3215 772 
Q 3500 1075 3500 1938 
L 3500 4581 
z
" transform="scale(0.015625)"/>
       <path id="ArialMT-62" d="M 941 0 
L 419 0 
L 419 4581 
L 981 4581 
L 981 2947 
Q 1338 3394 1891 3394 
Q 2197 3394 2470 3270 
Q 2744 3147 2920 2923 
Q 3097 2700 3197 2384 
Q 3297 2069 3297 1709 
Q 3297 856 2875 390 
Q 2453 -75 1863 -75 
Q 1275 -75 941 416 
L 941 0 
z
M 934 1684 
Q 934 1088 1097 822 
Q 1363 388 1816 388 
Q 2184 388 2453 708 
Q 2722 1028 2722 1663 
Q 2722 2313 2464 2622 
Q 2206 2931 1841 2931 
Q 1472 2931 1203 2611 
Q 934 2291 934 1684 
z
" transform="scale(0.015625)"/>
       <path id="ArialMT-4e" d="M 488 0 
L 488 4581 
L 1109 4581 
L 3516 984 
L 3516 4581 
L 4097 4581 
L 4097 0 
L 3475 0 
L 1069 3600 
L 1069 0 
L 488 0 
z
" transform="scale(0.015625)"/>
       <path id="ArialMT-77" d="M 1034 0 
L 19 3319 
L 600 3319 
L 1128 1403 
L 1325 691 
Q 1338 744 1497 1375 
L 2025 3319 
L 2603 3319 
L 3100 1394 
L 3266 759 
L 3456 1400 
L 4025 3319 
L 4572 3319 
L 3534 0 
L 2950 0 
L 2422 1988 
L 2294 2553 
L 1622 0 
L 1034 0 
z
" transform="scale(0.015625)"/>
       <path id="ArialMT-6b" d="M 425 0 
L 425 4581 
L 988 4581 
L 988 1969 
L 2319 3319 
L 3047 3319 
L 1778 2088 
L 3175 0 
L 2481 0 
L 1384 1697 
L 988 1316 
L 988 0 
L 425 0 
z
" transform="scale(0.015625)"/>
       <path id="ArialMT-75" d="M 2597 0 
L 2597 488 
Q 2209 -75 1544 -75 
Q 1250 -75 995 37 
Q 741 150 617 320 
Q 494 491 444 738 
Q 409 903 409 1263 
L 409 3319 
L 972 3319 
L 972 1478 
Q 972 1038 1006 884 
Q 1059 663 1231 536 
Q 1403 409 1656 409 
Q 1909 409 2131 539 
Q 2353 669 2445 892 
Q 2538 1116 2538 1541 
L 2538 3319 
L 3100 3319 
L 3100 0 
L 2597 0 
z
" transform="scale(0.015625)"/>
      </defs>
      <use xlink:href="#ArialMT-55"/>
      <use xlink:href="#ArialMT-6e" x="72.216797"/>
      <use xlink:href="#ArialMT-72" x="127.832031"/>
      <use xlink:href="#ArialMT-65" x="161.132812"/>
      <use xlink:href="#ArialMT-6c" x="216.748047"/>
      <use xlink:href="#ArialMT-69" x="238.964844"/>
      <use xlink:href="#ArialMT-61" x="261.181641"/>
      <use xlink:href="#ArialMT-62" x="316.796875"/>
      <use xlink:href="#ArialMT-6c" x="372.412109"/>
      <use xlink:href="#ArialMT-65" x="394.628906"/>
      <use xlink:href="#ArialMT-4e" x="450.244141"/>
      <use xlink:href="#ArialMT-65" x="522.460938"/>
      <use xlink:href="#ArialMT-74" x="578.076172"/>
      <use xlink:href="#ArialMT-77" x="605.859375"/>
      <use xlink:href="#ArialMT-6f" x="678.076172"/>
      <use xlink:href="#ArialMT-72" x="733.691406"/>
      <use xlink:href="#ArialMT-6b" x="766.992188"/>
      <use xlink:href="#ArialMT-42" x="816.992188"/>
      <use xlink:href="#ArialMT-61" x="883.691406"/>
      <use xlink:href="#ArialMT-73" x="939.306641"/>
      <use xlink:href="#ArialMT-69" x="989.306641"/>
      <use xlink:href="#ArialMT-63" x="1011.523438"/>
      <use xlink:href="#ArialMT-47" x="1061.523438"/>
      <use xlink:href="#ArialMT-75" x="1139.306641"/>
      <use xlink:href="#ArialMT-6c" x="1194.921875"/>
      <use xlink:href="#ArialMT-6c" x="1217.138672"/>
      <use xlink:href="#ArialMT-69" x="1239.355469"/>
      <use xlink:href="#ArialMT-62" x="1261.572266"/>
      <use xlink:href="#ArialMT-6c" x="1317.1875"/>
      <use xlink:href="#ArialMT-65" x="1339.404297"/>
      <use xlink:href="#ArialMT-42" x="1395.019531"/>
      <use xlink:href="#ArialMT-69" x="1461.71875"/>
      <use xlink:href="#ArialMT-6e" x="1483.935547"/>
      <use xlink:href="#ArialMT-6f" x="1539.550781"/>
      <use xlink:href="#ArialMT-6d" x="1595.166016"/>
      <use xlink:href="#ArialMT-69" x="1678.466797"/>
      <use xlink:href="#ArialMT-61" x="1700.683594"/>
      <use xlink:href="#ArialMT-6c" x="1756.298828"/>
      <use xlink:href="#ArialMT-4f" x="1778.515625"/>
      <use xlink:href="#ArialMT-70" x="1856.298828"/>
     </g>
    </g>
    <g id="line2d_27">
     <path d="M 436.808594 84.0125 
L 447.808594 84.0125 
L 458.808594 84.0125 
" style="fill: none; stroke: #55a868; stroke-width: 2.5; stroke-linecap: round"/>
    </g>
    <g id="text_19">
     <!-- UnreliableNetworkBasicGullibleNegativeEpsOp -->
     <g style="fill: #262626" transform="translate(467.608594 87.8625) scale(0.11 -0.11)">
      <defs>
       <path id="ArialMT-67" d="M 319 -275 
L 866 -356 
Q 900 -609 1056 -725 
Q 1266 -881 1628 -881 
Q 2019 -881 2231 -725 
Q 2444 -569 2519 -288 
Q 2563 -116 2559 434 
Q 2191 0 1641 0 
Q 956 0 581 494 
Q 206 988 206 1678 
Q 206 2153 378 2554 
Q 550 2956 876 3175 
Q 1203 3394 1644 3394 
Q 2231 3394 2613 2919 
L 2613 3319 
L 3131 3319 
L 3131 450 
Q 3131 -325 2973 -648 
Q 2816 -972 2473 -1159 
Q 2131 -1347 1631 -1347 
Q 1038 -1347 672 -1080 
Q 306 -813 319 -275 
z
M 784 1719 
Q 784 1066 1043 766 
Q 1303 466 1694 466 
Q 2081 466 2343 764 
Q 2606 1063 2606 1700 
Q 2606 2309 2336 2618 
Q 2066 2928 1684 2928 
Q 1309 2928 1046 2623 
Q 784 2319 784 1719 
z
" transform="scale(0.015625)"/>
       <path id="ArialMT-76" d="M 1344 0 
L 81 3319 
L 675 3319 
L 1388 1331 
Q 1503 1009 1600 663 
Q 1675 925 1809 1294 
L 2547 3319 
L 3125 3319 
L 1869 0 
L 1344 0 
z
" transform="scale(0.015625)"/>
       <path id="ArialMT-45" d="M 506 0 
L 506 4581 
L 3819 4581 
L 3819 4041 
L 1113 4041 
L 1113 2638 
L 3647 2638 
L 3647 2100 
L 1113 2100 
L 1113 541 
L 3925 541 
L 3925 0 
L 506 0 
z
" transform="scale(0.015625)"/>
      </defs>
      <use xlink:href="#ArialMT-55"/>
      <use xlink:href="#ArialMT-6e" x="72.216797"/>
      <use xlink:href="#ArialMT-72" x="127.832031"/>
      <use xlink:href="#ArialMT-65" x="161.132812"/>
      <use xlink:href="#ArialMT-6c" x="216.748047"/>
      <use xlink:href="#ArialMT-69" x="238.964844"/>
      <use xlink:href="#ArialMT-61" x="261.181641"/>
      <use xlink:href="#ArialMT-62" x="316.796875"/>
      <use xlink:href="#ArialMT-6c" x="372.412109"/>
      <use xlink:href="#ArialMT-65" x="394.628906"/>
      <use xlink:href="#ArialMT-4e" x="450.244141"/>
      <use xlink:href="#ArialMT-65" x="522.460938"/>
      <use xlink:href="#ArialMT-74" x="578.076172"/>
      <use xlink:href="#ArialMT-77" x="605.859375"/>
      <use xlink:href="#ArialMT-6f" x="678.076172"/>
      <use xlink:href="#ArialMT-72" x="733.691406"/>
      <use xlink:href="#ArialMT-6b" x="766.992188"/>
      <use xlink:href="#ArialMT-42" x="816.992188"/>
      <use xlink:href="#ArialMT-61" x="883.691406"/>
      <use xlink:href="#ArialMT-73" x="939.306641"/>
      <use xlink:href="#ArialMT-69" x="989.306641"/>
      <use xlink:href="#ArialMT-63" x="1011.523438"/>
      <use xlink:href="#ArialMT-47" x="1061.523438"/>
      <use xlink:href="#ArialMT-75" x="1139.306641"/>
      <use xlink:href="#ArialMT-6c" x="1194.921875"/>
      <use xlink:href="#ArialMT-6c" x="1217.138672"/>
      <use xlink:href="#ArialMT-69" x="1239.355469"/>
      <use xlink:href="#ArialMT-62" x="1261.572266"/>
      <use xlink:href="#ArialMT-6c" x="1317.1875"/>
      <use xlink:href="#ArialMT-65" x="1339.404297"/>
      <use xlink:href="#ArialMT-4e" x="1395.019531"/>
      <use xlink:href="#ArialMT-65" x="1467.236328"/>
      <use xlink:href="#ArialMT-67" x="1522.851562"/>
      <use xlink:href="#ArialMT-61" x="1578.466797"/>
      <use xlink:href="#ArialMT-74" x="1634.082031"/>
      <use xlink:href="#ArialMT-69" x="1661.865234"/>
      <use xlink:href="#ArialMT-76" x="1684.082031"/>
      <use xlink:href="#ArialMT-65" x="1734.082031"/>
      <use xlink:href="#ArialMT-45" x="1789.697266"/>
      <use xlink:href="#ArialMT-70" x="1856.396484"/>
      <use xlink:href="#ArialMT-73" x="1912.011719"/>
      <use xlink:href="#ArialMT-4f" x="1962.011719"/>
      <use xlink:href="#ArialMT-70" x="2039.794922"/>
     </g>
    </g>
    <g id="line2d_28">
     <path d="M 436.808594 99.842188 
L 447.808594 99.842188 
L 458.808594 99.842188 
" style="fill: none; stroke: #c44e52; stroke-width: 2.5; stroke-linecap: round"/>
    </g>
    <g id="text_20">
     <!-- UnreliableNetworkIdealOp -->
     <g style="fill: #262626" transform="translate(467.608594 103.692188) scale(0.11 -0.11)">
      <use xlink:href="#ArialMT-55"/>
      <use xlink:href="#ArialMT-6e" x="72.216797"/>
      <use xlink:href="#ArialMT-72" x="127.832031"/>
      <use xlink:href="#ArialMT-65" x="161.132812"/>
      <use xlink:href="#ArialMT-6c" x="216.748047"/>
      <use xlink:href="#ArialMT-69" x="238.964844"/>
      <use xlink:href="#ArialMT-61" x="261.181641"/>
      <use xlink:href="#ArialMT-62" x="316.796875"/>
      <use xlink:href="#ArialMT-6c" x="372.412109"/>
      <use xlink:href="#ArialMT-65" x="394.628906"/>
      <use xlink:href="#ArialMT-4e" x="450.244141"/>
      <use xlink:href="#ArialMT-65" x="522.460938"/>
      <use xlink:href="#ArialMT-74" x="578.076172"/>
      <use xlink:href="#ArialMT-77" x="605.859375"/>
      <use xlink:href="#ArialMT-6f" x="678.076172"/>
      <use xlink:href="#ArialMT-72" x="733.691406"/>
      <use xlink:href="#ArialMT-6b" x="766.992188"/>
      <use xlink:href="#ArialMT-49" x="816.992188"/>
      <use xlink:href="#ArialMT-64" x="844.775391"/>
      <use xlink:href="#ArialMT-65" x="900.390625"/>
      <use xlink:href="#ArialMT-61" x="956.005859"/>
      <use xlink:href="#ArialMT-6c" x="1011.621094"/>
      <use xlink:href="#ArialMT-4f" x="1033.837891"/>
      <use xlink:href="#ArialMT-70" x="1111.621094"/>
     </g>
    </g>
    <g id="line2d_29">
     <path d="M 436.808594 115.542969 
L 447.808594 115.542969 
L 458.808594 115.542969 
" style="fill: none; stroke: #8172b3; stroke-width: 2.5; stroke-linecap: round"/>
    </g>
    <g id="text_21">
     <!-- UnreliableNetworkModifiedAlignedBinomialOp -->
     <g style="fill: #262626" transform="translate(467.608594 119.392969) scale(0.11 -0.11)">
      <use xlink:href="#ArialMT-55"/>
      <use xlink:href="#ArialMT-6e" x="72.216797"/>
      <use xlink:href="#ArialMT-72" x="127.832031"/>
      <use xlink:href="#ArialMT-65" x="161.132812"/>
      <use xlink:href="#ArialMT-6c" x="216.748047"/>
      <use xlink:href="#ArialMT-69" x="238.964844"/>
      <use xlink:href="#ArialMT-61" x="261.181641"/>
      <use xlink:href="#ArialMT-62" x="316.796875"/>
      <use xlink:href="#ArialMT-6c" x="372.412109"/>
      <use xlink:href="#ArialMT-65" x="394.628906"/>
      <use xlink:href="#ArialMT-4e" x="450.244141"/>
      <use xlink:href="#ArialMT-65" x="522.460938"/>
      <use xlink:href="#ArialMT-74" x="578.076172"/>
      <use xlink:href="#ArialMT-77" x="605.859375"/>
      <use xlink:href="#ArialMT-6f" x="678.076172"/>
      <use xlink:href="#ArialMT-72" x="733.691406"/>
      <use xlink:href="#ArialMT-6b" x="766.992188"/>
      <use xlink:href="#ArialMT-4d" x="816.992188"/>
      <use xlink:href="#ArialMT-6f" x="900.292969"/>
      <use xlink:href="#ArialMT-64" x="955.908203"/>
      <use xlink:href="#ArialMT-69" x="1011.523438"/>
      <use xlink:href="#ArialMT-66" x="1033.740234"/>
      <use xlink:href="#ArialMT-69" x="1061.523438"/>
      <use xlink:href="#ArialMT-65" x="1083.740234"/>
      <use xlink:href="#ArialMT-64" x="1139.355469"/>
      <use xlink:href="#ArialMT-41" x="1194.970703"/>
      <use xlink:href="#ArialMT-6c" x="1261.669922"/>
      <use xlink:href="#ArialMT-69" x="1283.886719"/>
      <use xlink:href="#ArialMT-67" x="1306.103516"/>
      <use xlink:href="#ArialMT-6e" x="1361.71875"/>
      <use xlink:href="#ArialMT-65" x="1417.333984"/>
      <use xlink:href="#ArialMT-64" x="1472.949219"/>
      <use xlink:href="#ArialMT-42" x="1528.564453"/>
      <use xlink:href="#ArialMT-69" x="1595.263672"/>
      <use xlink:href="#ArialMT-6e" x="1617.480469"/>
      <use xlink:href="#ArialMT-6f" x="1673.095703"/>
      <use xlink:href="#ArialMT-6d" x="1728.710938"/>
      <use xlink:href="#ArialMT-69" x="1812.011719"/>
      <use xlink:href="#ArialMT-61" x="1834.228516"/>
      <use xlink:href="#ArialMT-6c" x="1889.84375"/>
      <use xlink:href="#ArialMT-4f" x="1912.060547"/>
      <use xlink:href="#ArialMT-70" x="1989.84375"/>
     </g>
    </g>
    <g id="line2d_30">
     <path d="M 436.808594 131.372656 
L 447.808594 131.372656 
L 458.808594 131.372656 
" style="fill: none; stroke: #937860; stroke-width: 2.5; stroke-linecap: round"/>
    </g>
    <g id="text_22">
     <!-- UnreliableNetworkModifiedAlignedNegativeEpsOp -->
     <g style="fill: #262626" transform="translate(467.608594 135.222656) scale(0.11 -0.11)">
      <use xlink:href="#ArialMT-55"/>
      <use xlink:href="#ArialMT-6e" x="72.216797"/>
      <use xlink:href="#ArialMT-72" x="127.832031"/>
      <use xlink:href="#ArialMT-65" x="161.132812"/>
      <use xlink:href="#ArialMT-6c" x="216.748047"/>
      <use xlink:href="#ArialMT-69" x="238.964844"/>
      <use xlink:href="#ArialMT-61" x="261.181641"/>
      <use xlink:href="#ArialMT-62" x="316.796875"/>
      <use xlink:href="#ArialMT-6c" x="372.412109"/>
      <use xlink:href="#ArialMT-65" x="394.628906"/>
      <use xlink:href="#ArialMT-4e" x="450.244141"/>
      <use xlink:href="#ArialMT-65" x="522.460938"/>
      <use xlink:href="#ArialMT-74" x="578.076172"/>
      <use xlink:href="#ArialMT-77" x="605.859375"/>
      <use xlink:href="#ArialMT-6f" x="678.076172"/>
      <use xlink:href="#ArialMT-72" x="733.691406"/>
      <use xlink:href="#ArialMT-6b" x="766.992188"/>
      <use xlink:href="#ArialMT-4d" x="816.992188"/>
      <use xlink:href="#ArialMT-6f" x="900.292969"/>
      <use xlink:href="#ArialMT-64" x="955.908203"/>
      <use xlink:href="#ArialMT-69" x="1011.523438"/>
      <use xlink:href="#ArialMT-66" x="1033.740234"/>
      <use xlink:href="#ArialMT-69" x="1061.523438"/>
      <use xlink:href="#ArialMT-65" x="1083.740234"/>
      <use xlink:href="#ArialMT-64" x="1139.355469"/>
      <use xlink:href="#ArialMT-41" x="1194.970703"/>
      <use xlink:href="#ArialMT-6c" x="1261.669922"/>
      <use xlink:href="#ArialMT-69" x="1283.886719"/>
      <use xlink:href="#ArialMT-67" x="1306.103516"/>
      <use xlink:href="#ArialMT-6e" x="1361.71875"/>
      <use xlink:href="#ArialMT-65" x="1417.333984"/>
      <use xlink:href="#ArialMT-64" x="1472.949219"/>
      <use xlink:href="#ArialMT-4e" x="1528.564453"/>
      <use xlink:href="#ArialMT-65" x="1600.78125"/>
      <use xlink:href="#ArialMT-67" x="1656.396484"/>
      <use xlink:href="#ArialMT-61" x="1712.011719"/>
      <use xlink:href="#ArialMT-74" x="1767.626953"/>
      <use xlink:href="#ArialMT-69" x="1795.410156"/>
      <use xlink:href="#ArialMT-76" x="1817.626953"/>
      <use xlink:href="#ArialMT-65" x="1867.626953"/>
      <use xlink:href="#ArialMT-45" x="1923.242188"/>
      <use xlink:href="#ArialMT-70" x="1989.941406"/>
      <use xlink:href="#ArialMT-73" x="2045.556641"/>
      <use xlink:href="#ArialMT-4f" x="2095.556641"/>
      <use xlink:href="#ArialMT-70" x="2173.339844"/>
     </g>
    </g>
   </g>
  </g>
 </g>
 <defs>
  <clipPath id="p84edf1aa2a">
   <rect x="53.081406" y="21.943125" width="669.6" height="332.64"/>
  </clipPath>
 </defs>
</svg>
