<?xml version="1.0" encoding="utf-8" standalone="no"?>
<!DOCTYPE svg PUBLIC "-//W3C//DTD SVG 1.1//EN"
  "http://www.w3.org/Graphics/SVG/1.1/DTD/svg11.dtd">
<svg xmlns:xlink="http://www.w3.org/1999/xlink" width="723.764375pt" height="396.317344pt" viewBox="0 0 723.764375 396.317344" xmlns="http://www.w3.org/2000/svg" version="1.1">
 <metadata>
  <rdf:RDF xmlns:dc="http://purl.org/dc/elements/1.1/" xmlns:cc="http://creativecommons.org/ns#" xmlns:rdf="http://www.w3.org/1999/02/22-rdf-syntax-ns#">
   <cc:Work>
    <dc:type rdf:resource="http://purl.org/dc/dcmitype/StillImage"/>
    <dc:date>2024-12-19T00:36:41.762989</dc:date>
    <dc:format>image/svg+xml</dc:format>
    <dc:creator>
     <cc:Agent>
      <dc:title>Matplotlib v3.9.2, https://matplotlib.org/</dc:title>
     </cc:Agent>
    </dc:creator>
   </cc:Work>
  </rdf:RDF>
 </metadata>
 <defs>
  <style type="text/css">*{stroke-linejoin: round; stroke-linecap: butt}</style>
 </defs>
 <g id="figure_1">
  <g id="patch_1">
   <path d="M 0 396.317344 
L 723.764375 396.317344 
L 723.764375 0 
L 0 0 
z
" style="fill: #ffffff"/>
  </g>
  <g id="axes_1">
   <g id="patch_2">
    <path d="M 46.964375 354.583125 
L 716.564375 354.583125 
L 716.564375 21.943125 
L 46.964375 21.943125 
z
" style="fill: #ffffff"/>
   </g>
   <g id="matplotlib.axis_1">
    <g id="xtick_1">
     <g id="line2d_1">
      <defs>
       <path id="m22fff90c9c" d="M 0 0 
L 0 6 
" style="stroke: #262626; stroke-width: 1.25"/>
      </defs>
      <g>
       <use xlink:href="#m22fff90c9c" x="77.400739" y="354.583125" style="fill: #262626; stroke: #262626; stroke-width: 1.25"/>
      </g>
     </g>
     <g id="text_1">
      <!-- 0 -->
      <g style="fill: #262626" transform="translate(74.342223 371.956719) scale(0.11 -0.11)">
       <defs>
        <path id="ArialMT-30" d="M 266 2259 
Q 266 3072 433 3567 
Q 600 4063 929 4331 
Q 1259 4600 1759 4600 
Q 2128 4600 2406 4451 
Q 2684 4303 2865 4023 
Q 3047 3744 3150 3342 
Q 3253 2941 3253 2259 
Q 3253 1453 3087 958 
Q 2922 463 2592 192 
Q 2263 -78 1759 -78 
Q 1097 -78 719 397 
Q 266 969 266 2259 
z
M 844 2259 
Q 844 1131 1108 757 
Q 1372 384 1759 384 
Q 2147 384 2411 759 
Q 2675 1134 2675 2259 
Q 2675 3391 2411 3762 
Q 2147 4134 1753 4134 
Q 1366 4134 1134 3806 
Q 844 3388 844 2259 
z
" transform="scale(0.015625)"/>
       </defs>
       <use xlink:href="#ArialMT-30"/>
      </g>
     </g>
    </g>
    <g id="xtick_2">
     <g id="line2d_2">
      <g>
       <use xlink:href="#m22fff90c9c" x="199.146193" y="354.583125" style="fill: #262626; stroke: #262626; stroke-width: 1.25"/>
      </g>
     </g>
     <g id="text_2">
      <!-- 5000 -->
      <g style="fill: #262626" transform="translate(186.912131 371.956719) scale(0.11 -0.11)">
       <defs>
        <path id="ArialMT-35" d="M 266 1200 
L 856 1250 
Q 922 819 1161 601 
Q 1400 384 1738 384 
Q 2144 384 2425 690 
Q 2706 997 2706 1503 
Q 2706 1984 2436 2262 
Q 2166 2541 1728 2541 
Q 1456 2541 1237 2417 
Q 1019 2294 894 2097 
L 366 2166 
L 809 4519 
L 3088 4519 
L 3088 3981 
L 1259 3981 
L 1013 2750 
Q 1425 3038 1878 3038 
Q 2478 3038 2890 2622 
Q 3303 2206 3303 1553 
Q 3303 931 2941 478 
Q 2500 -78 1738 -78 
Q 1113 -78 717 272 
Q 322 622 266 1200 
z
" transform="scale(0.015625)"/>
       </defs>
       <use xlink:href="#ArialMT-35"/>
       <use xlink:href="#ArialMT-30" x="55.615234"/>
       <use xlink:href="#ArialMT-30" x="111.230469"/>
       <use xlink:href="#ArialMT-30" x="166.845703"/>
      </g>
     </g>
    </g>
    <g id="xtick_3">
     <g id="line2d_3">
      <g>
       <use xlink:href="#m22fff90c9c" x="320.891648" y="354.583125" style="fill: #262626; stroke: #262626; stroke-width: 1.25"/>
      </g>
     </g>
     <g id="text_3">
      <!-- 10000 -->
      <g style="fill: #262626" transform="translate(305.59907 371.956719) scale(0.11 -0.11)">
       <defs>
        <path id="ArialMT-31" d="M 2384 0 
L 1822 0 
L 1822 3584 
Q 1619 3391 1289 3197 
Q 959 3003 697 2906 
L 697 3450 
Q 1169 3672 1522 3987 
Q 1875 4303 2022 4600 
L 2384 4600 
L 2384 0 
z
" transform="scale(0.015625)"/>
       </defs>
       <use xlink:href="#ArialMT-31"/>
       <use xlink:href="#ArialMT-30" x="55.615234"/>
       <use xlink:href="#ArialMT-30" x="111.230469"/>
       <use xlink:href="#ArialMT-30" x="166.845703"/>
       <use xlink:href="#ArialMT-30" x="222.460938"/>
      </g>
     </g>
    </g>
    <g id="xtick_4">
     <g id="line2d_4">
      <g>
       <use xlink:href="#m22fff90c9c" x="442.637102" y="354.583125" style="fill: #262626; stroke: #262626; stroke-width: 1.25"/>
      </g>
     </g>
     <g id="text_4">
      <!-- 15000 -->
      <g style="fill: #262626" transform="translate(427.344524 371.956719) scale(0.11 -0.11)">
       <use xlink:href="#ArialMT-31"/>
       <use xlink:href="#ArialMT-35" x="55.615234"/>
       <use xlink:href="#ArialMT-30" x="111.230469"/>
       <use xlink:href="#ArialMT-30" x="166.845703"/>
       <use xlink:href="#ArialMT-30" x="222.460938"/>
      </g>
     </g>
    </g>
    <g id="xtick_5">
     <g id="line2d_5">
      <g>
       <use xlink:href="#m22fff90c9c" x="564.382557" y="354.583125" style="fill: #262626; stroke: #262626; stroke-width: 1.25"/>
      </g>
     </g>
     <g id="text_5">
      <!-- 20000 -->
      <g style="fill: #262626" transform="translate(549.089979 371.956719) scale(0.11 -0.11)">
       <defs>
        <path id="ArialMT-32" d="M 3222 541 
L 3222 0 
L 194 0 
Q 188 203 259 391 
Q 375 700 629 1000 
Q 884 1300 1366 1694 
Q 2113 2306 2375 2664 
Q 2638 3022 2638 3341 
Q 2638 3675 2398 3904 
Q 2159 4134 1775 4134 
Q 1369 4134 1125 3890 
Q 881 3647 878 3216 
L 300 3275 
Q 359 3922 746 4261 
Q 1134 4600 1788 4600 
Q 2447 4600 2831 4234 
Q 3216 3869 3216 3328 
Q 3216 3053 3103 2787 
Q 2991 2522 2730 2228 
Q 2469 1934 1863 1422 
Q 1356 997 1212 845 
Q 1069 694 975 541 
L 3222 541 
z
" transform="scale(0.015625)"/>
       </defs>
       <use xlink:href="#ArialMT-32"/>
       <use xlink:href="#ArialMT-30" x="55.615234"/>
       <use xlink:href="#ArialMT-30" x="111.230469"/>
       <use xlink:href="#ArialMT-30" x="166.845703"/>
       <use xlink:href="#ArialMT-30" x="222.460938"/>
      </g>
     </g>
    </g>
    <g id="xtick_6">
     <g id="line2d_6">
      <g>
       <use xlink:href="#m22fff90c9c" x="686.128011" y="354.583125" style="fill: #262626; stroke: #262626; stroke-width: 1.25"/>
      </g>
     </g>
     <g id="text_6">
      <!-- 25000 -->
      <g style="fill: #262626" transform="translate(670.835433 371.956719) scale(0.11 -0.11)">
       <use xlink:href="#ArialMT-32"/>
       <use xlink:href="#ArialMT-35" x="55.615234"/>
       <use xlink:href="#ArialMT-30" x="111.230469"/>
       <use xlink:href="#ArialMT-30" x="166.845703"/>
       <use xlink:href="#ArialMT-30" x="222.460938"/>
      </g>
     </g>
    </g>
    <g id="text_7">
     <!-- Iteration -->
     <g style="fill: #262626" transform="translate(360.086563 386.732344) scale(0.12 -0.12)">
      <defs>
       <path id="ArialMT-49" d="M 597 0 
L 597 4581 
L 1203 4581 
L 1203 0 
L 597 0 
z
" transform="scale(0.015625)"/>
       <path id="ArialMT-74" d="M 1650 503 
L 1731 6 
Q 1494 -44 1306 -44 
Q 1000 -44 831 53 
Q 663 150 594 308 
Q 525 466 525 972 
L 525 2881 
L 113 2881 
L 113 3319 
L 525 3319 
L 525 4141 
L 1084 4478 
L 1084 3319 
L 1650 3319 
L 1650 2881 
L 1084 2881 
L 1084 941 
Q 1084 700 1114 631 
Q 1144 563 1211 522 
Q 1278 481 1403 481 
Q 1497 481 1650 503 
z
" transform="scale(0.015625)"/>
       <path id="ArialMT-65" d="M 2694 1069 
L 3275 997 
Q 3138 488 2766 206 
Q 2394 -75 1816 -75 
Q 1088 -75 661 373 
Q 234 822 234 1631 
Q 234 2469 665 2931 
Q 1097 3394 1784 3394 
Q 2450 3394 2872 2941 
Q 3294 2488 3294 1666 
Q 3294 1616 3291 1516 
L 816 1516 
Q 847 969 1125 678 
Q 1403 388 1819 388 
Q 2128 388 2347 550 
Q 2566 713 2694 1069 
z
M 847 1978 
L 2700 1978 
Q 2663 2397 2488 2606 
Q 2219 2931 1791 2931 
Q 1403 2931 1139 2672 
Q 875 2413 847 1978 
z
" transform="scale(0.015625)"/>
       <path id="ArialMT-72" d="M 416 0 
L 416 3319 
L 922 3319 
L 922 2816 
Q 1116 3169 1280 3281 
Q 1444 3394 1641 3394 
Q 1925 3394 2219 3213 
L 2025 2691 
Q 1819 2813 1613 2813 
Q 1428 2813 1281 2702 
Q 1134 2591 1072 2394 
Q 978 2094 978 1738 
L 978 0 
L 416 0 
z
" transform="scale(0.015625)"/>
       <path id="ArialMT-61" d="M 2588 409 
Q 2275 144 1986 34 
Q 1697 -75 1366 -75 
Q 819 -75 525 192 
Q 231 459 231 875 
Q 231 1119 342 1320 
Q 453 1522 633 1644 
Q 813 1766 1038 1828 
Q 1203 1872 1538 1913 
Q 2219 1994 2541 2106 
Q 2544 2222 2544 2253 
Q 2544 2597 2384 2738 
Q 2169 2928 1744 2928 
Q 1347 2928 1158 2789 
Q 969 2650 878 2297 
L 328 2372 
Q 403 2725 575 2942 
Q 747 3159 1072 3276 
Q 1397 3394 1825 3394 
Q 2250 3394 2515 3294 
Q 2781 3194 2906 3042 
Q 3031 2891 3081 2659 
Q 3109 2516 3109 2141 
L 3109 1391 
Q 3109 606 3145 398 
Q 3181 191 3288 0 
L 2700 0 
Q 2613 175 2588 409 
z
M 2541 1666 
Q 2234 1541 1622 1453 
Q 1275 1403 1131 1340 
Q 988 1278 909 1158 
Q 831 1038 831 891 
Q 831 666 1001 516 
Q 1172 366 1500 366 
Q 1825 366 2078 508 
Q 2331 650 2450 897 
Q 2541 1088 2541 1459 
L 2541 1666 
z
" transform="scale(0.015625)"/>
       <path id="ArialMT-69" d="M 425 3934 
L 425 4581 
L 988 4581 
L 988 3934 
L 425 3934 
z
M 425 0 
L 425 3319 
L 988 3319 
L 988 0 
L 425 0 
z
" transform="scale(0.015625)"/>
       <path id="ArialMT-6f" d="M 213 1659 
Q 213 2581 725 3025 
Q 1153 3394 1769 3394 
Q 2453 3394 2887 2945 
Q 3322 2497 3322 1706 
Q 3322 1066 3130 698 
Q 2938 331 2570 128 
Q 2203 -75 1769 -75 
Q 1072 -75 642 372 
Q 213 819 213 1659 
z
M 791 1659 
Q 791 1022 1069 705 
Q 1347 388 1769 388 
Q 2188 388 2466 706 
Q 2744 1025 2744 1678 
Q 2744 2294 2464 2611 
Q 2184 2928 1769 2928 
Q 1347 2928 1069 2612 
Q 791 2297 791 1659 
z
" transform="scale(0.015625)"/>
       <path id="ArialMT-6e" d="M 422 0 
L 422 3319 
L 928 3319 
L 928 2847 
Q 1294 3394 1984 3394 
Q 2284 3394 2536 3286 
Q 2788 3178 2913 3003 
Q 3038 2828 3088 2588 
Q 3119 2431 3119 2041 
L 3119 0 
L 2556 0 
L 2556 2019 
Q 2556 2363 2490 2533 
Q 2425 2703 2258 2804 
Q 2091 2906 1866 2906 
Q 1506 2906 1245 2678 
Q 984 2450 984 1813 
L 984 0 
L 422 0 
z
" transform="scale(0.015625)"/>
      </defs>
      <use xlink:href="#ArialMT-49"/>
      <use xlink:href="#ArialMT-74" x="27.783203"/>
      <use xlink:href="#ArialMT-65" x="55.566406"/>
      <use xlink:href="#ArialMT-72" x="111.181641"/>
      <use xlink:href="#ArialMT-61" x="144.482422"/>
      <use xlink:href="#ArialMT-74" x="200.097656"/>
      <use xlink:href="#ArialMT-69" x="227.880859"/>
      <use xlink:href="#ArialMT-6f" x="250.097656"/>
      <use xlink:href="#ArialMT-6e" x="305.712891"/>
     </g>
    </g>
   </g>
   <g id="matplotlib.axis_2">
    <g id="ytick_1">
     <g id="line2d_7">
      <defs>
       <path id="me73f8cdab9" d="M 0 0 
L -6 0 
" style="stroke: #262626; stroke-width: 1.25"/>
      </defs>
      <g>
       <use xlink:href="#me73f8cdab9" x="46.964375" y="337.583896" style="fill: #262626; stroke: #262626; stroke-width: 1.25"/>
      </g>
     </g>
     <g id="text_8">
      <!-- 0.5 -->
      <g style="fill: #262626" transform="translate(22.174375 341.520693) scale(0.11 -0.11)">
       <defs>
        <path id="ArialMT-2e" d="M 581 0 
L 581 641 
L 1222 641 
L 1222 0 
L 581 0 
z
" transform="scale(0.015625)"/>
       </defs>
       <use xlink:href="#ArialMT-30"/>
       <use xlink:href="#ArialMT-2e" x="55.615234"/>
       <use xlink:href="#ArialMT-35" x="83.398438"/>
      </g>
     </g>
    </g>
    <g id="ytick_2">
     <g id="line2d_8">
      <g>
       <use xlink:href="#me73f8cdab9" x="46.964375" y="277.479742" style="fill: #262626; stroke: #262626; stroke-width: 1.25"/>
      </g>
     </g>
     <g id="text_9">
      <!-- 0.6 -->
      <g style="fill: #262626" transform="translate(22.174375 281.416538) scale(0.11 -0.11)">
       <defs>
        <path id="ArialMT-36" d="M 3184 3459 
L 2625 3416 
Q 2550 3747 2413 3897 
Q 2184 4138 1850 4138 
Q 1581 4138 1378 3988 
Q 1113 3794 959 3422 
Q 806 3050 800 2363 
Q 1003 2672 1297 2822 
Q 1591 2972 1913 2972 
Q 2475 2972 2870 2558 
Q 3266 2144 3266 1488 
Q 3266 1056 3080 686 
Q 2894 316 2569 119 
Q 2244 -78 1831 -78 
Q 1128 -78 684 439 
Q 241 956 241 2144 
Q 241 3472 731 4075 
Q 1159 4600 1884 4600 
Q 2425 4600 2770 4297 
Q 3116 3994 3184 3459 
z
M 888 1484 
Q 888 1194 1011 928 
Q 1134 663 1356 523 
Q 1578 384 1822 384 
Q 2178 384 2434 671 
Q 2691 959 2691 1453 
Q 2691 1928 2437 2201 
Q 2184 2475 1800 2475 
Q 1419 2475 1153 2201 
Q 888 1928 888 1484 
z
" transform="scale(0.015625)"/>
       </defs>
       <use xlink:href="#ArialMT-30"/>
       <use xlink:href="#ArialMT-2e" x="55.615234"/>
       <use xlink:href="#ArialMT-36" x="83.398438"/>
      </g>
     </g>
    </g>
    <g id="ytick_3">
     <g id="line2d_9">
      <g>
       <use xlink:href="#me73f8cdab9" x="46.964375" y="217.375587" style="fill: #262626; stroke: #262626; stroke-width: 1.25"/>
      </g>
     </g>
     <g id="text_10">
      <!-- 0.7 -->
      <g style="fill: #262626" transform="translate(22.174375 221.312384) scale(0.11 -0.11)">
       <defs>
        <path id="ArialMT-37" d="M 303 3981 
L 303 4522 
L 3269 4522 
L 3269 4084 
Q 2831 3619 2401 2847 
Q 1972 2075 1738 1259 
Q 1569 684 1522 0 
L 944 0 
Q 953 541 1156 1306 
Q 1359 2072 1739 2783 
Q 2119 3494 2547 3981 
L 303 3981 
z
" transform="scale(0.015625)"/>
       </defs>
       <use xlink:href="#ArialMT-30"/>
       <use xlink:href="#ArialMT-2e" x="55.615234"/>
       <use xlink:href="#ArialMT-37" x="83.398438"/>
      </g>
     </g>
    </g>
    <g id="ytick_4">
     <g id="line2d_10">
      <g>
       <use xlink:href="#me73f8cdab9" x="46.964375" y="157.271433" style="fill: #262626; stroke: #262626; stroke-width: 1.25"/>
      </g>
     </g>
     <g id="text_11">
      <!-- 0.8 -->
      <g style="fill: #262626" transform="translate(22.174375 161.20823) scale(0.11 -0.11)">
       <defs>
        <path id="ArialMT-38" d="M 1131 2484 
Q 781 2613 612 2850 
Q 444 3088 444 3419 
Q 444 3919 803 4259 
Q 1163 4600 1759 4600 
Q 2359 4600 2725 4251 
Q 3091 3903 3091 3403 
Q 3091 3084 2923 2848 
Q 2756 2613 2416 2484 
Q 2838 2347 3058 2040 
Q 3278 1734 3278 1309 
Q 3278 722 2862 322 
Q 2447 -78 1769 -78 
Q 1091 -78 675 323 
Q 259 725 259 1325 
Q 259 1772 486 2073 
Q 713 2375 1131 2484 
z
M 1019 3438 
Q 1019 3113 1228 2906 
Q 1438 2700 1772 2700 
Q 2097 2700 2305 2904 
Q 2513 3109 2513 3406 
Q 2513 3716 2298 3927 
Q 2084 4138 1766 4138 
Q 1444 4138 1231 3931 
Q 1019 3725 1019 3438 
z
M 838 1322 
Q 838 1081 952 856 
Q 1066 631 1291 507 
Q 1516 384 1775 384 
Q 2178 384 2440 643 
Q 2703 903 2703 1303 
Q 2703 1709 2433 1975 
Q 2163 2241 1756 2241 
Q 1359 2241 1098 1978 
Q 838 1716 838 1322 
z
" transform="scale(0.015625)"/>
       </defs>
       <use xlink:href="#ArialMT-30"/>
       <use xlink:href="#ArialMT-2e" x="55.615234"/>
       <use xlink:href="#ArialMT-38" x="83.398438"/>
      </g>
     </g>
    </g>
    <g id="ytick_5">
     <g id="line2d_11">
      <g>
       <use xlink:href="#me73f8cdab9" x="46.964375" y="97.167279" style="fill: #262626; stroke: #262626; stroke-width: 1.25"/>
      </g>
     </g>
     <g id="text_12">
      <!-- 0.9 -->
      <g style="fill: #262626" transform="translate(22.174375 101.104076) scale(0.11 -0.11)">
       <defs>
        <path id="ArialMT-39" d="M 350 1059 
L 891 1109 
Q 959 728 1153 556 
Q 1347 384 1650 384 
Q 1909 384 2104 503 
Q 2300 622 2425 820 
Q 2550 1019 2634 1356 
Q 2719 1694 2719 2044 
Q 2719 2081 2716 2156 
Q 2547 1888 2255 1720 
Q 1963 1553 1622 1553 
Q 1053 1553 659 1965 
Q 266 2378 266 3053 
Q 266 3750 677 4175 
Q 1088 4600 1706 4600 
Q 2153 4600 2523 4359 
Q 2894 4119 3086 3673 
Q 3278 3228 3278 2384 
Q 3278 1506 3087 986 
Q 2897 466 2520 194 
Q 2144 -78 1638 -78 
Q 1100 -78 759 220 
Q 419 519 350 1059 
z
M 2653 3081 
Q 2653 3566 2395 3850 
Q 2138 4134 1775 4134 
Q 1400 4134 1122 3828 
Q 844 3522 844 3034 
Q 844 2597 1108 2323 
Q 1372 2050 1759 2050 
Q 2150 2050 2401 2323 
Q 2653 2597 2653 3081 
z
" transform="scale(0.015625)"/>
       </defs>
       <use xlink:href="#ArialMT-30"/>
       <use xlink:href="#ArialMT-2e" x="55.615234"/>
       <use xlink:href="#ArialMT-39" x="83.398438"/>
      </g>
     </g>
    </g>
    <g id="ytick_6">
     <g id="line2d_12">
      <g>
       <use xlink:href="#me73f8cdab9" x="46.964375" y="37.063125" style="fill: #262626; stroke: #262626; stroke-width: 1.25"/>
      </g>
     </g>
     <g id="text_13">
      <!-- 1.0 -->
      <g style="fill: #262626" transform="translate(22.174375 40.999922) scale(0.11 -0.11)">
       <use xlink:href="#ArialMT-31"/>
       <use xlink:href="#ArialMT-2e" x="55.615234"/>
       <use xlink:href="#ArialMT-30" x="83.398438"/>
      </g>
     </g>
    </g>
    <g id="text_14">
     <!-- Median Beliefs -->
     <g style="fill: #262626" transform="translate(15.789375 227.615625) rotate(-90) scale(0.12 -0.12)">
      <defs>
       <path id="ArialMT-4d" d="M 475 0 
L 475 4581 
L 1388 4581 
L 2472 1338 
Q 2622 884 2691 659 
Q 2769 909 2934 1394 
L 4031 4581 
L 4847 4581 
L 4847 0 
L 4263 0 
L 4263 3834 
L 2931 0 
L 2384 0 
L 1059 3900 
L 1059 0 
L 475 0 
z
" transform="scale(0.015625)"/>
       <path id="ArialMT-64" d="M 2575 0 
L 2575 419 
Q 2259 -75 1647 -75 
Q 1250 -75 917 144 
Q 584 363 401 755 
Q 219 1147 219 1656 
Q 219 2153 384 2558 
Q 550 2963 881 3178 
Q 1213 3394 1622 3394 
Q 1922 3394 2156 3267 
Q 2391 3141 2538 2938 
L 2538 4581 
L 3097 4581 
L 3097 0 
L 2575 0 
z
M 797 1656 
Q 797 1019 1065 703 
Q 1334 388 1700 388 
Q 2069 388 2326 689 
Q 2584 991 2584 1609 
Q 2584 2291 2321 2609 
Q 2059 2928 1675 2928 
Q 1300 2928 1048 2622 
Q 797 2316 797 1656 
z
" transform="scale(0.015625)"/>
       <path id="ArialMT-20" transform="scale(0.015625)"/>
       <path id="ArialMT-42" d="M 469 0 
L 469 4581 
L 2188 4581 
Q 2713 4581 3030 4442 
Q 3347 4303 3526 4014 
Q 3706 3725 3706 3409 
Q 3706 3116 3547 2856 
Q 3388 2597 3066 2438 
Q 3481 2316 3704 2022 
Q 3928 1728 3928 1328 
Q 3928 1006 3792 729 
Q 3656 453 3456 303 
Q 3256 153 2954 76 
Q 2653 0 2216 0 
L 469 0 
z
M 1075 2656 
L 2066 2656 
Q 2469 2656 2644 2709 
Q 2875 2778 2992 2937 
Q 3109 3097 3109 3338 
Q 3109 3566 3000 3739 
Q 2891 3913 2687 3977 
Q 2484 4041 1991 4041 
L 1075 4041 
L 1075 2656 
z
M 1075 541 
L 2216 541 
Q 2509 541 2628 563 
Q 2838 600 2978 687 
Q 3119 775 3209 942 
Q 3300 1109 3300 1328 
Q 3300 1584 3169 1773 
Q 3038 1963 2805 2039 
Q 2572 2116 2134 2116 
L 1075 2116 
L 1075 541 
z
" transform="scale(0.015625)"/>
       <path id="ArialMT-6c" d="M 409 0 
L 409 4581 
L 972 4581 
L 972 0 
L 409 0 
z
" transform="scale(0.015625)"/>
       <path id="ArialMT-66" d="M 556 0 
L 556 2881 
L 59 2881 
L 59 3319 
L 556 3319 
L 556 3672 
Q 556 4006 616 4169 
Q 697 4388 901 4523 
Q 1106 4659 1475 4659 
Q 1713 4659 2000 4603 
L 1916 4113 
Q 1741 4144 1584 4144 
Q 1328 4144 1222 4034 
Q 1116 3925 1116 3625 
L 1116 3319 
L 1763 3319 
L 1763 2881 
L 1116 2881 
L 1116 0 
L 556 0 
z
" transform="scale(0.015625)"/>
       <path id="ArialMT-73" d="M 197 991 
L 753 1078 
Q 800 744 1014 566 
Q 1228 388 1613 388 
Q 2000 388 2187 545 
Q 2375 703 2375 916 
Q 2375 1106 2209 1216 
Q 2094 1291 1634 1406 
Q 1016 1563 777 1677 
Q 538 1791 414 1992 
Q 291 2194 291 2438 
Q 291 2659 392 2848 
Q 494 3038 669 3163 
Q 800 3259 1026 3326 
Q 1253 3394 1513 3394 
Q 1903 3394 2198 3281 
Q 2494 3169 2634 2976 
Q 2775 2784 2828 2463 
L 2278 2388 
Q 2241 2644 2061 2787 
Q 1881 2931 1553 2931 
Q 1166 2931 1000 2803 
Q 834 2675 834 2503 
Q 834 2394 903 2306 
Q 972 2216 1119 2156 
Q 1203 2125 1616 2013 
Q 2213 1853 2448 1751 
Q 2684 1650 2818 1456 
Q 2953 1263 2953 975 
Q 2953 694 2789 445 
Q 2625 197 2315 61 
Q 2006 -75 1616 -75 
Q 969 -75 630 194 
Q 291 463 197 991 
z
" transform="scale(0.015625)"/>
      </defs>
      <use xlink:href="#ArialMT-4d"/>
      <use xlink:href="#ArialMT-65" x="83.300781"/>
      <use xlink:href="#ArialMT-64" x="138.916016"/>
      <use xlink:href="#ArialMT-69" x="194.53125"/>
      <use xlink:href="#ArialMT-61" x="216.748047"/>
      <use xlink:href="#ArialMT-6e" x="272.363281"/>
      <use xlink:href="#ArialMT-20" x="327.978516"/>
      <use xlink:href="#ArialMT-42" x="355.761719"/>
      <use xlink:href="#ArialMT-65" x="422.460938"/>
      <use xlink:href="#ArialMT-6c" x="478.076172"/>
      <use xlink:href="#ArialMT-69" x="500.292969"/>
      <use xlink:href="#ArialMT-65" x="522.509766"/>
      <use xlink:href="#ArialMT-66" x="578.125"/>
      <use xlink:href="#ArialMT-73" x="605.908203"/>
     </g>
    </g>
   </g>
   <g id="PolyCollection_1"/>
   <g id="PolyCollection_2"/>
   <g id="PolyCollection_3"/>
   <g id="PolyCollection_4"/>
   <g id="PolyCollection_5"/>
   <g id="PolyCollection_6"/>
   <g id="line2d_13">
    <path d="M 77.400739 337.971557 
L 77.425088 337.018687 
L 79.835648 290.994659 
L 82.270557 252.437428 
L 84.705466 217.590257 
L 87.140375 185.78691 
L 89.575284 162.241052 
L 92.010193 134.715803 
L 94.445102 114.351408 
L 96.880011 96.88374 
L 99.31492 83.631512 
L 101.74983 73.270531 
L 104.184739 64.497988 
L 106.619648 57.924017 
L 109.054557 52.381767 
L 111.489466 48.415488 
L 113.924375 45.456354 
L 116.359284 43.100117 
L 118.794193 41.549903 
L 121.229102 40.297287 
L 123.664011 39.417034 
L 126.09892 38.755133 
L 128.53383 38.280203 
L 133.403648 37.709513 
L 140.708375 37.290541 
L 150.448011 37.11199 
L 174.797102 37.064451 
L 686.128011 37.063125 
L 686.128011 37.063125 
" clip-path="url(#pf64223c6ff)" style="fill: none; stroke: #4c72b0; stroke-width: 2.5; stroke-linecap: round"/>
   </g>
   <g id="line2d_14">
    <path d="M 77.400739 339.463125 
L 77.425088 338.319165 
L 79.835648 306.47093 
L 82.270557 281.209705 
L 84.705466 247.814874 
L 87.140375 219.278612 
L 89.575284 194.253401 
L 92.010193 176.796373 
L 94.445102 157.869916 
L 96.880011 140.522441 
L 99.31492 124.514851 
L 101.74983 111.373179 
L 104.184739 100.34281 
L 109.054557 82.004991 
L 111.489466 74.635315 
L 116.359284 62.296335 
L 121.229102 53.924851 
L 123.664011 50.729094 
L 128.53383 45.79017 
L 130.968739 44.112742 
L 133.403648 42.603763 
L 135.838557 41.516658 
L 138.273466 40.638268 
L 140.708375 39.886949 
L 145.578193 38.783686 
L 150.448011 38.146541 
L 157.752739 37.56367 
L 165.057466 37.290756 
L 177.232011 37.126857 
L 201.581102 37.06746 
L 513.249466 37.063125 
L 686.128011 37.063125 
L 686.128011 37.063125 
" clip-path="url(#pf64223c6ff)" style="fill: none; stroke: #dd8452; stroke-width: 2.5; stroke-linecap: round"/>
   </g>
   <g id="line2d_15">
    <path d="M 77.400739 338.778655 
L 77.425088 337.67507 
L 79.835648 316.732139 
L 82.270557 298.709544 
L 84.705466 284.105537 
L 87.140375 265.457547 
L 89.575284 252.843288 
L 94.445102 225.241446 
L 96.880011 211.274512 
L 99.31492 198.139396 
L 101.74983 186.506596 
L 104.184739 177.037295 
L 106.619648 168.036763 
L 109.054557 153.588092 
L 111.489466 144.846072 
L 113.924375 135.467839 
L 116.359284 124.505142 
L 118.794193 114.871155 
L 121.229102 108.92 
L 123.664011 100.398553 
L 126.09892 94.073207 
L 128.53383 87.153347 
L 130.968739 81.229491 
L 133.403648 75.677962 
L 135.838557 71.483873 
L 138.273466 66.389218 
L 140.708375 63.924575 
L 145.578193 57.8907 
L 148.013102 55.377944 
L 150.448011 54.038918 
L 152.88292 52.096099 
L 155.31783 49.979459 
L 157.752739 48.277312 
L 160.187648 46.936745 
L 162.622557 45.448222 
L 167.492375 43.33151 
L 172.362193 41.873832 
L 179.66692 40.266477 
L 184.536739 39.354448 
L 186.971648 38.956398 
L 194.276375 38.317604 
L 204.016011 37.747559 
L 216.190557 37.383328 
L 235.66983 37.149499 
L 281.933102 37.066457 
L 686.128011 37.063125 
L 686.128011 37.063125 
" clip-path="url(#pf64223c6ff)" style="fill: none; stroke: #55a868; stroke-width: 2.5; stroke-linecap: round"/>
   </g>
   <g id="line2d_16">
    <path d="M 77.400739 336.956172 
L 77.425088 336.220831 
L 79.835648 300.619833 
L 87.140375 210.613758 
L 89.575284 191.360507 
L 92.010193 169.826108 
L 94.445102 150.215253 
L 96.880011 132.220493 
L 101.74983 103.410386 
L 106.619648 83.756218 
L 109.054557 75.592269 
L 111.489466 69.743572 
L 118.794193 55.187499 
L 121.229102 51.228099 
L 123.664011 48.297051 
L 126.09892 46.146592 
L 128.53383 44.39318 
L 130.968739 42.866539 
L 133.403648 41.717492 
L 135.838557 40.700925 
L 138.273466 39.916504 
L 140.708375 39.360216 
L 148.013102 38.237249 
L 152.88292 37.795672 
L 157.752739 37.493919 
L 167.492375 37.213733 
L 182.10183 37.094794 
L 223.495284 37.063662 
L 686.128011 37.063125 
L 686.128011 37.063125 
" clip-path="url(#pf64223c6ff)" style="fill: none; stroke: #c44e52; stroke-width: 2.5; stroke-linecap: round"/>
   </g>
   <g id="line2d_17">
    <path d="M 77.400739 337.767749 
L 77.425088 337.650458 
L 79.835648 316.21773 
L 82.270557 296.528096 
L 84.705466 273.986015 
L 87.140375 259.502665 
L 89.575284 243.379684 
L 92.010193 231.604838 
L 94.445102 216.130788 
L 96.880011 203.994111 
L 99.31492 196.522477 
L 101.74983 186.856497 
L 104.184739 176.172089 
L 106.619648 163.661687 
L 109.054557 158.892537 
L 111.489466 151.626896 
L 113.924375 140.147462 
L 118.794193 130.026435 
L 121.229102 123.385293 
L 123.664011 117.528572 
L 126.09892 113.177893 
L 128.53383 109.786352 
L 130.968739 101.603415 
L 133.403648 99.529585 
L 135.838557 94.97714 
L 138.273466 91.659937 
L 140.708375 86.459814 
L 143.143284 83.768936 
L 145.578193 79.401849 
L 150.448011 74.01146 
L 152.88292 72.242715 
L 157.752739 66.478279 
L 160.187648 64.659415 
L 162.622557 61.712855 
L 165.057466 59.661559 
L 167.492375 58.711734 
L 169.927284 56.508577 
L 172.362193 55.203083 
L 177.232011 52.913945 
L 182.10183 50.062107 
L 189.406557 47.352134 
L 194.276375 46.010744 
L 196.711284 45.7187 
L 201.581102 44.751142 
L 206.45092 43.37844 
L 208.88583 42.916693 
L 211.320739 42.29481 
L 216.190557 41.521351 
L 233.23492 39.869609 
L 235.66983 39.766255 
L 245.409466 38.936085 
L 257.584011 38.225785 
L 267.323648 37.922349 
L 279.498193 37.612535 
L 367.15492 37.09483 
L 498.640011 37.064343 
L 686.128011 37.063447 
L 686.128011 37.063447 
" clip-path="url(#pf64223c6ff)" style="fill: none; stroke: #8172b3; stroke-width: 2.5; stroke-linecap: round"/>
   </g>
   <g id="line2d_18">
    <path d="M 77.400739 338.252549 
L 77.425088 338.190178 
L 82.270557 310.920522 
L 84.705466 301.871733 
L 87.140375 289.798789 
L 89.575284 284.410764 
L 92.010193 278.013231 
L 94.445102 263.545 
L 96.880011 258.443539 
L 99.31492 246.036993 
L 101.74983 242.13828 
L 104.184739 230.727988 
L 106.619648 229.245197 
L 109.054557 221.111627 
L 111.489466 216.311274 
L 113.924375 204.708745 
L 116.359284 201.961408 
L 118.794193 196.392898 
L 121.229102 193.239127 
L 126.09892 188.465428 
L 128.53383 184.092322 
L 130.968739 178.197914 
L 133.403648 174.473453 
L 135.838557 173.807146 
L 138.273466 170.561736 
L 143.143284 155.989362 
L 145.578193 151.94108 
L 148.013102 154.711381 
L 150.448011 151.084507 
L 152.88292 148.177319 
L 155.31783 145.562713 
L 157.752739 138.852644 
L 162.622557 134.643401 
L 165.057466 133.414393 
L 167.492375 128.448207 
L 169.927284 125.986107 
L 172.362193 120.778604 
L 174.797102 120.043334 
L 177.232011 116.996214 
L 179.66692 111.01708 
L 182.10183 106.527149 
L 186.971648 104.390447 
L 189.406557 102.037971 
L 191.841466 100.486467 
L 194.276375 100.444803 
L 196.711284 100.756229 
L 199.146193 95.84661 
L 201.581102 94.404659 
L 204.016011 91.606844 
L 206.45092 91.077532 
L 208.88583 88.072327 
L 211.320739 87.107778 
L 213.755648 85.348419 
L 216.190557 84.719155 
L 218.625466 81.663509 
L 221.060375 79.099451 
L 223.495284 76.802289 
L 228.365102 74.018052 
L 230.800011 71.873504 
L 233.23492 69.990119 
L 235.66983 69.472163 
L 240.539648 67.171418 
L 242.974557 66.962559 
L 245.409466 65.954806 
L 247.844375 64.631865 
L 250.279284 63.135246 
L 255.149102 62.439097 
L 257.584011 60.80885 
L 260.01892 59.606998 
L 262.45383 59.581132 
L 264.888739 58.314078 
L 269.758557 57.188318 
L 274.628375 54.815063 
L 277.063284 54.039598 
L 281.933102 53.641405 
L 284.368011 52.665679 
L 286.80292 52.184372 
L 289.23783 51.455694 
L 294.107648 51.109912 
L 296.542557 50.241052 
L 298.977466 49.575247 
L 301.412375 49.177304 
L 303.847284 48.344519 
L 306.282193 47.354176 
L 308.717102 46.978015 
L 311.152011 46.844675 
L 313.58692 46.9361 
L 316.02183 46.398441 
L 318.456739 45.524959 
L 320.891648 45.248176 
L 323.326557 45.260786 
L 333.066193 44.095654 
L 335.501102 44.003333 
L 337.936011 43.754171 
L 340.37092 43.350604 
L 342.80583 43.10112 
L 345.240739 43.172411 
L 347.675648 42.774254 
L 350.110557 42.695152 
L 352.545466 42.227638 
L 357.415284 41.675147 
L 362.285102 41.621445 
L 369.58983 41.197351 
L 374.459648 40.798799 
L 376.894557 40.873494 
L 381.764375 40.558736 
L 384.199284 40.607566 
L 386.634193 40.481176 
L 389.069102 40.180318 
L 398.808739 39.718393 
L 401.243648 39.777145 
L 406.113466 39.57864 
L 410.983284 39.167514 
L 415.853102 39.009275 
L 420.72292 38.773691 
L 430.462557 38.505076 
L 437.767284 38.268453 
L 469.421102 37.696939 
L 566.817466 37.152114 
L 639.864739 37.085265 
L 686.128011 37.072619 
L 686.128011 37.072619 
" clip-path="url(#pf64223c6ff)" style="fill: none; stroke: #937860; stroke-width: 2.5; stroke-linecap: round"/>
   </g>
   <g id="line2d_19"/>
   <g id="line2d_20"/>
   <g id="line2d_21"/>
   <g id="line2d_22"/>
   <g id="line2d_23"/>
   <g id="line2d_24"/>
   <g id="patch_3">
    <path d="M 46.964375 354.583125 
L 46.964375 21.943125 
" style="fill: none; stroke: #262626; stroke-width: 1.25; stroke-linejoin: miter; stroke-linecap: square"/>
   </g>
   <g id="patch_4">
    <path d="M 46.964375 354.583125 
L 716.564375 354.583125 
" style="fill: none; stroke: #262626; stroke-width: 1.25; stroke-linejoin: miter; stroke-linecap: square"/>
   </g>
   <g id="text_15">
    <!-- Median Beliefs Comparison Across Ops -->
    <g style="fill: #262626" transform="translate(276.056563 15.943125) scale(0.12 -0.12)">
     <defs>
      <path id="ArialMT-43" d="M 3763 1606 
L 4369 1453 
Q 4178 706 3683 314 
Q 3188 -78 2472 -78 
Q 1731 -78 1267 223 
Q 803 525 561 1097 
Q 319 1669 319 2325 
Q 319 3041 592 3573 
Q 866 4106 1370 4382 
Q 1875 4659 2481 4659 
Q 3169 4659 3637 4309 
Q 4106 3959 4291 3325 
L 3694 3184 
Q 3534 3684 3231 3912 
Q 2928 4141 2469 4141 
Q 1941 4141 1586 3887 
Q 1231 3634 1087 3207 
Q 944 2781 944 2328 
Q 944 1744 1114 1308 
Q 1284 872 1643 656 
Q 2003 441 2422 441 
Q 2931 441 3284 734 
Q 3638 1028 3763 1606 
z
" transform="scale(0.015625)"/>
      <path id="ArialMT-6d" d="M 422 0 
L 422 3319 
L 925 3319 
L 925 2853 
Q 1081 3097 1340 3245 
Q 1600 3394 1931 3394 
Q 2300 3394 2536 3241 
Q 2772 3088 2869 2813 
Q 3263 3394 3894 3394 
Q 4388 3394 4653 3120 
Q 4919 2847 4919 2278 
L 4919 0 
L 4359 0 
L 4359 2091 
Q 4359 2428 4304 2576 
Q 4250 2725 4106 2815 
Q 3963 2906 3769 2906 
Q 3419 2906 3187 2673 
Q 2956 2441 2956 1928 
L 2956 0 
L 2394 0 
L 2394 2156 
Q 2394 2531 2256 2718 
Q 2119 2906 1806 2906 
Q 1569 2906 1367 2781 
Q 1166 2656 1075 2415 
Q 984 2175 984 1722 
L 984 0 
L 422 0 
z
" transform="scale(0.015625)"/>
      <path id="ArialMT-70" d="M 422 -1272 
L 422 3319 
L 934 3319 
L 934 2888 
Q 1116 3141 1344 3267 
Q 1572 3394 1897 3394 
Q 2322 3394 2647 3175 
Q 2972 2956 3137 2557 
Q 3303 2159 3303 1684 
Q 3303 1175 3120 767 
Q 2938 359 2589 142 
Q 2241 -75 1856 -75 
Q 1575 -75 1351 44 
Q 1128 163 984 344 
L 984 -1272 
L 422 -1272 
z
M 931 1641 
Q 931 1000 1190 694 
Q 1450 388 1819 388 
Q 2194 388 2461 705 
Q 2728 1022 2728 1688 
Q 2728 2322 2467 2637 
Q 2206 2953 1844 2953 
Q 1484 2953 1207 2617 
Q 931 2281 931 1641 
z
" transform="scale(0.015625)"/>
      <path id="ArialMT-41" d="M -9 0 
L 1750 4581 
L 2403 4581 
L 4278 0 
L 3588 0 
L 3053 1388 
L 1138 1388 
L 634 0 
L -9 0 
z
M 1313 1881 
L 2866 1881 
L 2388 3150 
Q 2169 3728 2063 4100 
Q 1975 3659 1816 3225 
L 1313 1881 
z
" transform="scale(0.015625)"/>
      <path id="ArialMT-63" d="M 2588 1216 
L 3141 1144 
Q 3050 572 2676 248 
Q 2303 -75 1759 -75 
Q 1078 -75 664 370 
Q 250 816 250 1647 
Q 250 2184 428 2587 
Q 606 2991 970 3192 
Q 1334 3394 1763 3394 
Q 2303 3394 2647 3120 
Q 2991 2847 3088 2344 
L 2541 2259 
Q 2463 2594 2264 2762 
Q 2066 2931 1784 2931 
Q 1359 2931 1093 2626 
Q 828 2322 828 1663 
Q 828 994 1084 691 
Q 1341 388 1753 388 
Q 2084 388 2306 591 
Q 2528 794 2588 1216 
z
" transform="scale(0.015625)"/>
      <path id="ArialMT-4f" d="M 309 2231 
Q 309 3372 921 4017 
Q 1534 4663 2503 4663 
Q 3138 4663 3647 4359 
Q 4156 4056 4423 3514 
Q 4691 2972 4691 2284 
Q 4691 1588 4409 1038 
Q 4128 488 3612 205 
Q 3097 -78 2500 -78 
Q 1853 -78 1343 234 
Q 834 547 571 1087 
Q 309 1628 309 2231 
z
M 934 2222 
Q 934 1394 1379 917 
Q 1825 441 2497 441 
Q 3181 441 3623 922 
Q 4066 1403 4066 2288 
Q 4066 2847 3877 3264 
Q 3688 3681 3323 3911 
Q 2959 4141 2506 4141 
Q 1863 4141 1398 3698 
Q 934 3256 934 2222 
z
" transform="scale(0.015625)"/>
     </defs>
     <use xlink:href="#ArialMT-4d"/>
     <use xlink:href="#ArialMT-65" x="83.300781"/>
     <use xlink:href="#ArialMT-64" x="138.916016"/>
     <use xlink:href="#ArialMT-69" x="194.53125"/>
     <use xlink:href="#ArialMT-61" x="216.748047"/>
     <use xlink:href="#ArialMT-6e" x="272.363281"/>
     <use xlink:href="#ArialMT-20" x="327.978516"/>
     <use xlink:href="#ArialMT-42" x="355.761719"/>
     <use xlink:href="#ArialMT-65" x="422.460938"/>
     <use xlink:href="#ArialMT-6c" x="478.076172"/>
     <use xlink:href="#ArialMT-69" x="500.292969"/>
     <use xlink:href="#ArialMT-65" x="522.509766"/>
     <use xlink:href="#ArialMT-66" x="578.125"/>
     <use xlink:href="#ArialMT-73" x="605.908203"/>
     <use xlink:href="#ArialMT-20" x="655.908203"/>
     <use xlink:href="#ArialMT-43" x="683.691406"/>
     <use xlink:href="#ArialMT-6f" x="755.908203"/>
     <use xlink:href="#ArialMT-6d" x="811.523438"/>
     <use xlink:href="#ArialMT-70" x="894.824219"/>
     <use xlink:href="#ArialMT-61" x="950.439453"/>
     <use xlink:href="#ArialMT-72" x="1006.054688"/>
     <use xlink:href="#ArialMT-69" x="1039.355469"/>
     <use xlink:href="#ArialMT-73" x="1061.572266"/>
     <use xlink:href="#ArialMT-6f" x="1111.572266"/>
     <use xlink:href="#ArialMT-6e" x="1167.1875"/>
     <use xlink:href="#ArialMT-20" x="1222.802734"/>
     <use xlink:href="#ArialMT-41" x="1245.085938"/>
     <use xlink:href="#ArialMT-63" x="1311.785156"/>
     <use xlink:href="#ArialMT-72" x="1361.785156"/>
     <use xlink:href="#ArialMT-6f" x="1395.085938"/>
     <use xlink:href="#ArialMT-73" x="1450.701172"/>
     <use xlink:href="#ArialMT-73" x="1500.701172"/>
     <use xlink:href="#ArialMT-20" x="1550.701172"/>
     <use xlink:href="#ArialMT-4f" x="1578.484375"/>
     <use xlink:href="#ArialMT-70" x="1656.267578"/>
     <use xlink:href="#ArialMT-73" x="1711.882812"/>
    </g>
   </g>
   <g id="legend_1">
    <g id="patch_5">
     <path d="M 428.491563 349.083125 
L 708.864375 349.083125 
Q 711.064375 349.083125 711.064375 346.883125 
L 711.064375 236.788437 
Q 711.064375 234.588437 708.864375 234.588437 
L 428.491563 234.588437 
Q 426.291563 234.588437 426.291563 236.788437 
L 426.291563 346.883125 
Q 426.291563 349.083125 428.491563 349.083125 
z
" style="fill: #ffffff; opacity: 0.8; stroke: #cccccc; stroke-linejoin: miter"/>
    </g>
    <g id="text_16">
     <!-- op -->
     <g style="fill: #262626" transform="translate(562.004844 247.577812) scale(0.12 -0.12)">
      <use xlink:href="#ArialMT-6f"/>
      <use xlink:href="#ArialMT-70" x="55.615234"/>
     </g>
    </g>
    <g id="line2d_25">
     <path d="M 430.691563 259.627344 
L 441.691563 259.627344 
L 452.691563 259.627344 
" style="fill: none; stroke: #4c72b0; stroke-width: 2.5; stroke-linecap: round"/>
    </g>
    <g id="text_17">
     <!-- BalaGoyalOp -->
     <g style="fill: #262626" transform="translate(461.491563 263.477344) scale(0.11 -0.11)">
      <defs>
       <path id="ArialMT-47" d="M 2638 1797 
L 2638 2334 
L 4578 2338 
L 4578 638 
Q 4131 281 3656 101 
Q 3181 -78 2681 -78 
Q 2006 -78 1454 211 
Q 903 500 622 1047 
Q 341 1594 341 2269 
Q 341 2938 620 3517 
Q 900 4097 1425 4378 
Q 1950 4659 2634 4659 
Q 3131 4659 3532 4498 
Q 3934 4338 4162 4050 
Q 4391 3763 4509 3300 
L 3963 3150 
Q 3859 3500 3706 3700 
Q 3553 3900 3268 4020 
Q 2984 4141 2638 4141 
Q 2222 4141 1919 4014 
Q 1616 3888 1430 3681 
Q 1244 3475 1141 3228 
Q 966 2803 966 2306 
Q 966 1694 1177 1281 
Q 1388 869 1791 669 
Q 2194 469 2647 469 
Q 3041 469 3416 620 
Q 3791 772 3984 944 
L 3984 1797 
L 2638 1797 
z
" transform="scale(0.015625)"/>
       <path id="ArialMT-79" d="M 397 -1278 
L 334 -750 
Q 519 -800 656 -800 
Q 844 -800 956 -737 
Q 1069 -675 1141 -563 
Q 1194 -478 1313 -144 
Q 1328 -97 1363 -6 
L 103 3319 
L 709 3319 
L 1400 1397 
Q 1534 1031 1641 628 
Q 1738 1016 1872 1384 
L 2581 3319 
L 3144 3319 
L 1881 -56 
Q 1678 -603 1566 -809 
Q 1416 -1088 1222 -1217 
Q 1028 -1347 759 -1347 
Q 597 -1347 397 -1278 
z
" transform="scale(0.015625)"/>
      </defs>
      <use xlink:href="#ArialMT-42"/>
      <use xlink:href="#ArialMT-61" x="66.699219"/>
      <use xlink:href="#ArialMT-6c" x="122.314453"/>
      <use xlink:href="#ArialMT-61" x="144.53125"/>
      <use xlink:href="#ArialMT-47" x="200.146484"/>
      <use xlink:href="#ArialMT-6f" x="277.929688"/>
      <use xlink:href="#ArialMT-79" x="333.544922"/>
      <use xlink:href="#ArialMT-61" x="383.544922"/>
      <use xlink:href="#ArialMT-6c" x="439.160156"/>
      <use xlink:href="#ArialMT-4f" x="461.376953"/>
      <use xlink:href="#ArialMT-70" x="539.160156"/>
     </g>
    </g>
    <g id="line2d_26">
     <path d="M 430.691563 275.457031 
L 441.691563 275.457031 
L 452.691563 275.457031 
" style="fill: none; stroke: #dd8452; stroke-width: 2.5; stroke-linecap: round"/>
    </g>
    <g id="text_18">
     <!-- UnreliableNetworkBasicGullibleBinomialOp -->
     <g style="fill: #262626" transform="translate(461.491563 279.307031) scale(0.11 -0.11)">
      <defs>
       <path id="ArialMT-55" d="M 3500 4581 
L 4106 4581 
L 4106 1934 
Q 4106 1244 3950 837 
Q 3794 431 3386 176 
Q 2978 -78 2316 -78 
Q 1672 -78 1262 144 
Q 853 366 678 786 
Q 503 1206 503 1934 
L 503 4581 
L 1109 4581 
L 1109 1938 
Q 1109 1341 1220 1058 
Q 1331 775 1601 622 
Q 1872 469 2263 469 
Q 2931 469 3215 772 
Q 3500 1075 3500 1938 
L 3500 4581 
z
" transform="scale(0.015625)"/>
       <path id="ArialMT-62" d="M 941 0 
L 419 0 
L 419 4581 
L 981 4581 
L 981 2947 
Q 1338 3394 1891 3394 
Q 2197 3394 2470 3270 
Q 2744 3147 2920 2923 
Q 3097 2700 3197 2384 
Q 3297 2069 3297 1709 
Q 3297 856 2875 390 
Q 2453 -75 1863 -75 
Q 1275 -75 941 416 
L 941 0 
z
M 934 1684 
Q 934 1088 1097 822 
Q 1363 388 1816 388 
Q 2184 388 2453 708 
Q 2722 1028 2722 1663 
Q 2722 2313 2464 2622 
Q 2206 2931 1841 2931 
Q 1472 2931 1203 2611 
Q 934 2291 934 1684 
z
" transform="scale(0.015625)"/>
       <path id="ArialMT-4e" d="M 488 0 
L 488 4581 
L 1109 4581 
L 3516 984 
L 3516 4581 
L 4097 4581 
L 4097 0 
L 3475 0 
L 1069 3600 
L 1069 0 
L 488 0 
z
" transform="scale(0.015625)"/>
       <path id="ArialMT-77" d="M 1034 0 
L 19 3319 
L 600 3319 
L 1128 1403 
L 1325 691 
Q 1338 744 1497 1375 
L 2025 3319 
L 2603 3319 
L 3100 1394 
L 3266 759 
L 3456 1400 
L 4025 3319 
L 4572 3319 
L 3534 0 
L 2950 0 
L 2422 1988 
L 2294 2553 
L 1622 0 
L 1034 0 
z
" transform="scale(0.015625)"/>
       <path id="ArialMT-6b" d="M 425 0 
L 425 4581 
L 988 4581 
L 988 1969 
L 2319 3319 
L 3047 3319 
L 1778 2088 
L 3175 0 
L 2481 0 
L 1384 1697 
L 988 1316 
L 988 0 
L 425 0 
z
" transform="scale(0.015625)"/>
       <path id="ArialMT-75" d="M 2597 0 
L 2597 488 
Q 2209 -75 1544 -75 
Q 1250 -75 995 37 
Q 741 150 617 320 
Q 494 491 444 738 
Q 409 903 409 1263 
L 409 3319 
L 972 3319 
L 972 1478 
Q 972 1038 1006 884 
Q 1059 663 1231 536 
Q 1403 409 1656 409 
Q 1909 409 2131 539 
Q 2353 669 2445 892 
Q 2538 1116 2538 1541 
L 2538 3319 
L 3100 3319 
L 3100 0 
L 2597 0 
z
" transform="scale(0.015625)"/>
      </defs>
      <use xlink:href="#ArialMT-55"/>
      <use xlink:href="#ArialMT-6e" x="72.216797"/>
      <use xlink:href="#ArialMT-72" x="127.832031"/>
      <use xlink:href="#ArialMT-65" x="161.132812"/>
      <use xlink:href="#ArialMT-6c" x="216.748047"/>
      <use xlink:href="#ArialMT-69" x="238.964844"/>
      <use xlink:href="#ArialMT-61" x="261.181641"/>
      <use xlink:href="#ArialMT-62" x="316.796875"/>
      <use xlink:href="#ArialMT-6c" x="372.412109"/>
      <use xlink:href="#ArialMT-65" x="394.628906"/>
      <use xlink:href="#ArialMT-4e" x="450.244141"/>
      <use xlink:href="#ArialMT-65" x="522.460938"/>
      <use xlink:href="#ArialMT-74" x="578.076172"/>
      <use xlink:href="#ArialMT-77" x="605.859375"/>
      <use xlink:href="#ArialMT-6f" x="678.076172"/>
      <use xlink:href="#ArialMT-72" x="733.691406"/>
      <use xlink:href="#ArialMT-6b" x="766.992188"/>
      <use xlink:href="#ArialMT-42" x="816.992188"/>
      <use xlink:href="#ArialMT-61" x="883.691406"/>
      <use xlink:href="#ArialMT-73" x="939.306641"/>
      <use xlink:href="#ArialMT-69" x="989.306641"/>
      <use xlink:href="#ArialMT-63" x="1011.523438"/>
      <use xlink:href="#ArialMT-47" x="1061.523438"/>
      <use xlink:href="#ArialMT-75" x="1139.306641"/>
      <use xlink:href="#ArialMT-6c" x="1194.921875"/>
      <use xlink:href="#ArialMT-6c" x="1217.138672"/>
      <use xlink:href="#ArialMT-69" x="1239.355469"/>
      <use xlink:href="#ArialMT-62" x="1261.572266"/>
      <use xlink:href="#ArialMT-6c" x="1317.1875"/>
      <use xlink:href="#ArialMT-65" x="1339.404297"/>
      <use xlink:href="#ArialMT-42" x="1395.019531"/>
      <use xlink:href="#ArialMT-69" x="1461.71875"/>
      <use xlink:href="#ArialMT-6e" x="1483.935547"/>
      <use xlink:href="#ArialMT-6f" x="1539.550781"/>
      <use xlink:href="#ArialMT-6d" x="1595.166016"/>
      <use xlink:href="#ArialMT-69" x="1678.466797"/>
      <use xlink:href="#ArialMT-61" x="1700.683594"/>
      <use xlink:href="#ArialMT-6c" x="1756.298828"/>
      <use xlink:href="#ArialMT-4f" x="1778.515625"/>
      <use xlink:href="#ArialMT-70" x="1856.298828"/>
     </g>
    </g>
    <g id="line2d_27">
     <path d="M 430.691563 291.157812 
L 441.691563 291.157812 
L 452.691563 291.157812 
" style="fill: none; stroke: #55a868; stroke-width: 2.5; stroke-linecap: round"/>
    </g>
    <g id="text_19">
     <!-- UnreliableNetworkBasicGullibleNegativeEpsOp -->
     <g style="fill: #262626" transform="translate(461.491563 295.007812) scale(0.11 -0.11)">
      <defs>
       <path id="ArialMT-67" d="M 319 -275 
L 866 -356 
Q 900 -609 1056 -725 
Q 1266 -881 1628 -881 
Q 2019 -881 2231 -725 
Q 2444 -569 2519 -288 
Q 2563 -116 2559 434 
Q 2191 0 1641 0 
Q 956 0 581 494 
Q 206 988 206 1678 
Q 206 2153 378 2554 
Q 550 2956 876 3175 
Q 1203 3394 1644 3394 
Q 2231 3394 2613 2919 
L 2613 3319 
L 3131 3319 
L 3131 450 
Q 3131 -325 2973 -648 
Q 2816 -972 2473 -1159 
Q 2131 -1347 1631 -1347 
Q 1038 -1347 672 -1080 
Q 306 -813 319 -275 
z
M 784 1719 
Q 784 1066 1043 766 
Q 1303 466 1694 466 
Q 2081 466 2343 764 
Q 2606 1063 2606 1700 
Q 2606 2309 2336 2618 
Q 2066 2928 1684 2928 
Q 1309 2928 1046 2623 
Q 784 2319 784 1719 
z
" transform="scale(0.015625)"/>
       <path id="ArialMT-76" d="M 1344 0 
L 81 3319 
L 675 3319 
L 1388 1331 
Q 1503 1009 1600 663 
Q 1675 925 1809 1294 
L 2547 3319 
L 3125 3319 
L 1869 0 
L 1344 0 
z
" transform="scale(0.015625)"/>
       <path id="ArialMT-45" d="M 506 0 
L 506 4581 
L 3819 4581 
L 3819 4041 
L 1113 4041 
L 1113 2638 
L 3647 2638 
L 3647 2100 
L 1113 2100 
L 1113 541 
L 3925 541 
L 3925 0 
L 506 0 
z
" transform="scale(0.015625)"/>
      </defs>
      <use xlink:href="#ArialMT-55"/>
      <use xlink:href="#ArialMT-6e" x="72.216797"/>
      <use xlink:href="#ArialMT-72" x="127.832031"/>
      <use xlink:href="#ArialMT-65" x="161.132812"/>
      <use xlink:href="#ArialMT-6c" x="216.748047"/>
      <use xlink:href="#ArialMT-69" x="238.964844"/>
      <use xlink:href="#ArialMT-61" x="261.181641"/>
      <use xlink:href="#ArialMT-62" x="316.796875"/>
      <use xlink:href="#ArialMT-6c" x="372.412109"/>
      <use xlink:href="#ArialMT-65" x="394.628906"/>
      <use xlink:href="#ArialMT-4e" x="450.244141"/>
      <use xlink:href="#ArialMT-65" x="522.460938"/>
      <use xlink:href="#ArialMT-74" x="578.076172"/>
      <use xlink:href="#ArialMT-77" x="605.859375"/>
      <use xlink:href="#ArialMT-6f" x="678.076172"/>
      <use xlink:href="#ArialMT-72" x="733.691406"/>
      <use xlink:href="#ArialMT-6b" x="766.992188"/>
      <use xlink:href="#ArialMT-42" x="816.992188"/>
      <use xlink:href="#ArialMT-61" x="883.691406"/>
      <use xlink:href="#ArialMT-73" x="939.306641"/>
      <use xlink:href="#ArialMT-69" x="989.306641"/>
      <use xlink:href="#ArialMT-63" x="1011.523438"/>
      <use xlink:href="#ArialMT-47" x="1061.523438"/>
      <use xlink:href="#ArialMT-75" x="1139.306641"/>
      <use xlink:href="#ArialMT-6c" x="1194.921875"/>
      <use xlink:href="#ArialMT-6c" x="1217.138672"/>
      <use xlink:href="#ArialMT-69" x="1239.355469"/>
      <use xlink:href="#ArialMT-62" x="1261.572266"/>
      <use xlink:href="#ArialMT-6c" x="1317.1875"/>
      <use xlink:href="#ArialMT-65" x="1339.404297"/>
      <use xlink:href="#ArialMT-4e" x="1395.019531"/>
      <use xlink:href="#ArialMT-65" x="1467.236328"/>
      <use xlink:href="#ArialMT-67" x="1522.851562"/>
      <use xlink:href="#ArialMT-61" x="1578.466797"/>
      <use xlink:href="#ArialMT-74" x="1634.082031"/>
      <use xlink:href="#ArialMT-69" x="1661.865234"/>
      <use xlink:href="#ArialMT-76" x="1684.082031"/>
      <use xlink:href="#ArialMT-65" x="1734.082031"/>
      <use xlink:href="#ArialMT-45" x="1789.697266"/>
      <use xlink:href="#ArialMT-70" x="1856.396484"/>
      <use xlink:href="#ArialMT-73" x="1912.011719"/>
      <use xlink:href="#ArialMT-4f" x="1962.011719"/>
      <use xlink:href="#ArialMT-70" x="2039.794922"/>
     </g>
    </g>
    <g id="line2d_28">
     <path d="M 430.691563 306.9875 
L 441.691563 306.9875 
L 452.691563 306.9875 
" style="fill: none; stroke: #c44e52; stroke-width: 2.5; stroke-linecap: round"/>
    </g>
    <g id="text_20">
     <!-- UnreliableNetworkIdealOp -->
     <g style="fill: #262626" transform="translate(461.491563 310.8375) scale(0.11 -0.11)">
      <use xlink:href="#ArialMT-55"/>
      <use xlink:href="#ArialMT-6e" x="72.216797"/>
      <use xlink:href="#ArialMT-72" x="127.832031"/>
      <use xlink:href="#ArialMT-65" x="161.132812"/>
      <use xlink:href="#ArialMT-6c" x="216.748047"/>
      <use xlink:href="#ArialMT-69" x="238.964844"/>
      <use xlink:href="#ArialMT-61" x="261.181641"/>
      <use xlink:href="#ArialMT-62" x="316.796875"/>
      <use xlink:href="#ArialMT-6c" x="372.412109"/>
      <use xlink:href="#ArialMT-65" x="394.628906"/>
      <use xlink:href="#ArialMT-4e" x="450.244141"/>
      <use xlink:href="#ArialMT-65" x="522.460938"/>
      <use xlink:href="#ArialMT-74" x="578.076172"/>
      <use xlink:href="#ArialMT-77" x="605.859375"/>
      <use xlink:href="#ArialMT-6f" x="678.076172"/>
      <use xlink:href="#ArialMT-72" x="733.691406"/>
      <use xlink:href="#ArialMT-6b" x="766.992188"/>
      <use xlink:href="#ArialMT-49" x="816.992188"/>
      <use xlink:href="#ArialMT-64" x="844.775391"/>
      <use xlink:href="#ArialMT-65" x="900.390625"/>
      <use xlink:href="#ArialMT-61" x="956.005859"/>
      <use xlink:href="#ArialMT-6c" x="1011.621094"/>
      <use xlink:href="#ArialMT-4f" x="1033.837891"/>
      <use xlink:href="#ArialMT-70" x="1111.621094"/>
     </g>
    </g>
    <g id="line2d_29">
     <path d="M 430.691563 322.688281 
L 441.691563 322.688281 
L 452.691563 322.688281 
" style="fill: none; stroke: #8172b3; stroke-width: 2.5; stroke-linecap: round"/>
    </g>
    <g id="text_21">
     <!-- UnreliableNetworkModifiedAlignedBinomialOp -->
     <g style="fill: #262626" transform="translate(461.491563 326.538281) scale(0.11 -0.11)">
      <use xlink:href="#ArialMT-55"/>
      <use xlink:href="#ArialMT-6e" x="72.216797"/>
      <use xlink:href="#ArialMT-72" x="127.832031"/>
      <use xlink:href="#ArialMT-65" x="161.132812"/>
      <use xlink:href="#ArialMT-6c" x="216.748047"/>
      <use xlink:href="#ArialMT-69" x="238.964844"/>
      <use xlink:href="#ArialMT-61" x="261.181641"/>
      <use xlink:href="#ArialMT-62" x="316.796875"/>
      <use xlink:href="#ArialMT-6c" x="372.412109"/>
      <use xlink:href="#ArialMT-65" x="394.628906"/>
      <use xlink:href="#ArialMT-4e" x="450.244141"/>
      <use xlink:href="#ArialMT-65" x="522.460938"/>
      <use xlink:href="#ArialMT-74" x="578.076172"/>
      <use xlink:href="#ArialMT-77" x="605.859375"/>
      <use xlink:href="#ArialMT-6f" x="678.076172"/>
      <use xlink:href="#ArialMT-72" x="733.691406"/>
      <use xlink:href="#ArialMT-6b" x="766.992188"/>
      <use xlink:href="#ArialMT-4d" x="816.992188"/>
      <use xlink:href="#ArialMT-6f" x="900.292969"/>
      <use xlink:href="#ArialMT-64" x="955.908203"/>
      <use xlink:href="#ArialMT-69" x="1011.523438"/>
      <use xlink:href="#ArialMT-66" x="1033.740234"/>
      <use xlink:href="#ArialMT-69" x="1061.523438"/>
      <use xlink:href="#ArialMT-65" x="1083.740234"/>
      <use xlink:href="#ArialMT-64" x="1139.355469"/>
      <use xlink:href="#ArialMT-41" x="1194.970703"/>
      <use xlink:href="#ArialMT-6c" x="1261.669922"/>
      <use xlink:href="#ArialMT-69" x="1283.886719"/>
      <use xlink:href="#ArialMT-67" x="1306.103516"/>
      <use xlink:href="#ArialMT-6e" x="1361.71875"/>
      <use xlink:href="#ArialMT-65" x="1417.333984"/>
      <use xlink:href="#ArialMT-64" x="1472.949219"/>
      <use xlink:href="#ArialMT-42" x="1528.564453"/>
      <use xlink:href="#ArialMT-69" x="1595.263672"/>
      <use xlink:href="#ArialMT-6e" x="1617.480469"/>
      <use xlink:href="#ArialMT-6f" x="1673.095703"/>
      <use xlink:href="#ArialMT-6d" x="1728.710938"/>
      <use xlink:href="#ArialMT-69" x="1812.011719"/>
      <use xlink:href="#ArialMT-61" x="1834.228516"/>
      <use xlink:href="#ArialMT-6c" x="1889.84375"/>
      <use xlink:href="#ArialMT-4f" x="1912.060547"/>
      <use xlink:href="#ArialMT-70" x="1989.84375"/>
     </g>
    </g>
    <g id="line2d_30">
     <path d="M 430.691563 338.517969 
L 441.691563 338.517969 
L 452.691563 338.517969 
" style="fill: none; stroke: #937860; stroke-width: 2.5; stroke-linecap: round"/>
    </g>
    <g id="text_22">
     <!-- UnreliableNetworkModifiedAlignedNegativeEpsOp -->
     <g style="fill: #262626" transform="translate(461.491563 342.367969) scale(0.11 -0.11)">
      <use xlink:href="#ArialMT-55"/>
      <use xlink:href="#ArialMT-6e" x="72.216797"/>
      <use xlink:href="#ArialMT-72" x="127.832031"/>
      <use xlink:href="#ArialMT-65" x="161.132812"/>
      <use xlink:href="#ArialMT-6c" x="216.748047"/>
      <use xlink:href="#ArialMT-69" x="238.964844"/>
      <use xlink:href="#ArialMT-61" x="261.181641"/>
      <use xlink:href="#ArialMT-62" x="316.796875"/>
      <use xlink:href="#ArialMT-6c" x="372.412109"/>
      <use xlink:href="#ArialMT-65" x="394.628906"/>
      <use xlink:href="#ArialMT-4e" x="450.244141"/>
      <use xlink:href="#ArialMT-65" x="522.460938"/>
      <use xlink:href="#ArialMT-74" x="578.076172"/>
      <use xlink:href="#ArialMT-77" x="605.859375"/>
      <use xlink:href="#ArialMT-6f" x="678.076172"/>
      <use xlink:href="#ArialMT-72" x="733.691406"/>
      <use xlink:href="#ArialMT-6b" x="766.992188"/>
      <use xlink:href="#ArialMT-4d" x="816.992188"/>
      <use xlink:href="#ArialMT-6f" x="900.292969"/>
      <use xlink:href="#ArialMT-64" x="955.908203"/>
      <use xlink:href="#ArialMT-69" x="1011.523438"/>
      <use xlink:href="#ArialMT-66" x="1033.740234"/>
      <use xlink:href="#ArialMT-69" x="1061.523438"/>
      <use xlink:href="#ArialMT-65" x="1083.740234"/>
      <use xlink:href="#ArialMT-64" x="1139.355469"/>
      <use xlink:href="#ArialMT-41" x="1194.970703"/>
      <use xlink:href="#ArialMT-6c" x="1261.669922"/>
      <use xlink:href="#ArialMT-69" x="1283.886719"/>
      <use xlink:href="#ArialMT-67" x="1306.103516"/>
      <use xlink:href="#ArialMT-6e" x="1361.71875"/>
      <use xlink:href="#ArialMT-65" x="1417.333984"/>
      <use xlink:href="#ArialMT-64" x="1472.949219"/>
      <use xlink:href="#ArialMT-4e" x="1528.564453"/>
      <use xlink:href="#ArialMT-65" x="1600.78125"/>
      <use xlink:href="#ArialMT-67" x="1656.396484"/>
      <use xlink:href="#ArialMT-61" x="1712.011719"/>
      <use xlink:href="#ArialMT-74" x="1767.626953"/>
      <use xlink:href="#ArialMT-69" x="1795.410156"/>
      <use xlink:href="#ArialMT-76" x="1817.626953"/>
      <use xlink:href="#ArialMT-65" x="1867.626953"/>
      <use xlink:href="#ArialMT-45" x="1923.242188"/>
      <use xlink:href="#ArialMT-70" x="1989.941406"/>
      <use xlink:href="#ArialMT-73" x="2045.556641"/>
      <use xlink:href="#ArialMT-4f" x="2095.556641"/>
      <use xlink:href="#ArialMT-70" x="2173.339844"/>
     </g>
    </g>
   </g>
  </g>
 </g>
 <defs>
  <clipPath id="pf64223c6ff">
   <rect x="46.964375" y="21.943125" width="669.6" height="332.64"/>
  </clipPath>
 </defs>
</svg>
