<?xml version="1.0" encoding="utf-8" standalone="no"?>
<!DOCTYPE svg PUBLIC "-//W3C//DTD SVG 1.1//EN"
  "http://www.w3.org/Graphics/SVG/1.1/DTD/svg11.dtd">
<svg xmlns:xlink="http://www.w3.org/1999/xlink" width="723.910625pt" height="396.317344pt" viewBox="0 0 723.910625 396.317344" xmlns="http://www.w3.org/2000/svg" version="1.1">
 <metadata>
  <rdf:RDF xmlns:dc="http://purl.org/dc/elements/1.1/" xmlns:cc="http://creativecommons.org/ns#" xmlns:rdf="http://www.w3.org/1999/02/22-rdf-syntax-ns#">
   <cc:Work>
    <dc:type rdf:resource="http://purl.org/dc/dcmitype/StillImage"/>
    <dc:date>2024-12-12T23:44:32.320092</dc:date>
    <dc:format>image/svg+xml</dc:format>
    <dc:creator>
     <cc:Agent>
      <dc:title>Matplotlib v3.9.2, https://matplotlib.org/</dc:title>
     </cc:Agent>
    </dc:creator>
   </cc:Work>
  </rdf:RDF>
 </metadata>
 <defs>
  <style type="text/css">*{stroke-linejoin: round; stroke-linecap: butt}</style>
 </defs>
 <g id="figure_1">
  <g id="patch_1">
   <path d="M 0 396.317344 
L 723.910625 396.317344 
L 723.910625 0 
L 0 0 
z
" style="fill: #ffffff"/>
  </g>
  <g id="axes_1">
   <g id="patch_2">
    <path d="M 47.110625 354.583125 
L 716.710625 354.583125 
L 716.710625 21.943125 
L 47.110625 21.943125 
z
" style="fill: #ffffff"/>
   </g>
   <g id="matplotlib.axis_1">
    <g id="xtick_1">
     <g id="line2d_1">
      <defs>
       <path id="m5181e9b87f" d="M 0 0 
L 0 6 
" style="stroke: #262626; stroke-width: 1.25"/>
      </defs>
      <g>
       <use xlink:href="#m5181e9b87f" x="77.546989" y="354.583125" style="fill: #262626; stroke: #262626; stroke-width: 1.25"/>
      </g>
     </g>
     <g id="text_1">
      <!-- 0 -->
      <g style="fill: #262626" transform="translate(74.488473 371.956719) scale(0.11 -0.11)">
       <defs>
        <path id="ArialMT-30" d="M 266 2259 
Q 266 3072 433 3567 
Q 600 4063 929 4331 
Q 1259 4600 1759 4600 
Q 2128 4600 2406 4451 
Q 2684 4303 2865 4023 
Q 3047 3744 3150 3342 
Q 3253 2941 3253 2259 
Q 3253 1453 3087 958 
Q 2922 463 2592 192 
Q 2263 -78 1759 -78 
Q 1097 -78 719 397 
Q 266 969 266 2259 
z
M 844 2259 
Q 844 1131 1108 757 
Q 1372 384 1759 384 
Q 2147 384 2411 759 
Q 2675 1134 2675 2259 
Q 2675 3391 2411 3762 
Q 2147 4134 1753 4134 
Q 1366 4134 1134 3806 
Q 844 3388 844 2259 
z
" transform="scale(0.015625)"/>
       </defs>
       <use xlink:href="#ArialMT-30"/>
      </g>
     </g>
    </g>
    <g id="xtick_2">
     <g id="line2d_2">
      <g>
       <use xlink:href="#m5181e9b87f" x="199.292443" y="354.583125" style="fill: #262626; stroke: #262626; stroke-width: 1.25"/>
      </g>
     </g>
     <g id="text_2">
      <!-- 5000 -->
      <g style="fill: #262626" transform="translate(187.058381 371.956719) scale(0.11 -0.11)">
       <defs>
        <path id="ArialMT-35" d="M 266 1200 
L 856 1250 
Q 922 819 1161 601 
Q 1400 384 1738 384 
Q 2144 384 2425 690 
Q 2706 997 2706 1503 
Q 2706 1984 2436 2262 
Q 2166 2541 1728 2541 
Q 1456 2541 1237 2417 
Q 1019 2294 894 2097 
L 366 2166 
L 809 4519 
L 3088 4519 
L 3088 3981 
L 1259 3981 
L 1013 2750 
Q 1425 3038 1878 3038 
Q 2478 3038 2890 2622 
Q 3303 2206 3303 1553 
Q 3303 931 2941 478 
Q 2500 -78 1738 -78 
Q 1113 -78 717 272 
Q 322 622 266 1200 
z
" transform="scale(0.015625)"/>
       </defs>
       <use xlink:href="#ArialMT-35"/>
       <use xlink:href="#ArialMT-30" x="55.615234"/>
       <use xlink:href="#ArialMT-30" x="111.230469"/>
       <use xlink:href="#ArialMT-30" x="166.845703"/>
      </g>
     </g>
    </g>
    <g id="xtick_3">
     <g id="line2d_3">
      <g>
       <use xlink:href="#m5181e9b87f" x="321.037898" y="354.583125" style="fill: #262626; stroke: #262626; stroke-width: 1.25"/>
      </g>
     </g>
     <g id="text_3">
      <!-- 10000 -->
      <g style="fill: #262626" transform="translate(305.74532 371.956719) scale(0.11 -0.11)">
       <defs>
        <path id="ArialMT-31" d="M 2384 0 
L 1822 0 
L 1822 3584 
Q 1619 3391 1289 3197 
Q 959 3003 697 2906 
L 697 3450 
Q 1169 3672 1522 3987 
Q 1875 4303 2022 4600 
L 2384 4600 
L 2384 0 
z
" transform="scale(0.015625)"/>
       </defs>
       <use xlink:href="#ArialMT-31"/>
       <use xlink:href="#ArialMT-30" x="55.615234"/>
       <use xlink:href="#ArialMT-30" x="111.230469"/>
       <use xlink:href="#ArialMT-30" x="166.845703"/>
       <use xlink:href="#ArialMT-30" x="222.460938"/>
      </g>
     </g>
    </g>
    <g id="xtick_4">
     <g id="line2d_4">
      <g>
       <use xlink:href="#m5181e9b87f" x="442.783352" y="354.583125" style="fill: #262626; stroke: #262626; stroke-width: 1.25"/>
      </g>
     </g>
     <g id="text_4">
      <!-- 15000 -->
      <g style="fill: #262626" transform="translate(427.490774 371.956719) scale(0.11 -0.11)">
       <use xlink:href="#ArialMT-31"/>
       <use xlink:href="#ArialMT-35" x="55.615234"/>
       <use xlink:href="#ArialMT-30" x="111.230469"/>
       <use xlink:href="#ArialMT-30" x="166.845703"/>
       <use xlink:href="#ArialMT-30" x="222.460938"/>
      </g>
     </g>
    </g>
    <g id="xtick_5">
     <g id="line2d_5">
      <g>
       <use xlink:href="#m5181e9b87f" x="564.528807" y="354.583125" style="fill: #262626; stroke: #262626; stroke-width: 1.25"/>
      </g>
     </g>
     <g id="text_5">
      <!-- 20000 -->
      <g style="fill: #262626" transform="translate(549.236229 371.956719) scale(0.11 -0.11)">
       <defs>
        <path id="ArialMT-32" d="M 3222 541 
L 3222 0 
L 194 0 
Q 188 203 259 391 
Q 375 700 629 1000 
Q 884 1300 1366 1694 
Q 2113 2306 2375 2664 
Q 2638 3022 2638 3341 
Q 2638 3675 2398 3904 
Q 2159 4134 1775 4134 
Q 1369 4134 1125 3890 
Q 881 3647 878 3216 
L 300 3275 
Q 359 3922 746 4261 
Q 1134 4600 1788 4600 
Q 2447 4600 2831 4234 
Q 3216 3869 3216 3328 
Q 3216 3053 3103 2787 
Q 2991 2522 2730 2228 
Q 2469 1934 1863 1422 
Q 1356 997 1212 845 
Q 1069 694 975 541 
L 3222 541 
z
" transform="scale(0.015625)"/>
       </defs>
       <use xlink:href="#ArialMT-32"/>
       <use xlink:href="#ArialMT-30" x="55.615234"/>
       <use xlink:href="#ArialMT-30" x="111.230469"/>
       <use xlink:href="#ArialMT-30" x="166.845703"/>
       <use xlink:href="#ArialMT-30" x="222.460938"/>
      </g>
     </g>
    </g>
    <g id="xtick_6">
     <g id="line2d_6">
      <g>
       <use xlink:href="#m5181e9b87f" x="686.274261" y="354.583125" style="fill: #262626; stroke: #262626; stroke-width: 1.25"/>
      </g>
     </g>
     <g id="text_6">
      <!-- 25000 -->
      <g style="fill: #262626" transform="translate(670.981683 371.956719) scale(0.11 -0.11)">
       <use xlink:href="#ArialMT-32"/>
       <use xlink:href="#ArialMT-35" x="55.615234"/>
       <use xlink:href="#ArialMT-30" x="111.230469"/>
       <use xlink:href="#ArialMT-30" x="166.845703"/>
       <use xlink:href="#ArialMT-30" x="222.460938"/>
      </g>
     </g>
    </g>
    <g id="text_7">
     <!-- Iteration -->
     <g style="fill: #262626" transform="translate(360.232813 386.732344) scale(0.12 -0.12)">
      <defs>
       <path id="ArialMT-49" d="M 597 0 
L 597 4581 
L 1203 4581 
L 1203 0 
L 597 0 
z
" transform="scale(0.015625)"/>
       <path id="ArialMT-74" d="M 1650 503 
L 1731 6 
Q 1494 -44 1306 -44 
Q 1000 -44 831 53 
Q 663 150 594 308 
Q 525 466 525 972 
L 525 2881 
L 113 2881 
L 113 3319 
L 525 3319 
L 525 4141 
L 1084 4478 
L 1084 3319 
L 1650 3319 
L 1650 2881 
L 1084 2881 
L 1084 941 
Q 1084 700 1114 631 
Q 1144 563 1211 522 
Q 1278 481 1403 481 
Q 1497 481 1650 503 
z
" transform="scale(0.015625)"/>
       <path id="ArialMT-65" d="M 2694 1069 
L 3275 997 
Q 3138 488 2766 206 
Q 2394 -75 1816 -75 
Q 1088 -75 661 373 
Q 234 822 234 1631 
Q 234 2469 665 2931 
Q 1097 3394 1784 3394 
Q 2450 3394 2872 2941 
Q 3294 2488 3294 1666 
Q 3294 1616 3291 1516 
L 816 1516 
Q 847 969 1125 678 
Q 1403 388 1819 388 
Q 2128 388 2347 550 
Q 2566 713 2694 1069 
z
M 847 1978 
L 2700 1978 
Q 2663 2397 2488 2606 
Q 2219 2931 1791 2931 
Q 1403 2931 1139 2672 
Q 875 2413 847 1978 
z
" transform="scale(0.015625)"/>
       <path id="ArialMT-72" d="M 416 0 
L 416 3319 
L 922 3319 
L 922 2816 
Q 1116 3169 1280 3281 
Q 1444 3394 1641 3394 
Q 1925 3394 2219 3213 
L 2025 2691 
Q 1819 2813 1613 2813 
Q 1428 2813 1281 2702 
Q 1134 2591 1072 2394 
Q 978 2094 978 1738 
L 978 0 
L 416 0 
z
" transform="scale(0.015625)"/>
       <path id="ArialMT-61" d="M 2588 409 
Q 2275 144 1986 34 
Q 1697 -75 1366 -75 
Q 819 -75 525 192 
Q 231 459 231 875 
Q 231 1119 342 1320 
Q 453 1522 633 1644 
Q 813 1766 1038 1828 
Q 1203 1872 1538 1913 
Q 2219 1994 2541 2106 
Q 2544 2222 2544 2253 
Q 2544 2597 2384 2738 
Q 2169 2928 1744 2928 
Q 1347 2928 1158 2789 
Q 969 2650 878 2297 
L 328 2372 
Q 403 2725 575 2942 
Q 747 3159 1072 3276 
Q 1397 3394 1825 3394 
Q 2250 3394 2515 3294 
Q 2781 3194 2906 3042 
Q 3031 2891 3081 2659 
Q 3109 2516 3109 2141 
L 3109 1391 
Q 3109 606 3145 398 
Q 3181 191 3288 0 
L 2700 0 
Q 2613 175 2588 409 
z
M 2541 1666 
Q 2234 1541 1622 1453 
Q 1275 1403 1131 1340 
Q 988 1278 909 1158 
Q 831 1038 831 891 
Q 831 666 1001 516 
Q 1172 366 1500 366 
Q 1825 366 2078 508 
Q 2331 650 2450 897 
Q 2541 1088 2541 1459 
L 2541 1666 
z
" transform="scale(0.015625)"/>
       <path id="ArialMT-69" d="M 425 3934 
L 425 4581 
L 988 4581 
L 988 3934 
L 425 3934 
z
M 425 0 
L 425 3319 
L 988 3319 
L 988 0 
L 425 0 
z
" transform="scale(0.015625)"/>
       <path id="ArialMT-6f" d="M 213 1659 
Q 213 2581 725 3025 
Q 1153 3394 1769 3394 
Q 2453 3394 2887 2945 
Q 3322 2497 3322 1706 
Q 3322 1066 3130 698 
Q 2938 331 2570 128 
Q 2203 -75 1769 -75 
Q 1072 -75 642 372 
Q 213 819 213 1659 
z
M 791 1659 
Q 791 1022 1069 705 
Q 1347 388 1769 388 
Q 2188 388 2466 706 
Q 2744 1025 2744 1678 
Q 2744 2294 2464 2611 
Q 2184 2928 1769 2928 
Q 1347 2928 1069 2612 
Q 791 2297 791 1659 
z
" transform="scale(0.015625)"/>
       <path id="ArialMT-6e" d="M 422 0 
L 422 3319 
L 928 3319 
L 928 2847 
Q 1294 3394 1984 3394 
Q 2284 3394 2536 3286 
Q 2788 3178 2913 3003 
Q 3038 2828 3088 2588 
Q 3119 2431 3119 2041 
L 3119 0 
L 2556 0 
L 2556 2019 
Q 2556 2363 2490 2533 
Q 2425 2703 2258 2804 
Q 2091 2906 1866 2906 
Q 1506 2906 1245 2678 
Q 984 2450 984 1813 
L 984 0 
L 422 0 
z
" transform="scale(0.015625)"/>
      </defs>
      <use xlink:href="#ArialMT-49"/>
      <use xlink:href="#ArialMT-74" x="27.783203"/>
      <use xlink:href="#ArialMT-65" x="55.566406"/>
      <use xlink:href="#ArialMT-72" x="111.181641"/>
      <use xlink:href="#ArialMT-61" x="144.482422"/>
      <use xlink:href="#ArialMT-74" x="200.097656"/>
      <use xlink:href="#ArialMT-69" x="227.880859"/>
      <use xlink:href="#ArialMT-6f" x="250.097656"/>
      <use xlink:href="#ArialMT-6e" x="305.712891"/>
     </g>
    </g>
   </g>
   <g id="matplotlib.axis_2">
    <g id="ytick_1">
     <g id="line2d_7">
      <defs>
       <path id="m6b4732c3a0" d="M 0 0 
L -6 0 
" style="stroke: #262626; stroke-width: 1.25"/>
      </defs>
      <g>
       <use xlink:href="#m6b4732c3a0" x="47.110625" y="338.815921" style="fill: #262626; stroke: #262626; stroke-width: 1.25"/>
      </g>
     </g>
     <g id="text_8">
      <!-- 0.2 -->
      <g style="fill: #262626" transform="translate(22.320625 342.752718) scale(0.11 -0.11)">
       <defs>
        <path id="ArialMT-2e" d="M 581 0 
L 581 641 
L 1222 641 
L 1222 0 
L 581 0 
z
" transform="scale(0.015625)"/>
       </defs>
       <use xlink:href="#ArialMT-30"/>
       <use xlink:href="#ArialMT-2e" x="55.615234"/>
       <use xlink:href="#ArialMT-32" x="83.398438"/>
      </g>
     </g>
    </g>
    <g id="ytick_2">
     <g id="line2d_8">
      <g>
       <use xlink:href="#m6b4732c3a0" x="47.110625" y="301.096811" style="fill: #262626; stroke: #262626; stroke-width: 1.25"/>
      </g>
     </g>
     <g id="text_9">
      <!-- 0.3 -->
      <g style="fill: #262626" transform="translate(22.320625 305.033607) scale(0.11 -0.11)">
       <defs>
        <path id="ArialMT-33" d="M 269 1209 
L 831 1284 
Q 928 806 1161 595 
Q 1394 384 1728 384 
Q 2125 384 2398 659 
Q 2672 934 2672 1341 
Q 2672 1728 2419 1979 
Q 2166 2231 1775 2231 
Q 1616 2231 1378 2169 
L 1441 2663 
Q 1497 2656 1531 2656 
Q 1891 2656 2178 2843 
Q 2466 3031 2466 3422 
Q 2466 3731 2256 3934 
Q 2047 4138 1716 4138 
Q 1388 4138 1169 3931 
Q 950 3725 888 3313 
L 325 3413 
Q 428 3978 793 4289 
Q 1159 4600 1703 4600 
Q 2078 4600 2393 4439 
Q 2709 4278 2876 4000 
Q 3044 3722 3044 3409 
Q 3044 3113 2884 2869 
Q 2725 2625 2413 2481 
Q 2819 2388 3044 2092 
Q 3269 1797 3269 1353 
Q 3269 753 2831 336 
Q 2394 -81 1725 -81 
Q 1122 -81 723 278 
Q 325 638 269 1209 
z
" transform="scale(0.015625)"/>
       </defs>
       <use xlink:href="#ArialMT-30"/>
       <use xlink:href="#ArialMT-2e" x="55.615234"/>
       <use xlink:href="#ArialMT-33" x="83.398438"/>
      </g>
     </g>
    </g>
    <g id="ytick_3">
     <g id="line2d_9">
      <g>
       <use xlink:href="#m6b4732c3a0" x="47.110625" y="263.3777" style="fill: #262626; stroke: #262626; stroke-width: 1.25"/>
      </g>
     </g>
     <g id="text_10">
      <!-- 0.4 -->
      <g style="fill: #262626" transform="translate(22.320625 267.314497) scale(0.11 -0.11)">
       <defs>
        <path id="ArialMT-34" d="M 2069 0 
L 2069 1097 
L 81 1097 
L 81 1613 
L 2172 4581 
L 2631 4581 
L 2631 1613 
L 3250 1613 
L 3250 1097 
L 2631 1097 
L 2631 0 
L 2069 0 
z
M 2069 1613 
L 2069 3678 
L 634 1613 
L 2069 1613 
z
" transform="scale(0.015625)"/>
       </defs>
       <use xlink:href="#ArialMT-30"/>
       <use xlink:href="#ArialMT-2e" x="55.615234"/>
       <use xlink:href="#ArialMT-34" x="83.398438"/>
      </g>
     </g>
    </g>
    <g id="ytick_4">
     <g id="line2d_10">
      <g>
       <use xlink:href="#m6b4732c3a0" x="47.110625" y="225.658589" style="fill: #262626; stroke: #262626; stroke-width: 1.25"/>
      </g>
     </g>
     <g id="text_11">
      <!-- 0.5 -->
      <g style="fill: #262626" transform="translate(22.320625 229.595386) scale(0.11 -0.11)">
       <use xlink:href="#ArialMT-30"/>
       <use xlink:href="#ArialMT-2e" x="55.615234"/>
       <use xlink:href="#ArialMT-35" x="83.398438"/>
      </g>
     </g>
    </g>
    <g id="ytick_5">
     <g id="line2d_11">
      <g>
       <use xlink:href="#m6b4732c3a0" x="47.110625" y="187.939478" style="fill: #262626; stroke: #262626; stroke-width: 1.25"/>
      </g>
     </g>
     <g id="text_12">
      <!-- 0.6 -->
      <g style="fill: #262626" transform="translate(22.320625 191.876275) scale(0.11 -0.11)">
       <defs>
        <path id="ArialMT-36" d="M 3184 3459 
L 2625 3416 
Q 2550 3747 2413 3897 
Q 2184 4138 1850 4138 
Q 1581 4138 1378 3988 
Q 1113 3794 959 3422 
Q 806 3050 800 2363 
Q 1003 2672 1297 2822 
Q 1591 2972 1913 2972 
Q 2475 2972 2870 2558 
Q 3266 2144 3266 1488 
Q 3266 1056 3080 686 
Q 2894 316 2569 119 
Q 2244 -78 1831 -78 
Q 1128 -78 684 439 
Q 241 956 241 2144 
Q 241 3472 731 4075 
Q 1159 4600 1884 4600 
Q 2425 4600 2770 4297 
Q 3116 3994 3184 3459 
z
M 888 1484 
Q 888 1194 1011 928 
Q 1134 663 1356 523 
Q 1578 384 1822 384 
Q 2178 384 2434 671 
Q 2691 959 2691 1453 
Q 2691 1928 2437 2201 
Q 2184 2475 1800 2475 
Q 1419 2475 1153 2201 
Q 888 1928 888 1484 
z
" transform="scale(0.015625)"/>
       </defs>
       <use xlink:href="#ArialMT-30"/>
       <use xlink:href="#ArialMT-2e" x="55.615234"/>
       <use xlink:href="#ArialMT-36" x="83.398438"/>
      </g>
     </g>
    </g>
    <g id="ytick_6">
     <g id="line2d_12">
      <g>
       <use xlink:href="#m6b4732c3a0" x="47.110625" y="150.220367" style="fill: #262626; stroke: #262626; stroke-width: 1.25"/>
      </g>
     </g>
     <g id="text_13">
      <!-- 0.7 -->
      <g style="fill: #262626" transform="translate(22.320625 154.157164) scale(0.11 -0.11)">
       <defs>
        <path id="ArialMT-37" d="M 303 3981 
L 303 4522 
L 3269 4522 
L 3269 4084 
Q 2831 3619 2401 2847 
Q 1972 2075 1738 1259 
Q 1569 684 1522 0 
L 944 0 
Q 953 541 1156 1306 
Q 1359 2072 1739 2783 
Q 2119 3494 2547 3981 
L 303 3981 
z
" transform="scale(0.015625)"/>
       </defs>
       <use xlink:href="#ArialMT-30"/>
       <use xlink:href="#ArialMT-2e" x="55.615234"/>
       <use xlink:href="#ArialMT-37" x="83.398438"/>
      </g>
     </g>
    </g>
    <g id="ytick_7">
     <g id="line2d_13">
      <g>
       <use xlink:href="#m6b4732c3a0" x="47.110625" y="112.501257" style="fill: #262626; stroke: #262626; stroke-width: 1.25"/>
      </g>
     </g>
     <g id="text_14">
      <!-- 0.8 -->
      <g style="fill: #262626" transform="translate(22.320625 116.438054) scale(0.11 -0.11)">
       <defs>
        <path id="ArialMT-38" d="M 1131 2484 
Q 781 2613 612 2850 
Q 444 3088 444 3419 
Q 444 3919 803 4259 
Q 1163 4600 1759 4600 
Q 2359 4600 2725 4251 
Q 3091 3903 3091 3403 
Q 3091 3084 2923 2848 
Q 2756 2613 2416 2484 
Q 2838 2347 3058 2040 
Q 3278 1734 3278 1309 
Q 3278 722 2862 322 
Q 2447 -78 1769 -78 
Q 1091 -78 675 323 
Q 259 725 259 1325 
Q 259 1772 486 2073 
Q 713 2375 1131 2484 
z
M 1019 3438 
Q 1019 3113 1228 2906 
Q 1438 2700 1772 2700 
Q 2097 2700 2305 2904 
Q 2513 3109 2513 3406 
Q 2513 3716 2298 3927 
Q 2084 4138 1766 4138 
Q 1444 4138 1231 3931 
Q 1019 3725 1019 3438 
z
M 838 1322 
Q 838 1081 952 856 
Q 1066 631 1291 507 
Q 1516 384 1775 384 
Q 2178 384 2440 643 
Q 2703 903 2703 1303 
Q 2703 1709 2433 1975 
Q 2163 2241 1756 2241 
Q 1359 2241 1098 1978 
Q 838 1716 838 1322 
z
" transform="scale(0.015625)"/>
       </defs>
       <use xlink:href="#ArialMT-30"/>
       <use xlink:href="#ArialMT-2e" x="55.615234"/>
       <use xlink:href="#ArialMT-38" x="83.398438"/>
      </g>
     </g>
    </g>
    <g id="ytick_8">
     <g id="line2d_14">
      <g>
       <use xlink:href="#m6b4732c3a0" x="47.110625" y="74.782146" style="fill: #262626; stroke: #262626; stroke-width: 1.25"/>
      </g>
     </g>
     <g id="text_15">
      <!-- 0.9 -->
      <g style="fill: #262626" transform="translate(22.320625 78.718943) scale(0.11 -0.11)">
       <defs>
        <path id="ArialMT-39" d="M 350 1059 
L 891 1109 
Q 959 728 1153 556 
Q 1347 384 1650 384 
Q 1909 384 2104 503 
Q 2300 622 2425 820 
Q 2550 1019 2634 1356 
Q 2719 1694 2719 2044 
Q 2719 2081 2716 2156 
Q 2547 1888 2255 1720 
Q 1963 1553 1622 1553 
Q 1053 1553 659 1965 
Q 266 2378 266 3053 
Q 266 3750 677 4175 
Q 1088 4600 1706 4600 
Q 2153 4600 2523 4359 
Q 2894 4119 3086 3673 
Q 3278 3228 3278 2384 
Q 3278 1506 3087 986 
Q 2897 466 2520 194 
Q 2144 -78 1638 -78 
Q 1100 -78 759 220 
Q 419 519 350 1059 
z
M 2653 3081 
Q 2653 3566 2395 3850 
Q 2138 4134 1775 4134 
Q 1400 4134 1122 3828 
Q 844 3522 844 3034 
Q 844 2597 1108 2323 
Q 1372 2050 1759 2050 
Q 2150 2050 2401 2323 
Q 2653 2597 2653 3081 
z
" transform="scale(0.015625)"/>
       </defs>
       <use xlink:href="#ArialMT-30"/>
       <use xlink:href="#ArialMT-2e" x="55.615234"/>
       <use xlink:href="#ArialMT-39" x="83.398438"/>
      </g>
     </g>
    </g>
    <g id="ytick_9">
     <g id="line2d_15">
      <g>
       <use xlink:href="#m6b4732c3a0" x="47.110625" y="37.063035" style="fill: #262626; stroke: #262626; stroke-width: 1.25"/>
      </g>
     </g>
     <g id="text_16">
      <!-- 1.0 -->
      <g style="fill: #262626" transform="translate(22.320625 40.999832) scale(0.11 -0.11)">
       <use xlink:href="#ArialMT-31"/>
       <use xlink:href="#ArialMT-2e" x="55.615234"/>
       <use xlink:href="#ArialMT-30" x="83.398438"/>
      </g>
     </g>
    </g>
    <g id="text_17">
     <!-- p25 Beliefs -->
     <g style="fill: #262626" transform="translate(15.935625 217.948125) rotate(-90) scale(0.12 -0.12)">
      <defs>
       <path id="ArialMT-70" d="M 422 -1272 
L 422 3319 
L 934 3319 
L 934 2888 
Q 1116 3141 1344 3267 
Q 1572 3394 1897 3394 
Q 2322 3394 2647 3175 
Q 2972 2956 3137 2557 
Q 3303 2159 3303 1684 
Q 3303 1175 3120 767 
Q 2938 359 2589 142 
Q 2241 -75 1856 -75 
Q 1575 -75 1351 44 
Q 1128 163 984 344 
L 984 -1272 
L 422 -1272 
z
M 931 1641 
Q 931 1000 1190 694 
Q 1450 388 1819 388 
Q 2194 388 2461 705 
Q 2728 1022 2728 1688 
Q 2728 2322 2467 2637 
Q 2206 2953 1844 2953 
Q 1484 2953 1207 2617 
Q 931 2281 931 1641 
z
" transform="scale(0.015625)"/>
       <path id="ArialMT-20" transform="scale(0.015625)"/>
       <path id="ArialMT-42" d="M 469 0 
L 469 4581 
L 2188 4581 
Q 2713 4581 3030 4442 
Q 3347 4303 3526 4014 
Q 3706 3725 3706 3409 
Q 3706 3116 3547 2856 
Q 3388 2597 3066 2438 
Q 3481 2316 3704 2022 
Q 3928 1728 3928 1328 
Q 3928 1006 3792 729 
Q 3656 453 3456 303 
Q 3256 153 2954 76 
Q 2653 0 2216 0 
L 469 0 
z
M 1075 2656 
L 2066 2656 
Q 2469 2656 2644 2709 
Q 2875 2778 2992 2937 
Q 3109 3097 3109 3338 
Q 3109 3566 3000 3739 
Q 2891 3913 2687 3977 
Q 2484 4041 1991 4041 
L 1075 4041 
L 1075 2656 
z
M 1075 541 
L 2216 541 
Q 2509 541 2628 563 
Q 2838 600 2978 687 
Q 3119 775 3209 942 
Q 3300 1109 3300 1328 
Q 3300 1584 3169 1773 
Q 3038 1963 2805 2039 
Q 2572 2116 2134 2116 
L 1075 2116 
L 1075 541 
z
" transform="scale(0.015625)"/>
       <path id="ArialMT-6c" d="M 409 0 
L 409 4581 
L 972 4581 
L 972 0 
L 409 0 
z
" transform="scale(0.015625)"/>
       <path id="ArialMT-66" d="M 556 0 
L 556 2881 
L 59 2881 
L 59 3319 
L 556 3319 
L 556 3672 
Q 556 4006 616 4169 
Q 697 4388 901 4523 
Q 1106 4659 1475 4659 
Q 1713 4659 2000 4603 
L 1916 4113 
Q 1741 4144 1584 4144 
Q 1328 4144 1222 4034 
Q 1116 3925 1116 3625 
L 1116 3319 
L 1763 3319 
L 1763 2881 
L 1116 2881 
L 1116 0 
L 556 0 
z
" transform="scale(0.015625)"/>
       <path id="ArialMT-73" d="M 197 991 
L 753 1078 
Q 800 744 1014 566 
Q 1228 388 1613 388 
Q 2000 388 2187 545 
Q 2375 703 2375 916 
Q 2375 1106 2209 1216 
Q 2094 1291 1634 1406 
Q 1016 1563 777 1677 
Q 538 1791 414 1992 
Q 291 2194 291 2438 
Q 291 2659 392 2848 
Q 494 3038 669 3163 
Q 800 3259 1026 3326 
Q 1253 3394 1513 3394 
Q 1903 3394 2198 3281 
Q 2494 3169 2634 2976 
Q 2775 2784 2828 2463 
L 2278 2388 
Q 2241 2644 2061 2787 
Q 1881 2931 1553 2931 
Q 1166 2931 1000 2803 
Q 834 2675 834 2503 
Q 834 2394 903 2306 
Q 972 2216 1119 2156 
Q 1203 2125 1616 2013 
Q 2213 1853 2448 1751 
Q 2684 1650 2818 1456 
Q 2953 1263 2953 975 
Q 2953 694 2789 445 
Q 2625 197 2315 61 
Q 2006 -75 1616 -75 
Q 969 -75 630 194 
Q 291 463 197 991 
z
" transform="scale(0.015625)"/>
      </defs>
      <use xlink:href="#ArialMT-70"/>
      <use xlink:href="#ArialMT-32" x="55.615234"/>
      <use xlink:href="#ArialMT-35" x="111.230469"/>
      <use xlink:href="#ArialMT-20" x="166.845703"/>
      <use xlink:href="#ArialMT-42" x="194.628906"/>
      <use xlink:href="#ArialMT-65" x="261.328125"/>
      <use xlink:href="#ArialMT-6c" x="316.943359"/>
      <use xlink:href="#ArialMT-69" x="339.160156"/>
      <use xlink:href="#ArialMT-65" x="361.376953"/>
      <use xlink:href="#ArialMT-66" x="416.992188"/>
      <use xlink:href="#ArialMT-73" x="444.775391"/>
     </g>
    </g>
   </g>
   <g id="PolyCollection_1"/>
   <g id="PolyCollection_2"/>
   <g id="PolyCollection_3"/>
   <g id="PolyCollection_4"/>
   <g id="PolyCollection_5"/>
   <g id="PolyCollection_6"/>
   <g id="line2d_16">
    <path d="M 77.546989 320.29133 
L 77.571338 320.79725 
L 79.981898 323.485166 
L 82.416807 315.382682 
L 87.286625 294.921592 
L 89.721534 285.084073 
L 92.156443 270.21007 
L 94.591352 257.309837 
L 97.026261 242.264598 
L 111.635716 172.838597 
L 114.070625 161.97486 
L 116.505534 151.629543 
L 118.940443 142.613696 
L 121.375352 133.028215 
L 123.810261 125.134552 
L 128.68008 111.969208 
L 131.114989 105.54915 
L 133.549898 99.474848 
L 135.984807 94.771205 
L 140.854625 84.503362 
L 143.289534 80.823632 
L 145.724443 75.975787 
L 148.159352 71.991354 
L 153.02917 65.835352 
L 155.46408 62.993854 
L 160.333898 58.299878 
L 165.203716 54.175695 
L 167.638625 52.219056 
L 170.073534 50.770407 
L 174.943352 48.28703 
L 177.378261 47.464491 
L 179.81317 46.38273 
L 189.552807 43.398244 
L 196.857534 41.799592 
L 206.59717 40.264273 
L 216.336807 39.1795 
L 226.076443 38.509931 
L 235.81608 38.026808 
L 265.034989 37.35924 
L 286.94917 37.188621 
L 323.472807 37.090688 
L 467.132443 37.063507 
L 686.274261 37.063125 
L 686.274261 37.063125 
" clip-path="url(#p32fd339a6f)" style="fill: none; stroke: #4c72b0; stroke-width: 2.5; stroke-linecap: round"/>
   </g>
   <g id="line2d_17">
    <path d="M 77.546989 321.363963 
L 77.571338 322.070094 
L 79.981898 331.444416 
L 82.416807 330.715617 
L 89.721534 308.438347 
L 92.156443 303.735514 
L 94.591352 295.729945 
L 97.026261 288.2632 
L 99.46117 279.78096 
L 101.89608 270.615269 
L 104.330989 265.44333 
L 106.765898 258.842357 
L 109.200807 250.492764 
L 114.070625 237.64949 
L 116.505534 227.64469 
L 118.940443 218.515072 
L 121.375352 210.919705 
L 123.810261 202.93038 
L 126.24517 195.632949 
L 128.68008 186.503072 
L 131.114989 180.611934 
L 133.549898 172.87702 
L 135.984807 164.611162 
L 140.854625 151.591547 
L 143.289534 145.981214 
L 145.724443 138.722183 
L 148.159352 133.322149 
L 150.594261 129.25325 
L 153.02917 124.839854 
L 155.46408 118.990353 
L 157.898989 112.582436 
L 160.333898 109.046211 
L 162.768807 104.421728 
L 165.203716 100.706903 
L 167.638625 97.385609 
L 170.073534 93.763974 
L 172.508443 90.570762 
L 174.943352 87.050072 
L 177.378261 84.031166 
L 182.24808 78.570407 
L 184.682989 75.396058 
L 187.117898 72.465574 
L 189.552807 70.735513 
L 194.422625 66.657778 
L 204.162261 59.966988 
L 206.59717 58.55811 
L 211.466989 55.313323 
L 221.206625 50.552036 
L 223.641534 49.751237 
L 226.076443 48.466394 
L 235.81608 45.637081 
L 238.250989 44.92221 
L 245.555716 43.357956 
L 250.425534 42.658688 
L 257.730261 41.498149 
L 269.904807 40.127356 
L 274.774625 39.780498 
L 279.644443 39.312438 
L 284.514261 38.99148 
L 296.688807 38.365257 
L 311.298261 37.89758 
L 335.647352 37.469111 
L 372.170989 37.196625 
L 423.30408 37.091026 
L 593.747716 37.06362 
L 686.274261 37.063282 
L 686.274261 37.063282 
" clip-path="url(#p32fd339a6f)" style="fill: none; stroke: #dd8452; stroke-width: 2.5; stroke-linecap: round"/>
   </g>
   <g id="line2d_18">
    <path d="M 77.546989 321.179833 
L 77.571338 321.519052 
L 79.981898 335.493856 
L 82.416807 338.102348 
L 84.851716 339.463125 
L 87.286625 337.425163 
L 89.721534 337.062393 
L 92.156443 337.109752 
L 94.591352 335.231633 
L 97.026261 332.770053 
L 99.46117 330.820182 
L 101.89608 328.719365 
L 104.330989 328.738137 
L 106.765898 327.217578 
L 109.200807 323.218745 
L 111.635716 321.964477 
L 114.070625 319.984323 
L 116.505534 315.388786 
L 118.940443 312.831464 
L 121.375352 310.909539 
L 123.810261 307.701455 
L 126.24517 305.224901 
L 128.68008 301.907688 
L 131.114989 297.127031 
L 133.549898 293.205504 
L 135.984807 289.982953 
L 138.419716 284.910914 
L 140.854625 283.194938 
L 143.289534 279.718662 
L 145.724443 277.71544 
L 148.159352 274.184881 
L 150.594261 274.053022 
L 153.02917 271.798695 
L 157.898989 262.933278 
L 160.333898 261.313459 
L 162.768807 256.722688 
L 165.203716 253.993175 
L 170.073534 246.053828 
L 172.508443 244.367742 
L 174.943352 241.429839 
L 177.378261 238.17597 
L 182.24808 229.593021 
L 184.682989 226.63792 
L 187.117898 221.083612 
L 189.552807 217.108374 
L 191.987716 214.001675 
L 194.422625 212.368692 
L 196.857534 209.921062 
L 199.292443 205.797621 
L 201.727352 202.750184 
L 204.162261 201.270419 
L 206.59717 197.691275 
L 209.03208 194.374455 
L 211.466989 191.590916 
L 213.901898 188.017528 
L 216.336807 185.0736 
L 218.771716 180.487877 
L 221.206625 177.919831 
L 226.076443 171.463824 
L 230.946261 164.171542 
L 233.38117 160.408133 
L 235.81608 158.442569 
L 238.250989 157.717603 
L 240.685898 153.994797 
L 245.555716 149.864274 
L 247.990625 145.722217 
L 250.425534 141.312036 
L 252.860443 140.158107 
L 255.295352 137.112604 
L 260.16517 132.683268 
L 262.60008 130.711185 
L 265.034989 126.955217 
L 267.469898 125.731796 
L 269.904807 122.546475 
L 272.339716 121.262643 
L 274.774625 117.969835 
L 277.209534 114.937416 
L 279.644443 112.532165 
L 282.079352 109.773245 
L 286.94917 105.739755 
L 289.38408 102.538292 
L 291.818989 99.986007 
L 294.253898 98.722769 
L 296.688807 96.280085 
L 299.123716 95.402914 
L 301.558625 93.579798 
L 303.993534 91.966173 
L 306.428443 90.110751 
L 308.863352 88.698207 
L 313.73317 85.157936 
L 318.602989 82.260681 
L 321.037898 80.051746 
L 323.472807 78.79921 
L 325.907716 76.542455 
L 328.342625 76.102116 
L 330.777534 74.340219 
L 333.212443 73.979355 
L 342.95208 67.588188 
L 352.691716 62.632787 
L 359.996443 60.250288 
L 362.431352 59.211065 
L 364.866261 58.407726 
L 367.30117 57.32003 
L 369.73608 56.945474 
L 372.170989 55.762026 
L 379.475716 53.336271 
L 381.910625 52.775292 
L 384.345534 51.989129 
L 386.780443 51.389256 
L 389.215352 51.13815 
L 391.650261 50.325683 
L 394.08517 49.838986 
L 396.52008 48.8146 
L 398.954989 48.50875 
L 401.389898 47.652623 
L 403.824807 47.050164 
L 406.259716 46.686174 
L 408.694625 46.099363 
L 413.564443 45.295124 
L 420.86917 43.910392 
L 435.478625 42.337033 
L 437.913534 42.285301 
L 440.348443 41.921761 
L 452.522989 40.920668 
L 459.827716 40.411308 
L 472.002261 39.739895 
L 484.176807 39.229568 
L 491.481534 39.021337 
L 493.916443 38.815354 
L 498.786261 38.694062 
L 503.65608 38.519846 
L 518.265534 38.183038 
L 525.570261 37.983372 
L 554.78917 37.606388 
L 625.401534 37.201908 
L 676.534625 37.113598 
L 686.274261 37.107213 
L 686.274261 37.107213 
" clip-path="url(#p32fd339a6f)" style="fill: none; stroke: #55a868; stroke-width: 2.5; stroke-linecap: round"/>
   </g>
   <g id="line2d_19">
    <path d="M 77.546989 319.724168 
L 77.571338 319.947485 
L 79.981898 323.19968 
L 82.416807 318.270955 
L 84.851716 310.210372 
L 87.286625 300.033706 
L 89.721534 294.973077 
L 99.46117 259.049285 
L 101.89608 248.45592 
L 106.765898 231.601324 
L 109.200807 221.493735 
L 111.635716 216.944096 
L 114.070625 210.339683 
L 116.505534 201.465341 
L 118.940443 193.85871 
L 123.810261 177.451502 
L 126.24517 170.01223 
L 128.68008 164.602596 
L 131.114989 157.178544 
L 133.549898 150.811185 
L 135.984807 143.50321 
L 140.854625 134.061975 
L 143.289534 129.568115 
L 145.724443 124.476854 
L 148.159352 120.621942 
L 150.594261 114.645123 
L 153.02917 110.83612 
L 155.46408 105.89259 
L 157.898989 102.055102 
L 160.333898 98.464604 
L 162.768807 93.955995 
L 167.638625 87.384047 
L 170.073534 82.97562 
L 177.378261 75.177507 
L 182.24808 70.115967 
L 184.682989 67.96733 
L 187.117898 66.084636 
L 189.552807 63.678531 
L 194.422625 59.692749 
L 196.857534 58.298889 
L 199.292443 56.505719 
L 201.727352 55.05381 
L 204.162261 53.913213 
L 209.03208 51.429342 
L 216.336807 48.647601 
L 221.206625 47.078491 
L 230.946261 44.474969 
L 240.685898 42.59875 
L 247.990625 41.429578 
L 257.730261 40.337588 
L 265.034989 39.661724 
L 284.514261 38.45096 
L 306.428443 37.767901 
L 330.777534 37.389141 
L 369.73608 37.163711 
L 435.478625 37.077986 
L 686.274261 37.063282 
L 686.274261 37.063282 
" clip-path="url(#p32fd339a6f)" style="fill: none; stroke: #c44e52; stroke-width: 2.5; stroke-linecap: round"/>
   </g>
   <g id="line2d_20">
    <path d="M 77.546989 319.34669 
L 77.571338 319.547435 
L 79.981898 319.593164 
L 82.416807 315.335312 
L 84.851716 309.065335 
L 87.286625 304.942501 
L 89.721534 301.578423 
L 92.156443 297.790699 
L 94.591352 292.912435 
L 97.026261 289.61386 
L 99.46117 288.486078 
L 101.89608 285.441351 
L 104.330989 280.940701 
L 106.765898 276.037043 
L 109.200807 274.612 
L 111.635716 272.057871 
L 114.070625 267.109024 
L 116.505534 265.896271 
L 118.940443 263.65948 
L 121.375352 259.89597 
L 123.810261 257.50631 
L 126.24517 254.411672 
L 128.68008 252.943373 
L 131.114989 247.672556 
L 133.549898 248.439193 
L 135.984807 244.491103 
L 138.419716 241.031385 
L 140.854625 238.105465 
L 143.289534 235.845866 
L 145.724443 230.542619 
L 148.159352 227.899449 
L 150.594261 226.936204 
L 153.02917 225.58759 
L 155.46408 221.195642 
L 157.898989 214.329332 
L 160.333898 212.445334 
L 162.768807 203.996223 
L 165.203716 199.029334 
L 167.638625 199.784651 
L 170.073534 192.404777 
L 172.508443 189.809685 
L 174.943352 185.991419 
L 177.378261 183.541698 
L 179.81317 179.116139 
L 182.24808 175.337757 
L 184.682989 170.476805 
L 187.117898 168.075106 
L 189.552807 163.10091 
L 191.987716 161.474448 
L 194.422625 160.245698 
L 196.857534 158.509387 
L 199.292443 155.853345 
L 201.727352 152.270784 
L 204.162261 150.802575 
L 206.59717 146.36121 
L 209.03208 143.349971 
L 211.466989 137.046079 
L 213.901898 135.708312 
L 216.336807 133.656956 
L 218.771716 132.074874 
L 221.206625 130.155286 
L 223.641534 126.850967 
L 226.076443 125.097569 
L 228.511352 124.113427 
L 230.946261 119.723637 
L 233.38117 118.110462 
L 235.81608 116.947135 
L 238.250989 114.342511 
L 240.685898 112.381354 
L 243.120807 109.956588 
L 245.555716 107.272736 
L 247.990625 104.325391 
L 250.425534 104.74082 
L 252.860443 100.061817 
L 257.730261 94.255168 
L 260.16517 94.145566 
L 262.60008 92.489742 
L 265.034989 89.713015 
L 267.469898 88.280081 
L 269.904807 87.096655 
L 272.339716 85.412211 
L 274.774625 83.421242 
L 277.209534 82.327409 
L 279.644443 82.058048 
L 282.079352 81.305429 
L 284.514261 79.491351 
L 289.38408 78.401879 
L 291.818989 76.364822 
L 294.253898 75.191873 
L 296.688807 73.831849 
L 299.123716 74.447887 
L 301.558625 74.205685 
L 303.993534 72.225058 
L 306.428443 71.153954 
L 313.73317 67.127952 
L 316.16808 67.081368 
L 318.602989 65.534561 
L 321.037898 63.397074 
L 323.472807 62.183635 
L 325.907716 61.407702 
L 328.342625 60.927412 
L 330.777534 59.931264 
L 333.212443 60.107256 
L 335.647352 58.374699 
L 338.082261 57.438872 
L 340.51717 55.961602 
L 342.95208 55.648378 
L 345.386989 54.657581 
L 347.821898 53.805927 
L 350.256807 54.248717 
L 355.126625 52.875451 
L 357.561534 52.572007 
L 359.996443 51.862127 
L 362.431352 51.813924 
L 364.866261 51.134283 
L 369.73608 50.242072 
L 372.170989 49.363079 
L 374.605898 49.029756 
L 377.040807 47.861799 
L 379.475716 48.192356 
L 381.910625 47.877626 
L 384.345534 47.183574 
L 386.780443 46.809895 
L 389.215352 46.238821 
L 391.650261 45.833711 
L 394.08517 45.223721 
L 398.954989 44.691046 
L 401.389898 44.291738 
L 403.824807 44.312916 
L 408.694625 44.133417 
L 411.129534 43.530328 
L 413.564443 43.620909 
L 415.999352 43.162022 
L 418.434261 43.108672 
L 420.86917 42.715883 
L 423.30408 42.514688 
L 425.738989 42.468015 
L 428.173898 42.301825 
L 433.043716 41.67232 
L 435.478625 41.584751 
L 437.913534 41.276248 
L 442.783352 40.998412 
L 447.65317 40.688088 
L 459.827716 39.927308 
L 464.697534 39.54612 
L 469.567352 39.54603 
L 479.306989 39.04881 
L 501.22117 38.529536 
L 506.090989 38.430613 
L 559.658989 37.676286 
L 637.57608 37.198738 
L 686.274261 37.122951 
L 686.274261 37.122951 
" clip-path="url(#p32fd339a6f)" style="fill: none; stroke: #8172b3; stroke-width: 2.5; stroke-linecap: round"/>
   </g>
   <g id="line2d_21">
    <path d="M 77.546989 319.793459 
L 77.571338 320.130801 
L 79.981898 322.528177 
L 82.416807 322.125968 
L 84.851716 320.816866 
L 89.721534 318.896166 
L 92.156443 317.606467 
L 94.591352 313.489129 
L 97.026261 312.831093 
L 99.46117 310.448741 
L 101.89608 310.321525 
L 104.330989 306.109402 
L 106.765898 308.27163 
L 109.200807 306.180727 
L 111.635716 303.637794 
L 114.070625 299.530034 
L 116.505534 299.695751 
L 118.940443 299.226511 
L 121.375352 298.910128 
L 123.810261 298.356962 
L 126.24517 299.132299 
L 128.68008 298.367202 
L 131.114989 297.205787 
L 133.549898 297.05574 
L 135.984807 297.389625 
L 138.419716 296.737514 
L 140.854625 293.838539 
L 143.289534 291.971426 
L 145.724443 290.737505 
L 148.159352 293.027039 
L 150.594261 292.680272 
L 153.02917 291.816837 
L 155.46408 290.754985 
L 157.898989 287.846467 
L 160.333898 287.445461 
L 162.768807 287.312702 
L 165.203716 288.371115 
L 167.638625 285.962885 
L 170.073534 284.822176 
L 172.508443 282.517252 
L 174.943352 283.102783 
L 177.378261 282.445759 
L 179.81317 277.544158 
L 182.24808 275.183288 
L 184.682989 275.379131 
L 187.117898 275.849361 
L 189.552807 273.892531 
L 191.987716 273.717068 
L 194.422625 276.402145 
L 196.857534 278.680731 
L 199.292443 273.298559 
L 201.727352 273.095993 
L 204.162261 271.108273 
L 206.59717 272.261033 
L 209.03208 269.709276 
L 211.466989 270.188487 
L 213.901898 268.039805 
L 216.336807 269.146835 
L 218.771716 265.67935 
L 221.206625 264.466203 
L 226.076443 260.057629 
L 228.511352 261.74204 
L 230.946261 257.81189 
L 233.38117 255.862941 
L 235.81608 255.564443 
L 238.250989 254.269752 
L 243.120807 254.59134 
L 245.555716 253.014091 
L 247.990625 251.724751 
L 250.425534 249.935179 
L 252.860443 252.208166 
L 255.295352 252.467186 
L 257.730261 250.642957 
L 260.16517 248.412237 
L 262.60008 249.192138 
L 265.034989 247.427105 
L 267.469898 247.736541 
L 269.904807 245.141314 
L 274.774625 241.005912 
L 277.209534 240.624533 
L 279.644443 242.095249 
L 282.079352 242.236135 
L 284.514261 240.996234 
L 286.94917 239.295096 
L 289.38408 238.955781 
L 291.818989 241.781216 
L 294.253898 241.389832 
L 296.688807 239.243398 
L 299.123716 239.821205 
L 301.558625 239.911663 
L 303.993534 235.034659 
L 306.428443 231.671188 
L 308.863352 231.702517 
L 311.298261 230.680931 
L 313.73317 235.17804 
L 316.16808 230.500285 
L 318.602989 226.754929 
L 321.037898 226.671036 
L 323.472807 228.841909 
L 325.907716 228.535609 
L 328.342625 229.386217 
L 330.777534 226.509725 
L 333.212443 226.129954 
L 335.647352 229.081076 
L 338.082261 227.47759 
L 340.51717 227.439415 
L 342.95208 228.17216 
L 345.386989 229.457014 
L 347.821898 226.146107 
L 350.256807 226.775141 
L 352.691716 222.082728 
L 355.126625 221.25259 
L 357.561534 217.915041 
L 359.996443 218.261966 
L 362.431352 222.967273 
L 364.866261 224.520623 
L 367.30117 223.676456 
L 369.73608 221.850935 
L 372.170989 221.712308 
L 374.605898 220.111431 
L 377.040807 223.785203 
L 379.475716 222.406158 
L 381.910625 224.911096 
L 384.345534 224.881824 
L 386.780443 223.97718 
L 389.215352 219.942611 
L 391.650261 218.817257 
L 394.08517 219.166498 
L 396.52008 219.274481 
L 398.954989 216.764012 
L 401.389898 219.761808 
L 403.824807 217.768051 
L 406.259716 217.908296 
L 411.129534 210.017916 
L 413.564443 213.18633 
L 415.999352 210.002875 
L 418.434261 209.162643 
L 420.86917 208.75515 
L 423.30408 209.042205 
L 425.738989 204.2074 
L 428.173898 200.760677 
L 430.608807 200.80436 
L 433.043716 196.783933 
L 435.478625 197.435426 
L 440.348443 197.991459 
L 442.783352 193.224079 
L 445.218261 190.149708 
L 447.65317 188.978603 
L 450.08808 184.639264 
L 452.522989 187.178037 
L 454.957898 185.728848 
L 457.392807 183.774818 
L 459.827716 182.215577 
L 462.262625 182.487569 
L 464.697534 186.644756 
L 467.132443 186.385063 
L 469.567352 186.970143 
L 472.002261 187.278219 
L 474.43717 184.691355 
L 476.87208 189.304462 
L 479.306989 182.983394 
L 481.741898 181.531575 
L 484.176807 180.547702 
L 486.611716 184.355109 
L 489.046625 182.683053 
L 491.481534 181.953051 
L 493.916443 177.944022 
L 496.351352 176.797783 
L 498.786261 177.265708 
L 501.22117 176.850301 
L 503.65608 177.850631 
L 506.090989 177.69539 
L 508.525898 176.044534 
L 510.960807 175.407025 
L 513.395716 171.499032 
L 515.830625 173.595398 
L 518.265534 171.103253 
L 520.700443 171.481001 
L 523.135352 171.266564 
L 525.570261 169.534143 
L 528.00517 170.423027 
L 530.44008 168.600586 
L 532.874989 171.669358 
L 535.309898 170.619657 
L 537.744807 166.043849 
L 540.179716 164.314979 
L 542.614625 165.266927 
L 545.049534 163.609933 
L 547.484443 159.016588 
L 549.919352 162.896231 
L 552.354261 160.59269 
L 554.78917 160.787747 
L 559.658989 156.14701 
L 562.093898 160.015276 
L 564.528807 157.110063 
L 566.963716 159.201978 
L 569.398625 156.071244 
L 571.833534 153.350588 
L 574.268443 153.144785 
L 576.703352 153.776809 
L 581.57317 151.243678 
L 584.00808 150.64585 
L 586.442989 152.746713 
L 588.877898 148.178009 
L 591.312807 146.421148 
L 593.747716 150.643242 
L 596.182625 144.440769 
L 598.617534 144.827285 
L 601.052443 142.518326 
L 603.487352 142.447619 
L 605.922261 142.220413 
L 608.35717 142.453959 
L 610.79208 144.463746 
L 613.226989 145.043228 
L 615.661898 142.97148 
L 618.096807 143.429198 
L 620.531716 139.717454 
L 622.966625 142.442134 
L 625.401534 141.37121 
L 627.836443 141.65741 
L 630.271352 143.806317 
L 632.706261 144.836368 
L 635.14117 143.70989 
L 637.57608 141.838663 
L 640.010989 142.611583 
L 642.445898 144.190338 
L 644.880807 139.708461 
L 647.315716 141.35201 
L 649.750625 143.753214 
L 652.185534 140.534687 
L 657.055352 135.540482 
L 659.490261 137.840965 
L 661.92517 136.782923 
L 664.36008 141.439286 
L 666.794989 138.342703 
L 669.229898 135.540257 
L 671.664807 135.375057 
L 674.099716 132.161049 
L 676.534625 133.700594 
L 678.969534 133.602414 
L 681.404443 130.881578 
L 683.839352 127.430382 
L 686.274261 129.193739 
L 686.274261 129.193739 
" clip-path="url(#p32fd339a6f)" style="fill: none; stroke: #937860; stroke-width: 2.5; stroke-linecap: round"/>
   </g>
   <g id="line2d_22"/>
   <g id="line2d_23"/>
   <g id="line2d_24"/>
   <g id="line2d_25"/>
   <g id="line2d_26"/>
   <g id="line2d_27"/>
   <g id="patch_3">
    <path d="M 47.110625 354.583125 
L 47.110625 21.943125 
" style="fill: none; stroke: #262626; stroke-width: 1.25; stroke-linejoin: miter; stroke-linecap: square"/>
   </g>
   <g id="patch_4">
    <path d="M 47.110625 354.583125 
L 716.710625 354.583125 
" style="fill: none; stroke: #262626; stroke-width: 1.25; stroke-linejoin: miter; stroke-linecap: square"/>
   </g>
   <g id="text_18">
    <!-- p25 Beliefs Comparison Across Ops -->
    <g style="fill: #262626" transform="translate(285.870313 15.943125) scale(0.12 -0.12)">
     <defs>
      <path id="ArialMT-43" d="M 3763 1606 
L 4369 1453 
Q 4178 706 3683 314 
Q 3188 -78 2472 -78 
Q 1731 -78 1267 223 
Q 803 525 561 1097 
Q 319 1669 319 2325 
Q 319 3041 592 3573 
Q 866 4106 1370 4382 
Q 1875 4659 2481 4659 
Q 3169 4659 3637 4309 
Q 4106 3959 4291 3325 
L 3694 3184 
Q 3534 3684 3231 3912 
Q 2928 4141 2469 4141 
Q 1941 4141 1586 3887 
Q 1231 3634 1087 3207 
Q 944 2781 944 2328 
Q 944 1744 1114 1308 
Q 1284 872 1643 656 
Q 2003 441 2422 441 
Q 2931 441 3284 734 
Q 3638 1028 3763 1606 
z
" transform="scale(0.015625)"/>
      <path id="ArialMT-6d" d="M 422 0 
L 422 3319 
L 925 3319 
L 925 2853 
Q 1081 3097 1340 3245 
Q 1600 3394 1931 3394 
Q 2300 3394 2536 3241 
Q 2772 3088 2869 2813 
Q 3263 3394 3894 3394 
Q 4388 3394 4653 3120 
Q 4919 2847 4919 2278 
L 4919 0 
L 4359 0 
L 4359 2091 
Q 4359 2428 4304 2576 
Q 4250 2725 4106 2815 
Q 3963 2906 3769 2906 
Q 3419 2906 3187 2673 
Q 2956 2441 2956 1928 
L 2956 0 
L 2394 0 
L 2394 2156 
Q 2394 2531 2256 2718 
Q 2119 2906 1806 2906 
Q 1569 2906 1367 2781 
Q 1166 2656 1075 2415 
Q 984 2175 984 1722 
L 984 0 
L 422 0 
z
" transform="scale(0.015625)"/>
      <path id="ArialMT-41" d="M -9 0 
L 1750 4581 
L 2403 4581 
L 4278 0 
L 3588 0 
L 3053 1388 
L 1138 1388 
L 634 0 
L -9 0 
z
M 1313 1881 
L 2866 1881 
L 2388 3150 
Q 2169 3728 2063 4100 
Q 1975 3659 1816 3225 
L 1313 1881 
z
" transform="scale(0.015625)"/>
      <path id="ArialMT-63" d="M 2588 1216 
L 3141 1144 
Q 3050 572 2676 248 
Q 2303 -75 1759 -75 
Q 1078 -75 664 370 
Q 250 816 250 1647 
Q 250 2184 428 2587 
Q 606 2991 970 3192 
Q 1334 3394 1763 3394 
Q 2303 3394 2647 3120 
Q 2991 2847 3088 2344 
L 2541 2259 
Q 2463 2594 2264 2762 
Q 2066 2931 1784 2931 
Q 1359 2931 1093 2626 
Q 828 2322 828 1663 
Q 828 994 1084 691 
Q 1341 388 1753 388 
Q 2084 388 2306 591 
Q 2528 794 2588 1216 
z
" transform="scale(0.015625)"/>
      <path id="ArialMT-4f" d="M 309 2231 
Q 309 3372 921 4017 
Q 1534 4663 2503 4663 
Q 3138 4663 3647 4359 
Q 4156 4056 4423 3514 
Q 4691 2972 4691 2284 
Q 4691 1588 4409 1038 
Q 4128 488 3612 205 
Q 3097 -78 2500 -78 
Q 1853 -78 1343 234 
Q 834 547 571 1087 
Q 309 1628 309 2231 
z
M 934 2222 
Q 934 1394 1379 917 
Q 1825 441 2497 441 
Q 3181 441 3623 922 
Q 4066 1403 4066 2288 
Q 4066 2847 3877 3264 
Q 3688 3681 3323 3911 
Q 2959 4141 2506 4141 
Q 1863 4141 1398 3698 
Q 934 3256 934 2222 
z
" transform="scale(0.015625)"/>
     </defs>
     <use xlink:href="#ArialMT-70"/>
     <use xlink:href="#ArialMT-32" x="55.615234"/>
     <use xlink:href="#ArialMT-35" x="111.230469"/>
     <use xlink:href="#ArialMT-20" x="166.845703"/>
     <use xlink:href="#ArialMT-42" x="194.628906"/>
     <use xlink:href="#ArialMT-65" x="261.328125"/>
     <use xlink:href="#ArialMT-6c" x="316.943359"/>
     <use xlink:href="#ArialMT-69" x="339.160156"/>
     <use xlink:href="#ArialMT-65" x="361.376953"/>
     <use xlink:href="#ArialMT-66" x="416.992188"/>
     <use xlink:href="#ArialMT-73" x="444.775391"/>
     <use xlink:href="#ArialMT-20" x="494.775391"/>
     <use xlink:href="#ArialMT-43" x="522.558594"/>
     <use xlink:href="#ArialMT-6f" x="594.775391"/>
     <use xlink:href="#ArialMT-6d" x="650.390625"/>
     <use xlink:href="#ArialMT-70" x="733.691406"/>
     <use xlink:href="#ArialMT-61" x="789.306641"/>
     <use xlink:href="#ArialMT-72" x="844.921875"/>
     <use xlink:href="#ArialMT-69" x="878.222656"/>
     <use xlink:href="#ArialMT-73" x="900.439453"/>
     <use xlink:href="#ArialMT-6f" x="950.439453"/>
     <use xlink:href="#ArialMT-6e" x="1006.054688"/>
     <use xlink:href="#ArialMT-20" x="1061.669922"/>
     <use xlink:href="#ArialMT-41" x="1083.953125"/>
     <use xlink:href="#ArialMT-63" x="1150.652344"/>
     <use xlink:href="#ArialMT-72" x="1200.652344"/>
     <use xlink:href="#ArialMT-6f" x="1233.953125"/>
     <use xlink:href="#ArialMT-73" x="1289.568359"/>
     <use xlink:href="#ArialMT-73" x="1339.568359"/>
     <use xlink:href="#ArialMT-20" x="1389.568359"/>
     <use xlink:href="#ArialMT-4f" x="1417.351562"/>
     <use xlink:href="#ArialMT-70" x="1495.134766"/>
     <use xlink:href="#ArialMT-73" x="1550.75"/>
    </g>
   </g>
   <g id="legend_1">
    <g id="patch_5">
     <path d="M 428.637813 349.083125 
L 709.010625 349.083125 
Q 711.210625 349.083125 711.210625 346.883125 
L 711.210625 236.788437 
Q 711.210625 234.588437 709.010625 234.588437 
L 428.637813 234.588437 
Q 426.437813 234.588437 426.437813 236.788437 
L 426.437813 346.883125 
Q 426.437813 349.083125 428.637813 349.083125 
z
" style="fill: #ffffff; opacity: 0.8; stroke: #cccccc; stroke-linejoin: miter"/>
    </g>
    <g id="text_19">
     <!-- op -->
     <g style="fill: #262626" transform="translate(562.151094 247.577812) scale(0.12 -0.12)">
      <use xlink:href="#ArialMT-6f"/>
      <use xlink:href="#ArialMT-70" x="55.615234"/>
     </g>
    </g>
    <g id="line2d_28">
     <path d="M 430.837813 259.627344 
L 441.837813 259.627344 
L 452.837813 259.627344 
" style="fill: none; stroke: #4c72b0; stroke-width: 2.5; stroke-linecap: round"/>
    </g>
    <g id="text_20">
     <!-- BalaGoyalOp -->
     <g style="fill: #262626" transform="translate(461.637813 263.477344) scale(0.11 -0.11)">
      <defs>
       <path id="ArialMT-47" d="M 2638 1797 
L 2638 2334 
L 4578 2338 
L 4578 638 
Q 4131 281 3656 101 
Q 3181 -78 2681 -78 
Q 2006 -78 1454 211 
Q 903 500 622 1047 
Q 341 1594 341 2269 
Q 341 2938 620 3517 
Q 900 4097 1425 4378 
Q 1950 4659 2634 4659 
Q 3131 4659 3532 4498 
Q 3934 4338 4162 4050 
Q 4391 3763 4509 3300 
L 3963 3150 
Q 3859 3500 3706 3700 
Q 3553 3900 3268 4020 
Q 2984 4141 2638 4141 
Q 2222 4141 1919 4014 
Q 1616 3888 1430 3681 
Q 1244 3475 1141 3228 
Q 966 2803 966 2306 
Q 966 1694 1177 1281 
Q 1388 869 1791 669 
Q 2194 469 2647 469 
Q 3041 469 3416 620 
Q 3791 772 3984 944 
L 3984 1797 
L 2638 1797 
z
" transform="scale(0.015625)"/>
       <path id="ArialMT-79" d="M 397 -1278 
L 334 -750 
Q 519 -800 656 -800 
Q 844 -800 956 -737 
Q 1069 -675 1141 -563 
Q 1194 -478 1313 -144 
Q 1328 -97 1363 -6 
L 103 3319 
L 709 3319 
L 1400 1397 
Q 1534 1031 1641 628 
Q 1738 1016 1872 1384 
L 2581 3319 
L 3144 3319 
L 1881 -56 
Q 1678 -603 1566 -809 
Q 1416 -1088 1222 -1217 
Q 1028 -1347 759 -1347 
Q 597 -1347 397 -1278 
z
" transform="scale(0.015625)"/>
      </defs>
      <use xlink:href="#ArialMT-42"/>
      <use xlink:href="#ArialMT-61" x="66.699219"/>
      <use xlink:href="#ArialMT-6c" x="122.314453"/>
      <use xlink:href="#ArialMT-61" x="144.53125"/>
      <use xlink:href="#ArialMT-47" x="200.146484"/>
      <use xlink:href="#ArialMT-6f" x="277.929688"/>
      <use xlink:href="#ArialMT-79" x="333.544922"/>
      <use xlink:href="#ArialMT-61" x="383.544922"/>
      <use xlink:href="#ArialMT-6c" x="439.160156"/>
      <use xlink:href="#ArialMT-4f" x="461.376953"/>
      <use xlink:href="#ArialMT-70" x="539.160156"/>
     </g>
    </g>
    <g id="line2d_29">
     <path d="M 430.837813 275.457031 
L 441.837813 275.457031 
L 452.837813 275.457031 
" style="fill: none; stroke: #dd8452; stroke-width: 2.5; stroke-linecap: round"/>
    </g>
    <g id="text_21">
     <!-- UnreliableNetworkBasicGullibleBinomialOp -->
     <g style="fill: #262626" transform="translate(461.637813 279.307031) scale(0.11 -0.11)">
      <defs>
       <path id="ArialMT-55" d="M 3500 4581 
L 4106 4581 
L 4106 1934 
Q 4106 1244 3950 837 
Q 3794 431 3386 176 
Q 2978 -78 2316 -78 
Q 1672 -78 1262 144 
Q 853 366 678 786 
Q 503 1206 503 1934 
L 503 4581 
L 1109 4581 
L 1109 1938 
Q 1109 1341 1220 1058 
Q 1331 775 1601 622 
Q 1872 469 2263 469 
Q 2931 469 3215 772 
Q 3500 1075 3500 1938 
L 3500 4581 
z
" transform="scale(0.015625)"/>
       <path id="ArialMT-62" d="M 941 0 
L 419 0 
L 419 4581 
L 981 4581 
L 981 2947 
Q 1338 3394 1891 3394 
Q 2197 3394 2470 3270 
Q 2744 3147 2920 2923 
Q 3097 2700 3197 2384 
Q 3297 2069 3297 1709 
Q 3297 856 2875 390 
Q 2453 -75 1863 -75 
Q 1275 -75 941 416 
L 941 0 
z
M 934 1684 
Q 934 1088 1097 822 
Q 1363 388 1816 388 
Q 2184 388 2453 708 
Q 2722 1028 2722 1663 
Q 2722 2313 2464 2622 
Q 2206 2931 1841 2931 
Q 1472 2931 1203 2611 
Q 934 2291 934 1684 
z
" transform="scale(0.015625)"/>
       <path id="ArialMT-4e" d="M 488 0 
L 488 4581 
L 1109 4581 
L 3516 984 
L 3516 4581 
L 4097 4581 
L 4097 0 
L 3475 0 
L 1069 3600 
L 1069 0 
L 488 0 
z
" transform="scale(0.015625)"/>
       <path id="ArialMT-77" d="M 1034 0 
L 19 3319 
L 600 3319 
L 1128 1403 
L 1325 691 
Q 1338 744 1497 1375 
L 2025 3319 
L 2603 3319 
L 3100 1394 
L 3266 759 
L 3456 1400 
L 4025 3319 
L 4572 3319 
L 3534 0 
L 2950 0 
L 2422 1988 
L 2294 2553 
L 1622 0 
L 1034 0 
z
" transform="scale(0.015625)"/>
       <path id="ArialMT-6b" d="M 425 0 
L 425 4581 
L 988 4581 
L 988 1969 
L 2319 3319 
L 3047 3319 
L 1778 2088 
L 3175 0 
L 2481 0 
L 1384 1697 
L 988 1316 
L 988 0 
L 425 0 
z
" transform="scale(0.015625)"/>
       <path id="ArialMT-75" d="M 2597 0 
L 2597 488 
Q 2209 -75 1544 -75 
Q 1250 -75 995 37 
Q 741 150 617 320 
Q 494 491 444 738 
Q 409 903 409 1263 
L 409 3319 
L 972 3319 
L 972 1478 
Q 972 1038 1006 884 
Q 1059 663 1231 536 
Q 1403 409 1656 409 
Q 1909 409 2131 539 
Q 2353 669 2445 892 
Q 2538 1116 2538 1541 
L 2538 3319 
L 3100 3319 
L 3100 0 
L 2597 0 
z
" transform="scale(0.015625)"/>
      </defs>
      <use xlink:href="#ArialMT-55"/>
      <use xlink:href="#ArialMT-6e" x="72.216797"/>
      <use xlink:href="#ArialMT-72" x="127.832031"/>
      <use xlink:href="#ArialMT-65" x="161.132812"/>
      <use xlink:href="#ArialMT-6c" x="216.748047"/>
      <use xlink:href="#ArialMT-69" x="238.964844"/>
      <use xlink:href="#ArialMT-61" x="261.181641"/>
      <use xlink:href="#ArialMT-62" x="316.796875"/>
      <use xlink:href="#ArialMT-6c" x="372.412109"/>
      <use xlink:href="#ArialMT-65" x="394.628906"/>
      <use xlink:href="#ArialMT-4e" x="450.244141"/>
      <use xlink:href="#ArialMT-65" x="522.460938"/>
      <use xlink:href="#ArialMT-74" x="578.076172"/>
      <use xlink:href="#ArialMT-77" x="605.859375"/>
      <use xlink:href="#ArialMT-6f" x="678.076172"/>
      <use xlink:href="#ArialMT-72" x="733.691406"/>
      <use xlink:href="#ArialMT-6b" x="766.992188"/>
      <use xlink:href="#ArialMT-42" x="816.992188"/>
      <use xlink:href="#ArialMT-61" x="883.691406"/>
      <use xlink:href="#ArialMT-73" x="939.306641"/>
      <use xlink:href="#ArialMT-69" x="989.306641"/>
      <use xlink:href="#ArialMT-63" x="1011.523438"/>
      <use xlink:href="#ArialMT-47" x="1061.523438"/>
      <use xlink:href="#ArialMT-75" x="1139.306641"/>
      <use xlink:href="#ArialMT-6c" x="1194.921875"/>
      <use xlink:href="#ArialMT-6c" x="1217.138672"/>
      <use xlink:href="#ArialMT-69" x="1239.355469"/>
      <use xlink:href="#ArialMT-62" x="1261.572266"/>
      <use xlink:href="#ArialMT-6c" x="1317.1875"/>
      <use xlink:href="#ArialMT-65" x="1339.404297"/>
      <use xlink:href="#ArialMT-42" x="1395.019531"/>
      <use xlink:href="#ArialMT-69" x="1461.71875"/>
      <use xlink:href="#ArialMT-6e" x="1483.935547"/>
      <use xlink:href="#ArialMT-6f" x="1539.550781"/>
      <use xlink:href="#ArialMT-6d" x="1595.166016"/>
      <use xlink:href="#ArialMT-69" x="1678.466797"/>
      <use xlink:href="#ArialMT-61" x="1700.683594"/>
      <use xlink:href="#ArialMT-6c" x="1756.298828"/>
      <use xlink:href="#ArialMT-4f" x="1778.515625"/>
      <use xlink:href="#ArialMT-70" x="1856.298828"/>
     </g>
    </g>
    <g id="line2d_30">
     <path d="M 430.837813 291.157812 
L 441.837813 291.157812 
L 452.837813 291.157812 
" style="fill: none; stroke: #55a868; stroke-width: 2.5; stroke-linecap: round"/>
    </g>
    <g id="text_22">
     <!-- UnreliableNetworkBasicGullibleNegativeEpsOp -->
     <g style="fill: #262626" transform="translate(461.637813 295.007812) scale(0.11 -0.11)">
      <defs>
       <path id="ArialMT-67" d="M 319 -275 
L 866 -356 
Q 900 -609 1056 -725 
Q 1266 -881 1628 -881 
Q 2019 -881 2231 -725 
Q 2444 -569 2519 -288 
Q 2563 -116 2559 434 
Q 2191 0 1641 0 
Q 956 0 581 494 
Q 206 988 206 1678 
Q 206 2153 378 2554 
Q 550 2956 876 3175 
Q 1203 3394 1644 3394 
Q 2231 3394 2613 2919 
L 2613 3319 
L 3131 3319 
L 3131 450 
Q 3131 -325 2973 -648 
Q 2816 -972 2473 -1159 
Q 2131 -1347 1631 -1347 
Q 1038 -1347 672 -1080 
Q 306 -813 319 -275 
z
M 784 1719 
Q 784 1066 1043 766 
Q 1303 466 1694 466 
Q 2081 466 2343 764 
Q 2606 1063 2606 1700 
Q 2606 2309 2336 2618 
Q 2066 2928 1684 2928 
Q 1309 2928 1046 2623 
Q 784 2319 784 1719 
z
" transform="scale(0.015625)"/>
       <path id="ArialMT-76" d="M 1344 0 
L 81 3319 
L 675 3319 
L 1388 1331 
Q 1503 1009 1600 663 
Q 1675 925 1809 1294 
L 2547 3319 
L 3125 3319 
L 1869 0 
L 1344 0 
z
" transform="scale(0.015625)"/>
       <path id="ArialMT-45" d="M 506 0 
L 506 4581 
L 3819 4581 
L 3819 4041 
L 1113 4041 
L 1113 2638 
L 3647 2638 
L 3647 2100 
L 1113 2100 
L 1113 541 
L 3925 541 
L 3925 0 
L 506 0 
z
" transform="scale(0.015625)"/>
      </defs>
      <use xlink:href="#ArialMT-55"/>
      <use xlink:href="#ArialMT-6e" x="72.216797"/>
      <use xlink:href="#ArialMT-72" x="127.832031"/>
      <use xlink:href="#ArialMT-65" x="161.132812"/>
      <use xlink:href="#ArialMT-6c" x="216.748047"/>
      <use xlink:href="#ArialMT-69" x="238.964844"/>
      <use xlink:href="#ArialMT-61" x="261.181641"/>
      <use xlink:href="#ArialMT-62" x="316.796875"/>
      <use xlink:href="#ArialMT-6c" x="372.412109"/>
      <use xlink:href="#ArialMT-65" x="394.628906"/>
      <use xlink:href="#ArialMT-4e" x="450.244141"/>
      <use xlink:href="#ArialMT-65" x="522.460938"/>
      <use xlink:href="#ArialMT-74" x="578.076172"/>
      <use xlink:href="#ArialMT-77" x="605.859375"/>
      <use xlink:href="#ArialMT-6f" x="678.076172"/>
      <use xlink:href="#ArialMT-72" x="733.691406"/>
      <use xlink:href="#ArialMT-6b" x="766.992188"/>
      <use xlink:href="#ArialMT-42" x="816.992188"/>
      <use xlink:href="#ArialMT-61" x="883.691406"/>
      <use xlink:href="#ArialMT-73" x="939.306641"/>
      <use xlink:href="#ArialMT-69" x="989.306641"/>
      <use xlink:href="#ArialMT-63" x="1011.523438"/>
      <use xlink:href="#ArialMT-47" x="1061.523438"/>
      <use xlink:href="#ArialMT-75" x="1139.306641"/>
      <use xlink:href="#ArialMT-6c" x="1194.921875"/>
      <use xlink:href="#ArialMT-6c" x="1217.138672"/>
      <use xlink:href="#ArialMT-69" x="1239.355469"/>
      <use xlink:href="#ArialMT-62" x="1261.572266"/>
      <use xlink:href="#ArialMT-6c" x="1317.1875"/>
      <use xlink:href="#ArialMT-65" x="1339.404297"/>
      <use xlink:href="#ArialMT-4e" x="1395.019531"/>
      <use xlink:href="#ArialMT-65" x="1467.236328"/>
      <use xlink:href="#ArialMT-67" x="1522.851562"/>
      <use xlink:href="#ArialMT-61" x="1578.466797"/>
      <use xlink:href="#ArialMT-74" x="1634.082031"/>
      <use xlink:href="#ArialMT-69" x="1661.865234"/>
      <use xlink:href="#ArialMT-76" x="1684.082031"/>
      <use xlink:href="#ArialMT-65" x="1734.082031"/>
      <use xlink:href="#ArialMT-45" x="1789.697266"/>
      <use xlink:href="#ArialMT-70" x="1856.396484"/>
      <use xlink:href="#ArialMT-73" x="1912.011719"/>
      <use xlink:href="#ArialMT-4f" x="1962.011719"/>
      <use xlink:href="#ArialMT-70" x="2039.794922"/>
     </g>
    </g>
    <g id="line2d_31">
     <path d="M 430.837813 306.9875 
L 441.837813 306.9875 
L 452.837813 306.9875 
" style="fill: none; stroke: #c44e52; stroke-width: 2.5; stroke-linecap: round"/>
    </g>
    <g id="text_23">
     <!-- UnreliableNetworkIdealOp -->
     <g style="fill: #262626" transform="translate(461.637813 310.8375) scale(0.11 -0.11)">
      <defs>
       <path id="ArialMT-64" d="M 2575 0 
L 2575 419 
Q 2259 -75 1647 -75 
Q 1250 -75 917 144 
Q 584 363 401 755 
Q 219 1147 219 1656 
Q 219 2153 384 2558 
Q 550 2963 881 3178 
Q 1213 3394 1622 3394 
Q 1922 3394 2156 3267 
Q 2391 3141 2538 2938 
L 2538 4581 
L 3097 4581 
L 3097 0 
L 2575 0 
z
M 797 1656 
Q 797 1019 1065 703 
Q 1334 388 1700 388 
Q 2069 388 2326 689 
Q 2584 991 2584 1609 
Q 2584 2291 2321 2609 
Q 2059 2928 1675 2928 
Q 1300 2928 1048 2622 
Q 797 2316 797 1656 
z
" transform="scale(0.015625)"/>
      </defs>
      <use xlink:href="#ArialMT-55"/>
      <use xlink:href="#ArialMT-6e" x="72.216797"/>
      <use xlink:href="#ArialMT-72" x="127.832031"/>
      <use xlink:href="#ArialMT-65" x="161.132812"/>
      <use xlink:href="#ArialMT-6c" x="216.748047"/>
      <use xlink:href="#ArialMT-69" x="238.964844"/>
      <use xlink:href="#ArialMT-61" x="261.181641"/>
      <use xlink:href="#ArialMT-62" x="316.796875"/>
      <use xlink:href="#ArialMT-6c" x="372.412109"/>
      <use xlink:href="#ArialMT-65" x="394.628906"/>
      <use xlink:href="#ArialMT-4e" x="450.244141"/>
      <use xlink:href="#ArialMT-65" x="522.460938"/>
      <use xlink:href="#ArialMT-74" x="578.076172"/>
      <use xlink:href="#ArialMT-77" x="605.859375"/>
      <use xlink:href="#ArialMT-6f" x="678.076172"/>
      <use xlink:href="#ArialMT-72" x="733.691406"/>
      <use xlink:href="#ArialMT-6b" x="766.992188"/>
      <use xlink:href="#ArialMT-49" x="816.992188"/>
      <use xlink:href="#ArialMT-64" x="844.775391"/>
      <use xlink:href="#ArialMT-65" x="900.390625"/>
      <use xlink:href="#ArialMT-61" x="956.005859"/>
      <use xlink:href="#ArialMT-6c" x="1011.621094"/>
      <use xlink:href="#ArialMT-4f" x="1033.837891"/>
      <use xlink:href="#ArialMT-70" x="1111.621094"/>
     </g>
    </g>
    <g id="line2d_32">
     <path d="M 430.837813 322.688281 
L 441.837813 322.688281 
L 452.837813 322.688281 
" style="fill: none; stroke: #8172b3; stroke-width: 2.5; stroke-linecap: round"/>
    </g>
    <g id="text_24">
     <!-- UnreliableNetworkModifiedAlignedBinomialOp -->
     <g style="fill: #262626" transform="translate(461.637813 326.538281) scale(0.11 -0.11)">
      <defs>
       <path id="ArialMT-4d" d="M 475 0 
L 475 4581 
L 1388 4581 
L 2472 1338 
Q 2622 884 2691 659 
Q 2769 909 2934 1394 
L 4031 4581 
L 4847 4581 
L 4847 0 
L 4263 0 
L 4263 3834 
L 2931 0 
L 2384 0 
L 1059 3900 
L 1059 0 
L 475 0 
z
" transform="scale(0.015625)"/>
      </defs>
      <use xlink:href="#ArialMT-55"/>
      <use xlink:href="#ArialMT-6e" x="72.216797"/>
      <use xlink:href="#ArialMT-72" x="127.832031"/>
      <use xlink:href="#ArialMT-65" x="161.132812"/>
      <use xlink:href="#ArialMT-6c" x="216.748047"/>
      <use xlink:href="#ArialMT-69" x="238.964844"/>
      <use xlink:href="#ArialMT-61" x="261.181641"/>
      <use xlink:href="#ArialMT-62" x="316.796875"/>
      <use xlink:href="#ArialMT-6c" x="372.412109"/>
      <use xlink:href="#ArialMT-65" x="394.628906"/>
      <use xlink:href="#ArialMT-4e" x="450.244141"/>
      <use xlink:href="#ArialMT-65" x="522.460938"/>
      <use xlink:href="#ArialMT-74" x="578.076172"/>
      <use xlink:href="#ArialMT-77" x="605.859375"/>
      <use xlink:href="#ArialMT-6f" x="678.076172"/>
      <use xlink:href="#ArialMT-72" x="733.691406"/>
      <use xlink:href="#ArialMT-6b" x="766.992188"/>
      <use xlink:href="#ArialMT-4d" x="816.992188"/>
      <use xlink:href="#ArialMT-6f" x="900.292969"/>
      <use xlink:href="#ArialMT-64" x="955.908203"/>
      <use xlink:href="#ArialMT-69" x="1011.523438"/>
      <use xlink:href="#ArialMT-66" x="1033.740234"/>
      <use xlink:href="#ArialMT-69" x="1061.523438"/>
      <use xlink:href="#ArialMT-65" x="1083.740234"/>
      <use xlink:href="#ArialMT-64" x="1139.355469"/>
      <use xlink:href="#ArialMT-41" x="1194.970703"/>
      <use xlink:href="#ArialMT-6c" x="1261.669922"/>
      <use xlink:href="#ArialMT-69" x="1283.886719"/>
      <use xlink:href="#ArialMT-67" x="1306.103516"/>
      <use xlink:href="#ArialMT-6e" x="1361.71875"/>
      <use xlink:href="#ArialMT-65" x="1417.333984"/>
      <use xlink:href="#ArialMT-64" x="1472.949219"/>
      <use xlink:href="#ArialMT-42" x="1528.564453"/>
      <use xlink:href="#ArialMT-69" x="1595.263672"/>
      <use xlink:href="#ArialMT-6e" x="1617.480469"/>
      <use xlink:href="#ArialMT-6f" x="1673.095703"/>
      <use xlink:href="#ArialMT-6d" x="1728.710938"/>
      <use xlink:href="#ArialMT-69" x="1812.011719"/>
      <use xlink:href="#ArialMT-61" x="1834.228516"/>
      <use xlink:href="#ArialMT-6c" x="1889.84375"/>
      <use xlink:href="#ArialMT-4f" x="1912.060547"/>
      <use xlink:href="#ArialMT-70" x="1989.84375"/>
     </g>
    </g>
    <g id="line2d_33">
     <path d="M 430.837813 338.517969 
L 441.837813 338.517969 
L 452.837813 338.517969 
" style="fill: none; stroke: #937860; stroke-width: 2.5; stroke-linecap: round"/>
    </g>
    <g id="text_25">
     <!-- UnreliableNetworkModifiedAlignedNegativeEpsOp -->
     <g style="fill: #262626" transform="translate(461.637813 342.367969) scale(0.11 -0.11)">
      <use xlink:href="#ArialMT-55"/>
      <use xlink:href="#ArialMT-6e" x="72.216797"/>
      <use xlink:href="#ArialMT-72" x="127.832031"/>
      <use xlink:href="#ArialMT-65" x="161.132812"/>
      <use xlink:href="#ArialMT-6c" x="216.748047"/>
      <use xlink:href="#ArialMT-69" x="238.964844"/>
      <use xlink:href="#ArialMT-61" x="261.181641"/>
      <use xlink:href="#ArialMT-62" x="316.796875"/>
      <use xlink:href="#ArialMT-6c" x="372.412109"/>
      <use xlink:href="#ArialMT-65" x="394.628906"/>
      <use xlink:href="#ArialMT-4e" x="450.244141"/>
      <use xlink:href="#ArialMT-65" x="522.460938"/>
      <use xlink:href="#ArialMT-74" x="578.076172"/>
      <use xlink:href="#ArialMT-77" x="605.859375"/>
      <use xlink:href="#ArialMT-6f" x="678.076172"/>
      <use xlink:href="#ArialMT-72" x="733.691406"/>
      <use xlink:href="#ArialMT-6b" x="766.992188"/>
      <use xlink:href="#ArialMT-4d" x="816.992188"/>
      <use xlink:href="#ArialMT-6f" x="900.292969"/>
      <use xlink:href="#ArialMT-64" x="955.908203"/>
      <use xlink:href="#ArialMT-69" x="1011.523438"/>
      <use xlink:href="#ArialMT-66" x="1033.740234"/>
      <use xlink:href="#ArialMT-69" x="1061.523438"/>
      <use xlink:href="#ArialMT-65" x="1083.740234"/>
      <use xlink:href="#ArialMT-64" x="1139.355469"/>
      <use xlink:href="#ArialMT-41" x="1194.970703"/>
      <use xlink:href="#ArialMT-6c" x="1261.669922"/>
      <use xlink:href="#ArialMT-69" x="1283.886719"/>
      <use xlink:href="#ArialMT-67" x="1306.103516"/>
      <use xlink:href="#ArialMT-6e" x="1361.71875"/>
      <use xlink:href="#ArialMT-65" x="1417.333984"/>
      <use xlink:href="#ArialMT-64" x="1472.949219"/>
      <use xlink:href="#ArialMT-4e" x="1528.564453"/>
      <use xlink:href="#ArialMT-65" x="1600.78125"/>
      <use xlink:href="#ArialMT-67" x="1656.396484"/>
      <use xlink:href="#ArialMT-61" x="1712.011719"/>
      <use xlink:href="#ArialMT-74" x="1767.626953"/>
      <use xlink:href="#ArialMT-69" x="1795.410156"/>
      <use xlink:href="#ArialMT-76" x="1817.626953"/>
      <use xlink:href="#ArialMT-65" x="1867.626953"/>
      <use xlink:href="#ArialMT-45" x="1923.242188"/>
      <use xlink:href="#ArialMT-70" x="1989.941406"/>
      <use xlink:href="#ArialMT-73" x="2045.556641"/>
      <use xlink:href="#ArialMT-4f" x="2095.556641"/>
      <use xlink:href="#ArialMT-70" x="2173.339844"/>
     </g>
    </g>
   </g>
  </g>
 </g>
 <defs>
  <clipPath id="p32fd339a6f">
   <rect x="47.110625" y="21.943125" width="669.6" height="332.64"/>
  </clipPath>
 </defs>
</svg>
