<?xml version="1.0" encoding="UTF-8"?>
<svg width="460.8pt" height="345.6pt" version="1.1" viewBox="0 0 460.8 345.6" xmlns="http://www.w3.org/2000/svg" xmlns:cc="http://creativecommons.org/ns#" xmlns:dc="http://purl.org/dc/elements/1.1/" xmlns:rdf="http://www.w3.org/1999/02/22-rdf-syntax-ns#" xmlns:xlink="http://www.w3.org/1999/xlink">
 <metadata>
  <rdf:RDF>
   <cc:Work>
    <dc:type rdf:resource="http://purl.org/dc/dcmitype/StillImage"/>
    <dc:date>2024-04-27T14:47:21.806297</dc:date>
    <dc:format>image/svg+xml</dc:format>
    <dc:creator>
     <cc:Agent>
      <dc:title>Matplotlib v3.8.4, https://matplotlib.org/</dc:title>
     </cc:Agent>
    </dc:creator>
   </cc:Work>
  </rdf:RDF>
 </metadata>
 <defs>
  <style type="text/css">*{stroke-linejoin: round; stroke-linecap: butt}</style>
 </defs>
 <path d="m0 345.6h460.8v-345.6h-460.8z" fill="#fff"/>
 <path d="m57.6 307.58h357.12v-266.11h-357.12z" fill="#fff"/>
 <defs>
  <path id="m7e76d60533" d="m0 0v3.5" stroke="#000" stroke-width=".8"/>
 </defs>
 <use x="73.832727" y="307.584" stroke="#000000" stroke-width=".8" xlink:href="#m7e76d60533"/>
 <!-- 0 -->
 <g transform="translate(70.651 322.18) scale(.1 -.1)">
  <defs>
   <path id="DejaVuSans-30" transform="scale(.015625)" d="m2034 4250q-487 0-733-480-245-479-245-1442 0-959 245-1439 246-480 733-480 491 0 736 480 246 480 246 1439 0 963-246 1442-245 480-736 480zm0 500q785 0 1199-621 414-620 414-1801 0-1178-414-1799-414-620-1199-620-784 0-1198 620-414 621-414 1799 0 1181 414 1801 414 621 1198 621z"/>
  </defs>
  <use xlink:href="#DejaVuSans-30"/>
 </g>
 <use x="152.2517" y="307.584" stroke="#000000" stroke-width=".8" xlink:href="#m7e76d60533"/>
 <!-- 5000 -->
 <g transform="translate(139.53 322.18) scale(.1 -.1)">
  <defs>
   <path id="DejaVuSans-35" transform="scale(.015625)" d="m691 4666h2478v-532h-1900v-1143q137 47 274 70 138 23 276 23 781 0 1237-428 457-428 457-1159 0-753-469-1171-469-417-1322-417-294 0-599 50-304 50-629 150v635q281-153 581-228t634-75q541 0 856 284 316 284 316 772 0 487-316 771-315 285-856 285-253 0-505-56-251-56-513-175v2344z"/>
  </defs>
  <use xlink:href="#DejaVuSans-35"/>
  <use x="63.623047" xlink:href="#DejaVuSans-30"/>
  <use x="127.246094" xlink:href="#DejaVuSans-30"/>
  <use x="190.869141" xlink:href="#DejaVuSans-30"/>
 </g>
 <use x="230.670672" y="307.584" stroke="#000000" stroke-width=".8" xlink:href="#m7e76d60533"/>
 <!-- 10000 -->
 <g transform="translate(214.76 322.18) scale(.1 -.1)">
  <defs>
   <path id="DejaVuSans-31" transform="scale(.015625)" d="m794 531h1031v3560l-1122-225v575l1116 225h631v-4135h1031v-531h-2687v531z"/>
  </defs>
  <use xlink:href="#DejaVuSans-31"/>
  <use x="63.623047" xlink:href="#DejaVuSans-30"/>
  <use x="127.246094" xlink:href="#DejaVuSans-30"/>
  <use x="190.869141" xlink:href="#DejaVuSans-30"/>
  <use x="254.492188" xlink:href="#DejaVuSans-30"/>
 </g>
 <use x="309.089644" y="307.584" stroke="#000000" stroke-width=".8" xlink:href="#m7e76d60533"/>
 <!-- 15000 -->
 <g transform="translate(293.18 322.18) scale(.1 -.1)">
  <use xlink:href="#DejaVuSans-31"/>
  <use x="63.623047" xlink:href="#DejaVuSans-35"/>
  <use x="127.246094" xlink:href="#DejaVuSans-30"/>
  <use x="190.869141" xlink:href="#DejaVuSans-30"/>
  <use x="254.492188" xlink:href="#DejaVuSans-30"/>
 </g>
 <use x="387.508617" y="307.584" stroke="#000000" stroke-width=".8" xlink:href="#m7e76d60533"/>
 <!-- 20000 -->
 <g transform="translate(371.6 322.18) scale(.1 -.1)">
  <defs>
   <path id="DejaVuSans-32" transform="scale(.015625)" d="m1228 531h2203v-531h-2962v531q359 372 979 998 621 627 780 809 303 340 423 576 121 236 121 464 0 372-261 606-261 235-680 235-297 0-627-103-329-103-704-313v638q381 153 712 231 332 78 607 78 725 0 1156-363 431-362 431-968 0-288-108-546-107-257-392-607-78-91-497-524-418-433-1181-1211z"/>
  </defs>
  <use xlink:href="#DejaVuSans-32"/>
  <use x="63.623047" xlink:href="#DejaVuSans-30"/>
  <use x="127.246094" xlink:href="#DejaVuSans-30"/>
  <use x="190.869141" xlink:href="#DejaVuSans-30"/>
  <use x="254.492188" xlink:href="#DejaVuSans-30"/>
 </g>
 <!-- iteration -->
 <g transform="translate(215.04 335.86) scale(.1 -.1)">
  <defs>
   <path id="DejaVuSans-69" transform="scale(.015625)" d="m603 3500h575v-3500h-575v3500zm0 1363h575v-729h-575v729z"/>
   <path id="DejaVuSans-74" transform="scale(.015625)" d="m1172 4494v-994h1184v-447h-1184v-1900q0-428 117-550t477-122h590v-481h-590q-666 0-919 248-253 249-253 905v1900h-422v447h422v994h578z"/>
   <path id="DejaVuSans-65" transform="scale(.015625)" d="m3597 1894v-281h-2644q38-594 358-905t892-311q331 0 642 81t618 244v-544q-310-131-635-200t-659-69q-838 0-1327 487-489 488-489 1320 0 859 464 1363 464 505 1252 505 706 0 1117-455 411-454 411-1235zm-575 169q-6 471-264 752-258 282-683 282-481 0-770-272t-333-766l2050 4z"/>
   <path id="DejaVuSans-72" transform="scale(.015625)" d="m2631 2963q-97 56-211 82-114 27-251 27-488 0-749-317t-261-911v-1844h-578v3500h578v-544q182 319 472 473 291 155 707 155 59 0 131-8 72-7 159-23l3-590z"/>
   <path id="DejaVuSans-61" transform="scale(.015625)" d="m2194 1759q-697 0-966-159t-269-544q0-306 202-486 202-179 548-179 479 0 768 339t289 901v128h-572zm1147 238v-1997h-575v531q-197-318-491-470t-719-152q-537 0-855 302-317 302-317 808 0 590 395 890 396 300 1180 300h807v57q0 397-261 614t-733 217q-300 0-585-72-284-72-546-216v532q315 122 612 182 297 61 578 61 760 0 1135-394 375-393 375-1193z"/>
   <path id="DejaVuSans-6f" transform="scale(.015625)" d="m1959 3097q-462 0-731-361t-269-989 267-989q268-361 733-361 460 0 728 362 269 363 269 988 0 622-269 986-268 364-728 364zm0 487q750 0 1178-488 429-487 429-1349 0-859-429-1349-428-489-1178-489-753 0-1180 489-426 490-426 1349 0 862 426 1349 427 488 1180 488z"/>
   <path id="DejaVuSans-6e" transform="scale(.015625)" d="m3513 2113v-2113h-575v2094q0 497-194 743-194 247-581 247-466 0-735-297-269-296-269-809v-1978h-578v3500h578v-544q207 316 486 472 280 156 646 156 603 0 912-373 310-373 310-1098z"/>
  </defs>
  <use xlink:href="#DejaVuSans-69"/>
  <use x="27.783203" xlink:href="#DejaVuSans-74"/>
  <use x="66.992188" xlink:href="#DejaVuSans-65"/>
  <use x="128.515625" xlink:href="#DejaVuSans-72"/>
  <use x="169.628906" xlink:href="#DejaVuSans-61"/>
  <use x="230.908203" xlink:href="#DejaVuSans-74"/>
  <use x="270.117188" xlink:href="#DejaVuSans-69"/>
  <use x="297.900391" xlink:href="#DejaVuSans-6f"/>
  <use x="359.082031" xlink:href="#DejaVuSans-6e"/>
 </g>
 <defs>
  <path id="mb688c241e3" d="m0 0h-3.5" stroke="#000" stroke-width=".8"/>
 </defs>
 <use x="57.6" y="301.012382" stroke="#000000" stroke-width=".8" xlink:href="#mb688c241e3"/>
 <!-- 0.0 -->
 <g transform="translate(34.697 304.81) scale(.1 -.1)">
  <defs>
   <path id="DejaVuSans-2e" transform="scale(.015625)" d="m684 794h660v-794h-660v794z"/>
  </defs>
  <use xlink:href="#DejaVuSans-30"/>
  <use x="63.623047" xlink:href="#DejaVuSans-2e"/>
  <use x="95.410156" xlink:href="#DejaVuSans-30"/>
 </g>
 <use x="57.6" y="251.523506" stroke="#000000" stroke-width=".8" xlink:href="#mb688c241e3"/>
 <!-- 0.2 -->
 <g transform="translate(34.697 255.32) scale(.1 -.1)">
  <use xlink:href="#DejaVuSans-30"/>
  <use x="63.623047" xlink:href="#DejaVuSans-2e"/>
  <use x="95.410156" xlink:href="#DejaVuSans-32"/>
 </g>
 <use x="57.6" y="202.034629" stroke="#000000" stroke-width=".8" xlink:href="#mb688c241e3"/>
 <!-- 0.4 -->
 <g transform="translate(34.697 205.83) scale(.1 -.1)">
  <defs>
   <path id="DejaVuSans-34" transform="scale(.015625)" d="m2419 4116-1594-2491h1594v2491zm-166 550h794v-3041h666v-525h-666v-1100h-628v1100h-2106v609l1940 2957z"/>
  </defs>
  <use xlink:href="#DejaVuSans-30"/>
  <use x="63.623047" xlink:href="#DejaVuSans-2e"/>
  <use x="95.410156" xlink:href="#DejaVuSans-34"/>
 </g>
 <use x="57.6" y="152.545753" stroke="#000000" stroke-width=".8" xlink:href="#mb688c241e3"/>
 <!-- 0.6 -->
 <g transform="translate(34.697 156.34) scale(.1 -.1)">
  <defs>
   <path id="DejaVuSans-36" transform="scale(.015625)" d="m2113 2584q-425 0-674-291-248-290-248-796 0-503 248-796 249-292 674-292t673 292q248 293 248 796 0 506-248 796-248 291-673 291zm1253 1979v-575q-238 112-480 171-242 60-480 60-625 0-955-422-329-422-376-1275 184 272 462 417 279 145 613 145 703 0 1111-427 408-426 408-1160 0-719-425-1154-425-434-1131-434-810 0-1238 620-428 621-428 1799 0 1106 525 1764t1409 658q238 0 480-47t505-140z"/>
  </defs>
  <use xlink:href="#DejaVuSans-30"/>
  <use x="63.623047" xlink:href="#DejaVuSans-2e"/>
  <use x="95.410156" xlink:href="#DejaVuSans-36"/>
 </g>
 <use x="57.6" y="103.056876" stroke="#000000" stroke-width=".8" xlink:href="#mb688c241e3"/>
 <!-- 0.8 -->
 <g transform="translate(34.697 106.86) scale(.1 -.1)">
  <defs>
   <path id="DejaVuSans-38" transform="scale(.015625)" d="m2034 2216q-450 0-708-241-257-241-257-662 0-422 257-663 258-241 708-241t709 242q260 243 260 662 0 421-258 662-257 241-711 241zm-631 268q-406 100-633 378-226 279-226 679 0 559 398 884 399 325 1092 325 697 0 1094-325t397-884q0-400-227-679-226-278-629-378 456-106 710-416 255-309 255-755 0-679-414-1042-414-362-1186-362-771 0-1186 362-414 363-414 1042 0 446 256 755 257 310 713 416zm-231 997q0-362 226-565 227-203 636-203 407 0 636 203 230 203 230 565 0 363-230 566-229 203-636 203-409 0-636-203-226-203-226-566z"/>
  </defs>
  <use xlink:href="#DejaVuSans-30"/>
  <use x="63.623047" xlink:href="#DejaVuSans-2e"/>
  <use x="95.410156" xlink:href="#DejaVuSans-38"/>
 </g>
 <use x="57.6" y="53.568" stroke="#000000" stroke-width=".8" xlink:href="#mb688c241e3"/>
 <!-- 1.0 -->
 <g transform="translate(34.697 57.367) scale(.1 -.1)">
  <use xlink:href="#DejaVuSans-31"/>
  <use x="63.623047" xlink:href="#DejaVuSans-2e"/>
  <use x="95.410156" xlink:href="#DejaVuSans-30"/>
 </g>
 <!-- beliefs -->
 <g transform="translate(28.617 191) rotate(-90) scale(.1 -.1)">
  <defs>
   <path id="DejaVuSans-62" transform="scale(.015625)" d="m3116 1747q0 634-261 995t-717 361q-457 0-718-361t-261-995 261-995 718-361q456 0 717 361t261 995zm-1957 1222q182 312 458 463 277 152 661 152 638 0 1036-506 399-506 399-1331t-399-1332q-398-506-1036-506-384 0-661 152-276 152-458 464v-525h-578v4863h578v-1894z"/>
   <path id="DejaVuSans-6c" transform="scale(.015625)" d="m603 4863h575v-4863h-575v4863z"/>
   <path id="DejaVuSans-66" transform="scale(.015625)" d="m2375 4863v-479h-550q-309 0-430-125-120-125-120-450v-309h947v-447h-947v-3053h-578v3053h-550v447h550v244q0 584 272 851 272 268 862 268h544z"/>
   <path id="DejaVuSans-73" transform="scale(.015625)" d="m2834 3397v-544q-243 125-506 187-262 63-544 63-428 0-642-131t-214-394q0-200 153-314t616-217l197-44q612-131 870-370t258-667q0-488-386-773-386-284-1061-284-281 0-586 55t-642 164v594q319-166 628-249 309-82 613-82 406 0 624 139 219 139 219 392 0 234-158 359-157 125-692 241l-200 47q-534 112-772 345-237 233-237 639 0 494 350 762 350 269 994 269 318 0 599-47 282-46 519-140z"/>
  </defs>
  <use xlink:href="#DejaVuSans-62"/>
  <use x="63.476562" xlink:href="#DejaVuSans-65"/>
  <use x="125" xlink:href="#DejaVuSans-6c"/>
  <use x="152.783203" xlink:href="#DejaVuSans-69"/>
  <use x="180.566406" xlink:href="#DejaVuSans-65"/>
  <use x="242.089844" xlink:href="#DejaVuSans-66"/>
  <use x="277.294922" xlink:href="#DejaVuSans-73"/>
 </g>
 <path d="m73.833 178.22 0.015684-4.0422 1.5527-95.963 1.5684-14.594 1.5684-9.399 3.1368-0.5927 6.2735-0.056429 283.88-0.001121h26.662v0" clip-path="url(#p4c94d4c726)" fill="none" stroke="#f77189" stroke-linecap="square" stroke-width="1.5"/>
 <path d="m73.833 110.92 0.015684 0.049585 1.5527-0.3261 1.5684-0.73505 1.5684 1.2961 1.5684-0.05516 1.5684 0.5682 1.5684-0.1473 1.5684 0.27732 1.5684 0.49258 1.5684 0.14532 1.5684 0.99895 3.1368 1.6026 1.5684-0.13128 3.1368 1.8138 1.5684-0.16025 1.5684 0.64091 1.5684 0.87974 1.5684 1.3907 3.1368 2.0893 1.5684 0.78697 1.5684-0.70163 1.5684 1.4413 1.5684 0.96813 1.5684 1.4281 1.5684 0.56078 1.5684 0.43795 1.5684 1.7902 1.5684-0.12208 1.5684 0.64492 1.5684 1.5191 1.5684 0.94087 4.7051 3.655 1.5684 1.0223 1.5684 1.3246 3.1368 1.0195 1.5684 0.41129 1.5684 0.060913 1.5684-0.53792 1.5684 2.7742 1.5684 0.28389 1.5684 0.47944 1.5684 0.99733 1.5684 0.83866 1.5684 0.54494 1.5684 0.41937 3.1368 0.42475 1.5684-0.28487 1.5684 0.58696 1.5684 0.16396 1.5684 1.1595 1.5684 1.7817 3.1368 2.0884 1.5684 2.4589 1.5684-0.31092 1.5684 0.20847 1.5684 1.4712 1.5684 2.7474 3.1368 1.7568 1.5684 1.5598 1.5684 1.772 1.5684 0.25226 1.5684-0.11333 1.5684 2.2115 1.5684 0.003893 1.5684-1.2116 1.5684-0.083935 1.5684 0.23993 3.1368 1.9479 1.5684 0.13485 1.5684 1.819 1.5684 0.80194 1.5684-0.52991 1.5684-0.10249 1.5684-0.24371 1.5684 0.30372 1.5684-1.3686 1.5684 0.52485 1.5684 0.19275 1.5684 1.781 1.5684 0.64075 3.1368 0.6609 1.5684-0.53447 1.5684 1.7051 1.5684 0.55103 1.5684 0.097976 1.5684 1.8104 1.5684 0.45652 1.5684 0.93167 1.5684-0.53687 1.5684-0.91904 1.5684 0.57462 1.5684 1.7493 1.5684-0.1066 1.5684-0.5015 1.5684 1.6451 3.1368-1.3699 1.5684 0.85346 1.5684 0.58885 1.5684 1.928 3.1368 3.2542 1.5684-0.21389 1.5684 1.1034 1.5684 1.4053 1.5684 0.014837 1.5684 0.56415 1.5684-0.62434 1.5684 0.011202 1.5684 1.2432 1.5684-0.63351 1.5684 0.14339 1.5684 0.96348 1.5684 0.43595 1.5684-0.30861 1.5684 1.1136 1.5684 0.20622 1.5684 2.0529 1.5684-0.98598 1.5684 0.23078 1.5684 2.7745 1.5684 0.23099 1.5684-0.14166 3.1368 0.83522 1.5684-0.10542 1.5684 0.45174 1.5684 1.4249 1.5684 0.1647 1.5684-0.2266 1.5684 0.49165 1.5684 0.99149 1.5684 0.79176 1.5684 0.49395 1.5684-1.6206 1.5684 1.0089 1.5684-2.0989 1.5684-0.092681 1.5684-1.2099 1.5684 1.2055 1.5684-2.2666 1.5684 1.2943 1.5684 0.34377 3.1368 0.23156 1.5684 1.5192 1.5684-0.14424 1.5684 1.3982 1.5684 0.15759 1.5684-0.052749 3.1368-0.59884 1.5684 0.030118 1.5684 0.4328 3.1368 2.7327 1.5684-0.32412 1.5684-0.10399 3.1368 2.4759 1.5684-0.58501 1.5684 0.47054 1.5684 0.25441 1.5684 1.7548 1.5684 1.5689 4.7051 2.824 1.5684 0.23447 1.5684-0.28015 1.5684 0.16602 1.5684 0.51403 1.5684 1.3473 1.5684 0.30673 1.5684 0.43855 1.5684-0.21951 1.5684 1.1493 1.5684 0.16565 1.5684 0.53005 1.5684 0.66029 1.5684-0.99291 1.5684 0.35781 1.5684-0.13462 1.5684-0.7271 1.5684-0.20541 1.5684 1.3414 1.5684 0.066804 1.5684-0.55574 1.5684 0.13846 1.5684 1.112 1.5684 1.2614 1.5684 0.1419 1.5684-0.2243 1.5684 1.4849 1.5684 2.1752 1.5684 0.10079 1.5684-0.19991v0" clip-path="url(#p4c94d4c726)" fill="none" stroke="#f47a32" stroke-linecap="square" stroke-width="1.5"/>
 <path d="m73.833 279.12 0.015684-1.3398 1.5527-93.343 1.5684-56.505 1.5684-67.918 1.5684-3.3745 1.5684-2.4867 1.5684-0.40794 15.684-0.17533h299.56v0" clip-path="url(#p4c94d4c726)" fill="none" stroke="#ca9132" stroke-linecap="square" stroke-width="1.5"/>
 <path d="m73.833 268.34 0.015684-1.8982 1.5527-109.6 3.1368-99.123 1.5684-2.1837 1.5684-1.5953 1.5684-0.26058 18.821-0.11186h296.42v0" clip-path="url(#p4c94d4c726)" fill="none" stroke="#ae9d31" stroke-linecap="square" stroke-width="1.5"/>
 <path d="m73.833 224.94 0.015684-3.4857 1.5527-119.12 1.5684-27.52 1.5684-19.813 1.5684-0.76064 1.5684-0.55018 3.1368-0.095292 7.8419-0.032418 305.83-5.9e-5v0" clip-path="url(#p4c94d4c726)" fill="none" stroke="#8fa631" stroke-linecap="square" stroke-width="1.5"/>
 <path d="m73.833 144.11 0.015684 0.064614 1.5527-0.42484 1.5684-0.96177 1.5684 1.6929 1.5684-0.071783 1.5684 0.73819 1.5684-0.19114 1.5684 0.35953 1.5684 0.63734 1.5684 0.18762 1.5684 1.2854 3.1368 2.0462 1.5684-0.16688 3.1368 2.2941 1.5684-0.20174 1.5684 0.80539 1.5684 1.1004 1.5684 1.728 3.1368 2.5694 1.5684 0.95949 1.5684-0.85546 1.5684 1.7533 1.5684 1.1694 1.5684 1.713 1.5684 0.66902 1.5684 0.52069 1.5684 2.1149 1.5684-0.14333 1.5684 0.75709 1.5684 1.7721 1.5684 1.0898 4.7051 4.1786 1.5684 1.1532 1.5684 1.4844 3.1368 1.1348 1.5684 0.45607 1.5684 0.067425 1.5684-0.59638 1.5684 3.057 1.5684 0.31005 1.5684 0.52271 1.5684 1.0829 1.5684 0.90587 1.5684 0.58636 1.5684 0.45002 1.5684 0.28573 1.5684 0.16904 1.5684-0.30503 1.5684 0.62772 1.5684 0.17492 1.5684 1.233 1.5684 1.8793 3.1368 2.1795 1.5684 2.5348 1.5684-0.31864 1.5684 0.21367 1.5684 1.5015 1.5684 2.7724 3.1368 1.7515 1.5684 1.5416 1.5684 1.7358 1.5684 0.24561 1.5684-0.11048 1.5684 2.142 1.5684 0.00371 1.5684-1.1706 1.5684-0.081384 1.5684 0.23246 3.1368 1.8767 1.5684 0.12927 1.5684 1.734 1.5684 0.75937 1.5684-0.5013 1.5684-0.097188 1.5684-0.23129 1.5684 0.28804 1.5684-1.3016 1.5684 0.50034 1.5684 0.18331 1.5684 1.6858 1.5684 0.60259 3.1368 0.61937 1.5684-0.50098 1.5684 1.593 1.5684 0.51189 1.5684 0.090823 1.5684 1.6707 1.5684 0.41882 1.5684 0.85175 1.5684-0.49024 1.5684-0.84256 1.5684 0.52718 1.5684 1.5957 1.5684-0.096973 1.5684-0.45612 1.5684 1.4922 3.1368-1.2416 1.5684 0.77452 1.5684 0.53253 1.5684 1.7324 3.1368 2.8862 1.5684-0.1882 1.5684 0.96906 1.5684 1.2264 1.5684 0.012891 1.5684 0.48996 1.5684-0.54219 1.5684 0.009734 1.5684 1.078 1.5684-0.54855 1.5684 0.12433 1.5684 0.8329 1.5684 0.37548 1.5684-0.26577 1.5684 0.95724 1.5684 0.17663 1.5684 1.749 1.5684-0.8378 1.5684 0.1966 1.5684 2.3446 1.5684 0.19381 1.5684-0.11876 3.1368 0.6994 1.5684-0.088095 1.5684 0.37722 1.5684 1.1845 1.5684 0.13638 1.5684-0.18764 1.5684 0.40688 1.5684 0.8177 1.5684 0.65015 1.5684 0.40429 1.5684-1.3302 1.5684 0.82939 1.5684-1.73 1.5684-0.076812 1.5684-1.0057 1.5684 1.0022 1.5684-1.8889 1.5684 1.0811 1.5684 0.28594 3.1368 0.19246 1.5684 1.2569 1.5684-0.11889 1.5684 1.1495 1.5684 0.12904 1.5684-0.043236 3.1368-0.4911 1.5684 0.024756 1.5684 0.35505 3.1368 2.2245 1.5684-0.26226 1.5684-0.084201 3.1368 1.9946 1.5684-0.46912 1.5684 0.37746 1.5684 0.20373 1.5684 1.3985 1.5684 1.2405 4.7051 2.2099 1.5684 0.18217 1.5684-0.21763 1.5684 0.12908 1.5684 0.39886 1.5684 1.0409 3.1368 0.57296 1.5684-0.16857 1.5684 0.88063 1.5684 0.12649 3.1368 0.9063 1.5684-0.75571 1.5684 0.27275 1.5684-0.10256 1.5684-0.55502 1.5684-0.15715 1.5684 1.0235 1.5684 0.050814 1.5684-0.42316 1.5684 0.10553 3.1368 1.7982 1.5684 0.10692 1.5684-0.16899 1.5684 1.1155 1.5684 1.6203 1.5684 0.074721 1.5684-0.14814v0" clip-path="url(#p4c94d4c726)" fill="none" stroke="#52b031" stroke-linecap="square" stroke-width="1.5"/>
 <path d="m73.833 179.74 0.015684-4.0424 1.5527-96.934 1.5684-14.907 1.5684-9.6237 3.1368-0.60745 6.2735-0.057874 283.88-0.001121h26.662v0" clip-path="url(#p4c94d4c726)" fill="none" stroke="#33b079" stroke-linecap="square" stroke-width="1.5"/>
 <path d="m73.833 79.192 0.015684 0.025855 1.5527-0.16994 1.5684-0.38182 1.5684 0.6743 1.5684-0.02879 1.5684 0.29706 1.5684-0.077284 1.5684 0.14507 1.5684 0.2585 1.5684 0.076428 1.5684 0.52706 3.1368 0.8521 1.5684-0.070175 3.1368 0.97344 1.5684-0.086517 1.5684 0.34607 1.5684 0.47718 1.5684 0.75951 3.1368 1.1533 1.5684 0.43795 1.5684-0.39076 1.5684 0.80437 1.5684 0.5441 1.5684 0.80874 3.1368 0.56976 1.5684 1.0299 1.5684-0.070485 1.5684 0.37338 1.5684 0.88568 1.5684 0.55262 7.8419 3.6025 4.7051 0.87912 1.5684 0.037624 1.5684-0.33161 1.5684 1.7221 1.5684 0.17792 1.5684 0.30133 3.1368 1.1624 3.1368 0.61587 3.1368 0.27257 1.5684-0.18293 1.5684 0.37728 1.5684 0.10575 1.5684 0.7501 1.5684 1.1635 3.1368 1.3812 1.5684 1.6509 1.5684-0.21014 1.5684 0.14072 1.5684 0.99999 1.5684 1.894 3.1368 1.2295 1.5684 1.1042 1.5684 1.2685 1.5684 0.18187 1.5684-0.081649 1.5684 1.6063 1.5684 0.002802 1.5684-0.88314 1.5684-0.060898 1.5684 0.17421 3.1368 1.4249 1.5684 0.099422 1.5684 1.3492 1.5684 0.60032 1.5684-0.397 3.1368-0.25869 1.5684 0.22682 1.5684-1.0183 1.5684 0.38944 1.5684 0.14346 1.5684 1.334 1.5684 0.48391 3.1368 0.50134 1.5684-0.40578 1.5684 1.2995 1.5684 0.42331 1.5684 0.075455 1.5684 1.4038 1.5684 0.35682 1.5684 0.73178 1.5684-0.42223 1.5684-0.71924 1.5684 0.44907 1.5684 1.3787 1.5684-0.08454 1.5684-0.39661 1.5684 1.3065 3.1368-1.0893 1.5684 0.67719 1.5684 0.46969 1.5684 1.552 3.1368 2.6696 1.5684-0.17747 1.5684 0.91836 1.5684 1.1801 1.5684 0.012389 1.5684 0.47738 1.5684-0.52808 1.5684 0.009557 1.5684 1.0541 1.5684-0.53839 1.5684 0.12152 1.5684 0.8207 1.5684 0.37326 1.5684-0.26427 1.5684 0.95702 1.5684 0.17803 1.5684 1.7878 1.5684-0.86211 1.5684 0.20134 1.5684 2.4467 1.5684 0.20603 1.5684-0.12631 3.1368 0.74729 1.5684-0.094496 1.5684 0.40567 1.5684 1.2893 1.5684 0.14988 1.5684-0.20626 1.5684 0.44797 1.5684 0.90859 1.5684 0.73042 1.5684 0.45811 1.5684-1.496 1.5684 0.92921 1.5684-1.925 1.5684-0.084201 1.5684-1.0949 1.5684 1.0909 1.5684-2.0425 1.5684 1.1621 1.5684 0.31058 3.1368 0.20962 1.5684 1.3848 1.5684-0.13212 1.5684 1.2877 1.5684 0.14585 1.5684-0.048966 3.1368-0.55367 1.5684 0.027757 1.5684 0.40011 3.1368 2.5566 1.5684-0.30607 1.5684-0.097991 3.1368 2.3561 1.5684-0.56084 1.5684 0.451 1.5684 0.2444 3.1368 3.2401 4.7051 2.8216 1.5684 0.23707 1.5684-0.28337 1.5684 0.16784 1.5684 0.52103 1.5684 1.3761 1.5684 0.31551 1.5684 0.45226 1.5684-0.22666 1.5684 1.1909 1.5684 0.17264 1.5684 0.55386 1.5684 0.69337 1.5684-1.0412 1.5684 0.37424 1.5684-0.14098 1.5684-0.75837 1.5684-0.21337 1.5684 1.4004 1.5684 0.070219 1.5684-0.58234 1.5684 0.14489 1.5684 1.1693 1.5684 1.3395 1.5684 0.15166 1.5684-0.23948 1.5684 1.594 1.5684 2.371 1.5684 0.11091 1.5684-0.21985v0" clip-path="url(#p4c94d4c726)" fill="none" stroke="#35ae98" stroke-linecap="square" stroke-width="1.5"/>
 <path d="m73.833 188.27 0.015684-4.0212 1.5527-102.18 1.5684-16.76 1.5684-10.979 3.1368-0.69719 4.7051-0.065558 196.05-0.002198h116.06v0" clip-path="url(#p4c94d4c726)" fill="none" stroke="#36acae" stroke-linecap="square" stroke-width="1.5"/>
 <path d="m73.833 144.55 0.015684-3.7258 1.5527-72.513 1.5684-8.8864 1.5684-5.4859 3.1368-0.33996 9.4103-0.032846 307.4-1.03e-4v0" clip-path="url(#p4c94d4c726)" fill="none" stroke="#38a9c4" stroke-linecap="square" stroke-width="1.5"/>
 <path d="m73.833 214.68 0.015684 0.06325 1.5527-0.41661 1.5684-0.94955 1.5684 1.6654 1.5684-0.070013 1.5684 0.71786 1.5684-0.1854 1.5684 0.34859 1.5684 0.61458 1.5684 0.18024 1.5684 1.2258 3.1368 1.9197 1.5684-0.15527 3.1368 2.1111 1.5684-0.18381 1.5684 0.73166 1.5684 0.99044 1.5684 1.5346 3.1368 2.2363 1.5684 0.82155 1.5684-0.73196 1.5684 1.4942 1.5684 0.98321 1.5684 1.4212 1.5684 0.54901 1.5684 0.42516 1.5684 1.7059 1.5684-0.11469 1.5684 0.60358 1.5684 1.397 1.5684 0.84839 4.7051 3.1783 1.5684 0.85695 1.5684 1.0905 3.1368 0.82455 1.5684 0.32907 1.5684 0.048575 1.5684-0.43038 1.5684 2.1829 1.5684 0.21822 1.5684 0.36664 1.5684 0.75455 1.5684 0.62594 3.1368 0.7104 3.1368 0.30982 1.5684-0.20763 1.5684 0.42678 1.5684 0.11858 1.5684 0.83073 1.5684 1.25 3.1368 1.426 1.5684 1.6271 1.5684-0.20273 1.5684 0.13598 1.5684 0.94914 1.5684 1.723 3.1368 1.0693 3.1368 1.962 1.5684 0.14509 1.5684-0.065201 1.5684 1.2544 1.5684 0.002131 1.5684-0.68293 1.5684-0.047716 1.5684 0.1362 3.1368 1.0908 1.5684 0.074573 1.5684 0.99299 1.5684 0.43075 1.5684-0.28409 3.1368-0.18675 1.5684 0.16377 1.5684-0.74294 1.5684 0.28649 1.5684 0.10465 1.5684 0.95585 1.5684 0.33872 3.1368 0.34659 1.5684-0.2802 1.5684 0.88733 1.5684 0.28288 1.5684 0.050087 1.5684 0.91522 1.5684 0.22768 1.5684 0.46081 1.5684-0.26488 1.5684-0.45746 1.5684 0.28659 1.5684 0.86069 1.5684-0.051964 1.5684-0.24517 1.5684 0.79899 3.1368-0.66428 1.5684 0.41502 1.5684 0.28396 1.5684 0.91628 3.1368 1.5011 1.5684-0.096922 1.5684 0.49771 1.5684 0.62493 1.5684 0.006541 1.5684 0.2481 1.5684-0.27463 1.5684 0.004937 1.5684 0.54494 1.5684-0.27676 1.5684 0.062827 1.5684 0.41946 1.5684 0.18832 1.5684-0.13323 1.5684 0.47862 1.5684 0.087969 1.5684 0.86511 1.5684-0.41308 1.5684 0.097121 1.5684 1.1483 1.5684 0.094059 1.5684-0.057635 3.1368 0.33872 1.5684-0.042573 1.5684 0.18212 1.5684 0.56875 1.5684 0.065181 1.5684-0.089721 1.5684 0.19433 3.1368 0.69662 1.5684 0.19062 1.5684-0.62922 1.5684 0.39304 1.5684-0.82233 1.5684-0.036715 1.5684-0.48286 1.5684 0.48118 1.5684-0.90975 1.5684 0.52219 3.1368 0.1694 1.5684 0.060371 1.5684 0.60009 1.5684-0.056554 1.5684 0.54474 3.1368 0.040517 4.7051-0.22037 1.5684 0.16781 3.1368 1.0422 3.1368-0.16132 3.1368 0.92327 1.5684-0.21601 3.1368 0.26751 3.1368 1.2015 4.7051 0.98982 1.5684 0.080942 1.5684-0.096718 1.5684 0.057371 1.5684 0.17698 1.5684 0.45965 3.1368 0.25166 1.5684-0.073945 1.5684 0.38535 1.5684 0.055183 3.1368 0.39395 1.5684-0.32831 1.5684 0.11867 1.5684-0.044608 1.5684-0.2419 1.5684-0.068641 1.5684 0.44586 1.5684 0.022068 1.5684-0.18392 1.5684 0.045919 3.1368 0.77746 1.5684 0.045945 1.5684-0.072607 1.5684 0.47785 1.5684 0.68794 3.1368-0.031028v0" clip-path="url(#p4c94d4c726)" fill="none" stroke="#3ba3ea" stroke-linecap="square" stroke-width="1.5"/>
 <path d="m73.833 201.61 0.015684-3.9104 1.5527-109.58 1.5684-20.08 1.5684-13.518 1.5684-0.50434 1.5684-0.36399 4.7051-0.081532 155.27-0.00292h156.84v0" clip-path="url(#p4c94d4c726)" fill="none" stroke="#9292f4" stroke-linecap="square" stroke-width="1.5"/>
 <path d="m73.833 295.49 1.5684-37.347 1.5684-44.681 1.5684-134.64 1.5684-12.712 1.5684-10.081 1.5684-1.7163 1.5684-0.11388 1.5684-0.54307 7.8419-0.085765 304.27-5.01e-4v0" clip-path="url(#p4c94d4c726)" fill="none" stroke="#ca7bf4" stroke-linecap="square" stroke-width="1.5"/>
 <path d="m73.833 259.23 0.015684-2.3189 1.5527-116.96 1.5684-44.241 1.5684-39.021 1.5684-1.6451 1.5684-1.1971 1.5684-0.1952 23.526-0.083685h291.72v0" clip-path="url(#p4c94d4c726)" fill="none" stroke="#f55fe6" stroke-linecap="square" stroke-width="1.5"/>
 <path d="m73.833 228.29 0.015684-3.4004 1.5527-119.98 1.5684-28.806 1.5684-21.002 1.5684-0.81086 1.5684-0.58633 3.1368-0.10177 6.2735-0.034395 307.4-1.03e-4v0" clip-path="url(#p4c94d4c726)" fill="none" stroke="#f669ba" stroke-linecap="square" stroke-width="1.5"/>
 <path d="m73.833 172.71 0.015684 0.069526 1.5527-0.45758 1.5684-1.0383 1.5684 1.8251 1.5684-0.077033 1.5684 0.79207 1.5684-0.20474 1.5684 0.38537 1.5684 0.68156 1.5684 0.20044 1.5684 1.3685 3.1368 2.1638 1.5684-0.17596 3.1368 2.4067 1.5684-0.2107 1.5684 0.84041 1.5684 1.1439 1.5684 1.7863 3.1368 2.6336 1.5684 0.97687 1.5684-0.87051 1.5684 1.7814 1.5684 1.1813 1.5684 1.7207 1.5684 0.66878 1.5684 0.51955 1.5684 2.099 1.5684-0.14182 1.5684 0.74758 1.5684 1.7414 1.5684 1.0652 4.7051 4.0431 1.5684 1.1045 1.5684 1.4146 3.1368 1.0762 1.5684 0.43126 1.5684 0.063627 1.5684-0.56388 1.5684 2.8769 1.5684 0.28994 1.5684 0.488 1.5684 1.0081 1.5684 0.84006 1.5684 0.54236 1.5684 0.41542 3.1368 0.41907 1.5684-0.28093 1.5684 0.57794 1.5684 0.16083 1.5684 1.1306 1.5684 1.7132 3.1368 1.9721 1.5684 2.2738 1.5684-0.28467 1.5684 0.19096 1.5684 1.3374 1.5684 2.4502 3.1368 1.5354 1.5684 1.3432 1.5684 1.5035 1.5684 0.21202 1.5684-0.095351 1.5684 1.8416 1.5684 0.003148 1.5684-1.0046 1.5684-0.069998 1.5684 0.19989 3.1368 1.6078 1.5684 0.11038 1.5684 1.4752 1.5684 0.64318 1.5684-0.4244 1.5684-0.082372 1.5684-0.19606 1.5684 0.2442 1.5684-1.1056 1.5684 0.42561 1.5684 0.1557 1.5684 1.4275 1.5684 0.50816 3.1368 0.5212 1.5684-0.42146 1.5684 1.3375 1.5684 0.42818 1.5684 0.07586 1.5684 1.3918 1.5684 0.34768 1.5684 0.7053 1.5684-0.40579 1.5684-0.69891 1.5684 0.4376 1.5684 1.3194 1.5684-0.079916 1.5684-0.37656 1.5684 1.2296 3.1368-1.0228 1.5684 0.63847 1.5684 0.43794 1.5684 1.4191 3.1368 2.3452 1.5684-0.1522 1.5684 0.78264 1.5684 0.98673 1.5684 0.010357 1.5684 0.39296 1.5684-0.43496 1.5684 0.007862 1.5684 0.86392 1.5684-0.43917 1.5684 0.099618 1.5684 0.6663 1.5684 0.29982 1.5684-0.21212 1.5684 0.76305 1.5684 0.14054 1.5684 1.3869 1.5684-0.6633 1.5684 0.15582 1.5684 1.8502 1.5684 0.15227 1.5684-0.093294 3.1368 0.54886 1.5684-0.069065 1.5684 0.29558 1.5684 0.92563 1.5684 0.10636 1.5684-0.14633 1.5684 0.31716 1.5684 0.63606 1.5684 0.50446 1.5684 0.31312 1.5684-1.0318 1.5684 0.64396 1.5684-1.3452 1.5684-0.059892 1.5684-0.78589 1.5684 0.78313 1.5684-1.4784 1.5684 0.84731 1.5684 0.2236 3.1368 0.15031 1.5684 0.97948 1.5684-0.092457 1.5684 0.89251 1.5684 0.099997 1.5684-0.03345 4.7051-0.3616 1.5684 0.27528 3.1368 1.7174 1.5684-0.20183 1.5684-0.064832 3.1368 1.5307 1.5684-0.35904 1.5684 0.28897 1.5684 0.1558 3.1368 2.0086 4.7051 1.6682 1.5684 0.13697 1.5684-0.16364 1.5684 0.097048 1.5684 0.29968 1.5684 0.78015 3.1368 0.42831 1.5684-0.12594 1.5684 0.65704 1.5684 0.094252 3.1368 0.6739 1.5684-0.5618 1.5684 0.20293 1.5684-0.076263 1.5684-0.41326 1.5684-0.11716 1.5684 0.7619 1.5684 0.03775 1.5684-0.31462 1.5684 0.078512 3.1368 1.3335 1.5684 0.079068 1.5684-0.12495 1.5684 0.8234 1.5684 1.1905 1.5684 0.054707 1.5684-0.10854v0" clip-path="url(#p4c94d4c726)" fill="none" stroke="#f7708c" stroke-linecap="square" stroke-width="1.5"/>
 <path d="m57.6 307.58v-266.11" fill="none" stroke="#000" stroke-linecap="square" stroke-width=".8"/>
 <path d="m414.72 307.58v-266.11" fill="none" stroke="#000" stroke-linecap="square" stroke-width=".8"/>
 <path d="m57.6 307.58h357.12" fill="none" stroke="#000" stroke-linecap="square" stroke-width=".8"/>
 <path d="m57.6 41.472h357.12" fill="none" stroke="#000" stroke-linecap="square" stroke-width=".8"/>
 <path d="m363 234.74h44.725q2 0 2-2v-116.42q0-2-2-2h-44.725q-2 0-2 2v116.42q0 2 2 2z" fill="#fff" opacity=".8" stroke="#ccc"/>
 <!-- node -->
 <g transform="translate(372.88 125.91) scale(.1 -.1)">
  <defs>
   <path id="DejaVuSans-64" transform="scale(.015625)" d="m2906 2969v1894h575v-4863h-575v525q-181-312-458-464-276-152-664-152-634 0-1033 506-398 507-398 1332t398 1331q399 506 1033 506 388 0 664-152 277-151 458-463zm-1959-1222q0-634 261-995t717-361 718 361q263 361 263 995t-263 995q-262 361-718 361t-717-361-261-995z"/>
  </defs>
  <use xlink:href="#DejaVuSans-6e"/>
  <use x="63.378906" xlink:href="#DejaVuSans-6f"/>
  <use x="124.560547" xlink:href="#DejaVuSans-64"/>
  <use x="188.037109" xlink:href="#DejaVuSans-65"/>
 </g>
 <path d="m365 137.09h10 10" fill="none" stroke="#f77189" stroke-linecap="square" stroke-width="1.5"/>
 <!-- 0 -->
 <g transform="translate(393 140.59) scale(.1 -.1)">
  <use xlink:href="#DejaVuSans-30"/>
 </g>
 <path d="m365 151.77h10 10" fill="none" stroke="#ca9132" stroke-linecap="square" stroke-width="1.5"/>
 <!-- 2 -->
 <g transform="translate(393 155.27) scale(.1 -.1)">
  <use xlink:href="#DejaVuSans-32"/>
 </g>
 <path d="m365 166.45h10 10" fill="none" stroke="#52b031" stroke-linecap="square" stroke-width="1.5"/>
 <!-- 5 -->
 <g transform="translate(393 169.95) scale(.1 -.1)">
  <use xlink:href="#DejaVuSans-35"/>
 </g>
 <path d="m365 181.13h10 10" fill="none" stroke="#35ae98" stroke-linecap="square" stroke-width="1.5"/>
 <!-- 7 -->
 <g transform="translate(393 184.63) scale(.1 -.1)">
  <defs>
   <path id="DejaVuSans-37" transform="scale(.015625)" d="m525 4666h3e3v-269l-1694-4397h-659l1594 4134h-2241v532z"/>
  </defs>
  <use xlink:href="#DejaVuSans-37"/>
 </g>
 <path d="m365 195.8h10 10" fill="none" stroke="#3ba3ea" stroke-linecap="square" stroke-width="1.5"/>
 <!-- 10 -->
 <g transform="translate(393 199.3) scale(.1 -.1)">
  <use xlink:href="#DejaVuSans-31"/>
  <use x="63.623047" xlink:href="#DejaVuSans-30"/>
 </g>
 <path d="m365 210.48h10 10" fill="none" stroke="#ca7bf4" stroke-linecap="square" stroke-width="1.5"/>
 <!-- 12 -->
 <g transform="translate(393 213.98) scale(.1 -.1)">
  <use xlink:href="#DejaVuSans-31"/>
  <use x="63.623047" xlink:href="#DejaVuSans-32"/>
 </g>
 <path d="m365 225.16h10 10" fill="none" stroke="#f7708c" stroke-linecap="square" stroke-width="1.5"/>
 <!-- 15 -->
 <g transform="translate(393 228.66) scale(.1 -.1)">
  <use xlink:href="#DejaVuSans-31"/>
  <use x="63.623047" xlink:href="#DejaVuSans-35"/>
 </g>
 <defs>
  <clipPath id="p4c94d4c726">
   <rect x="57.6" y="41.472" width="357.12" height="266.11"/>
  </clipPath>
 </defs>
</svg>
