<?xml version="1.0" encoding="utf-8" standalone="no"?>
<!DOCTYPE svg PUBLIC "-//W3C//DTD SVG 1.1//EN"
  "http://www.w3.org/Graphics/SVG/1.1/DTD/svg11.dtd">
<svg xmlns:xlink="http://www.w3.org/1999/xlink" width="460.8pt" height="345.6pt" viewBox="0 0 460.8 345.6" xmlns="http://www.w3.org/2000/svg" version="1.1">
 <metadata>
  <rdf:RDF xmlns:dc="http://purl.org/dc/elements/1.1/" xmlns:cc="http://creativecommons.org/ns#" xmlns:rdf="http://www.w3.org/1999/02/22-rdf-syntax-ns#">
   <cc:Work>
    <dc:type rdf:resource="http://purl.org/dc/dcmitype/StillImage"/>
    <dc:date>2024-08-08T12:35:31.497245</dc:date>
    <dc:format>image/svg+xml</dc:format>
    <dc:creator>
     <cc:Agent>
      <dc:title>Matplotlib v3.8.4, https://matplotlib.org/</dc:title>
     </cc:Agent>
    </dc:creator>
   </cc:Work>
  </rdf:RDF>
 </metadata>
 <defs>
  <style type="text/css">*{stroke-linejoin: round; stroke-linecap: butt}</style>
 </defs>
 <g id="figure_1">
  <g id="patch_1">
   <path d="M 0 345.6 
L 460.8 345.6 
L 460.8 0 
L 0 0 
z
" style="fill: #ffffff"/>
  </g>
  <g id="axes_1">
   <g id="patch_2">
    <path d="M 57.6 307.584 
L 414.72 307.584 
L 414.72 41.472 
L 57.6 41.472 
z
" style="fill: #ffffff"/>
   </g>
   <g id="matplotlib.axis_1">
    <g id="xtick_1">
     <g id="line2d_1">
      <defs>
       <path id="me061cf5208" d="M 0 0 
L 0 3.5 
" style="stroke: #000000; stroke-width: 0.8"/>
      </defs>
      <g>
       <use xlink:href="#me061cf5208" x="73.832727" y="307.584" style="stroke: #000000; stroke-width: 0.8"/>
      </g>
     </g>
     <g id="text_1">
      <!-- 0 -->
      <g transform="translate(70.651477 322.182437) scale(0.1 -0.1)">
       <defs>
        <path id="DejaVuSans-30" d="M 2034 4250 
Q 1547 4250 1301 3770 
Q 1056 3291 1056 2328 
Q 1056 1369 1301 889 
Q 1547 409 2034 409 
Q 2525 409 2770 889 
Q 3016 1369 3016 2328 
Q 3016 3291 2770 3770 
Q 2525 4250 2034 4250 
z
M 2034 4750 
Q 2819 4750 3233 4129 
Q 3647 3509 3647 2328 
Q 3647 1150 3233 529 
Q 2819 -91 2034 -91 
Q 1250 -91 836 529 
Q 422 1150 422 2328 
Q 422 3509 836 4129 
Q 1250 4750 2034 4750 
z
" transform="scale(0.015625)"/>
       </defs>
       <use xlink:href="#DejaVuSans-30"/>
      </g>
     </g>
    </g>
    <g id="xtick_2">
     <g id="line2d_2">
      <g>
       <use xlink:href="#me061cf5208" x="138.763636" y="307.584" style="stroke: #000000; stroke-width: 0.8"/>
      </g>
     </g>
     <g id="text_2">
      <!-- 2000 -->
      <g transform="translate(126.038636 322.182437) scale(0.1 -0.1)">
       <defs>
        <path id="DejaVuSans-32" d="M 1228 531 
L 3431 531 
L 3431 0 
L 469 0 
L 469 531 
Q 828 903 1448 1529 
Q 2069 2156 2228 2338 
Q 2531 2678 2651 2914 
Q 2772 3150 2772 3378 
Q 2772 3750 2511 3984 
Q 2250 4219 1831 4219 
Q 1534 4219 1204 4116 
Q 875 4013 500 3803 
L 500 4441 
Q 881 4594 1212 4672 
Q 1544 4750 1819 4750 
Q 2544 4750 2975 4387 
Q 3406 4025 3406 3419 
Q 3406 3131 3298 2873 
Q 3191 2616 2906 2266 
Q 2828 2175 2409 1742 
Q 1991 1309 1228 531 
z
" transform="scale(0.015625)"/>
       </defs>
       <use xlink:href="#DejaVuSans-32"/>
       <use xlink:href="#DejaVuSans-30" x="63.623047"/>
       <use xlink:href="#DejaVuSans-30" x="127.246094"/>
       <use xlink:href="#DejaVuSans-30" x="190.869141"/>
      </g>
     </g>
    </g>
    <g id="xtick_3">
     <g id="line2d_3">
      <g>
       <use xlink:href="#me061cf5208" x="203.694545" y="307.584" style="stroke: #000000; stroke-width: 0.8"/>
      </g>
     </g>
     <g id="text_3">
      <!-- 4000 -->
      <g transform="translate(190.969545 322.182437) scale(0.1 -0.1)">
       <defs>
        <path id="DejaVuSans-34" d="M 2419 4116 
L 825 1625 
L 2419 1625 
L 2419 4116 
z
M 2253 4666 
L 3047 4666 
L 3047 1625 
L 3713 1625 
L 3713 1100 
L 3047 1100 
L 3047 0 
L 2419 0 
L 2419 1100 
L 313 1100 
L 313 1709 
L 2253 4666 
z
" transform="scale(0.015625)"/>
       </defs>
       <use xlink:href="#DejaVuSans-34"/>
       <use xlink:href="#DejaVuSans-30" x="63.623047"/>
       <use xlink:href="#DejaVuSans-30" x="127.246094"/>
       <use xlink:href="#DejaVuSans-30" x="190.869141"/>
      </g>
     </g>
    </g>
    <g id="xtick_4">
     <g id="line2d_4">
      <g>
       <use xlink:href="#me061cf5208" x="268.625455" y="307.584" style="stroke: #000000; stroke-width: 0.8"/>
      </g>
     </g>
     <g id="text_4">
      <!-- 6000 -->
      <g transform="translate(255.900455 322.182437) scale(0.1 -0.1)">
       <defs>
        <path id="DejaVuSans-36" d="M 2113 2584 
Q 1688 2584 1439 2293 
Q 1191 2003 1191 1497 
Q 1191 994 1439 701 
Q 1688 409 2113 409 
Q 2538 409 2786 701 
Q 3034 994 3034 1497 
Q 3034 2003 2786 2293 
Q 2538 2584 2113 2584 
z
M 3366 4563 
L 3366 3988 
Q 3128 4100 2886 4159 
Q 2644 4219 2406 4219 
Q 1781 4219 1451 3797 
Q 1122 3375 1075 2522 
Q 1259 2794 1537 2939 
Q 1816 3084 2150 3084 
Q 2853 3084 3261 2657 
Q 3669 2231 3669 1497 
Q 3669 778 3244 343 
Q 2819 -91 2113 -91 
Q 1303 -91 875 529 
Q 447 1150 447 2328 
Q 447 3434 972 4092 
Q 1497 4750 2381 4750 
Q 2619 4750 2861 4703 
Q 3103 4656 3366 4563 
z
" transform="scale(0.015625)"/>
       </defs>
       <use xlink:href="#DejaVuSans-36"/>
       <use xlink:href="#DejaVuSans-30" x="63.623047"/>
       <use xlink:href="#DejaVuSans-30" x="127.246094"/>
       <use xlink:href="#DejaVuSans-30" x="190.869141"/>
      </g>
     </g>
    </g>
    <g id="xtick_5">
     <g id="line2d_5">
      <g>
       <use xlink:href="#me061cf5208" x="333.556364" y="307.584" style="stroke: #000000; stroke-width: 0.8"/>
      </g>
     </g>
     <g id="text_5">
      <!-- 8000 -->
      <g transform="translate(320.831364 322.182437) scale(0.1 -0.1)">
       <defs>
        <path id="DejaVuSans-38" d="M 2034 2216 
Q 1584 2216 1326 1975 
Q 1069 1734 1069 1313 
Q 1069 891 1326 650 
Q 1584 409 2034 409 
Q 2484 409 2743 651 
Q 3003 894 3003 1313 
Q 3003 1734 2745 1975 
Q 2488 2216 2034 2216 
z
M 1403 2484 
Q 997 2584 770 2862 
Q 544 3141 544 3541 
Q 544 4100 942 4425 
Q 1341 4750 2034 4750 
Q 2731 4750 3128 4425 
Q 3525 4100 3525 3541 
Q 3525 3141 3298 2862 
Q 3072 2584 2669 2484 
Q 3125 2378 3379 2068 
Q 3634 1759 3634 1313 
Q 3634 634 3220 271 
Q 2806 -91 2034 -91 
Q 1263 -91 848 271 
Q 434 634 434 1313 
Q 434 1759 690 2068 
Q 947 2378 1403 2484 
z
M 1172 3481 
Q 1172 3119 1398 2916 
Q 1625 2713 2034 2713 
Q 2441 2713 2670 2916 
Q 2900 3119 2900 3481 
Q 2900 3844 2670 4047 
Q 2441 4250 2034 4250 
Q 1625 4250 1398 4047 
Q 1172 3844 1172 3481 
z
" transform="scale(0.015625)"/>
       </defs>
       <use xlink:href="#DejaVuSans-38"/>
       <use xlink:href="#DejaVuSans-30" x="63.623047"/>
       <use xlink:href="#DejaVuSans-30" x="127.246094"/>
       <use xlink:href="#DejaVuSans-30" x="190.869141"/>
      </g>
     </g>
    </g>
    <g id="xtick_6">
     <g id="line2d_6">
      <g>
       <use xlink:href="#me061cf5208" x="398.487273" y="307.584" style="stroke: #000000; stroke-width: 0.8"/>
      </g>
     </g>
     <g id="text_6">
      <!-- 10000 -->
      <g transform="translate(382.581023 322.182437) scale(0.1 -0.1)">
       <defs>
        <path id="DejaVuSans-31" d="M 794 531 
L 1825 531 
L 1825 4091 
L 703 3866 
L 703 4441 
L 1819 4666 
L 2450 4666 
L 2450 531 
L 3481 531 
L 3481 0 
L 794 0 
L 794 531 
z
" transform="scale(0.015625)"/>
       </defs>
       <use xlink:href="#DejaVuSans-31"/>
       <use xlink:href="#DejaVuSans-30" x="63.623047"/>
       <use xlink:href="#DejaVuSans-30" x="127.246094"/>
       <use xlink:href="#DejaVuSans-30" x="190.869141"/>
       <use xlink:href="#DejaVuSans-30" x="254.492188"/>
      </g>
     </g>
    </g>
    <g id="text_7">
     <!-- iteration -->
     <g transform="translate(215.037344 335.860562) scale(0.1 -0.1)">
      <defs>
       <path id="DejaVuSans-69" d="M 603 3500 
L 1178 3500 
L 1178 0 
L 603 0 
L 603 3500 
z
M 603 4863 
L 1178 4863 
L 1178 4134 
L 603 4134 
L 603 4863 
z
" transform="scale(0.015625)"/>
       <path id="DejaVuSans-74" d="M 1172 4494 
L 1172 3500 
L 2356 3500 
L 2356 3053 
L 1172 3053 
L 1172 1153 
Q 1172 725 1289 603 
Q 1406 481 1766 481 
L 2356 481 
L 2356 0 
L 1766 0 
Q 1100 0 847 248 
Q 594 497 594 1153 
L 594 3053 
L 172 3053 
L 172 3500 
L 594 3500 
L 594 4494 
L 1172 4494 
z
" transform="scale(0.015625)"/>
       <path id="DejaVuSans-65" d="M 3597 1894 
L 3597 1613 
L 953 1613 
Q 991 1019 1311 708 
Q 1631 397 2203 397 
Q 2534 397 2845 478 
Q 3156 559 3463 722 
L 3463 178 
Q 3153 47 2828 -22 
Q 2503 -91 2169 -91 
Q 1331 -91 842 396 
Q 353 884 353 1716 
Q 353 2575 817 3079 
Q 1281 3584 2069 3584 
Q 2775 3584 3186 3129 
Q 3597 2675 3597 1894 
z
M 3022 2063 
Q 3016 2534 2758 2815 
Q 2500 3097 2075 3097 
Q 1594 3097 1305 2825 
Q 1016 2553 972 2059 
L 3022 2063 
z
" transform="scale(0.015625)"/>
       <path id="DejaVuSans-72" d="M 2631 2963 
Q 2534 3019 2420 3045 
Q 2306 3072 2169 3072 
Q 1681 3072 1420 2755 
Q 1159 2438 1159 1844 
L 1159 0 
L 581 0 
L 581 3500 
L 1159 3500 
L 1159 2956 
Q 1341 3275 1631 3429 
Q 1922 3584 2338 3584 
Q 2397 3584 2469 3576 
Q 2541 3569 2628 3553 
L 2631 2963 
z
" transform="scale(0.015625)"/>
       <path id="DejaVuSans-61" d="M 2194 1759 
Q 1497 1759 1228 1600 
Q 959 1441 959 1056 
Q 959 750 1161 570 
Q 1363 391 1709 391 
Q 2188 391 2477 730 
Q 2766 1069 2766 1631 
L 2766 1759 
L 2194 1759 
z
M 3341 1997 
L 3341 0 
L 2766 0 
L 2766 531 
Q 2569 213 2275 61 
Q 1981 -91 1556 -91 
Q 1019 -91 701 211 
Q 384 513 384 1019 
Q 384 1609 779 1909 
Q 1175 2209 1959 2209 
L 2766 2209 
L 2766 2266 
Q 2766 2663 2505 2880 
Q 2244 3097 1772 3097 
Q 1472 3097 1187 3025 
Q 903 2953 641 2809 
L 641 3341 
Q 956 3463 1253 3523 
Q 1550 3584 1831 3584 
Q 2591 3584 2966 3190 
Q 3341 2797 3341 1997 
z
" transform="scale(0.015625)"/>
       <path id="DejaVuSans-6f" d="M 1959 3097 
Q 1497 3097 1228 2736 
Q 959 2375 959 1747 
Q 959 1119 1226 758 
Q 1494 397 1959 397 
Q 2419 397 2687 759 
Q 2956 1122 2956 1747 
Q 2956 2369 2687 2733 
Q 2419 3097 1959 3097 
z
M 1959 3584 
Q 2709 3584 3137 3096 
Q 3566 2609 3566 1747 
Q 3566 888 3137 398 
Q 2709 -91 1959 -91 
Q 1206 -91 779 398 
Q 353 888 353 1747 
Q 353 2609 779 3096 
Q 1206 3584 1959 3584 
z
" transform="scale(0.015625)"/>
       <path id="DejaVuSans-6e" d="M 3513 2113 
L 3513 0 
L 2938 0 
L 2938 2094 
Q 2938 2591 2744 2837 
Q 2550 3084 2163 3084 
Q 1697 3084 1428 2787 
Q 1159 2491 1159 1978 
L 1159 0 
L 581 0 
L 581 3500 
L 1159 3500 
L 1159 2956 
Q 1366 3272 1645 3428 
Q 1925 3584 2291 3584 
Q 2894 3584 3203 3211 
Q 3513 2838 3513 2113 
z
" transform="scale(0.015625)"/>
      </defs>
      <use xlink:href="#DejaVuSans-69"/>
      <use xlink:href="#DejaVuSans-74" x="27.783203"/>
      <use xlink:href="#DejaVuSans-65" x="66.992188"/>
      <use xlink:href="#DejaVuSans-72" x="128.515625"/>
      <use xlink:href="#DejaVuSans-61" x="169.628906"/>
      <use xlink:href="#DejaVuSans-74" x="230.908203"/>
      <use xlink:href="#DejaVuSans-69" x="270.117188"/>
      <use xlink:href="#DejaVuSans-6f" x="297.900391"/>
      <use xlink:href="#DejaVuSans-6e" x="359.082031"/>
     </g>
    </g>
   </g>
   <g id="matplotlib.axis_2">
    <g id="ytick_1">
     <g id="line2d_7">
      <defs>
       <path id="m99a337003e" d="M 0 0 
L -3.5 0 
" style="stroke: #000000; stroke-width: 0.8"/>
      </defs>
      <g>
       <use xlink:href="#m99a337003e" x="57.6" y="260.168395" style="stroke: #000000; stroke-width: 0.8"/>
      </g>
     </g>
     <g id="text_8">
      <!-- 0.2 -->
      <g transform="translate(34.696875 263.967613) scale(0.1 -0.1)">
       <defs>
        <path id="DejaVuSans-2e" d="M 684 794 
L 1344 794 
L 1344 0 
L 684 0 
L 684 794 
z
" transform="scale(0.015625)"/>
       </defs>
       <use xlink:href="#DejaVuSans-30"/>
       <use xlink:href="#DejaVuSans-2e" x="63.623047"/>
       <use xlink:href="#DejaVuSans-32" x="95.410156"/>
      </g>
     </g>
    </g>
    <g id="ytick_2">
     <g id="line2d_8">
      <g>
       <use xlink:href="#m99a337003e" x="57.6" y="208.514686" style="stroke: #000000; stroke-width: 0.8"/>
      </g>
     </g>
     <g id="text_9">
      <!-- 0.4 -->
      <g transform="translate(34.696875 212.313905) scale(0.1 -0.1)">
       <use xlink:href="#DejaVuSans-30"/>
       <use xlink:href="#DejaVuSans-2e" x="63.623047"/>
       <use xlink:href="#DejaVuSans-34" x="95.410156"/>
      </g>
     </g>
    </g>
    <g id="ytick_3">
     <g id="line2d_9">
      <g>
       <use xlink:href="#m99a337003e" x="57.6" y="156.860978" style="stroke: #000000; stroke-width: 0.8"/>
      </g>
     </g>
     <g id="text_10">
      <!-- 0.6 -->
      <g transform="translate(34.696875 160.660196) scale(0.1 -0.1)">
       <use xlink:href="#DejaVuSans-30"/>
       <use xlink:href="#DejaVuSans-2e" x="63.623047"/>
       <use xlink:href="#DejaVuSans-36" x="95.410156"/>
      </g>
     </g>
    </g>
    <g id="ytick_4">
     <g id="line2d_10">
      <g>
       <use xlink:href="#m99a337003e" x="57.6" y="105.207269" style="stroke: #000000; stroke-width: 0.8"/>
      </g>
     </g>
     <g id="text_11">
      <!-- 0.8 -->
      <g transform="translate(34.696875 109.006488) scale(0.1 -0.1)">
       <use xlink:href="#DejaVuSans-30"/>
       <use xlink:href="#DejaVuSans-2e" x="63.623047"/>
       <use xlink:href="#DejaVuSans-38" x="95.410156"/>
      </g>
     </g>
    </g>
    <g id="ytick_5">
     <g id="line2d_11">
      <g>
       <use xlink:href="#m99a337003e" x="57.6" y="53.55356" style="stroke: #000000; stroke-width: 0.8"/>
      </g>
     </g>
     <g id="text_12">
      <!-- 1.0 -->
      <g transform="translate(34.696875 57.352779) scale(0.1 -0.1)">
       <use xlink:href="#DejaVuSans-31"/>
       <use xlink:href="#DejaVuSans-2e" x="63.623047"/>
       <use xlink:href="#DejaVuSans-30" x="95.410156"/>
      </g>
     </g>
    </g>
   </g>
   <g id="line2d_12">
    <path d="M 73.832727 58.275179 
L 73.865193 58.58115 
L 77.079273 59.861762 
L 80.325818 57.816422 
L 83.572364 56.495847 
L 86.818909 56.166477 
L 90.065455 55.596991 
L 93.312 56.29317 
L 96.558545 55.986444 
L 99.805091 55.580674 
L 103.051636 55.713632 
L 106.298182 55.088789 
L 109.544727 56.272049 
L 112.791273 55.94836 
L 116.037818 55.730796 
L 119.284364 55.548962 
L 122.530909 55.837153 
L 125.777455 55.486847 
L 129.024 55.02903 
L 132.270545 55.242406 
L 135.517091 54.753015 
L 138.763636 55.076212 
L 142.010182 54.873258 
L 145.256727 55.017068 
L 148.503273 54.609651 
L 151.749818 55.215805 
L 154.996364 55.064343 
L 158.242909 56.228869 
L 161.489455 56.358902 
L 164.736 57.619333 
L 167.982545 58.349039 
L 171.229091 56.91812 
L 174.475636 56.292785 
L 177.722182 55.836291 
L 180.968727 55.947559 
L 184.215273 56.403006 
L 187.461818 56.661579 
L 190.708364 56.710948 
L 193.954909 57.107959 
L 197.201455 57.881646 
L 200.448 57.881677 
L 203.694545 57.747811 
L 206.941091 56.786825 
L 210.187636 58.34733 
L 213.434182 56.083519 
L 216.680727 55.296116 
L 219.927273 55.255168 
L 223.173818 56.76144 
L 226.420364 55.201873 
L 229.666909 56.335981 
L 232.913455 55.338326 
L 236.16 55.485893 
L 239.406545 55.629119 
L 242.653091 56.165631 
L 245.899636 56.292646 
L 249.146182 55.696298 
L 252.392727 56.228577 
L 255.639273 56.249882 
L 258.885818 56.14511 
L 262.132364 56.891273 
L 265.378909 57.340347 
L 268.625455 56.403345 
L 271.872 56.448619 
L 275.118545 55.836399 
L 278.365091 55.928701 
L 281.611636 55.255398 
L 284.858182 55.176027 
L 288.104727 54.52055 
L 291.351273 54.102387 
L 294.597818 53.992443 
L 297.844364 53.877404 
L 301.090909 53.927342 
L 304.337455 54.047816 
L 307.584 54.161824 
L 310.830545 54.558943 
L 314.077091 54.176587 
L 317.323636 54.088933 
L 320.570182 53.833885 
L 323.816727 53.750758 
L 327.063273 53.74009 
L 330.309818 53.670986 
L 333.556364 53.629314 
L 336.802909 53.606023 
L 340.049455 53.618169 
L 343.296 53.587735 
L 346.542545 53.597002 
L 349.789091 53.615183 
L 353.035636 53.619847 
L 356.282182 53.628945 
L 359.528727 53.623295 
L 362.775273 53.645032 
L 366.021818 53.657609 
L 369.268364 53.660133 
L 372.514909 53.690059 
L 375.761455 53.669 
L 379.008 53.734255 
L 382.254545 53.781346 
L 385.501091 53.794384 
L 388.747636 53.753852 
L 391.994182 53.790366 
L 395.240727 53.738442 
L 398.487273 53.687842 
" clip-path="url(#p0f8b2e2b47)" style="fill: none; stroke: #1f77b4; stroke-width: 1.5; stroke-linecap: square"/>
   </g>
   <g id="line2d_13">
    <path d="M 73.832727 84.647403 
L 73.865193 86.440589 
L 77.079273 93.692812 
L 80.325818 81.913227 
L 83.572364 73.720738 
L 86.818909 71.599306 
L 90.065455 67.854191 
L 93.312 72.418698 
L 96.558545 70.42579 
L 99.805091 67.745293 
L 103.051636 68.628571 
L 106.298182 64.425915 
L 109.544727 72.281322 
L 112.791273 70.175129 
L 116.037818 68.742055 
L 119.284364 67.532225 
L 122.530909 69.442667 
L 125.777455 67.115617 
L 129.024 64.016788 
L 132.270545 65.470059 
L 135.517091 62.117076 
L 138.763636 64.34191 
L 142.010182 62.948275 
L 145.256727 63.936339 
L 148.503273 61.118328 
L 151.749818 65.289996 
L 154.996364 64.259336 
L 158.242909 72.001797 
L 161.489455 72.841001 
L 164.736 80.71916 
L 167.982545 85.080528 
L 171.229091 76.392475 
L 174.475636 72.415065 
L 177.722182 69.439465 
L 180.968727 70.170757 
L 184.215273 73.12539 
L 187.461818 74.775381 
L 190.708364 75.087649 
L 193.954909 77.577675 
L 197.201455 82.304543 
L 200.448 82.305112 
L 203.694545 81.499175 
L 206.941091 75.567326 
L 210.187636 85.072693 
L 213.434182 71.059484 
L 216.680727 65.834497 
L 219.927273 65.556912 
L 223.173818 75.405566 
L 226.420364 65.194876 
L 229.666909 72.691957 
L 232.913455 66.117978 
L 236.16 67.109275 
L 239.406545 68.064396 
L 242.653091 71.588961 
L 245.899636 72.410277 
L 249.146182 68.509421 
L 252.392727 71.99507 
L 255.639273 72.13317 
L 258.885818 71.454386 
L 262.132364 76.217784 
L 265.378909 79.00707 
L 268.625455 73.120449 
L 271.872 73.410503 
L 275.118545 69.434678 
L 278.365091 70.041217 
L 281.611636 65.554449 
L 284.858182 65.016475 
L 288.104727 60.492701 
L 291.351273 57.531602 
L 294.597818 56.743029 
L 297.844364 55.914416 
L 301.090909 56.27599 
L 304.337455 57.143458 
L 307.584 57.958894 
L 310.830545 60.765251 
L 314.077091 58.063988 
L 317.323636 57.437206 
L 320.570182 55.599747 
L 323.816727 54.995932 
L 327.063273 54.917916 
L 330.309818 54.413115 
L 333.556364 54.107976 
L 336.802909 53.937533 
L 340.049455 54.026141 
L 343.296 53.802989 
L 346.542545 53.870477 
L 349.789091 54.003835 
L 353.035636 54.037425 
L 356.282182 54.103188 
L 359.528727 54.061116 
L 362.775273 54.219459 
L 366.021818 54.310176 
L 369.268364 54.328464 
L 372.514909 54.545642 
L 375.761455 54.392888 
L 379.008 54.864991 
L 382.254545 55.205276 
L 385.501091 55.299656 
L 388.747636 55.007663 
L 391.994182 55.271916 
L 395.240727 54.896487 
L 398.487273 54.530064 
" clip-path="url(#p0f8b2e2b47)" style="fill: none; stroke: #ff7f0e; stroke-width: 1.5; stroke-linecap: square"/>
   </g>
   <g id="line2d_14">
    <path d="M 73.832727 55.58266 
L 73.865193 55.715633 
L 77.079273 56.27402 
L 80.325818 55.383507 
L 83.572364 54.812836 
L 86.818909 54.671119 
L 90.065455 54.4264 
L 93.312 54.725398 
L 96.558545 54.593456 
L 99.805091 54.419165 
L 103.051636 54.4762 
L 106.298182 54.20836 
L 109.544727 54.716193 
L 112.791273 54.576938 
L 116.037818 54.483558 
L 119.284364 54.405418 
L 122.530909 54.528909 
L 125.777455 54.378556 
L 129.024 54.182529 
L 132.270545 54.273938 
L 135.517091 54.064595 
L 138.763636 54.202864 
L 142.010182 54.115996 
L 145.256727 54.177541 
L 148.503273 54.003389 
L 151.749818 54.26267 
L 154.996364 54.197923 
L 158.242909 54.697443 
L 161.489455 54.753538 
L 164.736 55.297624 
L 167.982545 55.613848 
L 171.229091 54.994547 
L 174.475636 54.725013 
L 177.722182 54.528909 
L 180.968727 54.576723 
L 184.215273 54.772535 
L 187.461818 54.883895 
L 190.708364 54.905169 
L 193.954909 55.07652 
L 197.201455 55.411309 
L 200.448 55.411386 
L 203.694545 55.353504 
L 206.941091 54.938159 
L 210.187636 55.613632 
L 213.434182 54.63522 
L 216.680727 54.297214 
L 219.927273 54.279773 
L 223.173818 54.927275 
L 226.420364 54.256928 
L 229.666909 54.743809 
L 232.913455 54.31524 
L 236.16 54.378541 
L 239.406545 54.439824 
L 242.653091 54.670303 
L 245.899636 54.72489 
L 249.146182 54.468549 
L 252.392727 54.697104 
L 255.639273 54.706387 
L 258.885818 54.661267 
L 262.132364 54.982663 
L 265.378909 55.176612 
L 268.625455 54.772365 
L 271.872 54.791746 
L 275.118545 54.528632 
L 278.365091 54.568241 
L 281.611636 54.279511 
L 284.858182 54.245475 
L 288.104727 53.965427 
L 291.351273 53.787087 
L 294.597818 53.74012 
L 297.844364 53.691167 
L 301.090909 53.712504 
L 304.337455 53.763858 
L 307.584 53.812718 
L 310.830545 53.982283 
L 314.077091 53.819045 
L 317.323636 53.781653 
L 320.570182 53.672926 
L 323.816727 53.637581 
L 327.063273 53.633086 
L 330.309818 53.60356 
L 333.556364 53.585749 
L 336.802909 53.575913 
L 340.049455 53.581008 
L 343.296 53.568 
L 346.542545 53.571849 
L 349.789091 53.57953 
L 353.035636 53.581239 
L 356.282182 53.584949 
L 359.528727 53.582424 
L 362.775273 53.591445 
L 366.021818 53.596433 
L 369.268364 53.597541 
L 372.514909 53.610026 
L 375.761455 53.601297 
L 379.008 53.628144 
L 382.254545 53.647556 
L 385.501091 53.65299 
L 388.747636 53.636349 
L 391.994182 53.651482 
L 395.240727 53.629945 
L 398.487273 53.608979 
" clip-path="url(#p0f8b2e2b47)" style="fill: none; stroke: #2ca02c; stroke-width: 1.5; stroke-linecap: square"/>
   </g>
   <g id="line2d_15">
    <path d="M 73.832727 192.742934 
L 73.865193 196.838163 
L 77.079273 211.386844 
L 80.325818 186.047265 
L 83.572364 161.956464 
L 86.818909 154.487585 
L 90.065455 139.709525 
L 93.312 157.442264 
L 96.558545 150.089703 
L 99.805091 139.245766 
L 103.051636 142.949132 
L 106.298182 124.031347 
L 109.544727 156.953243 
L 112.791273 149.124175 
L 116.037818 143.415078 
L 119.284364 138.331731 
L 122.530909 146.247051 
L 125.777455 136.522782 
L 129.024 122.000971 
L 132.270545 129.053811 
L 135.517091 112.058722 
L 138.763636 123.618065 
L 142.010182 116.515379 
L 145.256727 121.59697 
L 148.503273 106.469759 
L 151.749818 128.204185 
L 154.996364 123.209415 
L 158.242909 155.951016 
L 161.489455 158.931003 
L 164.736 182.936099 
L 167.982545 193.752411 
L 171.229091 170.572411 
L 174.475636 157.429672 
L 177.722182 146.235013 
L 180.968727 149.107796 
L 184.215273 159.920053 
L 187.461818 165.456814 
L 190.708364 166.467908 
L 193.954909 174.14185 
L 197.201455 187.041041 
L 200.448 187.042796 
L 203.694545 184.982247 
L 206.941091 167.999196 
L 210.187636 193.7347 
L 213.434182 152.489982 
L 216.680727 130.754063 
L 219.927273 129.462337 
L 223.173818 167.486498 
L 226.420364 127.75408 
L 229.666909 158.411163 
L 232.913455 132.059429 
L 236.16 136.496981 
L 239.406545 140.601762 
L 242.653091 154.451609 
L 245.899636 157.415125 
L 249.146182 142.459557 
L 252.392727 155.928787 
L 255.639273 156.425629 
L 258.885818 153.957231 
L 262.132364 170.035638 
L 265.378909 178.259623 
L 268.625455 159.904335 
L 271.872 160.902221 
L 275.118545 146.216895 
L 278.365091 148.606383 
L 281.611636 129.451453 
L 284.858182 126.902268 
L 288.104727 102.831417 
L 291.351273 83.991526 
L 294.597818 78.471282 
L 297.844364 72.414788 
L 301.090909 75.091251 
L 304.337455 81.303163 
L 307.584 86.889247 
L 310.830545 104.432301 
L 314.077091 87.593015 
L 317.323636 83.344177 
L 320.570182 70.04388 
L 323.816727 65.374755 
L 327.063273 64.759534 
L 330.309818 60.714528 
L 333.556364 58.212879 
L 336.802909 56.796092 
L 340.049455 57.534758 
L 343.296 55.668343 
L 346.542545 56.235612 
L 349.789091 57.350168 
L 353.035636 57.629385 
L 356.282182 58.175657 
L 359.528727 57.826844 
L 362.775273 59.134426 
L 366.021818 59.87808 
L 369.268364 60.027324 
L 372.514909 61.790415 
L 375.761455 60.552183 
L 379.008 64.344234 
L 382.254545 67.015387 
L 385.501091 67.746602 
L 388.747636 65.469936 
L 391.994182 67.53224 
L 395.240727 64.592478 
L 398.487273 61.664338 
" clip-path="url(#p0f8b2e2b47)" style="fill: none; stroke: #d62728; stroke-width: 1.5; stroke-linecap: square"/>
   </g>
   <g id="line2d_16">
    <path d="M 73.832727 290.330041 
L 73.865193 291.557778 
L 77.079273 295.488 
L 80.325818 288.189987 
L 83.572364 278.785168 
L 86.818909 275.170117 
L 90.065455 266.654993 
L 93.312 276.648245 
L 96.558545 272.842871 
L 99.805091 266.352774 
L 103.051636 268.701129 
L 106.298182 254.900689 
L 109.544727 276.40808 
L 112.791273 272.310226 
L 116.037818 268.986284 
L 119.284364 265.749975 
L 122.530909 270.673486 
L 125.777455 264.528322 
L 129.024 253.106275 
L 132.270545 259.043943 
L 135.517091 243.140404 
L 138.763636 254.541092 
L 142.010182 247.869396 
L 145.256727 252.740394 
L 148.503273 236.497244 
L 151.749818 258.370736 
L 154.996364 254.182928 
L 158.242909 275.910342 
L 161.489455 277.368612 
L 164.736 287.134599 
L 167.982545 290.638175 
L 171.229091 282.501208 
L 174.475636 276.642046 
L 177.722182 270.666601 
L 180.968727 272.301198 
L 184.215273 277.838648 
L 187.461818 280.349116 
L 190.708364 280.78662 
L 193.954909 283.916696 
L 197.201455 288.518649 
L 200.448 288.519198 
L 203.694545 287.833221 
L 206.941091 281.437559 
L 210.187636 290.632804 
L 213.434182 274.132661 
L 216.680727 260.359395 
L 219.927273 259.363961 
L 223.173818 281.221221 
L 226.420364 258.009897 
L 229.666909 277.118856 
L 232.913455 261.341313 
L 236.16 264.510677 
L 239.406545 267.229674 
L 242.653091 275.151694 
L 245.899636 276.634872 
L 249.146182 268.398914 
L 252.392727 275.899192 
L 255.639273 276.146917 
L 258.885818 274.897651 
L 262.132364 282.282417 
L 265.378909 285.468797 
L 268.625455 277.831179 
L 271.872 278.298625 
L 275.118545 270.656018 
L 278.365091 272.021139 
L 281.611636 259.355309 
L 284.858182 257.317928 
L 288.104727 231.673333 
L 291.351273 197.503491 
L 294.597818 183.102623 
L 297.844364 163.608995 
L 301.090909 172.781897 
L 304.337455 190.830552 
L 307.584 204.068511 
L 310.830545 233.848983 
L 314.077091 205.573891 
L 317.323636 195.950821 
L 320.570182 154.6134 
L 323.816727 133.962666 
L 327.063273 130.898274 
L 330.309818 108.265962 
L 333.556364 91.674227 
L 336.802909 81.191233 
L 340.049455 86.763724 
L 343.296 72.198841 
L 346.542545 76.797615 
L 349.789091 85.393304 
L 353.035636 87.46001 
L 356.282182 91.409558 
L 359.528727 88.902367 
L 362.775273 98.053179 
L 366.021818 102.968854 
L 369.268364 103.931288 
L 372.514909 114.745745 
L 375.761455 107.257316 
L 379.008 128.779151 
L 382.254545 141.718535 
L 385.501091 144.99204 
L 388.747636 134.430583 
L 391.994182 144.043938 
L 395.240727 130.05222 
L 398.487273 114.006941 
" clip-path="url(#p0f8b2e2b47)" style="fill: none; stroke: #9467bd; stroke-width: 1.5; stroke-linecap: square"/>
   </g>
   <g id="line2d_17">
    <path d="M 73.832727 265.738965 
L 73.865193 268.112143 
L 77.079273 275.90336 
L 80.325818 261.668913 
L 83.572364 244.727649 
L 86.818909 238.597448 
L 90.065455 224.91762 
L 93.312 241.079793 
L 96.558545 234.755628 
L 99.805091 224.450674 
L 103.051636 228.111807 
L 106.298182 207.613119 
L 109.544727 240.674269 
L 112.791273 233.887591 
L 116.037818 228.561612 
L 119.284364 223.522869 
L 122.530909 231.24548 
L 125.777455 221.657339 
L 129.024 205.118036 
L 132.270545 213.517921 
L 135.517091 191.901867 
L 138.763636 207.110236 
L 142.010182 198.041635 
L 145.256727 204.613851 
L 148.503273 183.653336 
L 151.749818 212.544796 
L 154.996364 206.610939 
L 158.242909 239.836804 
L 161.489455 242.301846 
L 164.736 259.692546 
L 167.982545 266.33213 
L 171.229091 251.244447 
L 174.475636 241.069595 
L 177.722182 231.234735 
L 180.968727 233.873075 
L 184.215273 243.103366 
L 187.461818 247.443282 
L 190.708364 248.209931 
L 193.954909 253.786367 
L 197.201455 262.288737 
L 200.448 262.289811 
L 203.694545 260.998696 
L 206.941091 249.356253 
L 210.187636 266.321739 
L 213.434182 236.875113 
L 216.680727 215.436021 
L 219.927273 213.982789 
L 223.173818 248.974547 
L 226.420364 212.025341 
L 229.666909 241.87728 
L 232.913455 216.881542 
L 236.16 221.630638 
L 239.406545 225.809195 
L 242.653091 238.566999 
L 245.899636 241.057434 
L 249.146182 227.636663 
L 252.392727 239.81797 
L 255.639273 240.234462 
L 258.885818 238.143833 
L 262.132364 250.854567 
L 265.378909 256.612698 
L 268.625455 243.090651 
L 271.872 243.891147 
L 275.118545 231.217593 
L 278.365091 233.41829 
L 281.611636 213.970204 
L 284.858182 211.033505 
L 288.104727 177.922217 
L 291.351273 142.606646 
L 294.597818 130.024064 
L 297.844364 114.721808 
L 301.090909 121.693306 
L 304.337455 136.629016 
L 307.584 148.752626 
L 310.830545 180.480639 
L 314.077091 150.201002 
L 317.323636 141.191876 
L 320.570182 108.247289 
L 323.816727 94.597487 
L 327.063273 92.703024 
L 330.309818 79.636023 
L 333.556364 70.983022 
L 336.802909 65.871674 
L 340.049455 68.556311 
L 343.296 61.687999 
L 346.542545 63.805152 
L 349.789091 67.889243 
L 353.035636 68.896827 
L 356.282182 70.850726 
L 359.528727 69.605967 
L 362.775273 74.224615 
L 366.021818 76.794151 
L 369.268364 77.304693 
L 372.514909 83.218978 
L 375.761455 79.088704 
L 379.008 91.411097 
L 382.254545 99.537946 
L 385.501091 101.68855 
L 388.747636 94.889511 
L 391.994182 101.061491 
L 395.240727 92.185416 
L 398.487273 82.80434 
" clip-path="url(#p0f8b2e2b47)" style="fill: none; stroke: #8c564b; stroke-width: 1.5; stroke-linecap: square"/>
   </g>
   <g id="line2d_18">
    <path d="M 73.832727 216.9261 
L 73.865193 220.733922 
L 77.079273 233.903293 
L 80.325818 210.60148 
L 83.572364 186.774986 
L 86.818909 179.027876 
L 90.065455 163.159967 
L 93.312 182.114174 
L 96.558545 174.382058 
L 99.805091 162.650087 
L 103.051636 166.701804 
L 106.298182 145.494023 
L 109.544727 181.605279 
L 112.791273 173.353615 
L 116.037818 167.208206 
L 119.284364 161.642719 
L 122.530909 170.270212 
L 125.777455 159.640374 
L 129.024 143.140249 
L 132.270545 151.250165 
L 135.517091 131.386156 
L 138.763636 145.015839 
L 142.010182 136.702276 
L 145.256727 142.669685 
L 148.503273 124.607668 
L 151.749818 150.282636 
L 154.996364 144.542673 
L 158.242909 180.559657 
L 161.489455 183.657939 
L 164.736 207.619723 
L 167.982545 217.868736 
L 171.229091 195.494897 
L 174.475636 182.100581 
L 177.722182 170.25705 
L 180.968727 173.335789 
L 184.215273 184.680093 
L 187.461818 190.345187 
L 190.708364 191.369296 
L 193.954909 199.041614 
L 197.201455 211.547842 
L 200.448 211.549451 
L 203.694545 209.583583 
L 206.941091 192.9143 
L 210.187636 217.852372 
L 213.434182 176.925225 
L 216.680727 153.177709 
L 219.927273 151.714124 
L 223.173818 192.398101 
L 226.420364 149.769338 
L 229.666909 183.119495 
L 232.913455 154.650438 
L 236.16 159.61131 
L 239.406545 164.138579 
L 242.653091 178.989899 
L 245.899636 182.085511 
L 249.146182 166.168448 
L 252.392727 180.536443 
L 255.639273 181.054974 
L 258.885818 178.47069 
L 262.132364 194.958547 
L 265.378909 203.086404 
L 268.625455 184.664045 
L 271.872 185.692187 
L 275.118545 170.237607 
L 278.365091 172.800355 
L 281.611636 151.70164 
L 284.858182 148.795283 
L 288.104727 120.126473 
L 291.351273 96.017923 
L 294.597818 88.652615 
L 297.844364 80.406216 
L 301.090909 84.072236 
L 304.337455 92.448653 
L 307.584 99.827893 
L 310.830545 122.104695 
L 314.077091 100.747253 
L 317.323636 95.161446 
L 320.570182 77.129617 
L 323.816727 70.595678 
L 327.063273 69.726502 
L 330.309818 63.963956 
L 333.556364 60.357957 
L 336.802909 58.30101 
L 340.049455 59.374619 
L 343.296 56.656161 
L 346.542545 57.484327 
L 349.789091 59.106886 
L 353.035636 59.512287 
L 356.282182 60.304386 
L 359.528727 59.799077 
L 362.775273 61.690893 
L 366.021818 62.762808 
L 369.268364 62.977524 
L 372.514909 65.505958 
L 375.761455 63.732076 
L 379.008 69.14016 
L 382.254545 72.905702 
L 385.501091 73.930389 
L 388.747636 70.731561 
L 391.994182 73.630237 
L 395.240727 69.491851 
L 398.487273 65.326249 
" clip-path="url(#p0f8b2e2b47)" style="fill: none; stroke: #e377c2; stroke-width: 1.5; stroke-linecap: square"/>
   </g>
   <g id="line2d_19">
    <path d="M 73.832727 165.216037 
L 73.865193 169.288505 
L 77.079273 184.218681 
L 80.325818 158.675755 
L 83.572364 136.2881 
L 86.818909 129.689398 
L 90.065455 117.076274 
L 93.312 132.28141 
L 96.558545 125.875334 
L 99.805091 116.6897 
L 103.051636 119.792454 
L 106.298182 104.302422 
L 109.544727 131.850871 
L 112.791273 125.045197 
L 116.037818 120.185494 
L 119.284364 115.929498 
L 122.530909 122.585235 
L 125.777455 114.430645 
L 129.024 102.691762 
L 132.270545 108.329001 
L 135.517091 94.942467 
L 138.763636 103.973637 
L 142.010182 98.388107 
L 145.256727 102.372414 
L 148.503273 90.684962 
L 151.749818 107.643706 
L 154.996364 103.649362 
L 158.242909 130.970595 
L 161.489455 133.596966 
L 164.736 155.686101 
L 167.982545 166.215708 
L 171.229091 144.097048 
L 174.475636 132.270958 
L 177.722182 122.575644 
L 180.968727 125.031696 
L 184.215273 134.47444 
L 187.461818 139.435543 
L 190.708364 140.350932 
L 193.954909 147.395767 
L 197.201455 159.638435 
L 200.448 159.640113 
L 203.694545 157.64956 
L 206.941091 141.742796 
L 210.187636 166.198451 
L 213.434182 127.951215 
L 216.680727 109.706441 
L 219.927273 108.659618 
L 223.173818 141.275912 
L 226.420364 107.281562 
L 229.666909 133.137147 
L 232.913455 110.768258 
L 236.16 114.409679 
L 239.406545 117.822006 
L 242.653091 129.658472 
L 245.899636 132.257934 
L 249.146182 119.380557 
L 252.392727 130.950937 
L 255.639273 131.387034 
L 258.885818 129.226932 
L 262.132364 143.604316 
L 265.378909 151.248025 
L 268.625455 134.460077 
L 271.872 135.347788 
L 275.118545 122.559973 
L 278.365091 124.600926 
L 281.611636 108.650489 
L 284.858182 106.596713 
L 288.104727 87.950063 
L 291.351273 74.236637 
L 294.597818 70.355147 
L 297.844364 66.164699 
L 301.090909 68.007915 
L 304.337455 72.338957 
L 307.584 76.298403 
L 310.830545 89.149795 
L 314.077091 76.801494 
L 317.323636 73.778111 
L 320.570182 64.543294 
L 323.816727 61.381227 
L 327.063273 60.967713 
L 330.309818 58.265373 
L 333.556364 56.608978 
L 336.802909 55.675732 
L 340.049455 56.161782 
L 343.296 54.935542 
L 346.542545 55.307661 
L 349.789091 56.040493 
L 353.035636 56.224312 
L 356.282182 56.584548 
L 359.528727 56.354453 
L 362.775273 57.218119 
L 366.021818 57.710681 
L 369.268364 57.809602 
L 372.514909 58.981687 
L 375.761455 58.158154 
L 379.008 60.689944 
L 382.254545 62.489211 
L 385.501091 62.984174 
L 388.747636 61.446759 
L 391.994182 62.839116 
L 395.240727 60.856815 
L 398.487273 58.898174 
" clip-path="url(#p0f8b2e2b47)" style="fill: none; stroke: #7f7f7f; stroke-width: 1.5; stroke-linecap: square"/>
   </g>
   <g id="patch_3">
    <path d="M 57.6 307.584 
L 57.6 41.472 
" style="fill: none; stroke: #000000; stroke-width: 0.8; stroke-linejoin: miter; stroke-linecap: square"/>
   </g>
   <g id="patch_4">
    <path d="M 414.72 307.584 
L 414.72 41.472 
" style="fill: none; stroke: #000000; stroke-width: 0.8; stroke-linejoin: miter; stroke-linecap: square"/>
   </g>
   <g id="patch_5">
    <path d="M 57.6 307.584 
L 414.72 307.584 
" style="fill: none; stroke: #000000; stroke-width: 0.8; stroke-linejoin: miter; stroke-linecap: square"/>
   </g>
   <g id="patch_6">
    <path d="M 57.6 41.472 
L 414.72 41.472 
" style="fill: none; stroke: #000000; stroke-width: 0.8; stroke-linejoin: miter; stroke-linecap: square"/>
   </g>
   <g id="text_13">
    <!-- Node Beliefs -->
    <g transform="translate(198.520312 35.472) scale(0.12 -0.12)">
     <defs>
      <path id="DejaVuSans-4e" d="M 628 4666 
L 1478 4666 
L 3547 763 
L 3547 4666 
L 4159 4666 
L 4159 0 
L 3309 0 
L 1241 3903 
L 1241 0 
L 628 0 
L 628 4666 
z
" transform="scale(0.015625)"/>
      <path id="DejaVuSans-64" d="M 2906 2969 
L 2906 4863 
L 3481 4863 
L 3481 0 
L 2906 0 
L 2906 525 
Q 2725 213 2448 61 
Q 2172 -91 1784 -91 
Q 1150 -91 751 415 
Q 353 922 353 1747 
Q 353 2572 751 3078 
Q 1150 3584 1784 3584 
Q 2172 3584 2448 3432 
Q 2725 3281 2906 2969 
z
M 947 1747 
Q 947 1113 1208 752 
Q 1469 391 1925 391 
Q 2381 391 2643 752 
Q 2906 1113 2906 1747 
Q 2906 2381 2643 2742 
Q 2381 3103 1925 3103 
Q 1469 3103 1208 2742 
Q 947 2381 947 1747 
z
" transform="scale(0.015625)"/>
      <path id="DejaVuSans-20" transform="scale(0.015625)"/>
      <path id="DejaVuSans-42" d="M 1259 2228 
L 1259 519 
L 2272 519 
Q 2781 519 3026 730 
Q 3272 941 3272 1375 
Q 3272 1813 3026 2020 
Q 2781 2228 2272 2228 
L 1259 2228 
z
M 1259 4147 
L 1259 2741 
L 2194 2741 
Q 2656 2741 2882 2914 
Q 3109 3088 3109 3444 
Q 3109 3797 2882 3972 
Q 2656 4147 2194 4147 
L 1259 4147 
z
M 628 4666 
L 2241 4666 
Q 2963 4666 3353 4366 
Q 3744 4066 3744 3513 
Q 3744 3084 3544 2831 
Q 3344 2578 2956 2516 
Q 3422 2416 3680 2098 
Q 3938 1781 3938 1306 
Q 3938 681 3513 340 
Q 3088 0 2303 0 
L 628 0 
L 628 4666 
z
" transform="scale(0.015625)"/>
      <path id="DejaVuSans-6c" d="M 603 4863 
L 1178 4863 
L 1178 0 
L 603 0 
L 603 4863 
z
" transform="scale(0.015625)"/>
      <path id="DejaVuSans-66" d="M 2375 4863 
L 2375 4384 
L 1825 4384 
Q 1516 4384 1395 4259 
Q 1275 4134 1275 3809 
L 1275 3500 
L 2222 3500 
L 2222 3053 
L 1275 3053 
L 1275 0 
L 697 0 
L 697 3053 
L 147 3053 
L 147 3500 
L 697 3500 
L 697 3744 
Q 697 4328 969 4595 
Q 1241 4863 1831 4863 
L 2375 4863 
z
" transform="scale(0.015625)"/>
      <path id="DejaVuSans-73" d="M 2834 3397 
L 2834 2853 
Q 2591 2978 2328 3040 
Q 2066 3103 1784 3103 
Q 1356 3103 1142 2972 
Q 928 2841 928 2578 
Q 928 2378 1081 2264 
Q 1234 2150 1697 2047 
L 1894 2003 
Q 2506 1872 2764 1633 
Q 3022 1394 3022 966 
Q 3022 478 2636 193 
Q 2250 -91 1575 -91 
Q 1294 -91 989 -36 
Q 684 19 347 128 
L 347 722 
Q 666 556 975 473 
Q 1284 391 1588 391 
Q 1994 391 2212 530 
Q 2431 669 2431 922 
Q 2431 1156 2273 1281 
Q 2116 1406 1581 1522 
L 1381 1569 
Q 847 1681 609 1914 
Q 372 2147 372 2553 
Q 372 3047 722 3315 
Q 1072 3584 1716 3584 
Q 2034 3584 2315 3537 
Q 2597 3491 2834 3397 
z
" transform="scale(0.015625)"/>
     </defs>
     <use xlink:href="#DejaVuSans-4e"/>
     <use xlink:href="#DejaVuSans-6f" x="74.804688"/>
     <use xlink:href="#DejaVuSans-64" x="135.986328"/>
     <use xlink:href="#DejaVuSans-65" x="199.462891"/>
     <use xlink:href="#DejaVuSans-20" x="260.986328"/>
     <use xlink:href="#DejaVuSans-42" x="292.773438"/>
     <use xlink:href="#DejaVuSans-65" x="361.376953"/>
     <use xlink:href="#DejaVuSans-6c" x="422.900391"/>
     <use xlink:href="#DejaVuSans-69" x="450.683594"/>
     <use xlink:href="#DejaVuSans-65" x="478.466797"/>
     <use xlink:href="#DejaVuSans-66" x="539.990234"/>
     <use xlink:href="#DejaVuSans-73" x="575.195312"/>
    </g>
   </g>
   <g id="legend_1">
    <g id="patch_7">
     <path d="M 369.3575 302.584 
L 407.72 302.584 
Q 409.72 302.584 409.72 300.584 
L 409.72 169.480875 
Q 409.72 167.480875 407.72 167.480875 
L 369.3575 167.480875 
Q 367.3575 167.480875 367.3575 169.480875 
L 367.3575 300.584 
Q 367.3575 302.584 369.3575 302.584 
z
" style="fill: #ffffff; opacity: 0.8; stroke: #cccccc; stroke-linejoin: miter"/>
    </g>
    <g id="text_14">
     <!-- node -->
     <g transform="translate(376.059844 179.079313) scale(0.1 -0.1)">
      <use xlink:href="#DejaVuSans-6e"/>
      <use xlink:href="#DejaVuSans-6f" x="63.378906"/>
      <use xlink:href="#DejaVuSans-64" x="124.560547"/>
      <use xlink:href="#DejaVuSans-65" x="188.037109"/>
     </g>
    </g>
    <g id="line2d_20">
     <path d="M 371.3575 190.257438 
L 381.3575 190.257438 
L 391.3575 190.257438 
" style="fill: none; stroke: #1f77b4; stroke-width: 1.5; stroke-linecap: square"/>
    </g>
    <g id="text_15">
     <!-- 0 -->
     <g transform="translate(399.3575 193.757438) scale(0.1 -0.1)">
      <use xlink:href="#DejaVuSans-30"/>
     </g>
    </g>
    <g id="line2d_21">
     <path d="M 371.3575 204.935563 
L 381.3575 204.935563 
L 391.3575 204.935563 
" style="fill: none; stroke: #ff7f0e; stroke-width: 1.5; stroke-linecap: square"/>
    </g>
    <g id="text_16">
     <!-- 1 -->
     <g transform="translate(399.3575 208.435563) scale(0.1 -0.1)">
      <use xlink:href="#DejaVuSans-31"/>
     </g>
    </g>
    <g id="line2d_22">
     <path d="M 371.3575 219.613688 
L 381.3575 219.613688 
L 391.3575 219.613688 
" style="fill: none; stroke: #2ca02c; stroke-width: 1.5; stroke-linecap: square"/>
    </g>
    <g id="text_17">
     <!-- 2 -->
     <g transform="translate(399.3575 223.113688) scale(0.1 -0.1)">
      <use xlink:href="#DejaVuSans-32"/>
     </g>
    </g>
    <g id="line2d_23">
     <path d="M 371.3575 234.291813 
L 381.3575 234.291813 
L 391.3575 234.291813 
" style="fill: none; stroke: #d62728; stroke-width: 1.5; stroke-linecap: square"/>
    </g>
    <g id="text_18">
     <!-- 3 -->
     <g transform="translate(399.3575 237.791813) scale(0.1 -0.1)">
      <defs>
       <path id="DejaVuSans-33" d="M 2597 2516 
Q 3050 2419 3304 2112 
Q 3559 1806 3559 1356 
Q 3559 666 3084 287 
Q 2609 -91 1734 -91 
Q 1441 -91 1130 -33 
Q 819 25 488 141 
L 488 750 
Q 750 597 1062 519 
Q 1375 441 1716 441 
Q 2309 441 2620 675 
Q 2931 909 2931 1356 
Q 2931 1769 2642 2001 
Q 2353 2234 1838 2234 
L 1294 2234 
L 1294 2753 
L 1863 2753 
Q 2328 2753 2575 2939 
Q 2822 3125 2822 3475 
Q 2822 3834 2567 4026 
Q 2313 4219 1838 4219 
Q 1578 4219 1281 4162 
Q 984 4106 628 3988 
L 628 4550 
Q 988 4650 1302 4700 
Q 1616 4750 1894 4750 
Q 2613 4750 3031 4423 
Q 3450 4097 3450 3541 
Q 3450 3153 3228 2886 
Q 3006 2619 2597 2516 
z
" transform="scale(0.015625)"/>
      </defs>
      <use xlink:href="#DejaVuSans-33"/>
     </g>
    </g>
    <g id="line2d_24">
     <path d="M 371.3575 248.969938 
L 381.3575 248.969938 
L 391.3575 248.969938 
" style="fill: none; stroke: #9467bd; stroke-width: 1.5; stroke-linecap: square"/>
    </g>
    <g id="text_19">
     <!-- 4 -->
     <g transform="translate(399.3575 252.469938) scale(0.1 -0.1)">
      <use xlink:href="#DejaVuSans-34"/>
     </g>
    </g>
    <g id="line2d_25">
     <path d="M 371.3575 263.648063 
L 381.3575 263.648063 
L 391.3575 263.648063 
" style="fill: none; stroke: #8c564b; stroke-width: 1.5; stroke-linecap: square"/>
    </g>
    <g id="text_20">
     <!-- 5 -->
     <g transform="translate(399.3575 267.148063) scale(0.1 -0.1)">
      <defs>
       <path id="DejaVuSans-35" d="M 691 4666 
L 3169 4666 
L 3169 4134 
L 1269 4134 
L 1269 2991 
Q 1406 3038 1543 3061 
Q 1681 3084 1819 3084 
Q 2600 3084 3056 2656 
Q 3513 2228 3513 1497 
Q 3513 744 3044 326 
Q 2575 -91 1722 -91 
Q 1428 -91 1123 -41 
Q 819 9 494 109 
L 494 744 
Q 775 591 1075 516 
Q 1375 441 1709 441 
Q 2250 441 2565 725 
Q 2881 1009 2881 1497 
Q 2881 1984 2565 2268 
Q 2250 2553 1709 2553 
Q 1456 2553 1204 2497 
Q 953 2441 691 2322 
L 691 4666 
z
" transform="scale(0.015625)"/>
      </defs>
      <use xlink:href="#DejaVuSans-35"/>
     </g>
    </g>
    <g id="line2d_26">
     <path d="M 371.3575 278.326188 
L 381.3575 278.326188 
L 391.3575 278.326188 
" style="fill: none; stroke: #e377c2; stroke-width: 1.5; stroke-linecap: square"/>
    </g>
    <g id="text_21">
     <!-- 6 -->
     <g transform="translate(399.3575 281.826188) scale(0.1 -0.1)">
      <use xlink:href="#DejaVuSans-36"/>
     </g>
    </g>
    <g id="line2d_27">
     <path d="M 371.3575 293.004313 
L 381.3575 293.004313 
L 391.3575 293.004313 
" style="fill: none; stroke: #7f7f7f; stroke-width: 1.5; stroke-linecap: square"/>
    </g>
    <g id="text_22">
     <!-- 7 -->
     <g transform="translate(399.3575 296.504313) scale(0.1 -0.1)">
      <defs>
       <path id="DejaVuSans-37" d="M 525 4666 
L 3525 4666 
L 3525 4397 
L 1831 0 
L 1172 0 
L 2766 4134 
L 525 4134 
L 525 4666 
z
" transform="scale(0.015625)"/>
      </defs>
      <use xlink:href="#DejaVuSans-37"/>
     </g>
    </g>
   </g>
  </g>
 </g>
 <defs>
  <clipPath id="p0f8b2e2b47">
   <rect x="57.6" y="41.472" width="357.12" height="266.112"/>
  </clipPath>
 </defs>
</svg>
